<?xml version="1.0" encoding="utf-8"?>
<!-- Generator: Adobe Illustrator 24.2.3, SVG Export Plug-In . SVG Version: 6.00 Build 0)  -->
<svg version="1.1" id="Layer_1" xmlns="http://www.w3.org/2000/svg" xmlns:xlink="http://www.w3.org/1999/xlink" x="0px" y="0px"
	 viewBox="0 0 50 50" style="enable-background:new 0 0 50 50;" xml:space="preserve">
<style type="text/css">
	.st0{fill:#1E0B4B;}
</style>
<g>
	<path class="st0" d="M45.1,2.6H4.9C3,2.6,1.5,4.1,1.5,6v32.8c0,1.9,1.5,3.4,3.4,3.4h0.2c-1.2,1.2-1.2,3.1,0,4.3
		c0.6,0.6,1.4,0.9,2.2,0.9c0.8,0,1.5-0.3,2.1-0.9l4.5-4.4h31.2c1.9,0,3.4-1.5,3.4-3.4V6C48.5,4.1,47,2.6,45.1,2.6z M4.9,4.1h40.2
		c1,0,1.9,0.9,1.9,1.9v5.2H3V6C3,4.9,3.9,4.1,4.9,4.1z M9.6,39.9l2.2,2.2l-1.2,1.2l-2.2-2.2L9.6,39.9z M10.7,38.8l1.2-1.1
		c0.3-0.3,0.7-0.4,1.1-0.4c0,0,0,0,0,0c0.4,0,0.8,0.2,1.1,0.5c0.6,0.6,0.6,1.6,0,2.2L12.9,41L10.7,38.8z M8.3,45.5
		c-0.6,0.6-1.6,0.6-2.2,0c-0.6-0.6-0.6-1.6,0-2.2l1.2-1.1l2.2,2.2L8.3,45.5z M45.1,40.7H15.4c0,0,0,0,0,0c0.8-1,0.8-2.3,0.2-3.4
		l1.3-1.2c2.3,2.1,5.3,3.2,8.2,3.2c3.1,0,6.2-1.1,8.5-3.5c4.8-4.7,4.9-12.5,0.2-17.3c0,0,0,0,0,0c-4.7-4.8-12.5-4.9-17.3-0.2
		c-4.6,4.5-4.9,11.9-0.7,16.7l-1.3,1.2c-0.5-0.3-1-0.4-1.6-0.5c-0.8,0-1.6,0.3-2.2,0.9l-4.2,4.1H4.9c-1,0-1.9-0.9-1.9-1.9V12.7h44
		v26.1C47,39.8,46.1,40.7,45.1,40.7z M17.4,34.5c-4.1-4.2-4-11,0.2-15.1c2.1-2,4.8-3,7.5-3c2.8,0,5.6,1.1,7.7,3.2
		c4.1,4.2,4,11-0.2,15.1C28.3,38.8,21.5,38.7,17.4,34.5z"/>
	<path class="st0" d="M36.2,10.1c1.3,0,2.4-1.1,2.4-2.4c0-1.3-1.1-2.4-2.4-2.4s-2.4,1.1-2.4,2.4C33.7,9,34.8,10.1,36.2,10.1z
		 M36.2,6.7c0.5,0,0.9,0.4,0.9,0.9c0,0.5-0.4,0.9-0.9,0.9s-0.9-0.4-0.9-0.9C35.2,7.1,35.7,6.7,36.2,6.7z"/>
	<path class="st0" d="M29.5,10.1c1.3,0,2.4-1.1,2.4-2.4c0-1.3-1.1-2.4-2.4-2.4s-2.4,1.1-2.4,2.4C27.1,9,28.2,10.1,29.5,10.1z
		 M29.5,6.7c0.5,0,0.9,0.4,0.9,0.9c0,0.5-0.4,0.9-0.9,0.9c-0.5,0-0.9-0.4-0.9-0.9C28.6,7.1,29,6.7,29.5,6.7z"/>
	<path class="st0" d="M42.8,10.1c1.3,0,2.4-1.1,2.4-2.4c0-1.3-1.1-2.4-2.4-2.4s-2.4,1.1-2.4,2.4C40.4,9,41.5,10.1,42.8,10.1z
		 M42.8,6.7c0.5,0,0.9,0.4,0.9,0.9c0,0.5-0.4,0.9-0.9,0.9s-0.9-0.4-0.9-0.9C41.9,7.1,42.3,6.7,42.8,6.7z"/>
	<path class="st0" d="M22.1,27c0,1.6,1.3,3,3,3c1.6,0,3-1.3,3-3c0-1.6-1.3-3-3-3C23.4,24,22.1,25.4,22.1,27z M26.5,27
		c0,0.8-0.6,1.4-1.4,1.4c-0.8,0-1.4-0.6-1.4-1.4s0.6-1.4,1.4-1.4C25.9,25.6,26.5,26.2,26.5,27z"/>
	<path class="st0" d="M34.4,27C34.4,27,34.4,27,34.4,27c0-5.2-4.2-9.4-9.4-9.4c-5.2,0-9.4,4.2-9.4,9.4c0,0,0,0,0,0
		c0,5.2,4.2,9.4,9.4,9.4C30.2,36.4,34.4,32.2,34.4,27z M25.1,19.1c3.3,0,6.2,2.1,7.3,5.1c-1.9-1.7-4.3-2.7-7-2.8
		c-2.9-0.1-5.7,1-7.7,2.9C18.8,21.3,21.7,19.1,25.1,19.1z M32.8,27c-1.6,2.5-4.4,4-7.4,4.1c-3.2,0.1-6.2-1.4-8-4.1
		c1.9-2.6,4.8-4.1,8-4.1C28.4,23,31.2,24.5,32.8,27z M17.7,29.6c2,1.9,4.7,2.9,7.5,2.9c0.1,0,0.2,0,0.2,0c2.7-0.1,5.1-1.1,7-2.8
		c-1.1,3-4,5.1-7.3,5.1C21.7,34.9,18.8,32.7,17.7,29.6z"/>
</g>
</svg>
