<?xml version="1.0" encoding="utf-8"?>
<!-- Generator: Adobe Illustrator 24.2.3, SVG Export Plug-In . SVG Version: 6.00 Build 0)  -->
<svg version="1.1" id="Layer_1" xmlns="http://www.w3.org/2000/svg" xmlns:xlink="http://www.w3.org/1999/xlink" x="0px" y="0px"
	 viewBox="0 0 50 50" style="enable-background:new 0 0 50 50;" xml:space="preserve">
<style type="text/css">
	.st0{fill:#1E0B4B;}
</style>
<g>
	<path class="st0" d="M25,10c-8.3,0-15,6.7-15,15c0,4.3,1.8,8.3,5,11.2c2.8,2.5,6.3,3.8,10,3.8s7.3-1.4,10-3.8c3.2-2.8,5-6.9,5-11.2
		C40,16.7,33.3,10,25,10z M31,36.5V34c0-0.6-0.4-1-1-1s-1,0.4-1,1v3.4c-1.3,0.4-2.6,0.6-4,0.6s-2.7-0.2-4-0.6V34c0-0.6-0.4-1-1-1
		s-1,0.4-1,1v2.5c-0.7-0.4-1.4-0.8-2-1.3c0-0.1,0-0.1,0-0.2v-3c0-1.7,1.3-3,3-3h1.6l2.7,2.7c0.4,0.4,1,0.4,1.4,0l2.7-2.7H30
		c1.7,0,3,1.3,3,3v3c0,0.1,0,0.1,0,0.2C32.4,35.7,31.7,36.1,31,36.5z M35,33.3V32c0-2.8-2.2-5-5-5h-2c-0.3,0-0.5,0.1-0.7,0.3
		L25,29.6l-2.3-2.3C22.5,27.1,22.3,27,22,27h-2c-2.8,0-5,2.2-5,5v1.3C13.1,31,12,28,12,25c0-7.2,5.8-13,13-13s13,5.8,13,13
		C38,28,36.9,31,35,33.3z"/>
	<path class="st0" d="M25,15c-2.8,0-5,2.2-5,5s2.2,5,5,5s5-2.2,5-5S27.8,15,25,15z M25,23c-1.7,0-3-1.3-3-3s1.3-3,3-3s3,1.3,3,3
		S26.7,23,25,23z"/>
	<path class="st0" d="M48,24h-2.1C45.4,13.2,36.8,4.6,26,4.1V2c0-0.6-0.4-1-1-1s-1,0.4-1,1v2.1C13.2,4.6,4.6,13.2,4.1,24H2
		c-0.6,0-1,0.4-1,1s0.4,1,1,1h2.1C4.6,36.8,13.2,45.4,24,45.9V48c0,0.6,0.4,1,1,1s1-0.4,1-1v-2.1c10.8-0.5,19.4-9.2,19.9-19.9H48
		c0.6,0,1-0.4,1-1S48.6,24,48,24z M43,26h0.9c-0.5,9.7-8.3,17.4-17.9,17.9V43c0-0.6-0.4-1-1-1s-1,0.4-1,1v0.9
		C14.3,43.4,6.6,35.7,6.1,26H7c0.6,0,1-0.4,1-1s-0.4-1-1-1H6.1C6.6,14.3,14.3,6.6,24,6.1V7c0,0.6,0.4,1,1,1s1-0.4,1-1V6.1
		c9.7,0.5,17.4,8.3,17.9,17.9H43c-0.6,0-1,0.4-1,1S42.4,26,43,26z"/>
	<path class="st0" d="M17,22h-1c-0.6,0-1,0.4-1,1s0.4,1,1,1h1c0.6,0,1-0.4,1-1S17.6,22,17,22z"/>
	<path class="st0" d="M33,22c-0.6,0-1,0.4-1,1s0.4,1,1,1h1c0.6,0,1-0.4,1-1s-0.4-1-1-1H33z"/>
</g>
</svg>
