<?xml version="1.0" encoding="utf-8"?>
<!-- Generator: Adobe Illustrator 24.2.3, SVG Export Plug-In . SVG Version: 6.00 Build 0)  -->
<svg version="1.1" id="Layer_1" xmlns="http://www.w3.org/2000/svg" xmlns:xlink="http://www.w3.org/1999/xlink" x="0px" y="0px"
	 viewBox="0 0 50 50" style="enable-background:new 0 0 50 50;" xml:space="preserve">
<style type="text/css">
	.st0{fill:#1E0B4B;}
</style>
<g id="mobile_payment_1_">
	<g>
		<g>
			<path class="st0" d="M37,49.1H13c-2.1,0-3.8-1.7-3.8-3.8V28.8h1.5v16.5c0,1.2,1,2.3,2.3,2.3H37c1.2,0,2.3-1,2.3-2.3V37h1.5v8.3
				C40.8,47.4,39.1,49.1,37,49.1z"/>
		</g>
		<g>
			<path class="st0" d="M10.7,16.7H9.2v-12c0-2.1,1.7-3.8,3.8-3.8H37c2.1,0,3.8,1.7,3.8,3.8v6h-1.5v-6c0-1.2-1-2.3-2.3-2.3H13
				c-1.2,0-2.3,1-2.3,2.3V16.7z"/>
		</g>
		<g>
			<path class="st0" d="M15.2,12.2h-1.5v-6c0-0.4,0.3-0.8,0.8-0.8h21.1c0.4,0,0.8,0.3,0.8,0.8v4.5h-1.5V7H15.2V12.2z"/>
		</g>
		<g>
			<path class="st0" d="M35.5,40H14.5c-0.4,0-0.8-0.3-0.8-0.8v-6h1.5v5.3h19.5V37h1.5v2.3C36.3,39.7,35.9,40,35.5,40z"/>
		</g>
		<g>
			<path class="st0" d="M28,44.5h-6c-0.4,0-0.8-0.3-0.8-0.8c0-0.4,0.3-0.8,0.8-0.8h6c0.4,0,0.8,0.3,0.8,0.8
				C28.8,44.2,28.4,44.5,28,44.5z"/>
		</g>
	</g>
	<g>
		<g>
			<path class="st0" d="M4.7,21.2h-3c-0.4,0-0.8-0.3-0.8-0.8c0-0.4,0.3-0.8,0.8-0.8h3c0.4,0,0.8,0.3,0.8,0.8
				C5.5,20.9,5.1,21.2,4.7,21.2z"/>
		</g>
		<g>
			<path class="st0" d="M16,21.2H9.2c-0.4,0-0.8-0.3-0.8-0.8c0-0.4,0.3-0.8,0.8-0.8H16c0.4,0,0.8,0.3,0.8,0.8
				C16.7,20.9,16.4,21.2,16,21.2z"/>
		</g>
		<g>
			<path class="st0" d="M7,25.8h-3c-0.4,0-0.8-0.3-0.8-0.8c0-0.4,0.3-0.8,0.8-0.8h3c0.4,0,0.8,0.3,0.8,0.8C7.7,25.4,7.4,25.8,7,25.8
				z"/>
		</g>
		<g>
			<path class="st0" d="M18.2,25.8h-6.8c-0.4,0-0.8-0.3-0.8-0.8c0-0.4,0.3-0.8,0.8-0.8h6.8c0.4,0,0.8,0.3,0.8,0.8
				C19,25.4,18.6,25.8,18.2,25.8z"/>
		</g>
	</g>
	<g>
		<g>
			<path class="st0" d="M41.9,30.3H28v-1.5h13.3c0.4-1.2,1.3-2.1,2.5-2.5v-4.1c-1.2-0.4-2.1-1.3-2.5-2.5H28v-1.5h13.9
				c0.4,0,0.7,0.3,0.7,0.7c0.1,1,0.9,1.8,1.9,1.9c0.4,0,0.7,0.4,0.7,0.7v5.3c0,0.4-0.3,0.7-0.7,0.7c-1,0.1-1.8,0.9-1.9,1.9
				C42.6,30,42.3,30.3,41.9,30.3z"/>
		</g>
		<g>
			<path class="st0" d="M48.3,34H27.3c-2.1,0-3.8-1.7-3.8-3.8V13H25v17.3c0,1.2,1,2.3,2.3,2.3h20.3V16.7h1.5v16.5
				C49.1,33.7,48.7,34,48.3,34z"/>
		</g>
		<g>
			<path class="st0" d="M32.5,27.3c-1.7,0-3-1.3-3-3c0-1.7,1.3-3,3-3c1.7,0,3,1.3,3,3C35.5,25.9,34.2,27.3,32.5,27.3z M32.5,22.7
				c-0.8,0-1.5,0.7-1.5,1.5c0,0.8,0.7,1.5,1.5,1.5c0.8,0,1.5-0.7,1.5-1.5C34,23.4,33.3,22.7,32.5,22.7z"/>
		</g>
		<g>
			<path class="st0" d="M48.3,16H26.5c-1.7,0-3-1.3-3-3c0-1.7,1.3-3,3-3h6v1.5h-6c-0.8,0-1.5,0.7-1.5,1.5c0,0.8,0.7,1.5,1.5,1.5
				h21.8V16z"/>
		</g>
		<g>
			<path class="st0" d="M48.3,18.2c-0.4,0-0.8-0.3-0.8-0.8v-2.3c0-0.4,0.3-0.8,0.8-0.8c0.4,0,0.8,0.3,0.8,0.8v2.3
				C49.1,17.9,48.7,18.2,48.3,18.2z"/>
		</g>
	</g>
</g>
</svg>
