<svg xmlns="http://www.w3.org/2000/svg" width="40" height="48" viewBox="0 0 40 48">
  <g id="help-industries-icon" transform="translate(-4)">
    <g id="Group_2753" data-name="Group 2753">
      <path id="Path_6764" data-name="Path 6764" d="M43,48H32a1,1,0,0,1-1-1,7,7,0,0,0-14,0,1,1,0,0,1-1,1H5a1,1,0,0,1-1-1V43a1,1,0,0,1,1-1H9.548a14.85,14.85,0,0,1,1.408-3.387L7.737,35.394a1,1,0,0,1,0-1.415l4.242-4.242a1,1,0,0,1,1.415,0l3.219,3.219A14.85,14.85,0,0,1,20,31.548V27a1,1,0,0,1,1-1h6a1,1,0,0,1,1,1v4.548a14.85,14.85,0,0,1,3.387,1.408l3.219-3.219a1,1,0,0,1,1.415,0l4.242,4.242a1,1,0,0,1,0,1.415l-3.219,3.219A14.85,14.85,0,0,1,38.452,42H43a1,1,0,0,1,1,1v4A1,1,0,0,1,43,48ZM32.945,46H42V44H37.67a1,1,0,0,1-.977-.786A12.871,12.871,0,0,0,34.941,39a1,1,0,0,1,.135-1.248l3.066-3.065-2.829-2.829-3.065,3.066A1,1,0,0,1,31,35.059a12.871,12.871,0,0,0-4.214-1.752A1,1,0,0,1,26,32.33V28H22v4.33a1,1,0,0,1-.786.977A12.871,12.871,0,0,0,17,35.059a1,1,0,0,1-1.248-.135l-3.065-3.066L9.858,34.687l3.066,3.065A1,1,0,0,1,13.059,39a12.871,12.871,0,0,0-1.752,4.214A1,1,0,0,1,10.33,44H6v2h9.055a9,9,0,0,1,17.89,0Z" fill="#877f9b"/>
    </g>
    <g id="Group_2754" data-name="Group 2754">
      <path id="Path_6765" data-name="Path 6765" d="M40,30H38V19H34v4H32V18a1,1,0,0,1,1-1h6a1,1,0,0,1,1,1Z" fill="#877f9b"/>
    </g>
    <g id="Group_2755" data-name="Group 2755">
      <rect id="Rectangle_580" data-name="Rectangle 580" width="10" height="2" transform="translate(31 17)" fill="#877f9b"/>
    </g>
    <g id="Group_2758" data-name="Group 2758">
      <g id="Group_2756" data-name="Group 2756">
        <rect id="Rectangle_581" data-name="Rectangle 581" width="2" height="10" transform="translate(35 8)" fill="#877f9b"/>
      </g>
      <g id="Group_2757" data-name="Group 2757">
        <path id="Path_6766" data-name="Path 6766" d="M37,9H35a1,1,0,0,1-.707-.293l-2-2A1,1,0,0,1,32,6V1a1,1,0,0,1,1-1h6a1,1,0,0,1,1,1V6a1,1,0,0,1-.293.707l-2,2A1,1,0,0,1,37,9ZM35.414,7h1.172L38,5.586V2H34V5.586Z" fill="#877f9b"/>
      </g>
    </g>
    <g id="Group_2759" data-name="Group 2759">
      <path id="Path_6767" data-name="Path 6767" d="M28,24H26V12.191a1,1,0,0,1,.5-.865A4.989,4.989,0,0,0,27,3.007V6a3,3,0,0,1-6,0V3.007a4.989,4.989,0,0,0,.5,8.319,1,1,0,0,1,.5.865V24H20V12.738A6.99,6.99,0,0,1,21.666.406,1,1,0,0,1,23,1.349V6a1,1,0,0,0,2,0V1.349A1,1,0,0,1,26.334.406,6.99,6.99,0,0,1,28,12.738Z" fill="#877f9b"/>
    </g>
    <g id="Group_2760" data-name="Group 2760">
      <rect id="Rectangle_582" data-name="Rectangle 582" width="2" height="2" transform="translate(32 25)" fill="#877f9b"/>
    </g>
    <g id="Group_2761" data-name="Group 2761">
      <rect id="Rectangle_583" data-name="Rectangle 583" width="2" height="2" transform="translate(14 25)" fill="#877f9b"/>
    </g>
    <g id="Group_2767" data-name="Group 2767">
      <g id="Group_2762" data-name="Group 2762">
        <path id="Path_6768" data-name="Path 6768" d="M10,30H8V18a1,1,0,0,1,1-1h6a1,1,0,0,1,1,1v5H14V19H10Z" fill="#877f9b"/>
      </g>
      <g id="Group_2763" data-name="Group 2763">
        <rect id="Rectangle_584" data-name="Rectangle 584" width="10" height="2" transform="translate(7 17)" fill="#877f9b"/>
      </g>
      <g id="Group_2766" data-name="Group 2766">
        <g id="Group_2764" data-name="Group 2764">
          <path id="Path_6769" data-name="Path 6769" d="M15,18H13V10H11v8H9V9a1,1,0,0,1,1-1h4a1,1,0,0,1,1,1Z" fill="#877f9b"/>
        </g>
        <g id="Group_2765" data-name="Group 2765">
          <path id="Path_6770" data-name="Path 6770" d="M15,9H13V4.3L12,2.8,11,4.3V9H9V4a1.006,1.006,0,0,1,.168-.555l2-3a1.039,1.039,0,0,1,1.664,0l2,3A1.006,1.006,0,0,1,15,4Z" fill="#877f9b"/>
        </g>
      </g>
    </g>
  </g>
</svg>
