<?xml version="1.0" encoding="utf-8"?>
<!-- Generator: Adobe Illustrator 24.2.3, SVG Export Plug-In . SVG Version: 6.00 Build 0)  -->
<svg version="1.1" id="Layer_1" xmlns="http://www.w3.org/2000/svg" xmlns:xlink="http://www.w3.org/1999/xlink" x="0px" y="0px"
	 viewBox="0 0 50 50" style="enable-background:new 0 0 50 50;" xml:space="preserve">
<style type="text/css">
	.st0{fill:#1E0B4B;}
</style>
<g>
	<g>
		<g>
			<g>
				<path class="st0" d="M46,41H4c-1.7,0-3-1.3-3-3V8c0-1.7,1.3-3,3-3h15v2H4C3.4,7,3,7.4,3,8v30c0,0.6,0.4,1,1,1h42
					c0.6,0,1-0.4,1-1V28h2v10C49,39.7,47.7,41,46,41z"/>
			</g>
			<g>
				<path class="st0" d="M36,49H14c-0.6,0-1-0.4-1-1v-4c0-0.6,0.4-1,1-1h22c0.6,0,1,0.4,1,1v4C37,48.6,36.6,49,36,49z M15,47h20v-2
					H15V47z"/>
			</g>
			<g>
				<rect x="17" y="40" class="st0" width="2" height="4"/>
			</g>
			<g>
				<rect x="31" y="40" class="st0" width="2" height="4"/>
			</g>
		</g>
		<g>
			<path class="st0" d="M42,37H8c-1.7,0-3-1.3-3-3V12c0-1.7,1.3-3,3-3h11v2H8c-0.6,0-1,0.4-1,1v22c0,0.6,0.4,1,1,1h34
				c0.6,0,1-0.4,1-1v-6h2v6C45,35.7,43.7,37,42,37z"/>
		</g>
	</g>
	<g>
		<path class="st0" d="M35,29H17c-0.4,0-0.8-0.2-0.9-0.6s-0.1-0.8,0.2-1.1l4.7-4.7V15c0-7.7,6.3-14,14-14s14,6.3,14,14
			C49,22.7,42.7,29,35,29z M19.4,27H35c6.6,0,12-5.4,12-12S41.6,3,35,3S23,8.4,23,15v8c0,0.3-0.1,0.5-0.3,0.7L19.4,27z"/>
	</g>
	<g>
		<g>
			<g>
				<path class="st0" d="M36,21h-2v-7h-2v-2h3c0.6,0,1,0.4,1,1V21z"/>
			</g>
			<g>
				<rect x="32" y="20" class="st0" width="6" height="2"/>
			</g>
		</g>
		<g>
			<rect x="34" y="8" class="st0" width="2" height="2"/>
		</g>
	</g>
	<g>
		<path class="st0" d="M11,18H9v-2c0-1.7,1.3-3,3-3h2v2h-2c-0.6,0-1,0.4-1,1V18z"/>
	</g>
	<g>
		<rect x="9" y="20" class="st0" width="2" height="2"/>
	</g>
</g>
</svg>
