<?xml version="1.0" encoding="utf-8"?>
<!-- Generator: Adobe Illustrator 24.2.3, SVG Export Plug-In . SVG Version: 6.00 Build 0)  -->
<svg version="1.1" id="Layer_1" xmlns="http://www.w3.org/2000/svg" xmlns:xlink="http://www.w3.org/1999/xlink" x="0px" y="0px"
	 viewBox="0 0 50 50" style="enable-background:new 0 0 50 50;" xml:space="preserve">
<style type="text/css">
	.st0{fill:#837E99;}
</style>
<g>
	<path class="st0" d="M30.9,41.5c-0.3,0-0.5-0.1-0.6-0.4l-5.7-9.5L14,34.6c-0.3,0.1-0.7-0.1-0.8-0.4L0.8,10.9
		c-0.2-0.4-0.1-0.8,0.3-1c0.1,0,0.2-0.1,0.3-0.1l10.5-1.4c0.3,0,0.6,0.1,0.7,0.4L25.3,30l14.8-4L35.2,19c-0.2-0.3-0.2-0.8,0.2-1
		c0.1-0.1,0.2-0.1,0.2-0.1l6.9-1.6c0.3-0.1,0.6,0,0.8,0.3l6,7.5c0.3,0.3,0.2,0.8-0.1,1.1c-0.1,0.1-0.2,0.1-0.3,0.1l-6.3,1.7l5.5,7.7
		c0.2,0.3,0.2,0.8-0.2,1c-0.1,0-0.1,0.1-0.2,0.1l-16.5,5.8C31.1,41.5,31,41.5,30.9,41.5L30.9,41.5z M26.1,31.3l5.1,8.6l15-5.2
		L41,27.3L26.1,31.3z M2.6,11.2L14.2,33l9.6-2.6L11.6,10L2.6,11.2z M37,19.1l4.6,6.5l5.7-1.6l-5-6.2L37,19.1z"/>
</g>
</svg>
