<svg id="netrwork-storage-icon" xmlns="http://www.w3.org/2000/svg" width="48" height="48" viewBox="0 0 48 48">
  <path id="Path_6793" data-name="Path 6793" d="M45,3a3,3,0,0,0-2.816,2H36a3,3,0,0,0-3,3v4H25V5.816a3,3,0,1,0-2,0V12H15V8a3,3,0,0,0-3-3H5.816a3,3,0,1,0,0,2H12a1,1,0,0,1,1,1v4H7a3,3,0,0,0-3,3V39a3,3,0,0,0,3,3h9.386a6.738,6.738,0,0,1-3.147,4H12v2H37V46H34.762a6.738,6.738,0,0,1-3.148-4H41a3,3,0,0,0,3-3V15a3,3,0,0,0-3-3H35V8a1,1,0,0,1,1-1h6.184A2.995,2.995,0,1,0,45,3ZM24,2a1,1,0,1,1-1,1A1,1,0,0,1,24,2ZM3,7A1,1,0,1,1,4,6,1,1,0,0,1,3,7Zm30,7v2a1,1,0,0,1-1,1H25V14ZM23,14v3H16a1,1,0,0,1-1-1V14Zm8.593,32H16.407a7.4,7.4,0,0,0,2.013-4H29.58A7.4,7.4,0,0,0,31.593,46ZM41,14a1,1,0,0,1,1,1V34H36v2h6v3a1,1,0,0,1-1,1H7a1,1,0,0,1-1-1V36h6V34H6V15a1,1,0,0,1,1-1h6v2a3,3,0,0,0,3,3h7v2.142A4,4,0,0,0,20,25a4.007,4.007,0,0,0-3.9,3.1A4,4,0,0,0,17,36H31a4,4,0,0,0,.9-7.9A4.007,4.007,0,0,0,28,25a4,4,0,0,0-3-3.858V19h7a3,3,0,0,0,3-3V14ZM25.977,27.023a1,1,0,0,0,1.148.191A2,2,0,0,1,30,29a1,1,0,0,0,1,1,2,2,0,0,1,0,4H17a2,2,0,0,1,0-4h4V28H18.278A1.993,1.993,0,0,1,20,27a1.972,1.972,0,0,1,.875.214,1,1,0,0,0,1.339-1.339A1.972,1.972,0,0,1,22,25a2,2,0,0,1,4,0,1.972,1.972,0,0,1-.214.875A1,1,0,0,0,25.977,27.023ZM45,7a1,1,0,1,1,1-1A1,1,0,0,1,45,7Z" fill="#877f9b"/>
  <rect id="Rectangle_585" data-name="Rectangle 585" width="2" height="2" transform="translate(8 30)" fill="#877f9b"/>
  <rect id="Rectangle_586" data-name="Rectangle 586" width="2" height="2" transform="translate(8 26)" fill="#877f9b"/>
  <rect id="Rectangle_587" data-name="Rectangle 587" width="2" height="2" transform="translate(8 22)" fill="#877f9b"/>
  <rect id="Rectangle_588" data-name="Rectangle 588" width="2" height="2" transform="translate(23 28)" fill="#877f9b"/>
</svg>
