<?xml version="1.0" encoding="utf-8"?>
<!-- Generator: Adobe Illustrator 24.2.3, SVG Export Plug-In . SVG Version: 6.00 Build 0)  -->
<svg version="1.1" id="Layer_1" xmlns="http://www.w3.org/2000/svg" xmlns:xlink="http://www.w3.org/1999/xlink" x="0px" y="0px"
	 viewBox="0 0 50 50" style="enable-background:new 0 0 50 50;" xml:space="preserve">
<style type="text/css">
	.st0{fill:#837E99;}
</style>
<g>
	<circle class="st0" cx="25" cy="25" r="4.3"/>
	<g>
		<path class="st0" d="M25,34.7c-6,0-11.3-0.7-15.2-2.1c-2.5-0.9-4.7-2-6.3-3.3C1.9,28,1.1,26.4,1.1,25c0-2.8,3.1-5.6,8.3-7.4
			c4.3-1.5,9.8-2.3,15.6-2.3c5.7,0,11.2,0.8,15.4,2.3c2.5,0.9,4.6,2,6,3.2c1.6,1.3,2.5,2.8,2.5,4.3c0,2.9-3.5,5.9-9.1,7.8
			C35.9,34,30.6,34.7,25,34.7z M25,17.3c-5.5,0-11,0.8-15,2.2c-4.8,1.7-6.9,4-6.9,5.5c0,1.6,2.3,4.1,7.4,5.8
			c3.7,1.3,8.7,1.9,14.5,1.9c5.4,0,10.5-0.7,14.2-1.9c5.3-1.7,7.7-4.2,7.7-5.8c0-0.8-0.6-1.8-1.7-2.7c-1.3-1.1-3.2-2.1-5.4-2.8
			C35.7,18.1,30.5,17.3,25,17.3z"/>
	</g>
	<g>
		<path class="st0" d="M15.3,46.3c-0.9,0-1.6-0.2-2.3-0.6c-2.4-1.4-3.3-5.5-2.3-10.9c0.8-4.4,2.9-9.7,5.8-14.7
			c2.9-4.9,6.3-9.3,9.7-12.2c2-1.7,4-3,5.8-3.6c2-0.7,3.7-0.7,4.9,0c2.5,1.5,3.4,6,2.2,11.7c-0.8,4.1-2.9,9-5.7,13.9
			c-3,5.2-6.2,9.4-9.4,12.1c-2,1.8-4.1,3.1-6,3.7C17.1,46.1,16.1,46.3,15.3,46.3z M17.4,20.6l0.9,0.5c-2.8,4.8-4.8,9.9-5.6,14
			c-0.9,5,0,8,1.3,8.7c0.3,0.2,0.7,0.3,1.3,0.3c1.7,0,4.4-1.1,7.4-3.8c3-2.6,6-6.6,8.9-11.6c2.7-4.7,4.6-9.4,5.4-13.3
			c1.1-5.4,0.2-8.7-1.2-9.5c-0.7-0.4-1.8-0.3-3.2,0.2c-1.6,0.6-3.4,1.7-5.1,3.3c-3.2,2.8-6.5,7-9.2,11.7L17.4,20.6z"/>
	</g>
	<g>
		<path class="st0" d="M34.7,46.3c-2.3,0-5.3-1.4-8.3-4c-3.4-2.9-6.9-7.3-9.8-12.4l0,0c-2.9-4.9-4.9-10.1-5.8-14.5
			c-0.5-2.6-0.6-4.9-0.3-6.8C10.9,6.5,11.7,5,13,4.3c2.5-1.5,6.9,0,11.3,4c3.1,2.8,6.4,7,9.2,11.8c3,5.2,5,10.1,5.8,14.2
			c0.5,2.6,0.6,5.1,0.2,7.1c-0.4,2.1-1.3,3.6-2.6,4.4C36.3,46.1,35.6,46.3,34.7,46.3z M18.3,28.9c2.8,4.8,6.2,9.1,9.4,11.8
			c3.8,3.3,6.9,4,8.2,3.3c1.4-0.8,2.4-4,1.3-9.3c-0.8-3.9-2.7-8.5-5.6-13.5c-2.7-4.7-5.8-8.7-8.8-11.3c-4.1-3.7-7.5-4.5-8.9-3.7
			c-0.7,0.4-1.2,1.4-1.5,2.8c-0.3,1.7-0.2,3.8,0.3,6.1C13.6,19.2,15.6,24.1,18.3,28.9L18.3,28.9z"/>
	</g>
</g>
</svg>
