<svg id="reduce-labour-work-icon" xmlns="http://www.w3.org/2000/svg" width="48" height="48" viewBox="0 0 48 48">
  <path id="Path_6759" data-name="Path 6759" d="M45,18H40.972a17.982,17.982,0,0,0-.732-1.755l2.852-2.851a3,3,0,0,0,0-4.243L38.85,4.908a3.072,3.072,0,0,0-4.244,0L31.755,7.76A17.982,17.982,0,0,0,30,7.028V3a3,3,0,0,0-3-3H21a3,3,0,0,0-3,3V7.028a17.982,17.982,0,0,0-1.755.732L13.394,4.908a3.071,3.071,0,0,0-4.243,0L4.908,9.15a3,3,0,0,0,0,4.244L7.76,16.245A17.982,17.982,0,0,0,7.028,18H3a3,3,0,0,0-3,3v6a3,3,0,0,0,3,3H7.028a17.982,17.982,0,0,0,.732,1.755L4.908,34.606a3,3,0,0,0,0,4.243L9.15,43.092a3.072,3.072,0,0,0,4.244,0,1,1,0,0,0-1.415-1.414,1.023,1.023,0,0,1-1.414,0L6.322,37.435a1,1,0,0,1,0-1.414l3.364-3.363a1,1,0,0,0,.176-1.176,15.847,15.847,0,0,1-1.156-2.776A1,1,0,0,0,7.75,28H3a1,1,0,0,1-1-1V21a1,1,0,0,1,1-1H7.75a1,1,0,0,0,.956-.706,15.847,15.847,0,0,1,1.156-2.776,1,1,0,0,0-.176-1.176L6.322,11.979a1,1,0,0,1,0-1.414l4.243-4.243a1.023,1.023,0,0,1,1.414,0l3.363,3.364a1,1,0,0,0,1.176.176,15.847,15.847,0,0,1,2.776-1.156A1,1,0,0,0,20,7.75V3a1,1,0,0,1,1-1h6a1,1,0,0,1,1,1V7.75a1,1,0,0,0,.706.956,15.847,15.847,0,0,1,2.776,1.156,1,1,0,0,0,1.176-.176l3.363-3.364a1.023,1.023,0,0,1,1.414,0l4.243,4.243a1,1,0,0,1,0,1.414l-3.364,3.363a1,1,0,0,0-.176,1.176,15.847,15.847,0,0,1,1.156,2.776A1,1,0,0,0,40.25,20H45a1,1,0,0,1,1,1v6a1,1,0,0,1-1,1H40.25a1,1,0,0,0-.956.706,15.847,15.847,0,0,1-1.156,2.776,1,1,0,0,0,.176,1.176l3.364,3.363a1,1,0,0,1,0,1.414l-4.243,4.243a1.023,1.023,0,0,1-1.414,0,1,1,0,0,0-1.415,1.414,3,3,0,0,0,4.243,0l4.243-4.242a3,3,0,0,0,0-4.244L40.24,31.755A17.982,17.982,0,0,0,40.972,30H45a3,3,0,0,0,3-3V21A3,3,0,0,0,45,18Z" fill="#877f9b"/>
  <path id="Path_6760" data-name="Path 6760" d="M33,46H32V44a2,2,0,0,0-2-2V39a1,1,0,0,0-1-1H28V33h1a1,1,0,0,0,0-2H28V29h1a1,1,0,0,0,1-1V25.414l.707-.707A1,1,0,0,0,31,24V20a1,1,0,0,0-1-1H26a1,1,0,0,0-1,1v2H23V20a1,1,0,0,0-1-1H18a1,1,0,0,0-1,1v4a1,1,0,0,0,.293.707l.707.707V28a1,1,0,0,0,1,1h1v2H19a1,1,0,0,0,0,2h1v5H19a1,1,0,0,0-1,1v3a2,2,0,0,0-2,2v2H15a1,1,0,0,0,0,2H33a1,1,0,0,0,0-2ZM19.707,24.293,19,23.586V21h2v2a1,1,0,0,0,1,1h4a1,1,0,0,0,1-1V21h2v2.586l-.707.707A1,1,0,0,0,28,25v2H25a1,1,0,0,0,0,2h1v2H22V28a1,1,0,0,0-1-1H20V25A1,1,0,0,0,19.707,24.293ZM26,33v5H22V33Zm4,13H18V44h7a1,1,0,0,0,0-2H20V40h8v3a1,1,0,0,0,1,1h1Z" fill="#877f9b"/>
  <path id="Path_6761" data-name="Path 6761" d="M5,23a1,1,0,0,0,0,2H6a1,1,0,0,0,0-2Z" fill="#877f9b"/>
  <path id="Path_6762" data-name="Path 6762" d="M43,25a1,1,0,0,0,0-2H42a1,1,0,0,0,0,2Z" fill="#877f9b"/>
  <path id="Path_6763" data-name="Path 6763" d="M25,6V5a1,1,0,0,0-2,0V6a1,1,0,0,0,2,0Z" fill="#877f9b"/>
</svg>
