<?xml version="1.0" encoding="utf-8"?>
<!-- Generator: Adobe Illustrator 24.2.3, SVG Export Plug-In . SVG Version: 6.00 Build 0)  -->
<svg version="1.1" id="Layer_1" xmlns="http://www.w3.org/2000/svg" xmlns:xlink="http://www.w3.org/1999/xlink" x="0px" y="0px"
	 viewBox="0 0 50 50" style="enable-background:new 0 0 50 50;" xml:space="preserve">
<style type="text/css">
	.st0{fill:#837E99;}
</style>
<g>
	<path class="st0" d="M40.2,16.7c0-8.4-6.8-15.2-15.2-15.2c-4.3,0-8.4,1.8-11.3,5c-0.3,0.3-0.2,0.7,0,1c0.3,0.3,0.7,0.2,1,0
		c2.6-2.9,6.4-4.5,10.2-4.5c7.6,0,13.8,6.2,13.8,13.8c-0.1,4.4-2.3,8.8-5.7,11.8c-0.3,0.3-0.3,0.7,0,1c0.2,0.2,0.6,0.3,1,0
		C37.7,26.2,40.1,21.5,40.2,16.7z"/>
	<path class="st0" d="M31.9,30.8c-0.3-0.2-0.7-0.2-1,0.1c-1.3,1.6-2.1,3-2.3,4.2h-7.3c-0.3-1.8-1.9-4.1-5-7.1
		c-2.6-2.5-4.3-5.6-5-9.1c-0.6-3.1,0-6.3,1.5-9.1C13.1,9.6,13,9.1,12.7,9c-0.3-0.2-0.8-0.1-0.9,0.3c-1.7,3.1-2.4,6.5-1.7,10
		c0.7,3.7,2.6,7.1,5.4,9.8c2.7,2.6,4.3,4.7,4.6,6.2c-0.8,0.3-1.3,1-1.3,1.9v6.4c0,1.4,1.1,2.5,2.5,2.5l0.2,1.2
		c0.1,0.8,0.8,1.3,1.6,1.3h4.2c0.8,0,1.4-0.6,1.6-1.3l0.2-1.2c1.4,0,2.5-1.2,2.5-2.5v-6.4c0-0.9-0.6-1.6-1.3-1.9
		c0.1-0.7,0.6-1.8,2-3.4C32.2,31.5,32.2,31.1,31.9,30.8L31.9,30.8z M20,42.3v-1h2.1c0.4,0,0.7-0.3,0.7-0.7c0-0.4-0.3-0.7-0.7-0.7H20
		v-1H30v1h-4.6c-0.4,0-0.7,0.3-0.7,0.7c0,0.4,0.3,0.7,0.7,0.7H30v1H20z M30,37.5H20v-0.4c0-0.3,0.3-0.6,0.6-0.6h8.7
		c0.3,0,0.6,0.3,0.6,0.6V37.5z M27.1,47.2h-4.2c-0.1,0-0.2-0.1-0.2-0.2l-0.2-0.9h5L27.3,47C27.3,47.1,27.2,47.2,27.1,47.2z
		 M28.8,44.7h-7.6c-0.6,0-1.1-0.4-1.1-1H30C29.9,44.2,29.4,44.7,28.8,44.7z"/>
	<path class="st0" d="M28,12.3c-2.2-1.6-5.8-1-7.3,1.4c-1.3,1.8-1.2,4.5,0.2,6.3c0.2,0.3,0.7,0.3,1,0.1c0.3-0.2,0.3-0.7,0.1-1
		c-1-1.2-1.2-3.3-0.2-4.7c1.1-1.7,3.7-2.3,5.4-1c1.7,1.1,2.3,3.7,1,5.4c-0.8,1.2-2.4,1.9-3.9,1.6c-0.4-0.1-0.7,0.2-0.8,0.6
		c-0.1,0.4,0.2,0.7,0.6,0.8c1.9,0.4,4.2-0.5,5.3-2.2C31,17.4,30.4,13.9,28,12.3z"/>
	<path class="st0" d="M34.3,21.9c0.4,0.1,1.1-0.1,1.2-0.7l0.9-3.9c0.1-0.5-0.1-1.1-0.7-1.2l-1.5-0.3c-0.1-0.7-0.2-1.4-0.5-2.1l1.2-1
		c0.4-0.3,0.5-1,0.2-1.4l-2.5-3.1c-0.3-0.4-1-0.5-1.4-0.2l-1.2,1C29.3,8.5,28.7,8.2,28,8V6.4c0-0.5-0.4-1-1-1h-4c-0.5,0-1,0.4-1,1V8
		c-0.7,0.2-1.3,0.5-1.9,0.9l-1.3-1c-0.4-0.3-1.1-0.3-1.4,0.2L15,11.2c-0.3,0.4-0.3,1.1,0.2,1.4l1.2,1c-0.2,0.7-0.4,1.4-0.5,2.1
		L14.3,16c-0.4,0.1-0.9,0.5-0.7,1.2l0.9,3.9c0.1,0.5,0.7,0.9,1.2,0.7l1.5-0.3c0.4,0.6,0.8,1.2,1.3,1.7l-0.7,1.4
		c-0.2,0.5,0,1.1,0.5,1.3l3.6,1.7c0.5,0.2,1.1,0,1.3-0.5l0.7-1.4c0.7,0.1,1.4,0.1,2.2,0l0.7,1.4c0.2,0.4,0.7,0.7,1.3,0.5l3.6-1.7
		c0.5-0.2,0.7-0.8,0.5-1.3l-0.7-1.4c0.5-0.5,1-1.1,1.4-1.7L34.3,21.9z M31.7,20.6c-0.4,0.7-0.9,1.3-1.5,1.8
		c-0.3,0.3-0.4,0.8-0.2,1.2l0.6,1.3l-2.9,1.4l-0.6-1.3c-0.2-0.3-0.5-0.6-0.9-0.6c-0.7,0.1-1.6,0.1-2.5,0c-0.4-0.1-0.9,0.2-1,0.5
		l-0.6,1.3l-2.9-1.4l0.6-1.3c0.2-0.4,0.1-0.9-0.2-1.2c-0.6-0.5-1-1.1-1.4-1.8c-0.2-0.4-0.7-0.6-1.1-0.5l-1.4,0.3L15,17.2l1.4-0.3
		c0.4-0.1,0.7-0.5,0.8-0.9c0.1-0.8,0.2-1.5,0.5-2.2c0.2-0.4,0-0.9-0.3-1.1l-1.1-0.9l2-2.5l1.2,0.9c0.3,0.3,0.8,0.3,1.2,0
		c0.6-0.4,1.3-0.8,2.1-1c0.4-0.1,0.7-0.5,0.7-0.9V6.8h3.2v1.5c0,0.4,0.3,0.8,0.7,0.9c0.7,0.2,1.4,0.6,2.1,1c0.4,0.2,0.8,0.2,1.2,0
		l1.1-0.9l2,2.5l-1.2,0.9c-0.3,0.3-0.5,0.7-0.3,1.1c0.3,0.7,0.4,1.5,0.5,2.2c0,0.4,0.3,0.8,0.8,0.9l1.4,0.3l-0.7,3.1l-1.4-0.3
		C32.4,20,32,20.2,31.7,20.6L31.7,20.6z"/>
	<path class="st0" d="M41.4,8.4c1.4,0,2.5-1.1,2.5-2.5s-1.1-2.5-2.5-2.5s-2.5,1.1-2.5,2.5S40,8.4,41.4,8.4z M41.4,4.7
		c0.6,0,1.1,0.5,1.1,1.1S42,7,41.4,7s-1.1-0.5-1.1-1.1S40.8,4.7,41.4,4.7z"/>
	<path class="st0" d="M41.4,25c-1.4,0-2.5,1.1-2.5,2.5c0,1.4,1.1,2.5,2.5,2.5s2.5-1.1,2.5-2.5C43.9,26.1,42.8,25,41.4,25z
		 M41.4,28.7c-0.6,0-1.1-0.5-1.1-1.1s0.5-1.1,1.1-1.1s1.1,0.5,1.1,1.1S42,28.7,41.4,28.7z"/>
	<path class="st0" d="M45.3,13.5c-1.8,0-3.2,1.4-3.2,3.2s1.4,3.2,3.2,3.2s3.2-1.4,3.2-3.2S47.1,13.5,45.3,13.5z M45.3,18.5
		c-1,0-1.8-0.8-1.8-1.8c0-1,0.8-1.8,1.8-1.8s1.8,0.8,1.8,1.8C47.2,17.7,46.3,18.5,45.3,18.5z"/>
	<path class="st0" d="M8.6,8.4c1.4,0,2.5-1.1,2.5-2.5S10,3.3,8.6,3.3S6.1,4.4,6.1,5.8S7.2,8.4,8.6,8.4z M8.6,4.7
		c0.6,0,1.1,0.5,1.1,1.1S9.2,7,8.6,7S7.4,6.5,7.4,5.8S8,4.7,8.6,4.7z"/>
	<path class="st0" d="M8.6,25c-1.4,0-2.5,1.1-2.5,2.5c0,1.4,1.1,2.5,2.5,2.5s2.5-1.1,2.5-2.5C11.1,26.1,10,25,8.6,25z M8.6,28.7
		c-0.6,0-1.1-0.5-1.1-1.1s0.5-1.1,1.1-1.1s1.1,0.5,1.1,1.1S9.2,28.7,8.6,28.7z"/>
	<path class="st0" d="M7.9,16.7c0-1.8-1.4-3.2-3.2-3.2s-3.2,1.4-3.2,3.2s1.4,3.2,3.2,3.2S7.9,18.4,7.9,16.7z M4.7,18.5
		c-1,0-1.8-0.8-1.8-1.8c0-1,0.8-1.8,1.8-1.8s1.8,0.8,1.8,1.8C6.5,17.7,5.7,18.5,4.7,18.5z"/>
</g>
</svg>
