<svg id="storage-management-icon" xmlns="http://www.w3.org/2000/svg" width="48" height="48" viewBox="0 0 48 48">
  <path id="Path_6794" data-name="Path 6794" d="M40.944,14.056c-.016-.14-.045-.276-.068-.414-.017-.1-.028-.193-.048-.287-.042-.2-.1-.4-.153-.593-.014-.048-.023-.1-.038-.145-.075-.24-.162-.475-.258-.7-.034-.08-.074-.155-.11-.233-.069-.149-.137-.3-.214-.443-.048-.09-.1-.175-.154-.263-.074-.127-.148-.255-.229-.377-.059-.089-.123-.174-.186-.26-.083-.115-.165-.23-.254-.34-.068-.085-.141-.166-.213-.249-.091-.1-.183-.207-.279-.307-.077-.079-.157-.155-.237-.231-.1-.095-.2-.188-.3-.277-.084-.073-.169-.142-.256-.211-.109-.085-.219-.168-.331-.247-.091-.064-.182-.127-.275-.187-.116-.075-.234-.146-.354-.216-.1-.055-.192-.11-.291-.161-.124-.066-.252-.125-.38-.184-.1-.045-.2-.092-.3-.133-.134-.055-.272-.1-.41-.15-.1-.035-.2-.072-.3-.1-.147-.044-.3-.079-.447-.115-.1-.024-.2-.051-.3-.07-.168-.034-.34-.056-.511-.079-.086-.011-.17-.027-.256-.036C33.529,7.014,33.266,7,33,7a7.964,7.964,0,0,0-.969.065c-.028,0-.057,0-.085.005a8,8,0,0,0-15.892,0A7.906,7.906,0,0,0,15,7a8.011,8.011,0,0,0-7.944,7.056A8,8,0,0,0,8,30H27a3,3,0,0,0-3,3v2a3,3,0,0,0,3,3v2a3,3,0,0,0-3,3v2a3,3,0,0,0,3,3H45a3,3,0,0,0,3-3V43a3,3,0,0,0-3-3V38a3,3,0,0,0,3-3V33a3,3,0,0,0-3-3V28a3,3,0,0,0,3-3V22A8.011,8.011,0,0,0,40.944,14.056ZM8,28A6,6,0,0,1,8,16h4V14H9.09a5.99,5.99,0,0,1,7.637-4.745,1,1,0,0,0,1.287-1L18,8a6,6,0,0,1,11.98-.4A8.01,8.01,0,0,0,25,15h2a6.009,6.009,0,0,1,4.287-5.748,6.145,6.145,0,0,1,.753-.168l.169-.026A5.961,5.961,0,0,1,39,15a1,1,0,0,0,1,1,6.006,6.006,0,0,1,5.681,4.085A3,3,0,0,0,45,20H27a3,3,0,0,0-3,3v2a3,3,0,0,0,3,3ZM46,43v2a1,1,0,0,1-1,1H27a1,1,0,0,1-1-1V43a1,1,0,0,1,1-1H45A1,1,0,0,1,46,43Zm-3-3H29V38H43Zm3-7v2a1,1,0,0,1-1,1H27a1,1,0,0,1-1-1V33a1,1,0,0,1,1-1H45A1,1,0,0,1,46,33Zm-3-3H29V28H43Zm3-5a1,1,0,0,1-1,1H27a1,1,0,0,1-1-1V23a1,1,0,0,1,1-1H45a1,1,0,0,1,1,1v2Z" fill="#877f9b"/>
  <rect id="Rectangle_589" data-name="Rectangle 589" width="2" height="2" transform="translate(14 14)" fill="#877f9b"/>
  <path id="Path_6795" data-name="Path 6795" d="M4,22a4,4,0,0,0,4,4V24a2,2,0,0,1,0-4V18A4,4,0,0,0,4,22Z" fill="#877f9b"/>
  <rect id="Rectangle_590" data-name="Rectangle 590" width="2" height="2" transform="translate(29 43)" fill="#877f9b"/>
  <rect id="Rectangle_591" data-name="Rectangle 591" width="2" height="2" transform="translate(33 43)" fill="#877f9b"/>
  <rect id="Rectangle_592" data-name="Rectangle 592" width="2" height="2" transform="translate(37 43)" fill="#877f9b"/>
  <rect id="Rectangle_593" data-name="Rectangle 593" width="2" height="2" transform="translate(41 43)" fill="#877f9b"/>
  <rect id="Rectangle_594" data-name="Rectangle 594" width="2" height="2" transform="translate(29 33)" fill="#877f9b"/>
  <rect id="Rectangle_595" data-name="Rectangle 595" width="2" height="2" transform="translate(33 33)" fill="#877f9b"/>
  <rect id="Rectangle_596" data-name="Rectangle 596" width="2" height="2" transform="translate(37 33)" fill="#877f9b"/>
  <rect id="Rectangle_597" data-name="Rectangle 597" width="2" height="2" transform="translate(41 33)" fill="#877f9b"/>
  <rect id="Rectangle_598" data-name="Rectangle 598" width="2" height="2" transform="translate(29 23)" fill="#877f9b"/>
  <rect id="Rectangle_599" data-name="Rectangle 599" width="2" height="2" transform="translate(33 23)" fill="#877f9b"/>
  <rect id="Rectangle_600" data-name="Rectangle 600" width="2" height="2" transform="translate(37 23)" fill="#877f9b"/>
  <rect id="Rectangle_601" data-name="Rectangle 601" width="2" height="2" transform="translate(41 23)" fill="#877f9b"/>
  <path id="Path_6796" data-name="Path 6796" d="M21,32H19a3,3,0,0,0,3,3V33A1,1,0,0,1,21,32Z" fill="#877f9b"/>
  <path id="Path_6797" data-name="Path 6797" d="M17,33H15a6.006,6.006,0,0,0,6,6V37A4,4,0,0,1,17,33Z" fill="#877f9b"/>
  <path id="Path_6798" data-name="Path 6798" d="M13,34H11a9.01,9.01,0,0,0,9,9V41A7.009,7.009,0,0,1,13,34Z" fill="#877f9b"/>
</svg>
