<svg width="372" height="99" viewBox="0 0 372 99" fill="none" xmlns="http://www.w3.org/2000/svg">
<path d="M30.0156 25.1094C31.4844 25.1094 32.8516 25.3359 34.1172 25.7891C35.3828 26.2422 36.4844 26.9062 37.4219 27.7812C38.3594 28.6562 39.0938 29.75 39.625 31.0625C40.1562 32.3594 40.4219 33.8516 40.4219 35.5391C40.4219 37.3984 40.1328 39.0703 39.5547 40.5547C38.9766 42.0234 38.125 43.2734 37 44.3047C35.875 45.3203 34.4766 46.1016 32.8047 46.6484C31.1484 47.1953 29.2422 47.4688 27.0859 47.4688C26.2266 47.4688 25.375 47.4297 24.5312 47.3516C23.6875 47.2734 22.875 47.1562 22.0938 47C21.3281 46.8594 20.5938 46.6719 19.8906 46.4375C19.2031 46.2031 18.5781 45.9297 18.0156 45.6172V39.3594C18.5625 39.6719 19.1953 39.9688 19.9141 40.25C20.6328 40.5156 21.375 40.75 22.1406 40.9531C22.9219 41.1406 23.7031 41.2969 24.4844 41.4219C25.2656 41.5312 26.0078 41.5859 26.7109 41.5859C28.8047 41.5859 30.3984 41.1562 31.4922 40.2969C32.5859 39.4219 33.1328 38.0391 33.1328 36.1484C33.1328 34.4609 32.5938 33.1797 31.5156 32.3047C30.4531 31.4141 28.8047 30.9688 26.5703 30.9688C26.1641 30.9688 25.7266 30.9922 25.2578 31.0391C24.8047 31.0859 24.3516 31.1484 23.8984 31.2266C23.4609 31.3047 23.0391 31.3906 22.6328 31.4844C22.2266 31.5625 21.875 31.6484 21.5781 31.7422L18.6953 30.1953L19.9844 12.7344H38.0781V18.875H26.2656L25.7031 25.6016C26.2031 25.4922 26.7812 25.3828 27.4375 25.2734C28.1094 25.1641 28.9688 25.1094 30.0156 25.1094ZM65.4784 29.8672C65.4784 32.6328 65.2597 35.1016 64.8222 37.2734C64.4003 39.4453 63.7128 41.2891 62.7597 42.8047C61.8222 44.3203 60.6034 45.4766 59.1034 46.2734C57.6191 47.0703 55.8222 47.4688 53.7128 47.4688C51.7284 47.4688 50.0019 47.0703 48.5331 46.2734C47.0644 45.4766 45.8456 44.3203 44.8769 42.8047C43.9081 41.2891 43.1816 39.4453 42.6972 37.2734C42.2284 35.1016 41.9941 32.6328 41.9941 29.8672C41.9941 27.1016 42.205 24.625 42.6269 22.4375C43.0644 20.25 43.7519 18.3984 44.6894 16.8828C45.6269 15.3672 46.8378 14.2109 48.3222 13.4141C49.8066 12.6016 51.6034 12.1953 53.7128 12.1953C55.6816 12.1953 57.4003 12.5938 58.8691 13.3906C60.3378 14.1875 61.5644 15.3437 62.5487 16.8594C63.5331 18.375 64.2675 20.2266 64.7519 22.4141C65.2362 24.6016 65.4784 27.0859 65.4784 29.8672ZM49.2128 29.8672C49.2128 33.7734 49.5487 36.7109 50.2206 38.6797C50.8925 40.6484 52.0566 41.6328 53.7128 41.6328C55.3378 41.6328 56.5019 40.6562 57.205 38.7031C57.9237 36.75 58.2831 33.8047 58.2831 29.8672C58.2831 25.9453 57.9237 23 57.205 21.0312C56.5019 19.0469 55.3378 18.0547 53.7128 18.0547C52.8847 18.0547 52.1816 18.3047 51.6034 18.8047C51.0409 19.3047 50.58 20.0469 50.2206 21.0312C49.8612 22.0156 49.6034 23.25 49.4472 24.7344C49.2909 26.2031 49.2128 27.9141 49.2128 29.8672ZM76.1678 34.0625H67.5662V28.9297H76.1678V20.2812H81.3006V28.9297H89.8787V34.0625H81.3006V42.5938H76.1678V34.0625Z" fill="#3E96F4"/>
<g clip-path="url(#clip0_1_72)">
<path d="M296.945 12.6552H211.057C208.626 12.6552 206.656 14.6255 206.656 17.0561V42.3037C206.656 44.7342 208.626 46.7046 211.057 46.7046H296.945C299.375 46.7046 301.345 44.7342 301.345 42.3037V17.0561C301.345 14.6255 299.375 12.6552 296.945 12.6552Z" fill="white" stroke="#0089FF" stroke-width="1.2" stroke-miterlimit="10"/>
<path d="M244.483 29.5816H244.723C245.968 29.5816 247.224 29.5816 248.469 29.6471C248.816 29.6597 249.16 29.711 249.495 29.8C249.959 29.9006 250.391 30.115 250.751 30.4238C251.111 30.7326 251.389 31.1262 251.559 31.5691C251.769 32.0482 251.871 32.5673 251.857 33.09C251.844 33.6127 251.716 34.1261 251.483 34.594C251.279 35.0207 250.973 35.3905 250.592 35.6705C250.211 35.9505 249.767 36.1322 249.299 36.1993C248.764 36.2757 248.207 36.2866 247.683 36.3194H246.591C246.339 36.3194 246.329 36.3194 246.318 36.6033C246.318 37.5206 246.318 38.4379 246.318 39.3552V39.6719C245.734 39.7497 245.143 39.7497 244.559 39.6719V29.5488L244.483 29.5816ZM246.285 34.7469C246.333 34.7715 246.385 34.7898 246.438 34.8015C247.131 34.8724 247.83 34.8724 248.524 34.8015C248.736 34.7806 248.941 34.7177 249.129 34.6164C249.316 34.5152 249.482 34.3776 249.616 34.2118C249.809 33.9349 249.922 33.6099 249.943 33.2727C250.021 32.8503 249.94 32.4142 249.716 32.0476C249.493 31.681 249.142 31.4096 248.731 31.2852C248.54 31.2218 248.342 31.1851 248.141 31.176C247.519 31.176 246.907 31.176 246.285 31.176V34.7687V34.7469Z" fill="#010101"/>
<path d="M287.913 36.4395H282.671C282.587 36.8836 282.681 37.3429 282.932 37.7187C283.183 38.0944 283.572 38.3566 284.014 38.4489C284.441 38.5579 284.888 38.5579 285.314 38.4489C285.624 38.343 285.89 38.1352 286.067 37.8592C286.242 37.5643 286.275 37.5643 286.613 37.6298L287.618 37.7936L287.815 37.8592C287.701 38.2334 287.509 38.5791 287.251 38.8729C286.993 39.1667 286.675 39.4019 286.319 39.5627C285.279 40.0159 284.104 40.0473 283.042 39.6501C282.566 39.4689 282.139 39.176 281.799 38.796C281.459 38.416 281.215 37.9599 281.088 37.466C280.749 36.4824 280.749 35.4138 281.088 34.4302C281.284 33.7927 281.671 33.2305 282.196 32.8187C282.721 32.407 283.359 32.1653 284.025 32.126C284.599 32.0771 285.176 32.1516 285.718 32.3444C286.202 32.517 286.636 32.8067 286.981 33.1878C287.326 33.5689 287.571 34.0295 287.694 34.5285C287.825 35.0721 287.891 35.6293 287.891 36.1884C287.891 36.2648 287.891 36.3413 287.891 36.4832M286.22 35.1618C286.205 35.0225 286.184 34.884 286.155 34.7469C286.104 34.441 285.963 34.1574 285.748 33.9333C285.534 33.7092 285.257 33.5551 284.953 33.491C284.722 33.4577 284.486 33.4577 284.255 33.491C283.817 33.5231 283.406 33.7159 283.102 34.0324C282.797 34.3489 282.621 34.7667 282.606 35.2055C283.809 35.2875 285.017 35.2875 286.22 35.2055V35.1618Z" fill="#010101"/>
<path d="M253.197 34.0808C253.302 33.723 253.483 33.3922 253.729 33.1113C253.974 32.8304 254.277 32.606 254.617 32.4536C255.128 32.2163 255.682 32.0852 256.245 32.0683C256.808 32.0514 257.369 32.1491 257.893 32.3554C258.368 32.5241 258.775 32.8418 259.055 33.2609C259.334 33.6801 259.471 34.1783 259.444 34.6814C259.444 35.0417 259.444 35.3912 259.444 35.7734V39.7484H257.751C257.79 39.3854 257.79 39.0193 257.751 38.6563C257.675 38.7233 257.609 38.8005 257.555 38.8857C257.406 39.125 257.208 39.3303 256.975 39.4883C256.742 39.6464 256.478 39.7535 256.2 39.803C255.552 39.9547 254.873 39.9013 254.257 39.6501C253.924 39.5105 253.632 39.2909 253.405 39.0108C253.178 38.7307 253.024 38.3988 252.957 38.0448C252.849 37.5465 252.932 37.0259 253.189 36.5854C253.445 36.1448 253.857 35.8163 254.344 35.6642C254.839 35.4832 255.358 35.3729 255.884 35.3366L256.976 35.2055C257.076 35.1904 257.175 35.1648 257.271 35.1291C257.696 34.998 257.784 34.867 257.729 34.4193C257.721 34.2037 257.644 33.9966 257.508 33.8292C257.372 33.6617 257.185 33.543 256.976 33.491C256.688 33.3925 256.382 33.3619 256.081 33.4017C255.779 33.4415 255.491 33.5506 255.239 33.7204C255.078 33.8427 254.95 34.0044 254.868 34.19C254.868 34.2882 254.77 34.3647 254.639 34.3428L253.383 34.1463C253.325 34.1278 253.27 34.1021 253.219 34.0698L253.197 34.0808ZM257.718 36.1775H257.555C256.987 36.2757 256.408 36.374 255.84 36.4941C255.6 36.5437 255.366 36.6169 255.141 36.7125C254.969 36.7827 254.825 36.9071 254.731 37.0668C254.636 37.2265 254.596 37.4127 254.617 37.5971C254.61 37.7954 254.669 37.9905 254.786 38.151C254.903 38.3114 255.07 38.4278 255.261 38.4816C255.545 38.5821 255.846 38.623 256.146 38.6018C256.477 38.6009 256.8 38.4946 257.067 38.2983C257.334 38.1019 257.531 37.8258 257.631 37.5097C257.737 37.0629 257.766 36.6014 257.718 36.1447V36.1775Z" fill="#010101"/>
<path d="M272.592 39.7374V32.1915C273.16 32.1042 273.684 32.1915 274.284 32.1915V33.502C274.459 33.4255 274.514 33.2836 274.59 33.1744C274.738 32.9083 274.939 32.6746 275.179 32.487C275.419 32.2995 275.694 32.1619 275.988 32.0824C276.375 31.9781 276.78 31.9603 277.174 32.0301C277.569 32.1 277.943 32.2557 278.27 32.4864C278.54 32.681 278.764 32.9306 278.93 33.2186C279.096 33.5067 279.198 33.8266 279.231 34.1572C279.275 34.4903 279.297 34.8259 279.297 35.1618C279.297 36.5269 279.297 37.8919 279.297 39.2569V39.6173C278.724 39.6899 278.144 39.6899 277.571 39.6173C277.571 39.5409 277.571 39.4535 277.571 39.3662C277.571 38.0994 277.571 36.8327 277.571 35.5659C277.588 35.3114 277.588 35.056 277.571 34.8015C277.548 34.4796 277.417 34.175 277.199 33.9371C276.981 33.6992 276.689 33.542 276.37 33.4911C276.037 33.4141 275.688 33.4561 275.383 33.6097C275.078 33.7633 274.836 34.0188 274.699 34.3319C274.578 34.58 274.514 34.8527 274.514 35.1291C274.514 36.5378 274.514 37.9465 274.514 39.3662V39.6392L272.592 39.7374Z" fill="#010101"/>
<path d="M269.6 30.3679V32.1369H271.03C271.068 32.5219 271.068 32.9096 271.03 33.2945C271.03 33.4474 270.899 33.4583 270.779 33.4583H269.589C269.589 33.5784 269.589 33.6549 269.589 33.7422V37.4333C269.589 37.9793 269.796 38.285 270.539 38.3069C270.604 38.3123 270.67 38.3123 270.735 38.3069C270.757 38.3003 270.78 38.2986 270.802 38.3019C270.824 38.3052 270.846 38.3134 270.865 38.326C270.883 38.3385 270.899 38.355 270.911 38.3744C270.922 38.3938 270.93 38.4154 270.932 38.4379C271.019 38.7983 271.085 39.1587 271.161 39.5299C271.171 39.5878 271.171 39.6468 271.161 39.7047C270.507 39.8851 269.817 39.8851 269.163 39.7047C268.802 39.6068 268.483 39.396 268.251 39.1032C268.019 38.8104 267.887 38.4509 267.874 38.0776C267.874 37.3787 267.874 36.6907 267.82 35.9918C267.765 35.2929 267.82 34.6704 267.82 34.0152V33.6003C267.458 33.5476 267.093 33.5185 266.728 33.5129V32.257C267.077 32.126 267.437 32.2571 267.82 32.1697V30.4006C268.427 30.3679 269.036 30.3679 269.643 30.4006L269.6 30.3679Z" fill="#010101"/>
<path d="M263.102 33.3709C263.299 33.1088 263.473 32.8249 263.692 32.5847C263.927 32.3416 264.233 32.1776 264.565 32.1151C264.909 32.0542 265.26 32.0542 265.603 32.1151C265.657 32.6284 265.603 33.1416 265.603 33.6767H265.275C264.887 33.616 264.49 33.6497 264.118 33.775C263.934 33.8315 263.765 33.9272 263.621 34.0554C263.478 34.1836 263.364 34.3412 263.288 34.5175C263.153 34.8125 263.083 35.1325 263.08 35.4567V39.8248H261.344C261.267 39.5846 261.246 32.7048 261.344 32.2898C261.91 32.2242 262.481 32.2242 263.047 32.2898V33.4583H263.113L263.102 33.3709Z" fill="#010101"/>
<path d="M291.178 32.1479V33.502L291.364 33.371C291.39 33.3333 291.412 33.293 291.429 33.2508C291.634 32.8277 291.978 32.4881 292.403 32.2891C292.829 32.0902 293.31 32.0441 293.766 32.1588H293.853C293.892 32.6713 293.892 33.186 293.853 33.6985L293.286 33.644C292.916 33.5898 292.538 33.639 292.194 33.7859C291.894 33.8973 291.639 34.1016 291.464 34.3688C291.289 34.636 291.204 34.9522 291.222 35.2711C291.222 36.6361 291.222 38.0121 291.222 39.388V39.7702H289.496C289.496 39.661 289.496 39.5627 289.496 39.4644C289.496 37.1603 289.496 34.8561 289.496 32.5519C289.496 32.2134 289.496 32.2025 289.857 32.1915H291.189" fill="#010101"/>
<path d="M257.544 23.0076L258.636 24.9623H257.828C257.686 24.9623 257.631 24.8422 257.576 24.733C257.358 24.329 257.129 23.9358 256.932 23.5208C256.878 23.3739 256.774 23.2507 256.638 23.1729C256.502 23.095 256.344 23.0674 256.19 23.095C255.698 23.095 255.698 23.095 255.698 23.5755V24.9514C255.404 24.9731 255.108 24.9731 254.814 24.9514C254.726 23.2745 254.726 21.5941 254.814 19.9172C254.89 19.9117 254.967 19.9117 255.043 19.9172H256.823C257.011 19.924 257.198 19.9534 257.38 20.0046C257.672 20.0654 257.937 20.2197 258.134 20.4443C258.331 20.6689 258.45 20.9515 258.472 21.2495C258.466 21.2966 258.466 21.3443 258.472 21.3914C258.51 21.6652 258.466 21.9442 258.345 22.193C258.225 22.4418 258.033 22.6493 257.795 22.7892L257.555 22.9639L257.544 23.0076ZM255.731 22.407C256.146 22.407 256.528 22.407 256.91 22.3305C257.097 22.3113 257.27 22.2216 257.394 22.0797C257.518 21.9378 257.583 21.7543 257.576 21.5661C257.589 21.3734 257.532 21.1827 257.415 21.0284C257.299 20.8742 257.132 20.7666 256.943 20.7253C256.615 20.7253 256.288 20.7253 255.971 20.6707C255.654 20.6161 255.698 20.6707 255.687 20.9546V22.0466C255.68 22.1521 255.68 22.2579 255.687 22.3633L255.731 22.407Z" fill="#010101"/>
<path d="M280.411 24.9733C280.411 23.2697 280.411 21.6098 280.411 19.9062H282.169C282.392 19.9203 282.614 19.9459 282.835 19.9827C283.279 20.0796 283.682 20.3126 283.987 20.6493C284.293 20.986 284.485 21.4096 284.539 21.861C284.61 22.2802 284.61 22.7085 284.539 23.1277C284.459 23.569 284.242 23.9737 283.919 24.2838C283.595 24.5938 283.181 24.7931 282.737 24.8531C282.495 24.8971 282.25 24.919 282.005 24.9187L280.411 24.9733ZM281.361 24.1979C281.789 24.2366 282.221 24.2366 282.649 24.1979C283.228 24.0778 283.545 23.8594 283.741 23.1059C283.795 22.7439 283.795 22.3759 283.741 22.0139C283.697 21.6731 283.531 21.3597 283.274 21.1311C283.018 20.9025 282.687 20.7739 282.344 20.7689H281.71C281.383 20.7689 281.361 20.7689 281.361 21.1075V23.9577C281.361 24.056 281.361 24.1542 281.361 24.2853V24.1979Z" fill="#010101"/>
<path d="M253.099 19.9609V20.6707H250.762C250.762 21.0966 250.762 21.4788 250.762 21.8719C250.762 22.0466 250.828 22.1012 251.024 22.1012H252.946C253.029 22.3269 253.029 22.5745 252.946 22.8001H250.762C250.762 23.2369 250.762 23.6191 250.762 24.0123C250.759 24.0437 250.763 24.0754 250.773 24.1052C250.783 24.1351 250.8 24.1624 250.821 24.1853C250.843 24.2081 250.87 24.2259 250.899 24.2375C250.928 24.2491 250.96 24.2543 250.991 24.2525H253.176V24.9296H249.976V19.9609H253.176H253.099Z" fill="#010101"/>
<path d="M275.54 19.9499H278.729V20.6707H276.392V22.0575C276.622 22.1252 276.864 22.1438 277.102 22.1122C277.331 22.1122 277.571 22.1122 277.812 22.1122H278.576V22.822H276.392V24.2198C277.184 24.2859 277.98 24.2859 278.773 24.2198V24.9514H275.573V19.9499H275.54Z" fill="#010101"/>
<path d="M248.207 23.4117C248.151 23.8432 247.927 24.2354 247.584 24.5037C247.129 24.8667 246.553 25.0447 245.972 25.0022C245.392 24.9597 244.848 24.6998 244.45 24.2744C244.181 23.9611 243.993 23.5859 243.904 23.1823C243.784 22.702 243.784 22.1994 243.904 21.719C243.969 21.3989 244.103 21.0965 244.295 20.8326C244.488 20.5687 244.735 20.3494 245.02 20.1898C245.305 20.0302 245.622 19.9339 245.947 19.9076C246.273 19.8813 246.6 19.9255 246.907 20.0373C247.225 20.1368 247.511 20.32 247.734 20.5679C247.957 20.8158 248.109 21.1191 248.174 21.446C248.18 21.4932 248.18 21.5408 248.174 21.588C247.968 21.6506 247.747 21.6506 247.541 21.588C247.399 21.588 247.344 21.446 247.279 21.3368C247.185 21.1552 247.05 20.9986 246.884 20.8801C246.717 20.7617 246.525 20.6848 246.323 20.6559C246.121 20.627 245.915 20.647 245.722 20.7142C245.529 20.7813 245.355 20.8938 245.215 21.042C244.918 21.3303 244.742 21.7208 244.723 22.134C244.69 22.4571 244.69 22.7828 244.723 23.1059C244.76 23.3481 244.858 23.5768 245.01 23.7696C245.161 23.9624 245.359 24.1129 245.586 24.2063C245.812 24.2997 246.059 24.333 246.302 24.3028C246.545 24.2726 246.776 24.1801 246.973 24.0341C247.07 23.9592 247.151 23.8666 247.213 23.7611C247.442 23.3571 247.53 23.3134 247.988 23.3789L248.196 23.4444L248.207 23.4117Z" fill="#010101"/>
<path d="M268.114 19.9281H271.183C271.281 20.1659 271.281 20.4329 271.183 20.6707H268.999C268.992 20.7652 268.992 20.8601 268.999 20.9546C268.999 21.2276 268.999 21.5006 268.999 21.7627C268.999 22.0248 268.999 22.1122 269.37 22.1122H270.932C270.995 22.2117 271.035 22.3245 271.048 22.4418C271.062 22.5592 271.048 22.678 271.008 22.7892C270.667 22.8166 270.323 22.8166 269.982 22.7892H268.955C268.902 23.1506 268.884 23.5163 268.901 23.8812C268.901 24.2307 268.901 24.5692 268.901 24.9733C268.637 25.0222 268.367 25.0222 268.104 24.9733C268.038 24.6238 268.038 20.2011 268.104 19.9499L268.114 19.9281Z" fill="#010101"/>
<path d="M262.294 20.6707V24.9405H261.486V20.6816H259.902V19.9281H263.877V20.6707H262.294Z" fill="#010101"/>
<path d="M266.302 19.9172H265.439V24.9514H266.302V19.9172Z" fill="#010101"/>
<path d="M272.865 24.9733V19.9062L273.727 19.9609C273.733 20.0481 273.733 20.1357 273.727 20.2229V23.8703C273.727 24.1324 273.727 24.4054 273.727 24.6675C273.727 24.9296 273.727 24.9623 273.444 24.9623H272.843L272.865 24.9733Z" fill="#010101"/>
<path d="M211.084 12.7858H237.169V46.574H210.952C209.847 46.574 208.788 46.1299 208.006 45.3394C207.225 44.5489 206.786 43.4768 206.786 42.3588V17.1341C206.786 15.9828 207.237 14.8784 208.041 14.0633C208.844 13.2481 209.935 12.7887 211.073 12.7858H211.084Z" fill="#0089FF"/>
<path d="M228.124 20.3977H215.118V23.9359H228.124V20.3977Z" fill="white"/>
<path d="M227.305 29.3196H215.118V32.8577H227.305V29.3196Z" fill="white"/>
<path d="M219.192 29.3196H215.118V40.4255H219.192V29.3196Z" fill="white"/>
</g>
<path d="M17.2784 75V63.3636H24.5739V64.875H19.0341V68.4205H24.1932V69.9261H19.0341V73.4886H24.642V75H17.2784ZM26.919 75V63.3636H31.0668C31.9683 63.3636 32.7164 63.5189 33.3111 63.8295C33.9096 64.1402 34.3565 64.5701 34.652 65.1193C34.9474 65.6648 35.0952 66.2955 35.0952 67.0114C35.0952 67.7235 34.9455 68.3504 34.6463 68.892C34.3509 69.4299 33.9039 69.8485 33.3054 70.1477C32.7107 70.447 31.9626 70.5966 31.0611 70.5966H27.919V69.0852H30.902C31.4702 69.0852 31.9323 69.0038 32.2884 68.8409C32.6482 68.678 32.9115 68.4413 33.0781 68.1307C33.2448 67.8201 33.3281 67.447 33.3281 67.0114C33.3281 66.572 33.2429 66.1913 33.0724 65.8693C32.9058 65.5473 32.6425 65.3011 32.2827 65.1307C31.9266 64.9564 31.4588 64.8693 30.8793 64.8693H28.6747V75H26.919ZM32.6634 69.75L35.5384 75H33.5384L30.7202 69.75H32.6634ZM37.2315 75V63.3636H41.3793C42.2846 63.3636 43.0346 63.5284 43.6293 63.858C44.224 64.1875 44.669 64.6383 44.9645 65.2102C45.2599 65.7784 45.4077 66.4186 45.4077 67.1307C45.4077 67.8466 45.258 68.4905 44.9588 69.0625C44.6634 69.6307 44.2164 70.0814 43.6179 70.4148C43.0232 70.7443 42.2751 70.9091 41.3736 70.9091H38.5213V69.4205H41.2145C41.7865 69.4205 42.2505 69.322 42.6065 69.125C42.9626 68.9242 43.224 68.6515 43.3906 68.3068C43.5573 67.9621 43.6406 67.5701 43.6406 67.1307C43.6406 66.6913 43.5573 66.3011 43.3906 65.9602C43.224 65.6193 42.9607 65.3523 42.6009 65.1591C42.2448 64.9659 41.7751 64.8693 41.1918 64.8693H38.9872V75H37.2315ZM56.858 63.3636V75H55.2443L49.3295 66.4659H49.2216V75H47.4659V63.3636H49.0909L55.0114 71.9091H55.1193V63.3636H56.858ZM63.044 75.1761C62.1842 75.1761 61.4437 74.9924 60.8224 74.625C60.205 74.2538 59.7277 73.733 59.3906 73.0625C59.0573 72.3883 58.8906 71.5985 58.8906 70.6932C58.8906 69.7992 59.0573 69.0114 59.3906 68.3295C59.7277 67.6477 60.1974 67.1155 60.7997 66.733C61.4058 66.3504 62.1141 66.1591 62.9247 66.1591C63.4171 66.1591 63.8944 66.2405 64.3565 66.4034C64.8187 66.5663 65.2334 66.822 65.6009 67.1705C65.9683 67.5189 66.258 67.9716 66.4702 68.5284C66.6823 69.0814 66.7884 69.7538 66.7884 70.5455V71.1477H59.8509V69.875H65.1236C65.1236 69.428 65.0327 69.0322 64.8509 68.6875C64.669 68.339 64.4134 68.0644 64.0838 67.8636C63.758 67.6629 63.3755 67.5625 62.9361 67.5625C62.4588 67.5625 62.0421 67.6799 61.6861 67.9148C61.3338 68.1458 61.0611 68.4489 60.8679 68.8239C60.6785 69.1951 60.5838 69.5985 60.5838 70.0341V71.0284C60.5838 71.6117 60.6861 72.108 60.8906 72.517C61.099 72.9261 61.3887 73.2386 61.7599 73.4545C62.1312 73.6667 62.5649 73.7727 63.0611 73.7727C63.383 73.7727 63.6766 73.7273 63.9418 73.6364C64.2069 73.5417 64.4361 73.4015 64.6293 73.2159C64.8224 73.0303 64.9702 72.8011 65.0724 72.5284L66.6804 72.8182C66.5516 73.2917 66.3205 73.7064 65.9872 74.0625C65.6577 74.4148 65.2429 74.6894 64.7429 74.8864C64.2467 75.0795 63.6804 75.1761 63.044 75.1761ZM69.8111 66.2727L71.7372 69.6705L73.6804 66.2727H75.5384L72.8168 70.6364L75.5611 75H73.7031L71.7372 71.7386L69.777 75H67.9134L70.6293 70.6364L67.9474 66.2727H69.8111ZM81.3565 66.2727V67.6364H76.5895V66.2727H81.3565ZM77.8679 64.1818H79.5668V72.4375C79.5668 72.767 79.616 73.0152 79.7145 73.1818C79.813 73.3447 79.9399 73.4564 80.0952 73.517C80.2543 73.5739 80.4266 73.6023 80.6122 73.6023C80.7486 73.6023 80.8679 73.5928 80.9702 73.5739C81.0724 73.5549 81.152 73.5398 81.2088 73.5284L81.5156 74.9318C81.4171 74.9697 81.277 75.0076 81.0952 75.0455C80.9134 75.0871 80.6861 75.1098 80.4134 75.1136C79.9664 75.1212 79.5497 75.0417 79.1634 74.875C78.777 74.7083 78.4645 74.4508 78.2259 74.1023C77.9872 73.7538 77.8679 73.3163 77.8679 72.7898V64.1818ZM21.0455 95H17.2784V83.3636H21.1648C22.3049 83.3636 23.2841 83.5966 24.1023 84.0625C24.9205 84.5246 25.5473 85.1894 25.983 86.0568C26.4223 86.9205 26.642 87.9564 26.642 89.1648C26.642 90.3769 26.4205 91.4186 25.9773 92.2898C25.5379 93.161 24.9015 93.8314 24.0682 94.3011C23.2348 94.767 22.2273 95 21.0455 95ZM19.0341 93.4659H20.9489C21.8352 93.4659 22.572 93.2992 23.1591 92.9659C23.7462 92.6288 24.1856 92.142 24.4773 91.5057C24.7689 90.8655 24.9148 90.0852 24.9148 89.1648C24.9148 88.2519 24.7689 87.4773 24.4773 86.8409C24.1894 86.2045 23.7595 85.7216 23.1875 85.392C22.6155 85.0625 21.9053 84.8977 21.0568 84.8977H19.0341V93.4659ZM32.4503 95.1761C31.5904 95.1761 30.8499 94.9924 30.2287 94.625C29.6113 94.2538 29.134 93.733 28.7969 93.0625C28.4635 92.3883 28.2969 91.5985 28.2969 90.6932C28.2969 89.7992 28.4635 89.0114 28.7969 88.3295C29.134 87.6477 29.6037 87.1155 30.206 86.733C30.812 86.3504 31.5204 86.1591 32.331 86.1591C32.8234 86.1591 33.3007 86.2405 33.7628 86.4034C34.2249 86.5663 34.6397 86.822 35.0071 87.1705C35.3745 87.5189 35.6643 87.9716 35.8764 88.5284C36.0885 89.0814 36.1946 89.7538 36.1946 90.5455V91.1477H29.2571V89.875H34.5298C34.5298 89.428 34.4389 89.0322 34.2571 88.6875C34.0753 88.339 33.8196 88.0644 33.4901 87.8636C33.1643 87.6629 32.7817 87.5625 32.3423 87.5625C31.8651 87.5625 31.4484 87.6799 31.0923 87.9148C30.7401 88.1458 30.4673 88.4489 30.2741 88.8239C30.0848 89.1951 29.9901 89.5985 29.9901 90.0341V91.0284C29.9901 91.6117 30.0923 92.108 30.2969 92.517C30.5052 92.9261 30.795 93.2386 31.1662 93.4545C31.5374 93.6667 31.9711 93.7727 32.4673 93.7727C32.7893 93.7727 33.0829 93.7273 33.348 93.6364C33.6132 93.5417 33.8423 93.4015 34.0355 93.2159C34.2287 93.0303 34.3764 92.8011 34.4787 92.5284L36.0866 92.8182C35.9579 93.2917 35.7268 93.7064 35.3935 94.0625C35.0639 94.4148 34.6491 94.6894 34.1491 94.8864C33.6529 95.0795 33.0866 95.1761 32.4503 95.1761ZM45.2955 86.2727L42.1307 95H40.3125L37.142 86.2727H38.9659L41.1761 92.9886H41.267L43.4716 86.2727H45.2955ZM50.3565 95.1761C49.4967 95.1761 48.7562 94.9924 48.1349 94.625C47.5175 94.2538 47.0402 93.733 46.7031 93.0625C46.3698 92.3883 46.2031 91.5985 46.2031 90.6932C46.2031 89.7992 46.3698 89.0114 46.7031 88.3295C47.0402 87.6477 47.5099 87.1155 48.1122 86.733C48.7183 86.3504 49.4266 86.1591 50.2372 86.1591C50.7296 86.1591 51.2069 86.2405 51.669 86.4034C52.1312 86.5663 52.5459 86.822 52.9134 87.1705C53.2808 87.5189 53.5705 87.9716 53.7827 88.5284C53.9948 89.0814 54.1009 89.7538 54.1009 90.5455V91.1477H47.1634V89.875H52.4361C52.4361 89.428 52.3452 89.0322 52.1634 88.6875C51.9815 88.339 51.7259 88.0644 51.3963 87.8636C51.0705 87.6629 50.688 87.5625 50.2486 87.5625C49.7713 87.5625 49.3546 87.6799 48.9986 87.9148C48.6463 88.1458 48.3736 88.4489 48.1804 88.8239C47.991 89.1951 47.8963 89.5985 47.8963 90.0341V91.0284C47.8963 91.6117 47.9986 92.108 48.2031 92.517C48.4115 92.9261 48.7012 93.2386 49.0724 93.4545C49.4437 93.6667 49.8774 93.7727 50.3736 93.7727C50.6955 93.7727 50.9891 93.7273 51.2543 93.6364C51.5194 93.5417 51.7486 93.4015 51.9418 93.2159C52.1349 93.0303 52.2827 92.8011 52.3849 92.5284L53.9929 92.8182C53.8641 93.2917 53.633 93.7064 53.2997 94.0625C52.9702 94.4148 52.5554 94.6894 52.0554 94.8864C51.5592 95.0795 50.9929 95.1761 50.3565 95.1761ZM57.6847 83.3636V95H55.9858V83.3636H57.6847ZM63.6463 95.1761C62.8281 95.1761 62.1141 94.9886 61.5043 94.6136C60.8944 94.2386 60.4209 93.714 60.0838 93.0398C59.7467 92.3655 59.5781 91.5777 59.5781 90.6761C59.5781 89.7708 59.7467 88.9792 60.0838 88.3011C60.4209 87.6231 60.8944 87.0966 61.5043 86.7216C62.1141 86.3466 62.8281 86.1591 63.6463 86.1591C64.4645 86.1591 65.1785 86.3466 65.7884 86.7216C66.3982 87.0966 66.8717 87.6231 67.2088 88.3011C67.5459 88.9792 67.7145 89.7708 67.7145 90.6761C67.7145 91.5777 67.5459 92.3655 67.2088 93.0398C66.8717 93.714 66.3982 94.2386 65.7884 94.6136C65.1785 94.9886 64.4645 95.1761 63.6463 95.1761ZM63.652 93.75C64.1823 93.75 64.6217 93.6098 64.9702 93.3295C65.3187 93.0492 65.5762 92.6761 65.7429 92.2102C65.9134 91.7443 65.9986 91.2311 65.9986 90.6705C65.9986 90.1136 65.9134 89.6023 65.7429 89.1364C65.5762 88.6667 65.3187 88.2898 64.9702 88.0057C64.6217 87.7216 64.1823 87.5795 63.652 87.5795C63.1179 87.5795 62.6747 87.7216 62.3224 88.0057C61.974 88.2898 61.7145 88.6667 61.544 89.1364C61.3774 89.6023 61.294 90.1136 61.294 90.6705C61.294 91.2311 61.3774 91.7443 61.544 92.2102C61.7145 92.6761 61.974 93.0492 62.3224 93.3295C62.6747 93.6098 63.1179 93.75 63.652 93.75ZM69.6108 98.2727V86.2727H71.2699V87.6875H71.4119C71.5104 87.5057 71.6525 87.2955 71.8381 87.0568C72.0237 86.8182 72.2813 86.6098 72.6108 86.4318C72.9403 86.25 73.3759 86.1591 73.9176 86.1591C74.6222 86.1591 75.2509 86.3371 75.804 86.6932C76.357 87.0492 76.7907 87.5625 77.1051 88.233C77.4233 88.9034 77.5824 89.7102 77.5824 90.6534C77.5824 91.5966 77.4252 92.4053 77.1108 93.0795C76.7964 93.75 76.3646 94.267 75.8153 94.6307C75.2661 94.9905 74.6392 95.1705 73.9347 95.1705C73.4044 95.1705 72.9706 95.0814 72.6335 94.9034C72.3002 94.7254 72.0388 94.517 71.8494 94.2784C71.66 94.0398 71.5142 93.8277 71.4119 93.642H71.3097V98.2727H69.6108ZM71.2756 90.6364C71.2756 91.25 71.3646 91.7879 71.5426 92.25C71.7206 92.7121 71.9782 93.0739 72.3153 93.3352C72.6525 93.5928 73.0653 93.7216 73.554 93.7216C74.0616 93.7216 74.4858 93.5871 74.8267 93.3182C75.1676 93.0455 75.4252 92.6761 75.5994 92.2102C75.7775 91.7443 75.8665 91.2197 75.8665 90.6364C75.8665 90.0606 75.7794 89.5436 75.6051 89.0852C75.4347 88.6269 75.1771 88.2652 74.8324 88C74.4915 87.7348 74.0653 87.6023 73.554 87.6023C73.0616 87.6023 72.6449 87.7292 72.304 87.983C71.9669 88.2367 71.7112 88.5909 71.5369 89.0455C71.3627 89.5 71.2756 90.0303 71.2756 90.6364ZM83.2472 95.1761C82.3873 95.1761 81.6468 94.9924 81.0256 94.625C80.4081 94.2538 79.9309 93.733 79.5938 93.0625C79.2604 92.3883 79.0938 91.5985 79.0938 90.6932C79.0938 89.7992 79.2604 89.0114 79.5938 88.3295C79.9309 87.6477 80.4006 87.1155 81.0028 86.733C81.6089 86.3504 82.3172 86.1591 83.1278 86.1591C83.6203 86.1591 84.0975 86.2405 84.5597 86.4034C85.0218 86.5663 85.4366 86.822 85.804 87.1705C86.1714 87.5189 86.4612 87.9716 86.6733 88.5284C86.8854 89.0814 86.9915 89.7538 86.9915 90.5455V91.1477H80.054V89.875H85.3267C85.3267 89.428 85.2358 89.0322 85.054 88.6875C84.8722 88.339 84.6165 88.0644 84.2869 87.8636C83.9612 87.6629 83.5786 87.5625 83.1392 87.5625C82.6619 87.5625 82.2453 87.6799 81.8892 87.9148C81.5369 88.1458 81.2642 88.4489 81.071 88.8239C80.8816 89.1951 80.7869 89.5985 80.7869 90.0341V91.0284C80.7869 91.6117 80.8892 92.108 81.0938 92.517C81.3021 92.9261 81.5919 93.2386 81.9631 93.4545C82.3343 93.6667 82.768 93.7727 83.2642 93.7727C83.5862 93.7727 83.8797 93.7273 84.1449 93.6364C84.41 93.5417 84.6392 93.4015 84.8324 93.2159C85.0256 93.0303 85.1733 92.8011 85.2756 92.5284L86.8835 92.8182C86.7547 93.2917 86.5237 93.7064 86.1903 94.0625C85.8608 94.4148 85.446 94.6894 84.946 94.8864C84.4498 95.0795 83.8835 95.1761 83.2472 95.1761ZM88.8764 95V86.2727H90.5185V87.6591H90.6094C90.7685 87.1894 91.0488 86.8201 91.4503 86.5511C91.8556 86.2784 92.3139 86.142 92.8253 86.142C92.9313 86.142 93.0563 86.1458 93.2003 86.1534C93.348 86.161 93.4635 86.1705 93.5469 86.1818V87.8068C93.4787 87.7879 93.3575 87.767 93.1832 87.7443C93.009 87.7178 92.8348 87.7045 92.6605 87.7045C92.259 87.7045 91.901 87.7898 91.5866 87.9602C91.276 88.1269 91.0298 88.3598 90.848 88.6591C90.6662 88.9545 90.5753 89.2917 90.5753 89.6705V95H88.8764ZM101.557 88.4034L100.017 88.6761C99.9527 88.4792 99.8504 88.2917 99.7102 88.1136C99.5739 87.9356 99.3883 87.7898 99.1534 87.6761C98.9186 87.5625 98.625 87.5057 98.2727 87.5057C97.7917 87.5057 97.3902 87.6136 97.0682 87.8295C96.7462 88.0417 96.5852 88.3163 96.5852 88.6534C96.5852 88.9451 96.6932 89.1799 96.9091 89.358C97.125 89.536 97.4735 89.6818 97.9545 89.7955L99.3409 90.1136C100.144 90.2992 100.742 90.5852 101.136 90.9716C101.53 91.358 101.727 91.8598 101.727 92.4773C101.727 93 101.576 93.4659 101.273 93.875C100.973 94.2803 100.555 94.5985 100.017 94.8295C99.483 95.0606 98.8636 95.1761 98.1591 95.1761C97.1818 95.1761 96.3845 94.9678 95.767 94.5511C95.1496 94.1307 94.7708 93.5341 94.6307 92.7614L96.2727 92.5114C96.375 92.9394 96.5852 93.2633 96.9034 93.483C97.2216 93.6989 97.6364 93.8068 98.1477 93.8068C98.7045 93.8068 99.1496 93.6913 99.483 93.4602C99.8163 93.2254 99.983 92.9394 99.983 92.6023C99.983 92.3295 99.8807 92.1004 99.6761 91.9148C99.4754 91.7292 99.1667 91.589 98.75 91.4943L97.2727 91.1705C96.4583 90.9848 95.8561 90.6894 95.4659 90.2841C95.0795 89.8788 94.8864 89.3655 94.8864 88.7443C94.8864 88.2292 95.0303 87.7784 95.3182 87.392C95.6061 87.0057 96.0038 86.7045 96.5114 86.4886C97.0189 86.2689 97.6004 86.1591 98.2557 86.1591C99.1989 86.1591 99.9413 86.3636 100.483 86.7727C101.025 87.178 101.383 87.7216 101.557 88.4034Z" fill="#31393C"/>
<path d="M206.278 75V63.3636H213.574V64.875H208.034V68.4205H213.193V69.9261H208.034V73.4886H213.642V75H206.278ZM215.919 75V63.3636H220.067C220.968 63.3636 221.716 63.5189 222.311 63.8295C222.91 64.1402 223.357 64.5701 223.652 65.1193C223.947 65.6648 224.095 66.2955 224.095 67.0114C224.095 67.7235 223.946 68.3504 223.646 68.892C223.351 69.4299 222.904 69.8485 222.305 70.1477C221.711 70.447 220.963 70.5966 220.061 70.5966H216.919V69.0852H219.902C220.47 69.0852 220.932 69.0038 221.288 68.8409C221.648 68.678 221.911 68.4413 222.078 68.1307C222.245 67.8201 222.328 67.447 222.328 67.0114C222.328 66.572 222.243 66.1913 222.072 65.8693C221.906 65.5473 221.643 65.3011 221.283 65.1307C220.927 64.9564 220.459 64.8693 219.879 64.8693H217.675V75H215.919ZM221.663 69.75L224.538 75H222.538L219.72 69.75H221.663ZM226.232 75V63.3636H230.379C231.285 63.3636 232.035 63.5284 232.629 63.858C233.224 64.1875 233.669 64.6383 233.964 65.2102C234.26 65.7784 234.408 66.4186 234.408 67.1307C234.408 67.8466 234.258 68.4905 233.959 69.0625C233.663 69.6307 233.216 70.0814 232.618 70.4148C232.023 70.7443 231.275 70.9091 230.374 70.9091H227.521V69.4205H230.214C230.786 69.4205 231.25 69.322 231.607 69.125C231.963 68.9242 232.224 68.6515 232.391 68.3068C232.557 67.9621 232.641 67.5701 232.641 67.1307C232.641 66.6913 232.557 66.3011 232.391 65.9602C232.224 65.6193 231.961 65.3523 231.601 65.1591C231.245 64.9659 230.775 64.8693 230.192 64.8693H227.987V75H226.232ZM245.858 63.3636V75H244.244L238.33 66.4659H238.222V75H236.466V63.3636H238.091L244.011 71.9091H244.119V63.3636H245.858ZM252.044 75.1761C251.184 75.1761 250.444 74.9924 249.822 74.625C249.205 74.2538 248.728 73.733 248.391 73.0625C248.057 72.3883 247.891 71.5985 247.891 70.6932C247.891 69.7992 248.057 69.0114 248.391 68.3295C248.728 67.6477 249.197 67.1155 249.8 66.733C250.406 66.3504 251.114 66.1591 251.925 66.1591C252.417 66.1591 252.894 66.2405 253.357 66.4034C253.819 66.5663 254.233 66.822 254.601 67.1705C254.968 67.5189 255.258 67.9716 255.47 68.5284C255.682 69.0814 255.788 69.7538 255.788 70.5455V71.1477H248.851V69.875H254.124C254.124 69.428 254.033 69.0322 253.851 68.6875C253.669 68.339 253.413 68.0644 253.084 67.8636C252.758 67.6629 252.375 67.5625 251.936 67.5625C251.459 67.5625 251.042 67.6799 250.686 67.9148C250.334 68.1458 250.061 68.4489 249.868 68.8239C249.679 69.1951 249.584 69.5985 249.584 70.0341V71.0284C249.584 71.6117 249.686 72.108 249.891 72.517C250.099 72.9261 250.389 73.2386 250.76 73.4545C251.131 73.6667 251.565 73.7727 252.061 73.7727C252.383 73.7727 252.677 73.7273 252.942 73.6364C253.207 73.5417 253.436 73.4015 253.629 73.2159C253.822 73.0303 253.97 72.8011 254.072 72.5284L255.68 72.8182C255.552 73.2917 255.321 73.7064 254.987 74.0625C254.658 74.4148 254.243 74.6894 253.743 74.8864C253.247 75.0795 252.68 75.1761 252.044 75.1761ZM258.811 66.2727L260.737 69.6705L262.68 66.2727H264.538L261.817 70.6364L264.561 75H262.703L260.737 71.7386L258.777 75H256.913L259.629 70.6364L256.947 66.2727H258.811ZM270.357 66.2727V67.6364H265.589V66.2727H270.357ZM266.868 64.1818H268.567V72.4375C268.567 72.767 268.616 73.0152 268.714 73.1818C268.813 73.3447 268.94 73.4564 269.095 73.517C269.254 73.5739 269.427 73.6023 269.612 73.6023C269.749 73.6023 269.868 73.5928 269.97 73.5739C270.072 73.5549 270.152 73.5398 270.209 73.5284L270.516 74.9318C270.417 74.9697 270.277 75.0076 270.095 75.0455C269.913 75.0871 269.686 75.1098 269.413 75.1136C268.966 75.1212 268.55 75.0417 268.163 74.875C267.777 74.7083 267.464 74.4508 267.226 74.1023C266.987 73.7538 266.868 73.3163 266.868 72.7898V64.1818ZM206.278 95V83.3636H213.494V84.875H208.034V88.4205H212.977V89.9261H208.034V95H206.278ZM215.408 95V86.2727H217.05V87.6591H217.141C217.3 87.1894 217.58 86.8201 217.982 86.5511C218.387 86.2784 218.845 86.142 219.357 86.142C219.463 86.142 219.588 86.1458 219.732 86.1534C219.879 86.161 219.995 86.1705 220.078 86.1818V87.8068C220.01 87.7879 219.889 87.767 219.714 87.7443C219.54 87.7178 219.366 87.7045 219.192 87.7045C218.79 87.7045 218.432 87.7898 218.118 87.9602C217.807 88.1269 217.561 88.3598 217.379 88.6591C217.197 88.9545 217.107 89.2917 217.107 89.6705V95H215.408ZM224.01 95.1932C223.457 95.1932 222.957 95.0909 222.51 94.8864C222.063 94.678 221.709 94.3769 221.447 93.983C221.19 93.589 221.061 93.1061 221.061 92.5341C221.061 92.0417 221.156 91.6364 221.345 91.3182C221.535 91 221.79 90.7481 222.112 90.5625C222.434 90.3769 222.794 90.2367 223.192 90.142C223.589 90.0473 223.995 89.9754 224.408 89.9261C224.93 89.8655 225.355 89.8163 225.68 89.7784C226.006 89.7367 226.243 89.6705 226.391 89.5795C226.538 89.4886 226.612 89.3409 226.612 89.1364V89.0966C226.612 88.6004 226.472 88.2159 226.192 87.9432C225.915 87.6705 225.502 87.5341 224.953 87.5341C224.381 87.5341 223.93 87.661 223.601 87.9148C223.275 88.1648 223.05 88.4432 222.925 88.75L221.328 88.3864C221.518 87.8561 221.794 87.428 222.158 87.1023C222.525 86.7727 222.947 86.5341 223.425 86.3864C223.902 86.2348 224.404 86.1591 224.93 86.1591C225.279 86.1591 225.648 86.2008 226.038 86.2841C226.432 86.3636 226.8 86.5114 227.141 86.7273C227.485 86.9432 227.768 87.2519 227.987 87.6534C228.207 88.0511 228.317 88.5682 228.317 89.2045V95H226.658V93.8068H226.589C226.48 94.0265 226.315 94.2424 226.095 94.4545C225.875 94.6667 225.593 94.8428 225.249 94.983C224.904 95.1231 224.491 95.1932 224.01 95.1932ZM224.379 93.8295C224.849 93.8295 225.25 93.7367 225.584 93.5511C225.921 93.3655 226.177 93.1231 226.351 92.8239C226.529 92.5208 226.618 92.197 226.618 91.8523V90.7273C226.557 90.7879 226.44 90.8447 226.266 90.8977C226.095 90.947 225.9 90.9905 225.68 91.0284C225.461 91.0625 225.247 91.0947 225.038 91.125C224.83 91.1515 224.656 91.1742 224.516 91.1932C224.186 91.2348 223.885 91.3049 223.612 91.4034C223.343 91.5019 223.127 91.6439 222.964 91.8295C222.805 92.0114 222.726 92.2538 222.726 92.5568C222.726 92.9773 222.881 93.2955 223.192 93.5114C223.502 93.7235 223.898 93.8295 224.379 93.8295ZM230.58 98.2727V86.2727H232.239V87.6875H232.381C232.479 87.5057 232.621 87.2955 232.807 87.0568C232.992 86.8182 233.25 86.6098 233.58 86.4318C233.909 86.25 234.345 86.1591 234.886 86.1591C235.591 86.1591 236.22 86.3371 236.773 86.6932C237.326 87.0492 237.759 87.5625 238.074 88.233C238.392 88.9034 238.551 89.7102 238.551 90.6534C238.551 91.5966 238.394 92.4053 238.08 93.0795C237.765 93.75 237.333 94.267 236.784 94.6307C236.235 94.9905 235.608 95.1705 234.903 95.1705C234.373 95.1705 233.939 95.0814 233.602 94.9034C233.269 94.7254 233.008 94.517 232.818 94.2784C232.629 94.0398 232.483 93.8277 232.381 93.642H232.278V98.2727H230.58ZM232.244 90.6364C232.244 91.25 232.333 91.7879 232.511 92.25C232.689 92.7121 232.947 93.0739 233.284 93.3352C233.621 93.5928 234.034 93.7216 234.523 93.7216C235.03 93.7216 235.455 93.5871 235.795 93.3182C236.136 93.0455 236.394 92.6761 236.568 92.2102C236.746 91.7443 236.835 91.2197 236.835 90.6364C236.835 90.0606 236.748 89.5436 236.574 89.0852C236.403 88.6269 236.146 88.2652 235.801 88C235.46 87.7348 235.034 87.6023 234.523 87.6023C234.03 87.6023 233.614 87.7292 233.273 87.983C232.936 88.2367 232.68 88.5909 232.506 89.0455C232.331 89.5 232.244 90.0303 232.244 90.6364ZM240.455 98.2727V86.2727H242.114V87.6875H242.256C242.354 87.5057 242.496 87.2955 242.682 87.0568C242.867 86.8182 243.125 86.6098 243.455 86.4318C243.784 86.25 244.22 86.1591 244.761 86.1591C245.466 86.1591 246.095 86.3371 246.648 86.6932C247.201 87.0492 247.634 87.5625 247.949 88.233C248.267 88.9034 248.426 89.7102 248.426 90.6534C248.426 91.5966 248.269 92.4053 247.955 93.0795C247.64 93.75 247.208 94.267 246.659 94.6307C246.11 94.9905 245.483 95.1705 244.778 95.1705C244.248 95.1705 243.814 95.0814 243.477 94.9034C243.144 94.7254 242.883 94.517 242.693 94.2784C242.504 94.0398 242.358 93.8277 242.256 93.642H242.153V98.2727H240.455ZM242.119 90.6364C242.119 91.25 242.208 91.7879 242.386 92.25C242.564 92.7121 242.822 93.0739 243.159 93.3352C243.496 93.5928 243.909 93.7216 244.398 93.7216C244.905 93.7216 245.33 93.5871 245.67 93.3182C246.011 93.0455 246.269 92.6761 246.443 92.2102C246.621 91.7443 246.71 91.2197 246.71 90.6364C246.71 90.0606 246.623 89.5436 246.449 89.0852C246.278 88.6269 246.021 88.2652 245.676 88C245.335 87.7348 244.909 87.6023 244.398 87.6023C243.905 87.6023 243.489 87.7292 243.148 87.983C242.811 88.2367 242.555 88.5909 242.381 89.0455C242.206 89.5 242.119 90.0303 242.119 90.6364ZM254.091 95.1761C253.231 95.1761 252.491 94.9924 251.869 94.625C251.252 94.2538 250.775 93.733 250.438 93.0625C250.104 92.3883 249.938 91.5985 249.938 90.6932C249.938 89.7992 250.104 89.0114 250.438 88.3295C250.775 87.6477 251.244 87.1155 251.847 86.733C252.453 86.3504 253.161 86.1591 253.972 86.1591C254.464 86.1591 254.941 86.2405 255.403 86.4034C255.866 86.5663 256.28 86.822 256.648 87.1705C257.015 87.5189 257.305 87.9716 257.517 88.5284C257.729 89.0814 257.835 89.7538 257.835 90.5455V91.1477H250.898V89.875H256.17C256.17 89.428 256.08 89.0322 255.898 88.6875C255.716 88.339 255.46 88.0644 255.131 87.8636C254.805 87.6629 254.422 87.5625 253.983 87.5625C253.506 87.5625 253.089 87.6799 252.733 87.9148C252.381 88.1458 252.108 88.4489 251.915 88.8239C251.725 89.1951 251.631 89.5985 251.631 90.0341V91.0284C251.631 91.6117 251.733 92.108 251.938 92.517C252.146 92.9261 252.436 93.2386 252.807 93.4545C253.178 93.6667 253.612 93.7727 254.108 93.7727C254.43 93.7727 254.723 93.7273 254.989 93.6364C255.254 93.5417 255.483 93.4015 255.676 93.2159C255.869 93.0303 256.017 92.8011 256.119 92.5284L257.727 92.8182C257.598 93.2917 257.367 93.7064 257.034 94.0625C256.705 94.4148 256.29 94.6894 255.79 94.8864C255.294 95.0795 254.727 95.1761 254.091 95.1761ZM264.091 95V83.3636H268.239C269.144 83.3636 269.894 83.5284 270.489 83.858C271.083 84.1875 271.528 84.6383 271.824 85.2102C272.119 85.7784 272.267 86.4186 272.267 87.1307C272.267 87.8466 272.117 88.4905 271.818 89.0625C271.523 89.6307 271.076 90.0814 270.477 90.4148C269.883 90.7443 269.134 90.9091 268.233 90.9091H265.381V89.4205H268.074C268.646 89.4205 269.11 89.322 269.466 89.125C269.822 88.9242 270.083 88.6515 270.25 88.3068C270.417 87.9621 270.5 87.5701 270.5 87.1307C270.5 86.6913 270.417 86.3011 270.25 85.9602C270.083 85.6193 269.82 85.3523 269.46 85.1591C269.104 84.9659 268.634 84.8693 268.051 84.8693H265.847V95H264.091ZM276.651 95.1932C276.098 95.1932 275.598 95.0909 275.151 94.8864C274.704 94.678 274.349 94.3769 274.088 93.983C273.83 93.589 273.702 93.1061 273.702 92.5341C273.702 92.0417 273.796 91.6364 273.986 91.3182C274.175 91 274.431 90.7481 274.753 90.5625C275.075 90.3769 275.435 90.2367 275.832 90.142C276.23 90.0473 276.635 89.9754 277.048 89.9261C277.571 89.8655 277.995 89.8163 278.321 89.7784C278.647 89.7367 278.884 89.6705 279.031 89.5795C279.179 89.4886 279.253 89.3409 279.253 89.1364V89.0966C279.253 88.6004 279.113 88.2159 278.832 87.9432C278.556 87.6705 278.143 87.5341 277.594 87.5341C277.022 87.5341 276.571 87.661 276.241 87.9148C275.916 88.1648 275.69 88.4432 275.565 88.75L273.969 88.3864C274.158 87.8561 274.435 87.428 274.798 87.1023C275.166 86.7727 275.588 86.5341 276.065 86.3864C276.543 86.2348 277.045 86.1591 277.571 86.1591C277.92 86.1591 278.289 86.2008 278.679 86.2841C279.073 86.3636 279.44 86.5114 279.781 86.7273C280.126 86.9432 280.408 87.2519 280.628 87.6534C280.848 88.0511 280.957 88.5682 280.957 89.2045V95H279.298V93.8068H279.23C279.12 94.0265 278.955 94.2424 278.736 94.4545C278.516 94.6667 278.234 94.8428 277.889 94.983C277.545 95.1231 277.132 95.1932 276.651 95.1932ZM277.02 93.8295C277.49 93.8295 277.891 93.7367 278.224 93.5511C278.562 93.3655 278.817 93.1231 278.991 92.8239C279.17 92.5208 279.259 92.197 279.259 91.8523V90.7273C279.198 90.7879 279.08 90.8447 278.906 90.8977C278.736 90.947 278.541 90.9905 278.321 91.0284C278.101 91.0625 277.887 91.0947 277.679 91.125C277.471 91.1515 277.296 91.1742 277.156 91.1932C276.827 91.2348 276.526 91.3049 276.253 91.4034C275.984 91.5019 275.768 91.6439 275.605 91.8295C275.446 92.0114 275.366 92.2538 275.366 92.5568C275.366 92.9773 275.522 93.2955 275.832 93.5114C276.143 93.7235 276.539 93.8295 277.02 93.8295ZM283.22 95V86.2727H284.862V87.6591H284.953C285.112 87.1894 285.393 86.8201 285.794 86.5511C286.199 86.2784 286.658 86.142 287.169 86.142C287.275 86.142 287.4 86.1458 287.544 86.1534C287.692 86.161 287.807 86.1705 287.891 86.1818V87.8068C287.822 87.7879 287.701 87.767 287.527 87.7443C287.353 87.7178 287.179 87.7045 287.004 87.7045C286.603 87.7045 286.245 87.7898 285.93 87.9602C285.62 88.1269 285.374 88.3598 285.192 88.6591C285.01 88.9545 284.919 89.2917 284.919 89.6705V95H283.22ZM293.95 86.2727V87.6364H289.183V86.2727H293.95ZM290.462 84.1818H292.161V92.4375C292.161 92.767 292.21 93.0152 292.308 93.1818C292.407 93.3447 292.534 93.4564 292.689 93.517C292.848 93.5739 293.02 93.6023 293.206 93.6023C293.342 93.6023 293.462 93.5928 293.564 93.5739C293.666 93.5549 293.746 93.5398 293.803 93.5284L294.109 94.9318C294.011 94.9697 293.871 95.0076 293.689 95.0455C293.507 95.0871 293.28 95.1098 293.007 95.1136C292.56 95.1212 292.143 95.0417 291.757 94.875C291.371 94.7083 291.058 94.4508 290.82 94.1023C290.581 93.7538 290.462 93.3163 290.462 92.7898V84.1818ZM297.528 89.8182V95H295.83V86.2727H297.46V87.6932H297.568C297.769 87.2311 298.083 86.8598 298.511 86.5795C298.943 86.2992 299.487 86.1591 300.142 86.1591C300.737 86.1591 301.258 86.2841 301.705 86.5341C302.152 86.7803 302.498 87.1477 302.744 87.6364C302.991 88.125 303.114 88.7292 303.114 89.4489V95H301.415V89.6534C301.415 89.0208 301.25 88.5265 300.92 88.1705C300.591 87.8106 300.138 87.6307 299.562 87.6307C299.169 87.6307 298.818 87.7159 298.511 87.8864C298.208 88.0568 297.968 88.3068 297.79 88.6364C297.616 88.9621 297.528 89.3561 297.528 89.8182ZM309.153 95.1761C308.294 95.1761 307.553 94.9924 306.932 94.625C306.314 94.2538 305.837 93.733 305.5 93.0625C305.167 92.3883 305 91.5985 305 90.6932C305 89.7992 305.167 89.0114 305.5 88.3295C305.837 87.6477 306.307 87.1155 306.909 86.733C307.515 86.3504 308.223 86.1591 309.034 86.1591C309.527 86.1591 310.004 86.2405 310.466 86.4034C310.928 86.5663 311.343 86.822 311.71 87.1705C312.078 87.5189 312.367 87.9716 312.58 88.5284C312.792 89.0814 312.898 89.7538 312.898 90.5455V91.1477H305.96V89.875H311.233C311.233 89.428 311.142 89.0322 310.96 88.6875C310.778 88.339 310.523 88.0644 310.193 87.8636C309.867 87.6629 309.485 87.5625 309.045 87.5625C308.568 87.5625 308.152 87.6799 307.795 87.9148C307.443 88.1458 307.17 88.4489 306.977 88.8239C306.788 89.1951 306.693 89.5985 306.693 90.0341V91.0284C306.693 91.6117 306.795 92.108 307 92.517C307.208 92.9261 307.498 93.2386 307.869 93.4545C308.241 93.6667 308.674 93.7727 309.17 93.7727C309.492 93.7727 309.786 93.7273 310.051 93.6364C310.316 93.5417 310.545 93.4015 310.739 93.2159C310.932 93.0303 311.08 92.8011 311.182 92.5284L312.79 92.8182C312.661 93.2917 312.43 93.7064 312.097 94.0625C311.767 94.4148 311.352 94.6894 310.852 94.8864C310.356 95.0795 309.79 95.1761 309.153 95.1761ZM314.783 95V86.2727H316.425V87.6591H316.516C316.675 87.1894 316.955 86.8201 317.357 86.5511C317.762 86.2784 318.22 86.142 318.732 86.142C318.838 86.142 318.963 86.1458 319.107 86.1534C319.254 86.161 319.37 86.1705 319.453 86.1818V87.8068C319.385 87.7879 319.264 87.767 319.089 87.7443C318.915 87.7178 318.741 87.7045 318.567 87.7045C318.165 87.7045 317.807 87.7898 317.493 87.9602C317.182 88.1269 316.936 88.3598 316.754 88.6591C316.572 88.9545 316.482 89.2917 316.482 89.6705V95H314.783Z" fill="#31393C"/>
<rect width="2" height="83" transform="matrix(-1 0 0 1 2 12)" fill="#D9E3EC"/>
<rect width="2" height="83" transform="matrix(-1 0 0 1 191 12)" fill="#D9E3EC"/>
<defs>
<clipPath id="clip0_1_72">
<rect width="96" height="35.3598" fill="white" transform="translate(206 12)"/>
</clipPath>
</defs>
</svg>
