<svg width="907" height="50" viewBox="0 0 907 50" fill="none" xmlns="http://www.w3.org/2000/svg">
<path d="M143.265 39.256C141.816 37.9344 141.393 35.1578 141.997 33.1462C143.043 34.4144 144.493 34.8163 145.995 35.0429C148.313 35.393 150.59 35.2621 152.744 34.2045C152.991 34.0835 153.218 33.9222 153.488 33.7594C153.69 34.3443 153.742 34.9351 153.672 35.5363C153.5 37.0007 152.77 38.1319 151.609 38.9892C151.144 39.3322 150.653 39.6388 150.173 39.9623C148.7 40.9559 148.301 42.1213 148.855 43.8167C148.868 43.858 148.88 43.8993 148.909 44.0001C148.157 43.6641 147.607 43.1748 147.189 42.5316C146.747 41.8525 146.536 41.1015 146.525 40.289C146.52 39.8935 146.52 39.4944 146.466 39.1047C146.336 38.1543 145.889 37.7287 145.047 37.704C144.182 37.6791 143.498 38.2122 143.317 39.0522C143.303 39.1165 143.283 39.1802 143.263 39.2551L143.265 39.256Z" fill="#17191E"/>
<path d="M135 32.811C135 32.811 139.289 30.7258 143.591 30.7258L146.834 20.709C146.955 20.2246 147.31 19.8954 147.71 19.8954C148.11 19.8954 148.465 20.2246 148.586 20.709L151.83 30.7258C156.924 30.7258 160.421 32.811 160.421 32.811C160.421 32.811 153.134 13.0026 153.12 12.9628C152.911 12.3772 152.558 12 152.082 12H143.339C142.863 12 142.524 12.3772 142.301 12.9628C142.285 13.0018 135 32.811 135 32.811Z" fill="#17191E"/>
<path d="M180.225 26.4394C180.225 28.1947 178.037 29.243 175.008 29.243C173.036 29.243 172.339 28.7554 172.339 27.7315C172.339 26.6588 173.204 26.1469 175.176 26.1469C176.955 26.1469 178.469 26.1712 180.225 26.3907V26.4394ZM180.249 24.2697C179.167 24.0259 177.532 23.8796 175.584 23.8796C169.911 23.8796 167.242 25.2205 167.242 28.341C167.242 31.5834 169.069 32.8268 173.3 32.8268C176.883 32.8268 179.311 31.9247 180.2 29.7062H180.344C180.32 30.2426 180.296 30.7789 180.296 31.1933C180.296 32.3391 180.489 32.4367 181.426 32.4367H185.85C185.609 31.7541 185.465 29.8281 185.465 28.1703C185.465 26.3907 185.537 25.0498 185.537 23.2458C185.537 19.5645 183.326 17.2241 176.402 17.2241C173.421 17.2241 170.103 17.7361 167.579 18.4918C167.819 19.4914 168.156 21.5148 168.324 22.8313C170.512 21.8074 173.613 21.3686 176.017 21.3686C179.335 21.3686 180.249 22.1243 180.249 23.6602V24.2697Z" fill="#17191E"/>
<path d="M192.388 27.4634C191.787 27.5365 190.969 27.5365 190.128 27.5365C189.238 27.5365 188.421 27.5121 187.868 27.439C187.868 27.634 187.844 27.8534 187.844 28.0485C187.844 31.0958 189.839 32.8754 196.859 32.8754C203.47 32.8754 205.61 31.1202 205.61 28.0241C205.61 25.0986 204.192 23.6602 197.917 23.3433C193.037 23.1239 192.604 22.5876 192.604 21.9781C192.604 21.2711 193.229 20.9054 196.499 20.9054C199.889 20.9054 200.802 21.3686 200.802 22.3438V22.5632C201.283 22.5388 202.148 22.5144 203.038 22.5144C203.879 22.5144 204.793 22.5388 205.322 22.5876C205.322 22.3681 205.346 22.1731 205.346 22.0025C205.346 18.4187 202.365 17.2485 196.595 17.2485C190.104 17.2485 187.916 18.8332 187.916 21.9293C187.916 24.7085 189.671 26.4395 195.898 26.7076C200.489 26.8539 200.994 27.3659 200.994 28.0728C200.994 28.8286 200.249 29.1699 197.028 29.1699C193.325 29.1699 192.388 28.6579 192.388 27.6096V27.4634Z" fill="#17191E"/>
<path d="M213.546 14.6155C211.791 16.2489 208.642 17.8823 206.887 18.3211C206.911 19.2231 206.911 20.8809 206.911 21.7829L208.521 21.8073C208.497 23.5382 208.473 25.6348 208.473 27.0244C208.473 30.2668 210.18 32.7048 215.493 32.7048C217.729 32.7048 219.22 32.461 221.071 32.0709C220.878 30.8763 220.662 29.0479 220.59 27.6583C219.484 28.024 218.09 28.219 216.551 28.219C214.411 28.219 213.546 27.6339 213.546 25.9518C213.546 24.489 213.546 23.1238 213.57 21.8561C216.311 21.8805 219.051 21.9292 220.662 21.978C220.638 20.7102 220.686 18.8818 220.758 17.6629C218.426 17.7116 215.806 17.736 213.642 17.736C213.666 16.6633 213.69 15.6394 213.714 14.6155H213.546Z" fill="#17191E"/>
<path d="M227.901 21.0516C227.925 19.7839 227.949 18.7113 227.973 17.6629H223.141C223.213 19.7596 223.213 21.9049 223.213 25.0498C223.213 28.1947 223.189 30.3644 223.141 32.4367H228.67C228.574 30.9739 228.55 28.5116 228.55 26.415C228.55 23.0995 229.896 22.1487 232.95 22.1487C234.368 22.1487 235.378 22.3194 236.267 22.6363C236.291 21.393 236.532 18.9794 236.676 17.9068C235.762 17.6386 234.753 17.4679 233.526 17.4679C230.906 17.4436 228.983 18.5162 228.093 21.076L227.901 21.0516Z" fill="#17191E"/>
<path d="M251.977 24.9524C251.977 27.6098 250.054 28.8531 247.025 28.8531C244.02 28.8531 242.097 27.6829 242.097 24.9524C242.097 22.222 244.044 21.1981 247.025 21.1981C250.03 21.1981 251.977 22.2951 251.977 24.9524ZM257.002 24.8305C257.002 19.5403 252.867 17.1755 247.025 17.1755C241.159 17.1755 237.168 19.5403 237.168 24.8305C237.168 30.0964 240.895 32.9245 247.001 32.9245C253.155 32.9245 257.002 30.0964 257.002 24.8305Z" fill="#17191E"/>
<path d="M317.028 19.8507L317.298 19.0645L317.298 19.0645L317.028 19.8507ZM316.605 30.3304L316.866 31.1196L316.866 31.1196L316.605 30.3304ZM293.37 30.3191L293.101 31.1058L293.101 31.1059L293.37 30.3191ZM293.02 19.8828L292.746 19.0976L292.746 19.0976L293.02 19.8828ZM299.126 21.5581L298.406 21.1424L298.406 21.1425L299.126 21.5581ZM306.594 12.1101L307.139 12.7375L307.139 12.7375L306.594 12.1101ZM314.119 9.31871L314.534 8.59834L314.534 8.59833L314.119 9.31871ZM315.47 17.7118L314.656 17.5439L314.656 17.5441L315.47 17.7118ZM311.082 28.4457L311.802 28.8613L311.802 28.8613L311.082 28.4457ZM303.853 37.8124L303.306 37.1862L303.306 37.1862L303.853 37.8124ZM296.031 40.6514L296.446 39.931L296.446 39.9309L296.031 40.6514ZM294.628 32.9014L293.812 32.7462L294.628 32.9014ZM299.132 28.4557L299.851 28.0388L299.851 28.0388L299.132 28.4557ZM294.668 17.2743L293.852 17.4341L293.852 17.4342L294.668 17.2743ZM296.005 9.36741L296.421 10.0871L296.421 10.0871L296.005 9.36741ZM303.959 12.3898L303.407 13.0118L303.407 13.0118L303.959 12.3898ZM311.077 21.5481L310.357 21.965L310.357 21.965L311.077 21.5481ZM315.59 32.4825L316.405 32.3209L316.405 32.3209L315.59 32.4825ZM314.145 40.6701L313.729 39.9504L313.729 39.9504L314.145 40.6701ZM306.724 38.0136L307.265 37.3831L307.265 37.3831L306.724 38.0136ZM307.65 24.9683C307.65 26.3717 306.511 27.5109 305.104 27.5109V29.1736C307.428 29.1736 309.313 27.2916 309.313 24.9683H307.65ZM305.104 27.5109C303.697 27.5109 302.558 26.3717 302.558 24.9683H300.895C300.895 27.2916 302.781 29.1736 305.104 29.1736V27.5109ZM302.558 24.9683C302.558 23.5649 303.697 22.4257 305.104 22.4257V20.763C302.781 20.763 300.895 22.6449 300.895 24.9683H302.558ZM305.104 22.4257C306.511 22.4257 307.65 23.5649 307.65 24.9683H309.313C309.313 22.6449 307.428 20.763 305.104 20.763V22.4257ZM305.104 18.9397C309.569 18.9397 313.687 19.5808 316.758 20.6368L317.298 19.0645C314.017 17.9359 309.709 17.2769 305.104 17.2769V18.9397ZM316.758 20.6368C318.607 21.2729 320.054 22.0582 321.021 22.8642C322.011 23.6894 322.377 24.4283 322.377 24.9683H324.039C324.039 23.7018 323.229 22.5399 322.086 21.587C320.919 20.6149 319.276 19.7446 317.298 19.0645L316.758 20.6368ZM322.377 24.9683C322.377 25.542 321.981 26.3303 320.919 27.2031C319.883 28.0552 318.332 28.8829 316.343 29.5411L316.866 31.1196C318.987 30.4176 320.737 29.5055 321.976 28.4873C323.189 27.4896 324.039 26.277 324.039 24.9683H322.377ZM316.343 29.5411C313.346 30.5332 309.351 31.0642 305.104 31.0642V32.7269C309.466 32.7269 313.649 32.1842 316.866 31.1196L316.343 29.5411ZM305.104 31.0642C300.74 31.0642 296.661 30.5641 293.638 29.5323L293.101 31.1059C296.362 32.2192 300.642 32.7269 305.104 32.7269V31.0642ZM293.638 29.5323C291.721 28.8778 290.23 28.0469 289.235 27.1954C288.216 26.3238 287.831 25.5356 287.831 24.9683H286.169C286.169 26.2476 286.981 27.4561 288.154 28.4589C289.349 29.4818 291.043 30.403 293.101 31.1058L293.638 29.5323ZM287.831 24.9683C287.831 24.4242 288.184 23.6914 289.135 22.8784C290.068 22.0814 291.472 21.3021 293.293 20.6679L292.746 19.0976C290.794 19.7776 289.189 20.6451 288.055 21.6144C286.94 22.5676 286.169 23.7206 286.169 24.9683H287.831ZM293.293 20.6679C296.374 19.595 300.595 18.9397 305.104 18.9397V17.2769C300.456 17.2769 296.042 17.9497 292.746 19.0976L293.293 20.6679ZM299.846 21.9737C302.077 18.1104 304.69 14.8673 307.139 12.7375L306.049 11.4827C303.43 13.759 300.707 17.1574 298.406 21.1424L299.846 21.9737ZM307.139 12.7375C308.615 11.4549 310.019 10.5952 311.201 10.1611C312.411 9.71661 313.235 9.7689 313.704 10.0391L314.534 8.59833C313.437 7.96618 312.025 8.08703 310.627 8.60029C309.202 9.12387 307.626 10.1111 306.049 11.4827L307.139 12.7375ZM313.704 10.0391C314.202 10.326 314.688 11.0629 314.914 12.4167C315.136 13.7389 315.079 15.4944 314.656 17.5439L316.284 17.8798C316.735 15.6934 316.819 13.7226 316.554 12.1423C316.295 10.5936 315.669 9.2518 314.534 8.59834L313.704 10.0391ZM314.656 17.5441C314.02 20.6332 312.484 24.3547 310.362 28.03L311.802 28.8613C313.981 25.0865 315.601 21.1955 316.284 17.8796L314.656 17.5441ZM310.362 28.03C308.182 31.8072 305.711 35.0867 303.306 37.1862L304.4 38.4386C306.995 36.173 309.573 32.7227 311.802 28.8613L310.362 28.03ZM303.306 37.1862C301.781 38.5179 300.315 39.3937 299.08 39.8296C297.815 40.2758 296.939 40.2149 296.446 39.931L295.616 41.3718C296.724 42.0104 298.178 41.911 299.633 41.3976C301.117 40.8739 302.762 39.8689 304.4 38.4386L303.306 37.1862ZM296.446 39.9309C295.974 39.6591 295.514 38.988 295.285 37.7589C295.059 36.554 295.085 34.9492 295.445 33.0567L293.812 32.7462C293.426 34.7755 293.376 36.5984 293.65 38.0644C293.92 39.5062 294.534 40.7492 295.616 41.3719L296.446 39.9309ZM295.445 33.0567C296.053 29.8555 297.594 25.8762 299.846 21.9736L298.406 21.1425C296.085 25.1651 294.463 29.3201 293.812 32.7462L295.445 33.0567ZM299.851 28.0388C297.615 24.18 296.108 20.2982 295.483 17.1143L293.852 17.4342C294.519 20.837 296.105 24.8919 298.413 28.8726L299.851 28.0388ZM295.483 17.1145C295.108 15.197 295.063 13.553 295.277 12.3135C295.496 11.0446 295.953 10.3579 296.421 10.0871L295.589 8.64771C294.492 9.28187 293.892 10.5646 293.639 12.0309C293.381 13.5266 293.45 15.3835 293.852 17.4341L295.483 17.1145ZM296.421 10.0871C296.919 9.79912 297.801 9.74691 299.089 10.2271C300.346 10.696 301.841 11.6224 303.407 13.0118L304.51 11.7679C302.84 10.2858 301.172 9.22937 299.67 8.66915C298.198 8.12019 296.722 7.99251 295.589 8.64773L296.421 10.0871ZM303.407 13.0118C305.768 15.1061 308.229 18.2932 310.357 21.965L311.796 21.1313C309.61 17.3598 307.044 14.0155 304.51 11.7679L303.407 13.0118ZM310.357 21.965C312.544 25.7384 314.154 29.5148 314.774 32.6441L316.405 32.3209C315.736 28.9437 314.031 24.9889 311.796 21.1313L310.357 21.965ZM314.774 32.6441C315.168 34.629 315.195 36.3346 314.956 37.6214C314.711 38.9385 314.221 39.6659 313.729 39.9504L314.562 41.3898C315.669 40.7492 316.309 39.4412 316.591 37.925C316.878 36.3785 316.828 34.4529 316.405 32.3209L314.774 32.6441ZM313.729 39.9504C313.257 40.2235 312.445 40.2857 311.264 39.8706C310.106 39.4637 308.727 38.6397 307.265 37.3831L306.182 38.644C307.749 39.9912 309.305 40.9444 310.713 41.4392C312.097 41.9259 313.482 42.0144 314.562 41.3898L313.729 39.9504ZM307.265 37.3831C304.793 35.2577 302.111 31.9375 299.851 28.0388L298.413 28.8726C300.742 32.8914 303.536 36.3696 306.182 38.644L307.265 37.3831Z" fill="#00D8FF"/>
<path fill-rule="evenodd" clip-rule="evenodd" d="M342.337 33.5887L338.197 27.3408C340.289 27.1563 342.175 25.642 342.175 22.8753C342.175 20.06 340.175 18.2583 337.369 18.2583H331.208V33.577H333.117V27.4903H336.175L340.083 33.577L342.337 33.5887ZM337.141 25.8254H333.118V19.9688H337.141C338.958 19.9688 340.199 21.1628 340.199 22.8859C340.199 24.6091 338.957 25.8274 337.141 25.8274V25.8254ZM349.442 33.8634C351.259 33.8634 352.752 33.2664 353.856 32.1645L353.028 31.0384C352.154 31.9345 350.867 32.4393 349.603 32.4393C347.212 32.4393 345.74 30.6938 345.602 28.6047H354.591V28.1679C354.591 24.8382 352.614 22.219 349.256 22.219C346.083 22.219 343.785 24.8149 343.785 28.03C343.785 31.4986 346.153 33.8546 349.441 33.8546L349.442 33.8634ZM352.891 27.3398H345.603C345.695 25.641 346.866 23.6412 349.236 23.6412C351.765 23.6412 352.868 25.6856 352.891 27.3398ZM366.044 33.5877V25.9623C366.044 23.2752 364.09 22.2181 361.744 22.2181C359.927 22.2181 358.503 22.8151 357.307 24.0557L358.112 25.2498C359.1 24.1936 360.182 23.7111 361.515 23.7111C363.124 23.7111 364.321 24.5605 364.321 26.0536V28.0514C363.424 27.0175 362.159 26.5351 360.641 26.5351C358.756 26.5351 356.754 27.7068 356.754 30.1871C356.754 32.5985 358.754 33.8624 360.641 33.8624C362.136 33.8624 363.401 33.3343 364.321 32.3237V33.5857L366.044 33.5877ZM361.262 32.6227C359.653 32.6227 358.526 31.6131 358.526 30.2114C358.526 28.7872 359.653 27.7767 361.262 27.7767C362.481 27.7767 363.653 28.2358 364.321 29.1552V31.2452C363.654 32.1636 362.481 32.6227 361.262 32.6227ZM374.381 33.8634C376.405 33.8634 377.6 33.0363 378.451 31.9345L377.302 30.8783C376.566 31.8655 375.623 32.3247 374.483 32.3247C372.115 32.3247 370.645 30.4871 370.645 28.03C370.645 25.573 372.116 23.7587 374.483 23.7587C375.633 23.7587 376.576 24.1955 377.302 25.2051L378.451 24.1489C377.601 23.0461 376.405 22.22 374.381 22.22C371.071 22.22 368.84 24.7469 368.84 28.031C368.84 31.3384 371.071 33.8556 374.381 33.8556V33.8634ZM383.672 33.8634C384.682 33.8634 385.304 33.5644 385.742 33.1518L385.236 31.8655C385.006 32.1179 384.556 32.3247 384.063 32.3247C383.305 32.3247 382.936 31.7277 382.936 30.9006V24.0101H385.191V22.4947H382.936V19.463H381.211V22.4947H379.372V24.0111H381.211V31.2695C381.211 32.9237 382.039 33.8653 383.672 33.8653V33.8634Z" fill="#00D8FF"/>
<path fill-rule="evenodd" clip-rule="evenodd" d="M445.953 9.00677H453.318L434.72 41L416 9.00677H423.533L434.72 28.2673L445.953 9.00677Z" fill="#41B883"/>
<path fill-rule="evenodd" clip-rule="evenodd" d="M438.991 9H445.996L434.709 28.3007L423.513 9H430.409L434.709 16.4305L438.991 9Z" fill="#35495E"/>
<path fill-rule="evenodd" clip-rule="evenodd" d="M457.713 15.3163C457.713 15.0803 457.844 14.8836 458.107 14.7263C458.369 14.5689 458.644 14.4902 458.93 14.4902C459.328 14.4902 459.574 14.6397 459.67 14.9387L463.87 28.9582L468.046 14.9387C468.157 14.6397 468.396 14.4902 468.761 14.4902C469.064 14.4902 469.346 14.5768 469.609 14.7499C469.871 14.9229 470.002 15.1196 470.002 15.3399C470.002 15.3556 469.998 15.3793 469.99 15.4107C469.982 15.4422 469.978 15.4737 469.978 15.5051L465.134 31.2004C464.959 31.6567 464.538 31.8849 463.87 31.8849C463.201 31.8849 462.796 31.6567 462.653 31.2004L457.761 15.5051C457.729 15.4107 457.713 15.3478 457.713 15.3163ZM470.19 27.4003V21.264C470.19 21.0752 470.29 20.91 470.489 20.7683C470.688 20.6267 470.922 20.5559 471.193 20.5559C471.447 20.5559 471.674 20.6307 471.873 20.7801C472.072 20.9296 472.171 21.0909 472.171 21.264V27.4003C472.171 28.1084 472.441 28.7456 472.982 29.3121C473.523 29.8785 474.168 30.1617 474.915 30.1617C475.647 30.1617 476.283 29.8825 476.824 29.3239C477.365 28.7653 477.636 28.1241 477.636 27.4003V21.24C477.636 21.0669 477.735 20.9096 477.934 20.768C478.133 20.6264 478.367 20.5556 478.638 20.5556C478.924 20.5556 479.159 20.6224 479.342 20.7562C479.525 20.8899 479.616 21.0512 479.616 21.24V27.4003C479.616 28.6119 479.151 29.67 478.22 30.5748C477.29 31.4795 476.188 31.9319 474.915 31.9319C473.627 31.9319 472.517 31.4795 471.586 30.5748C470.656 29.67 470.19 28.6119 470.19 27.4003ZM481.236 27.3531V24.8749C481.236 23.6633 481.701 22.617 482.632 21.7359C483.562 20.8547 484.68 20.4142 485.984 20.4142C487.225 20.4142 488.299 20.8272 489.206 21.6533C490.113 22.4793 490.566 23.5139 490.566 24.7569C490.566 25.2132 490.51 25.5791 490.399 25.8544C490.288 26.1298 490.117 26.3265 489.886 26.4445C489.655 26.5625 489.44 26.6372 489.242 26.6687C489.043 26.7002 488.776 26.7159 488.442 26.7159H483.216V27.424C483.216 28.2894 483.53 28.9817 484.159 29.501C484.787 30.0202 485.602 30.2798 486.605 30.2798C487.13 30.2798 487.587 30.2011 487.977 30.0438C488.366 29.8865 488.681 29.733 488.919 29.5836C489.158 29.4341 489.349 29.3594 489.492 29.3594C489.715 29.3594 489.906 29.4577 490.065 29.6544C490.224 29.8511 490.303 30.0517 490.303 30.2562C490.303 30.6181 489.941 30.9879 489.218 31.3655C488.494 31.7431 487.599 31.9319 486.533 31.9319C484.974 31.9319 483.701 31.511 482.715 30.6692C481.729 29.8274 481.236 28.722 481.236 27.3531ZM483.216 25.3942H487.631C488.044 25.3942 488.323 25.343 488.466 25.2408C488.609 25.1385 488.681 24.9379 488.681 24.6389C488.681 23.9309 488.418 23.3094 487.893 22.7744C487.368 22.2394 486.724 21.9719 485.96 21.9719C485.213 21.9719 484.568 22.2197 484.028 22.7153C483.487 23.211 483.216 23.8207 483.216 24.5445L483.216 25.3942ZM491.565 30.6573C491.565 30.3112 491.685 30.0161 491.923 29.7723C492.162 29.5284 492.456 29.4064 492.806 29.4064C493.14 29.4064 493.427 29.5284 493.665 29.7723C493.904 30.0162 494.023 30.3112 494.023 30.6573C494.023 30.9878 493.904 31.2749 493.665 31.5188C493.427 31.7627 493.14 31.8846 492.806 31.8846C492.456 31.8846 492.162 31.7627 491.923 31.5188C491.685 31.2749 491.565 30.9878 491.565 30.6573ZM493.328 36.2982C493.328 36.0465 493.408 35.838 493.567 35.6728C493.726 35.5076 493.917 35.425 494.139 35.425C494.76 35.425 495.166 35.1968 495.356 34.7405C495.547 34.2843 495.643 33.5998 495.643 32.6872V21.2402C495.643 21.0357 495.734 20.8704 495.917 20.7446C496.1 20.6187 496.335 20.5558 496.621 20.5558C496.908 20.5558 497.146 20.6187 497.337 20.7446C497.528 20.8704 497.623 21.0357 497.623 21.2402V32.6872C497.623 34.0561 497.353 35.1418 496.812 35.9442C496.271 36.7467 495.452 37.1479 494.354 37.1479C493.67 37.1479 493.328 36.8647 493.328 36.2982ZM495.38 16.3546C495.38 16.0556 495.5 15.796 495.738 15.5757C495.977 15.3554 496.271 15.2453 496.621 15.2453C496.955 15.2453 497.242 15.3554 497.48 15.5757C497.719 15.796 497.838 16.0556 497.838 16.3546C497.838 16.6535 497.719 16.9171 497.48 17.1453C497.242 17.3734 496.955 17.4875 496.621 17.4875C496.287 17.4875 495.997 17.3734 495.75 17.1453C495.504 16.9171 495.38 16.6535 495.38 16.3546ZM499.1 30.1379C499.1 29.9334 499.167 29.7328 499.303 29.5361C499.438 29.3394 499.601 29.2411 499.792 29.2411C499.919 29.2411 500.102 29.3355 500.341 29.5243C500.579 29.7131 500.921 29.898 501.367 30.0789C501.812 30.2599 502.337 30.3504 502.942 30.3504C503.737 30.3504 504.314 30.2088 504.672 29.9255C505.03 29.6423 505.209 29.2883 505.209 28.8635C505.209 28.3442 505.01 27.9312 504.612 27.6243C504.214 27.3175 503.729 27.0854 503.157 26.9281C502.584 26.7707 502.011 26.5977 501.438 26.4088C500.866 26.22 500.38 25.9053 499.983 25.4647C499.585 25.0242 499.386 24.442 499.386 23.7182C499.386 22.8214 499.708 22.0464 500.353 21.3934C500.997 20.7405 501.979 20.414 503.3 20.414C504.143 20.414 504.914 20.5438 505.614 20.8034C506.314 21.063 506.664 21.358 506.664 21.6884C506.664 21.8773 506.589 22.0897 506.438 22.3257C506.286 22.5617 506.1 22.6797 505.877 22.6797C505.813 22.6797 505.507 22.5657 504.958 22.3375C504.409 22.1093 503.864 21.9953 503.323 21.9953C502.592 21.9953 502.047 22.1644 501.689 22.5027C501.331 22.841 501.152 23.2226 501.152 23.6474C501.152 24.088 501.351 24.4342 501.749 24.6859C502.146 24.9376 502.635 25.1343 503.216 25.2759C503.797 25.4176 504.373 25.5906 504.946 25.7952C505.519 25.9998 506.004 26.3498 506.402 26.8455C506.8 27.3411 506.998 27.9823 506.998 28.769C506.998 29.7446 506.648 30.5156 505.948 31.082C505.248 31.6485 504.27 31.9317 503.013 31.9317C501.932 31.9317 501.009 31.7389 500.245 31.3534C499.482 30.9679 499.1 30.5628 499.1 30.1379Z" fill="#010101"/>
<g clip-path="url(#clip0_1_621)">
<path d="M541.43 13.182C541.354 11.0063 543.049 9 545.341 9H568.819C571.111 9 572.806 11.0063 572.73 13.182C572.657 15.2719 572.752 17.9792 573.433 20.1867C574.116 22.4009 575.269 23.8005 577.157 23.9804V26.0196C575.269 26.1995 574.116 27.5991 573.433 29.8133C572.752 32.0208 572.657 34.7281 572.73 36.8181C572.806 38.9937 571.111 41 568.819 41H545.341C543.049 41 541.354 38.9937 541.43 36.8181C541.503 34.7281 541.408 32.0208 540.727 29.8133C540.043 27.5991 538.888 26.1995 537 26.0196V23.9804C538.888 23.8005 540.043 22.4009 540.727 20.1867C541.408 17.9792 541.503 15.2719 541.43 13.182Z" fill="url(#paint0_linear_1_621)"/>
<g filter="url(#filter0_d_1_621)">
<path d="M557.949 33.5064C561.659 33.5064 563.894 31.6901 563.894 28.6943C563.894 26.4297 562.299 24.7903 559.931 24.5307V24.4364C561.671 24.1533 563.036 22.5375 563.036 20.7329C563.036 18.1617 561.006 16.4868 557.913 16.4868H550.953V33.5064H557.949ZM553.66 18.6452H557.261C559.218 18.6452 560.33 19.518 560.33 21.0985C560.33 22.7852 559.037 23.7287 556.693 23.7287H553.66V18.6452ZM553.66 31.3481V25.7456H557.236C559.798 25.7456 561.127 26.6892 561.127 28.5292C561.127 30.3691 559.834 31.3481 557.393 31.3481H553.66Z" fill="url(#paint1_linear_1_621)"/>
<path d="M557.949 33.5064C561.659 33.5064 563.894 31.6901 563.894 28.6943C563.894 26.4297 562.299 24.7903 559.931 24.5307V24.4364C561.671 24.1533 563.036 22.5375 563.036 20.7329C563.036 18.1617 561.006 16.4868 557.913 16.4868H550.953V33.5064H557.949ZM553.66 18.6452H557.261C559.218 18.6452 560.33 19.518 560.33 21.0985C560.33 22.7852 559.037 23.7287 556.693 23.7287H553.66V18.6452ZM553.66 31.3481V25.7456H557.236C559.798 25.7456 561.127 26.6892 561.127 28.5292C561.127 30.3691 559.834 31.3481 557.393 31.3481H553.66Z" stroke="white"/>
</g>
</g>
<path d="M694.224 33.5449C692.747 33.5449 691.588 33.0087 690.748 31.9362H690.568C690.688 32.9862 690.748 33.5937 690.748 33.7587V38.8549H687.317V20.7424H690.107L690.59 22.3737H690.748C691.55 21.1287 692.739 20.5062 694.314 20.5062C695.799 20.5062 696.962 21.0799 697.802 22.2274C698.642 23.3749 699.062 24.9687 699.062 27.0087C699.062 28.3512 698.863 29.5174 698.465 30.5074C698.075 31.4974 697.517 32.2512 696.789 32.7687C696.062 33.2862 695.207 33.5449 694.224 33.5449ZM693.212 23.2512C692.364 23.2512 691.745 23.5137 691.355 24.0387C690.965 24.5562 690.763 25.4149 690.748 26.6149V26.9862C690.748 28.3362 690.947 29.3037 691.344 29.8887C691.749 30.4737 692.387 30.7662 693.257 30.7662C694.794 30.7662 695.563 29.4987 695.563 26.9637C695.563 25.7262 695.372 24.7999 694.989 24.1849C694.614 23.5624 694.022 23.2512 693.212 23.2512Z" fill="#6F12F2"/>
<path d="M681.377 33.3199L680.713 31.6099H680.623C680.045 32.3374 679.449 32.8437 678.834 33.1287C678.227 33.4062 677.432 33.5449 676.449 33.5449C675.242 33.5449 674.289 33.1999 673.592 32.5099C672.902 31.8199 672.557 30.8374 672.557 29.5624C672.557 28.2274 673.022 27.2449 673.952 26.6149C674.889 25.9774 676.299 25.6249 678.182 25.5574L680.364 25.4899V24.9387C680.364 23.6637 679.712 23.0262 678.407 23.0262C677.402 23.0262 676.22 23.3299 674.863 23.9374L673.727 21.6199C675.174 20.8624 676.779 20.4837 678.542 20.4837C680.229 20.4837 681.523 20.8512 682.423 21.5862C683.323 22.3212 683.773 23.4387 683.773 24.9387V33.3199H681.377ZM680.364 27.4924L679.037 27.5374C678.039 27.5674 677.297 27.7474 676.809 28.0774C676.322 28.4074 676.078 28.9099 676.078 29.5849C676.078 30.5524 676.633 31.0362 677.743 31.0362C678.538 31.0362 679.172 30.8074 679.644 30.3499C680.124 29.8924 680.364 29.2849 680.364 28.5274V27.4924Z" fill="#6F12F2"/>
<path d="M669.947 20.5062C670.412 20.5062 670.798 20.5399 671.105 20.6074L670.847 23.8249C670.569 23.7499 670.232 23.7124 669.834 23.7124C668.739 23.7124 667.884 23.9937 667.269 24.5562C666.662 25.1187 666.358 25.9062 666.358 26.9187V33.3199H662.927V20.7424H665.525L666.032 22.8574H666.2C666.59 22.1524 667.115 21.5862 667.775 21.1587C668.443 20.7237 669.167 20.5062 669.947 20.5062Z" fill="#6F12F2"/>
<path d="M658.214 30.8112C658.814 30.8112 659.534 30.6799 660.374 30.4174V32.9712C659.519 33.3537 658.469 33.5449 657.224 33.5449C655.852 33.5449 654.85 33.1999 654.22 32.5099C653.598 31.8124 653.287 30.7699 653.287 29.3824V23.3187H651.644V21.8674L653.534 20.7199L654.524 18.0649H656.718V20.7424H660.239V23.3187H656.718V29.3824C656.718 29.8699 656.853 30.2299 657.123 30.4624C657.4 30.6949 657.764 30.8112 658.214 30.8112Z" fill="#6F12F2"/>
<path d="M650.237 29.5849C650.237 30.8749 649.787 31.8574 648.887 32.5324C647.994 33.2074 646.655 33.5449 644.87 33.5449C643.955 33.5449 643.175 33.4812 642.53 33.3537C641.885 33.2337 641.282 33.0537 640.719 32.8137V29.9787C641.357 30.2787 642.073 30.5299 642.868 30.7324C643.67 30.9349 644.375 31.0362 644.983 31.0362C646.228 31.0362 646.85 30.6762 646.85 29.9562C646.85 29.6862 646.768 29.4687 646.603 29.3037C646.438 29.1312 646.153 28.9399 645.748 28.7299C645.343 28.5124 644.803 28.2612 644.128 27.9762C643.16 27.5712 642.448 27.1962 641.99 26.8512C641.54 26.5062 641.21 26.1124 641 25.6699C640.798 25.2199 640.697 24.6687 640.697 24.0162C640.697 22.8987 641.128 22.0362 641.99 21.4287C642.86 20.8137 644.09 20.5062 645.68 20.5062C647.195 20.5062 648.669 20.8362 650.102 21.4962L649.067 23.9712C648.437 23.7012 647.848 23.4799 647.3 23.3074C646.753 23.1349 646.194 23.0487 645.624 23.0487C644.612 23.0487 644.105 23.3224 644.105 23.8699C644.105 24.1774 644.267 24.4437 644.589 24.6687C644.919 24.8937 645.635 25.2274 646.738 25.6699C647.72 26.0674 648.44 26.4387 648.898 26.7837C649.355 27.1287 649.693 27.5262 649.91 27.9762C650.128 28.4262 650.237 28.9624 650.237 29.5849Z" fill="#6F12F2"/>
<path d="M636.749 30.8112C637.349 30.8112 638.069 30.6799 638.909 30.4174V32.9712C638.054 33.3537 637.004 33.5449 635.759 33.5449C634.387 33.5449 633.385 33.1999 632.755 32.5099C632.133 31.8124 631.822 30.7699 631.822 29.3824V23.3187H630.179V21.8674L632.069 20.7199L633.059 18.0649H635.253V20.7424H638.774V23.3187H635.253V29.3824C635.253 29.8699 635.388 30.2299 635.658 30.4624C635.935 30.6949 636.299 30.8112 636.749 30.8112Z" fill="#6F12F2"/>
<path d="M619.918 27.0087C619.918 28.2537 620.12 29.1949 620.525 29.8324C620.938 30.4699 621.605 30.7887 622.528 30.7887C623.443 30.7887 624.099 30.4737 624.497 29.8437C624.902 29.2062 625.104 28.2612 625.104 27.0087C625.104 25.7637 624.902 24.8299 624.497 24.2074C624.092 23.5849 623.428 23.2737 622.505 23.2737C621.59 23.2737 620.93 23.5849 620.525 24.2074C620.12 24.8224 619.918 25.7562 619.918 27.0087ZM628.614 27.0087C628.614 29.0562 628.074 30.6574 626.994 31.8124C625.914 32.9674 624.41 33.5449 622.483 33.5449C621.275 33.5449 620.21 33.2824 619.288 32.7574C618.365 32.2249 617.657 31.4637 617.162 30.4737C616.667 29.4837 616.419 28.3287 616.419 27.0087C616.419 24.9537 616.955 23.3562 618.028 22.2162C619.1 21.0762 620.608 20.5062 622.55 20.5062C623.758 20.5062 624.823 20.7687 625.745 21.2937C626.668 21.8187 627.377 22.5724 627.872 23.5549C628.367 24.5374 628.614 25.6887 628.614 27.0087Z" fill="#6F12F2"/>
<path d="M605.653 27.0087C605.653 28.2537 605.855 29.1949 606.26 29.8324C606.673 30.4699 607.34 30.7887 608.263 30.7887C609.178 30.7887 609.834 30.4737 610.232 29.8437C610.637 29.2062 610.839 28.2612 610.839 27.0087C610.839 25.7637 610.637 24.8299 610.232 24.2074C609.827 23.5849 609.163 23.2737 608.24 23.2737C607.325 23.2737 606.665 23.5849 606.26 24.2074C605.855 24.8224 605.653 25.7562 605.653 27.0087ZM614.349 27.0087C614.349 29.0562 613.809 30.6574 612.729 31.8124C611.649 32.9674 610.145 33.5449 608.218 33.5449C607.01 33.5449 605.945 33.2824 605.023 32.7574C604.1 32.2249 603.392 31.4637 602.897 30.4737C602.402 29.4837 602.154 28.3287 602.154 27.0087C602.154 24.9537 602.69 23.3562 603.763 22.2162C604.835 21.0762 606.343 20.5062 608.285 20.5062C609.493 20.5062 610.558 20.7687 611.48 21.2937C612.403 21.8187 613.112 22.5724 613.607 23.5549C614.102 24.5374 614.349 25.6887 614.349 27.0087Z" fill="#6F12F2"/>
<path d="M587.709 16.8724H592.828C595.16 16.8724 596.852 17.2062 597.902 17.8737C598.959 18.5337 599.488 19.5874 599.488 21.0349C599.488 22.0174 599.255 22.8237 598.79 23.4537C598.333 24.0837 597.722 24.4624 596.957 24.5899V24.7024C597.999 24.9349 598.749 25.3699 599.207 26.0074C599.672 26.6449 599.904 27.4924 599.904 28.5499C599.904 30.0499 599.36 31.2199 598.273 32.0599C597.193 32.8999 595.723 33.3199 593.863 33.3199H587.709V16.8724ZM591.197 23.3862H593.222C594.167 23.3862 594.849 23.2399 595.269 22.9474C595.697 22.6549 595.91 22.1712 595.91 21.4962C595.91 20.8662 595.678 20.4162 595.213 20.1462C594.755 19.8687 594.028 19.7299 593.03 19.7299H591.197V23.3862ZM591.197 26.1537V30.4399H593.469C594.429 30.4399 595.138 30.2562 595.595 29.8887C596.053 29.5212 596.282 28.9587 596.282 28.2012C596.282 26.8362 595.307 26.1537 593.357 26.1537H591.197Z" fill="#6F12F2"/>
<path d="M747.346 14C742.453 14 739.396 16.4444 738.173 21.3336C740.008 18.8888 742.148 17.9721 744.594 18.5835C745.99 18.9318 746.987 19.9441 748.092 21.0639C749.89 22.8883 751.972 25 756.519 25C761.412 25 764.469 22.5556 765.692 17.6664C763.858 20.1112 761.717 21.0279 759.271 20.4165C757.875 20.0682 756.878 19.0559 755.774 17.9361C753.975 16.1117 751.893 14 747.346 14ZM738.173 25C733.281 25 730.223 27.4444 729 32.3336C730.835 29.8888 732.975 28.9721 735.421 29.5835C736.817 29.9325 737.814 30.9441 738.918 32.0639C740.717 33.8883 742.799 36 747.346 36C752.239 36 755.296 33.5556 756.519 28.6664C754.685 31.1112 752.544 32.0279 750.098 31.4165C748.702 31.0682 747.705 30.0559 746.601 28.9364C744.802 27.1117 742.72 25 738.173 25Z" fill="#38BDF8"/>
<path d="M784.037 23.2697H780.835V29.4624C780.835 31.1138 781.919 31.0878 784.037 30.9845V33.4875C779.751 34.0036 778.046 32.8165 778.046 29.4624V23.2697H775.671V20.5862H778.046V17.1204L780.835 16.2949V20.5862H784.037V23.2697ZM796.242 20.5862H799.03V33.4879H796.242V31.6302C795.26 32.9975 793.737 33.8234 791.723 33.8234C788.212 33.8234 785.294 30.856 785.294 27.0374C785.294 23.1928 788.212 20.2514 791.723 20.2514C793.737 20.2514 795.261 21.077 796.242 22.4185V20.5862ZM792.162 31.1658C794.486 31.1658 796.242 29.4367 796.242 27.0374C796.242 24.638 794.486 22.909 792.162 22.909C789.838 22.909 788.082 24.6377 788.082 27.0374C788.082 29.4371 789.838 31.1658 792.162 31.1658ZM803.678 18.6509C802.697 18.6509 801.896 17.825 801.896 16.8702C801.897 16.3983 802.085 15.946 802.419 15.6123C802.753 15.2786 803.206 15.0908 803.678 15.0898C804.15 15.0908 804.603 15.2786 804.937 15.6123C805.271 15.946 805.459 16.3983 805.46 16.8702C805.46 17.825 804.659 18.6509 803.678 18.6509ZM802.284 33.4872V20.5862H805.072V33.4879L802.284 33.4872ZM808.3 33.4872V14.6518H811.089V33.4875L808.3 33.4872ZM829.189 20.5859H832.132L828.079 33.4879H825.341L822.656 24.7923L819.945 33.4879H817.208L813.154 20.5865H816.098L818.602 29.4884L821.313 20.5865H823.973L826.658 29.4884L829.189 20.5859ZM835.592 18.6509C834.611 18.6509 833.811 17.825 833.811 16.8702C833.812 16.3983 834 15.946 834.334 15.6123C834.668 15.2786 835.12 15.0908 835.592 15.0898C836.065 15.0908 836.517 15.2786 836.851 15.6123C837.185 15.946 837.373 16.3983 837.374 16.8702C837.374 17.825 836.574 18.6509 835.592 18.6509ZM834.198 33.4872V20.5862H836.987V33.4879L834.198 33.4872ZM847.005 20.2504C849.897 20.2504 851.963 22.2116 851.963 25.5658V33.4872H849.174V25.85C849.174 23.8891 848.038 22.857 846.282 22.857C844.449 22.857 843.003 23.9407 843.003 26.5723V33.4879H840.214V20.5862H843.003V22.2376C843.855 20.896 845.249 20.2507 847.005 20.2507L847.005 20.2504ZM865.183 15.4257H867.971V33.4879H865.183V31.6302C864.201 32.9975 862.678 33.8234 860.664 33.8234C857.153 33.8234 854.235 30.856 854.235 27.0374C854.235 23.1928 857.153 20.2514 860.664 20.2514C862.678 20.2514 864.202 21.077 865.183 22.4185V15.4257ZM861.103 31.1658C863.427 31.1658 865.183 29.4367 865.183 27.0374C865.183 24.638 863.427 22.909 861.103 22.909C858.779 22.909 857.023 24.6377 857.023 27.0374C857.023 29.4371 858.779 31.1658 861.103 31.1658ZM877.318 33.8234C873.419 33.8234 870.502 30.856 870.502 27.0374C870.502 23.1928 873.419 20.2514 877.318 20.2514C879.849 20.2514 882.044 21.567 883.076 23.5796L880.675 24.9728C880.107 23.7605 878.842 22.9862 877.293 22.9862C875.02 22.9862 873.29 24.715 873.29 27.0374C873.29 29.3598 875.02 31.0882 877.293 31.0882C878.842 31.0882 880.107 30.2883 880.727 29.1016L883.128 30.4688C882.044 32.5074 879.849 33.8234 877.319 33.8234H877.318ZM887.724 24.1473C887.724 26.4953 894.67 25.0761 894.67 29.8498C894.67 32.4301 892.423 33.8234 889.635 33.8234C887.053 33.8234 885.193 32.6623 884.367 30.8047L886.769 29.4111C887.182 30.5721 888.215 31.2687 889.635 31.2687C890.874 31.2687 891.829 30.8563 891.829 29.8239C891.829 27.5274 884.884 28.8177 884.884 24.1989C884.884 21.7736 886.975 20.2514 889.609 20.2514C891.726 20.2514 893.482 21.2315 894.385 22.9346L892.036 24.2506C891.571 23.2444 890.668 22.7797 889.609 22.7797C888.602 22.7797 887.724 23.2184 887.724 24.1473ZM899.627 24.1473C899.627 26.4953 906.573 25.0761 906.573 29.8498C906.573 32.4301 904.327 33.8234 901.538 33.8234C898.956 33.8234 897.097 32.6623 896.27 30.8047L898.672 29.4111C899.085 30.5721 900.118 31.2687 901.538 31.2687C902.777 31.2687 903.733 30.8563 903.733 29.8239C903.733 27.5274 896.787 28.8177 896.787 24.1989C896.787 21.7736 898.878 20.2514 901.512 20.2514C903.629 20.2514 905.385 21.2315 906.289 22.9346L903.939 24.2506C903.475 23.2444 902.571 22.7797 901.512 22.7797C900.505 22.7797 899.627 23.2184 899.627 24.1473Z" fill="#0F172A"/>
<path d="M35.3338 9.80127L32.1148 45.8622L17.6453 49.8736L3.21565 45.8678L0 9.80127H35.3338Z" fill="#E44D26"/>
<path d="M17.668 46.8077L29.3601 43.5663L32.1108 12.7505H17.668V46.8077Z" fill="#F16529"/>
<path d="M11.4084 21.5972H17.666V17.1738H6.57422L6.68004 18.3605L7.76729 30.5503H17.666V26.1269H11.8127L11.4084 21.5972ZM12.4054 32.7621H7.96494L8.58461 39.7075L17.6457 42.2227L17.666 42.2172V37.615L17.6467 37.6201L12.7203 36.2899L12.4054 32.7621Z" fill="#EBEBEB"/>
<path d="M3.28906 0H5.53698V2.22091H7.59336V0H9.84142V6.72548H7.59349V4.47341H5.53712V6.72548H3.2892L3.28906 0ZM12.7974 2.23033H10.8187V0H17.0256V2.23033H15.0457V6.72548H12.7978V2.23033H12.7974ZM18.0107 0H20.3546L21.7964 2.36316L23.2368 0H25.5817V6.72548H23.3429V3.39197L21.7964 5.78324H21.7576L20.2101 3.39197V6.72548H18.0107V0ZM26.7004 0H28.949V4.50249H32.1103V6.72548H26.7003V0H26.7004Z" fill="black"/>
<path d="M17.6525 30.5503H23.0994L22.5859 36.2871L17.6523 37.6187V42.2206L26.7206 39.7075L26.7871 38.9601L27.8267 27.3147L27.9346 26.1269H17.6525V30.5503ZM17.6525 21.5864V21.5972H28.3371L28.4258 20.6031L28.6274 18.3605L28.7331 17.1738H17.6525V21.5864Z" fill="white"/>
<path d="M70.935 45.7432L68 10L103.052 10.0718L99.9481 45.7432L85.6581 49.8664L70.935 45.7432Z" fill="#E9CA32"/>
<path d="M85.6562 46.4144V13.4041L100.091 13.4519L97.5167 42.9861L85.6562 46.4144Z" fill="#FFDE25"/>
<path d="M84.1106 17.3235H80.2945V39.2943L77.3264 38.731V35.7734L73.793 35.21V41.8294L84.1106 44.5054V17.3235ZM86.9732 17.3235H97.5376L96.8309 21.5346H91.0061V28.445H96.8309L96.1242 42.3928L86.9732 44.5054V40.1394L93.1561 38.0268L93.5131 32.2524L86.9732 33.196V17.3235Z" fill="white"/>
<path d="M89.7459 2.17427H87.6555V1.67635C87.6555 1.44398 87.6288 1.29599 87.5753 1.23237C87.5218 1.16874 87.4327 1.13693 87.308 1.13693C87.1726 1.13693 87.0692 1.17981 86.9979 1.26556C86.9302 1.35131 86.8963 1.48133 86.8963 1.6556C86.8963 1.87967 86.9355 2.04841 87.0139 2.16183C87.0888 2.27524 87.3009 2.41217 87.6502 2.57261C88.6517 3.03458 89.2826 3.41355 89.5427 3.70954C89.8029 4.00553 89.933 4.48271 89.933 5.14108C89.933 5.61964 89.86 5.97234 89.7138 6.19917C89.5713 6.426 89.2932 6.61687 88.8798 6.77178C88.4664 6.92393 87.9852 7 87.4363 7C86.834 7 86.3189 6.91148 85.8912 6.73444C85.4671 6.5574 85.1891 6.33195 85.0572 6.05809C84.9253 5.78423 84.8594 5.39557 84.8594 4.89212V4.45228H86.9498V5.26971C86.9498 5.52144 86.9783 5.68326 87.0353 5.75519C87.0959 5.82711 87.2011 5.86307 87.3508 5.86307C87.5005 5.86307 87.6109 5.81743 87.6822 5.72614C87.7571 5.63485 87.7945 5.49931 87.7945 5.3195C87.7945 4.92393 87.725 4.66528 87.586 4.54357C87.4434 4.42185 87.0924 4.21853 86.5328 3.93361C85.9732 3.64592 85.6025 3.43707 85.4207 3.30705C85.239 3.17704 85.0875 2.99723 84.9663 2.76763C84.8487 2.53804 84.7899 2.24481 84.7899 1.88797C84.7899 1.37344 84.8736 0.997234 85.0412 0.759336C85.2122 0.521438 85.4867 0.3361 85.8645 0.20332C86.2423 0.0677732 86.6985 0 87.2331 0C87.8177 0 88.3149 0.0733057 88.7248 0.219917C89.1382 0.366528 89.4109 0.551867 89.5427 0.775934C89.6782 0.997234 89.7459 1.37483 89.7459 1.90871V2.17427Z" fill="black"/>
<path d="M84.1062 0.141113V4.63074C84.1062 5.30294 84.0973 5.73586 84.0795 5.9295C84.0616 6.12037 83.9797 6.29326 83.8335 6.44817C83.691 6.60308 83.4949 6.71096 83.2454 6.77182C82.9995 6.82991 82.6271 6.85896 82.1281 6.85896H81V5.68468C81.1354 5.69298 81.2335 5.69713 81.294 5.69713C81.4544 5.69713 81.581 5.6667 81.6736 5.60584C81.7663 5.54499 81.8198 5.4703 81.834 5.38178C81.8483 5.29326 81.8554 5.12175 81.8554 4.86725V0.141113H84.1062Z" fill="black"/>
<defs>
<filter id="filter0_d_1_621" x="534.453" y="3.98682" width="45.9412" height="50.0196" filterUnits="userSpaceOnUse" color-interpolation-filters="sRGB">
<feFlood flood-opacity="0" result="BackgroundImageFix"/>
<feColorMatrix in="SourceAlpha" type="matrix" values="0 0 0 0 0 0 0 0 0 0 0 0 0 0 0 0 0 0 127 0" result="hardAlpha"/>
<feOffset dy="4"/>
<feGaussianBlur stdDeviation="8"/>
<feColorMatrix type="matrix" values="0 0 0 0 0 0 0 0 0 0 0 0 0 0 0 0 0 0 0.15 0"/>
<feBlend mode="normal" in2="BackgroundImageFix" result="effect1_dropShadow_1_621"/>
<feBlend mode="normal" in="SourceGraphic" in2="effect1_dropShadow_1_621" result="shape"/>
</filter>
<linearGradient id="paint0_linear_1_621" x1="542.967" y1="9.8469" x2="578.057" y2="37.7016" gradientUnits="userSpaceOnUse">
<stop stop-color="#9013FE"/>
<stop offset="1" stop-color="#6610F2"/>
</linearGradient>
<linearGradient id="paint1_linear_1_621" x1="552.177" y1="17.6071" x2="560.021" y2="30.8723" gradientUnits="userSpaceOnUse">
<stop stop-color="white"/>
<stop offset="1" stop-color="#F1E5FC"/>
</linearGradient>
<clipPath id="clip0_1_621">
<rect width="40.1569" height="32" fill="white" transform="translate(537 9)"/>
</clipPath>
</defs>
</svg>
