<svg width="167" height="133" viewBox="0 0 167 133" fill="none" xmlns="http://www.w3.org/2000/svg">
<path d="M158.28 72.0801C169.83 78.7401 169.89 89.5501 158.42 96.2101L104.58 127.5C93.1095 134.17 74.4495 134.17 62.9095 127.5L8.70952 96.2101C-2.83048 89.5501 -2.89048 78.7401 8.57952 72.0801L62.4195 40.7901C73.8895 34.1201 92.5395 34.1201 104.09 40.7901L158.28 72.0801Z" fill="#EDEDED"/>
<path d="M158.42 67.11L104.58 98.4C93.1096 105.07 74.4496 105.07 62.9096 98.4L8.70964 67.11C2.89964 63.76 -0.00036601 59.36 0.019634 54.96V61.1899C0.019634 65.5799 2.90965 69.98 8.71965 73.34L62.9096 104.63C74.4496 111.29 93.1096 111.29 104.58 104.63L158.42 73.34C164.12 70.03 166.97 65.69 166.98 61.34V55.1199C166.97 59.4699 164.11 63.8 158.42 67.11Z" fill="#DBDBDB"/>
<path d="M158.264 42.96C169.814 49.62 169.874 60.43 158.404 67.09L104.564 98.38C93.0939 105.05 74.4339 105.05 62.8939 98.38L8.6939 67.09C-2.8461 60.43 -2.90611 49.62 8.56389 42.96L62.4039 11.67C73.8739 4.99998 92.5239 4.99998 104.074 11.67L158.264 42.96Z" fill="white"/>
<path fill-rule="evenodd" clip-rule="evenodd" d="M88.5571 44.9102C88.5571 45.0428 88.5571 45.1643 88.5571 45.2969C88.3472 50.3017 88.999 55.2402 89.0763 60.3775C88.6786 64.0565 88.0931 66.6749 87.0656 67.6803C86.9368 67.8409 86.7621 67.9587 86.5648 68.0179C86.3675 68.0771 86.1569 68.0749 85.9608 68.0117C85.8946 68.0117 85.8503 68.1001 85.8062 68.1664L88.303 70.144L92.2472 62.5539C92.2472 62.1783 92.5786 61.8359 92.435 61.5044C92.1499 61.021 92.0189 60.4622 92.0593 59.9025C93.0757 54.1133 94.1254 49.8597 93.9707 46.0592C93.9044 44.5898 93.8712 43.4188 93.8602 42.4465L88.5571 44.9102Z" fill="#FF8654"/>
<path fill-rule="evenodd" clip-rule="evenodd" d="M88.3779 66.9401C88.8719 65.6884 89.4324 64.464 90.0572 63.2722C90.3113 62.8082 90.7311 61.2614 92.3441 61.3498C92.8478 61.8504 93.1969 62.4853 93.3497 63.1787C93.5025 63.8722 93.4526 64.5949 93.2059 65.2608C92.7293 67.1862 92.4553 69.1561 92.3883 71.1384L92.1011 71.282L91.9023 71.1605C91.9023 68.8073 92.1895 68.4758 91.5818 66.1005C90.5765 66.7965 90.6427 67.8129 90.477 68.9951C90.477 69.3044 90.477 69.448 89.9467 69.8347C89.3297 70.2792 88.6477 70.6258 87.9249 70.8622C87.3945 70.6991 86.8917 70.457 86.4335 70.1441C85.7485 69.7353 85.1629 69.0393 85.3287 68.5752C85.4944 68.1112 85.9031 68.0228 85.9252 68.0118C85.9915 68.3653 86.8974 68.8073 87.1515 68.6195C87.6749 68.1531 88.093 67.5806 88.3779 66.9401Z" fill="#032747"/>
<path fill-rule="evenodd" clip-rule="evenodd" d="M83.0337 47.1311C83.0688 47.5502 83.0688 47.9715 83.0337 48.3906C82.8238 53.3954 83.4756 58.3338 83.564 63.4601C83.1662 67.1391 82.5697 69.7576 81.5422 70.7629C81.4147 70.9256 81.2407 71.0454 81.0433 71.1066C80.8459 71.1678 80.6345 71.1674 80.4374 71.1054C80.3711 71.1054 80.3269 71.1828 80.2827 71.249L82.7796 73.2377L86.7238 65.6366C86.7238 65.261 87.0552 64.9295 86.9115 64.5318C86.6312 64.0505 86.5004 63.4967 86.5359 62.9409C87.5523 57.1407 88.6019 52.8871 88.4472 49.0866C88.3699 47.3631 88.3367 46.0484 88.3257 44.9878L88.1157 45.0872C88.1157 45.0872 85.0997 46.3578 83.0337 47.1311Z" fill="#FF8654"/>
<path fill-rule="evenodd" clip-rule="evenodd" d="M82.8777 70.0226C83.4522 68.6637 83.9825 67.4152 84.557 66.3657C84.8111 65.8906 85.2309 64.3549 86.844 64.4323C87.3474 64.9353 87.6962 65.572 87.8489 66.2672C88.0016 66.9623 87.9519 67.6866 87.7057 68.3543C87.2337 70.2806 86.9598 72.25 86.8881 74.2319L86.6119 74.3645L86.402 74.2429C86.402 71.8897 86.6893 71.5582 86.0816 69.1829C85.0873 69.89 85.1426 70.8954 84.9768 72.0886C84.9768 72.3869 84.9769 72.5415 84.4465 72.9172C83.8295 73.3616 83.1475 73.7082 82.4247 73.9446C81.897 73.7836 81.3975 73.5413 80.9443 73.2265C80.2482 72.8178 79.6627 72.1218 79.8395 71.6577C80.0162 71.1937 80.425 71.1053 80.4361 71.1053C80.5024 71.4478 81.4194 71.8897 81.6624 71.7019C82.1843 71.2367 82.5989 70.6637 82.8777 70.0226Z" fill="#05345E"/>
<path fill-rule="evenodd" clip-rule="evenodd" d="M54.0301 29.6417L51.8315 28.3601L51.8868 57.9468L54.0853 59.2173L54.0301 29.6417Z" fill="#D6D6D8"/>
<path fill-rule="evenodd" clip-rule="evenodd" d="M54.0327 29.6419L54.088 59.2176L56.2313 57.9802L56.176 28.4045L54.0327 29.6419Z" fill="#909192"/>
<path fill-rule="evenodd" clip-rule="evenodd" d="M77.7269 15.8538L75.5283 14.5723L75.5946 34.5803L77.7932 35.8508L77.7269 15.8538Z" fill="#D6D6D8"/>
<path fill-rule="evenodd" clip-rule="evenodd" d="M77.7295 15.8538L77.7958 35.8508L79.9391 34.6134L79.8839 14.6165L77.7295 15.8538Z" fill="#909192"/>
<path fill-rule="evenodd" clip-rule="evenodd" d="M76.7015 45.5069L74.5029 44.2253L74.5582 71.4146L76.7567 72.6851L76.7015 45.5069Z" fill="#D6D6D8"/>
<path fill-rule="evenodd" clip-rule="evenodd" d="M76.7041 45.5069L76.7593 72.6851L78.9027 71.4478L78.8474 44.2695L76.7041 45.5069Z" fill="#909192"/>
<path fill-rule="evenodd" clip-rule="evenodd" d="M101.595 30.7136L99.396 29.4431L99.4623 59.0188L101.661 60.3003L101.595 30.7136Z" fill="#D6D6D8"/>
<path fill-rule="evenodd" clip-rule="evenodd" d="M101.59 30.7136L101.657 60.3003L103.8 59.063L103.745 29.4873L101.59 30.7136Z" fill="#909192"/>
<path fill-rule="evenodd" clip-rule="evenodd" d="M112.827 51.3183L112.518 57.8698L112.849 75.3589L114.584 74.3535L114.561 50.324L112.827 51.3183Z" fill="#909192"/>
<path fill-rule="evenodd" clip-rule="evenodd" d="M112.827 51.3182L111.137 50.335L111.159 74.3755L112.849 75.3588L112.827 51.3182Z" fill="#D6D6D8"/>
<path fill-rule="evenodd" clip-rule="evenodd" d="M98.7005 59.5159L98.3911 66.0674L98.7225 83.5564L100.457 82.5511L100.435 58.5105L98.7005 59.5159Z" fill="#909192"/>
<path fill-rule="evenodd" clip-rule="evenodd" d="M98.698 59.5157L96.9966 58.5325L97.0187 82.562L98.7201 83.5563L98.698 59.5157Z" fill="#D6D6D8"/>
<path fill-rule="evenodd" clip-rule="evenodd" d="M89.2057 53.4392L103.469 61.6811C103.63 61.7744 103.801 61.8522 103.977 61.9131H104.076C104.219 61.9659 104.367 61.9993 104.518 62.0125C104.665 62.0348 104.814 62.0348 104.96 62.0125C105.101 61.9842 105.235 61.9319 105.358 61.8579L103.877 62.7196L103.734 62.7859H103.59H103.491H102.916L102.673 62.7307H102.574H102.474H102.353C102.221 62.6749 102.092 62.6122 101.966 62.5429L87.7031 54.301L89.2057 53.4392Z" fill="#F2F1F1"/>
<path fill-rule="evenodd" clip-rule="evenodd" d="M87.7305 54.3014L101.993 62.5433C103.507 63.4161 104.744 62.709 104.755 60.9744V45.5845L105.739 46.159V61.5379C105.739 63.9132 104.048 64.8523 101.993 63.6812L87.7305 55.4393V54.3014Z" fill="#D6D6D8"/>
<path fill-rule="evenodd" clip-rule="evenodd" d="M98.4999 47.9817L112.774 56.2236C112.934 56.3123 113.1 56.3899 113.271 56.4556H113.371C113.518 56.4999 113.67 56.5295 113.824 56.5439C113.97 56.561 114.119 56.561 114.266 56.5439C114.405 56.5195 114.54 56.4709 114.663 56.4004L113.183 57.251L113.05 57.3173H112.896H112.807H112.741H112.575H112.188H111.956H111.846H111.758H111.625L111.249 57.1185L96.9863 48.8876L98.4999 47.9817Z" fill="#F2F1F1"/>
<path fill-rule="evenodd" clip-rule="evenodd" d="M96.9837 48.8437L111.247 57.0745C112.76 57.9473 113.998 57.2513 113.998 55.5057V40.1157L114.992 40.6902V56.0802C114.992 58.4555 113.302 59.3946 111.236 58.2124L96.9727 49.9817L96.9837 48.8437Z" fill="#D6D6D8"/>
<path fill-rule="evenodd" clip-rule="evenodd" d="M102.146 45.0649L101.836 51.6164L102.168 60.72L103.891 59.7257L103.88 44.0596L102.146 45.0649Z" fill="#696665"/>
<path fill-rule="evenodd" clip-rule="evenodd" d="M102.147 45.0648L100.445 44.0815L100.467 59.7366L102.169 60.7199L102.147 45.0648Z" fill="#34312F"/>
<path fill-rule="evenodd" clip-rule="evenodd" d="M88.0125 53.2627L87.7031 59.8142L88.0235 77.2922L89.7581 76.2979L89.736 52.2573L88.0125 53.2627Z" fill="#909192"/>
<path fill-rule="evenodd" clip-rule="evenodd" d="M88.0168 53.2629L86.3154 52.2686L86.3375 76.3091L88.0279 77.2924L88.0168 53.2629Z" fill="#D6D6D8"/>
<path fill-rule="evenodd" clip-rule="evenodd" d="M85.0527 52.5334C85.041 52.5918 85.041 52.6518 85.0527 52.7102C85.0717 52.7649 85.0977 52.8169 85.13 52.8649C85.1651 52.9204 85.21 52.9691 85.2626 53.0085C85.2943 53.0439 85.3316 53.0737 85.373 53.0968C85.404 53.1252 85.4373 53.1511 85.4725 53.1742L98.4318 60.72V62.786L85.5388 55.2955H85.4504L85.3399 55.2071L85.2404 55.0965C85.2363 55.0635 85.2363 55.0302 85.2404 54.9971C85.2394 54.9787 85.2394 54.9603 85.2404 54.9419C85.235 54.9127 85.235 54.8827 85.2404 54.8535L85.0527 52.5334Z" fill="#ABABAB"/>
<path fill-rule="evenodd" clip-rule="evenodd" d="M98.9317 60.886H99.0091C99.1936 60.9304 99.3827 60.9527 99.5725 60.9523C99.7732 60.9521 99.9733 60.9299 100.169 60.886C100.355 60.8512 100.537 60.7956 100.71 60.7202L115.669 52.0807C115.803 52.0235 115.919 51.9302 116.003 51.8111C116.087 51.6921 116.136 51.5521 116.145 51.4067V53.4727C116.132 53.6186 116.081 53.7584 115.995 53.8771C115.909 53.9958 115.793 54.089 115.658 54.1466L100.71 62.7641C100.638 62.8098 100.56 62.847 100.478 62.8746L100.28 62.9409H100.18H100.114H99.9481H99.2742H99.0643H98.9759H98.8985H98.7549C98.6306 62.9055 98.5117 62.8535 98.4014 62.7862V60.7202C98.5676 60.8049 98.7469 60.861 98.9317 60.886Z" fill="#8C8C8C"/>
<path fill-rule="evenodd" clip-rule="evenodd" d="M85.5414 51.8815C85.4035 51.9322 85.2845 52.0241 85.2004 52.1446C85.1164 52.2651 85.0713 52.4084 85.0713 52.5554C85.0713 52.7023 85.1164 52.8457 85.2004 52.9662C85.2845 53.0867 85.4035 53.1785 85.5414 53.2293L98.4345 60.7199C98.792 60.9023 99.1876 60.9973 99.589 60.9973C99.9903 60.9973 100.386 60.9023 100.744 60.7199L115.703 52.0803C115.842 52.0323 115.962 51.9421 116.048 51.8223C116.133 51.7025 116.179 51.5591 116.179 51.4119C116.179 51.2648 116.133 51.1213 116.048 51.0015C115.962 50.8817 115.842 50.7915 115.703 50.7435L102.81 43.2529C102.451 43.0731 102.056 42.9795 101.655 42.9795C101.254 42.9795 100.859 43.0731 100.5 43.2529L85.5414 51.8815Z" fill="#F2F1F1"/>
<path fill-rule="evenodd" clip-rule="evenodd" d="M75.8301 42.9216L48 26.7583L48.0111 31.9951L75.8411 48.1584L75.8301 42.9216Z" fill="#BDBDBC"/>
<path fill-rule="evenodd" clip-rule="evenodd" d="M48 26.7583L75.8301 42.9216L106.102 25.4436L78.2827 9.28027L48 26.7583Z" fill="#F2F1F1"/>
<path fill-rule="evenodd" clip-rule="evenodd" d="M75.8257 42.9219L75.8367 48.1587L106.119 30.6806L106.108 25.4438H106.097L75.8257 42.9219Z" fill="#8C8C8C"/>
<path fill-rule="evenodd" clip-rule="evenodd" d="M86.7884 24.3609H86.8878L79.8613 20.2842H79.7176L72.3154 24.5487L79.342 28.6365L86.7442 24.3609C86.7804 24.3511 86.8185 24.3511 86.8547 24.3609H86.7884Z" fill="#BAC0D2"/>
<path fill-rule="evenodd" clip-rule="evenodd" d="M78.9668 29.2112C78.9615 29.1598 78.9615 29.108 78.9668 29.0565L79.0331 28.9129L79.1325 28.7914L79.2541 28.703L72.2275 24.6152L72.1281 24.6926V24.8252V24.9025V25.3665C72.1253 25.4028 72.1319 25.4392 72.1474 25.4721C72.1629 25.505 72.1867 25.5334 72.2165 25.5543L79.232 29.6421C79.2005 29.6202 79.1756 29.5901 79.16 29.555C79.1444 29.5199 79.1387 29.4813 79.1436 29.4432L78.9668 29.2112Z" fill="#B2B9CD"/>
<path fill-rule="evenodd" clip-rule="evenodd" d="M86.9732 24.5818C86.9732 24.394 86.8406 24.3056 86.6749 24.4051L79.2727 28.6807C79.1822 28.7376 79.1068 28.8155 79.0529 28.9078C78.9991 29.0002 78.9684 29.1042 78.9634 29.211V29.454C78.9634 29.6529 79.107 29.7302 79.2727 29.6308L86.6749 25.3552C86.7625 25.2988 86.8353 25.2222 86.8872 25.1318C86.9391 25.0415 86.9686 24.94 86.9732 24.8359V24.5818Z" fill="#A9B0C7"/>
<path fill-rule="evenodd" clip-rule="evenodd" d="M76.0593 22.0742L75.8052 25.1566L76.8658 25.7643L77.1088 22.6819L76.0593 22.0742Z" fill="#A9B0C7"/>
<path fill-rule="evenodd" clip-rule="evenodd" d="M81.4973 20.1516L77.1112 22.6816L76.8682 25.764L81.7514 22.9468L81.4973 20.1516Z" fill="#99A1BD"/>
<path fill-rule="evenodd" clip-rule="evenodd" d="M69.6231 26.0622V24.8801L68.5183 24.2725V25.4546C68.5155 25.5651 68.5381 25.6747 68.5846 25.775C68.6181 25.8601 68.6808 25.9305 68.7614 25.9738L69.8662 26.5925C69.7829 26.5331 69.7165 26.4529 69.6739 26.3598C69.6312 26.2668 69.6137 26.1642 69.6231 26.0622Z" fill="#A9B0C7"/>
<path fill-rule="evenodd" clip-rule="evenodd" d="M88.9672 13.7104L69.6221 24.88V26.0622C69.6221 26.5814 69.9977 26.7913 70.4507 26.5372L88.1276 16.3067C88.3644 16.1508 88.5617 15.9418 88.7036 15.6964C88.8456 15.4509 88.9282 15.1756 88.9451 14.8926L88.9672 13.7104Z" fill="#BAC0D2"/>
<path fill-rule="evenodd" clip-rule="evenodd" d="M88.2788 1.42529L70.2373 11.8326L70.2704 23.8308L88.3119 13.4124L88.2788 1.42529Z" fill="white"/>
<path fill-rule="evenodd" clip-rule="evenodd" d="M69.6213 24.6372L69.5881 12.3186L68.5386 11.7109L68.5717 24.0185V24.2726L69.6213 24.8802V24.6372Z" fill="#A9B0C7"/>
<path fill-rule="evenodd" clip-rule="evenodd" d="M70.2713 23.8306V11.8324L88.3128 1.42509V13.4122L70.2713 23.8306ZM88.9315 1.14889C88.9447 1.03861 88.9244 0.92693 88.8731 0.828387C88.8219 0.729844 88.7421 0.649014 88.6442 0.596488C88.5537 0.57013 88.4586 0.563394 88.3652 0.576731C88.2719 0.590067 88.1824 0.623177 88.1029 0.673833L70.426 10.9043C70.1873 11.0583 69.9886 11.2668 69.8464 11.5127C69.7043 11.7586 69.6227 12.0348 69.6084 12.3185V24.6371V24.8801L88.9536 13.7106L88.9315 1.14889Z" fill="#99A1BD"/>
<path fill-rule="evenodd" clip-rule="evenodd" d="M88.2817 0.60763C88.3178 0.597764 88.3559 0.597764 88.3921 0.60763H88.5579H88.6683L87.5635 0H87.1437L87.0332 0.0552268L68.7488 10.4957C68.6625 10.5552 68.5812 10.6217 68.5057 10.6945C68.5057 10.6945 68.5057 10.7498 68.4395 10.7829V10.8603V10.9265V11.0039V11.0591V11.1365V11.2138V11.2911C68.4395 11.2911 68.4395 11.3574 68.4395 11.3905V11.501C68.4395 11.501 68.4395 11.6005 68.4395 11.6447L69.5443 12.2523C69.5389 12.1898 69.5389 12.127 69.5443 12.0645C69.5443 12.0093 69.5443 11.954 69.5443 11.8877L69.6105 11.6889L69.7099 11.501L69.8315 11.3243C69.8659 11.2715 69.9067 11.2233 69.953 11.1806C69.953 11.1806 69.953 11.1806 70.0083 11.1254C70.0825 11.0498 70.1683 10.9864 70.2623 10.9376L88.5468 0.486117H88.6904L88.2817 0.60763Z" fill="#A9B0C7"/>
<path fill-rule="evenodd" clip-rule="evenodd" d="M78.1502 31.6304C81.9838 34.1052 81.2215 37.5964 77.896 37.5301C75.8963 37.4748 71.4219 34.4697 71.3666 32.6358C71.2672 29.1225 76.4709 30.5367 78.1502 31.6304Z" fill="#DDDADA"/>
<path fill-rule="evenodd" clip-rule="evenodd" d="M108.521 43.6507L111.637 44.3356C112.621 46.1108 112.964 48.1706 112.609 50.1691C111.758 53.6492 106.831 56.7979 103.539 57.3171C97.3406 58.2672 87.6515 50.6109 82.7903 48.1362C82.5141 43.9269 83.0223 42.9767 84.779 41.9051C87.8945 40.0158 90.303 39.4745 93.2528 40.5683C96.9318 41.9382 100.191 42.579 103.063 43.9932L108.521 43.6507Z" fill="#032747"/>
<path fill-rule="evenodd" clip-rule="evenodd" d="M101.814 22.9577C97.6598 25.3552 95.384 27.9404 96.7318 28.7248C98.0797 29.5092 102.543 28.1945 106.675 25.7971C110.807 23.3997 113.116 20.8144 111.768 20.03C110.42 19.2456 105.957 20.5493 101.814 22.9577Z" fill="#05345E"/>
<path fill-rule="evenodd" clip-rule="evenodd" d="M111.217 26.5483C111.416 23.1124 111.04 19.9195 108.632 20.3945C106.223 20.8696 101.362 24.4602 98.6885 25.8633L102.633 27.1449L111.217 26.5483Z" fill="#05345E"/>
<path fill-rule="evenodd" clip-rule="evenodd" d="M111.323 20.3948C113.389 22.1404 113.014 33.0779 113.191 35.619L112.086 46.8328C111.158 47.2636 109.125 47.3631 108.44 46.7444L109.114 35.5196L107.722 29.0565C107.446 24.8803 110.086 19.8424 111.323 20.3948Z" fill="#032747"/>
<path fill-rule="evenodd" clip-rule="evenodd" d="M101.464 19.1904C101.607 20.2069 102.569 22.5048 101.464 25.0569C103.57 24.6129 105.494 23.5468 106.988 21.9966C107.076 21.3559 107.209 20.704 107.364 20.019L101.464 19.1904Z" fill="#FF8654"/>
<path fill-rule="evenodd" clip-rule="evenodd" d="M99.484 25.3663C93.96 27.9626 97.8599 33.4093 99.031 42.0047C99.1746 43.0321 97.5506 47.8601 97.186 50.0808C97.1128 50.2479 97.1038 50.4363 97.1609 50.6096C97.218 50.7829 97.3371 50.929 97.4954 51.0198C98.7549 51.749 102.931 50.5227 106.82 48.2799C110.709 46.0372 112.753 43.7171 111.648 42.9327C110.92 42.0728 110.387 41.0661 110.084 39.9812C109.78 38.8964 109.715 37.7589 109.891 36.6463C110.212 33.7849 110.764 32.9673 111.14 30.4373C111.405 28.6917 112.454 21.7536 109.317 21.8862C108.201 21.9635 101.108 24.6371 99.484 25.3663Z" fill="#05345E"/>
<path fill-rule="evenodd" clip-rule="evenodd" d="M100.478 10.3962C99.8928 11.501 99.0973 11.6668 99.0752 13.1251C99.0752 14.2299 98.9869 20.5715 101.075 21.9636C101.793 22.4386 103.682 21.3559 104.842 20.3726C105.638 19.6987 105.339 18.4282 105.682 17.9862L103.925 10.816L100.478 10.3962Z" fill="#FF9554"/>
<path fill-rule="evenodd" clip-rule="evenodd" d="M108.954 9.02623C111.716 11.037 111.804 14.6165 110.213 17.4448C109.429 18.8258 109.263 19.2346 108.004 19.8423C107.307 20.3259 106.496 20.6191 105.651 20.693C104.546 20.693 103.364 15.8981 102.226 15.7655C101.762 15.7103 101.342 16.2959 101.463 18.1298C100.832 16.7312 99.9737 15.447 98.9223 14.3293C97.0442 8.66166 106.236 5.4798 108.954 9.02623Z" fill="#BB543E"/>
<path fill-rule="evenodd" clip-rule="evenodd" d="M94.8855 29.9622C95.363 28.5213 96.3078 27.281 97.5702 26.4379C100.509 24.9906 101.912 28.3713 100.642 31.288C99.371 34.2047 97.3271 38.0384 95.7804 40.9219C94.3883 43.5624 92.8527 43.6508 91.9246 42.999C90.9966 42.3471 90.5215 40.9329 91.7921 38.0936C93.1841 34.9559 93.4824 33.0999 94.8855 29.9622Z" fill="#084478"/>
<path fill-rule="evenodd" clip-rule="evenodd" d="M116.175 23.676C113.258 25.4658 111.469 26.5816 109.955 25.057C106.961 22.0188 106.298 13.9205 108.276 10.131C108.563 9.57864 108.486 9.40188 108.276 9.52341C107.801 9.52341 106.353 7.98774 106.851 7.66735C112.717 3.88891 115.247 7.66732 115.126 11.3021C114.827 19.8423 112.176 22.2729 116.175 23.676Z" fill="#A54A37"/>
<path fill-rule="evenodd" clip-rule="evenodd" d="M107.184 7.41309C106.675 7.61195 106.245 7.68927 106.079 8.05386C106.032 8.43835 106.078 8.82846 106.212 9.19167C106.347 9.55489 106.566 9.88071 106.852 10.142C107.206 10.4292 108.101 9.88786 108.443 9.49013C108.053 9.3048 107.726 9.00933 107.502 8.64021C107.279 8.27109 107.168 7.84448 107.184 7.41309Z" fill="#084478"/>
<path fill-rule="evenodd" clip-rule="evenodd" d="M103.483 22.792C102.101 23.5874 101.35 24.4492 101.792 24.7033C102.234 24.9574 103.726 24.5265 105.107 23.731C106.488 22.9356 107.25 22.0849 106.797 21.8197C106.344 21.5546 104.864 22.0518 103.483 22.792Z" fill="#FF8654"/>
<path fill-rule="evenodd" clip-rule="evenodd" d="M100.711 43.6181V51.6499C100.7 51.7343 100.7 51.8198 100.711 51.9041C100.722 51.9773 100.744 52.0482 100.778 52.114L100.844 52.2245C100.894 52.2914 100.954 52.3508 101.021 52.4012L99.242 51.3628C99.1692 51.3156 99.1056 51.2557 99.0542 51.1859C99.0578 51.1603 99.0578 51.1343 99.0542 51.1086C99.0542 51.1086 99.0542 51.1086 99.0542 51.0423V50.9319V42.8999L100.711 43.6181Z" fill="#ABABAB"/>
<path fill-rule="evenodd" clip-rule="evenodd" d="M101.429 41.9384L101.23 42.1704L101.065 42.4245L100.932 42.6896C100.889 42.7779 100.856 42.8705 100.833 42.9658L100.766 43.242C100.761 43.334 100.761 43.4262 100.766 43.5182L98.9875 42.4797V42.3693C98.9833 42.3511 98.9833 42.3322 98.9875 42.314V42.2035C98.9807 42.1857 98.9807 42.1661 98.9875 42.1483C98.9824 42.1265 98.9824 42.1038 98.9875 42.082V42.0268V41.9605C98.9816 41.9425 98.9816 41.9231 98.9875 41.9052V41.8389V41.7616V41.6953L99.0759 41.5627L99.1533 41.4633V41.397V41.3418H99.2085L115.073 31.9951H115.129H115.46H115.537H115.626L117.416 33.0336L117.25 32.9674H117.283C117.211 32.9767 117.141 32.9953 117.073 33.0226L116.841 33.122L101.893 41.7616L101.661 41.9163C101.583 41.9163 101.506 41.9237 101.429 41.9384Z" fill="#F2F1F1"/>
<path fill-rule="evenodd" clip-rule="evenodd" d="M101.882 41.6182L116.83 32.9786C117.471 32.614 117.935 32.9123 118.001 33.6415V41.6845C117.983 42.0803 117.874 42.4667 117.682 42.8136C117.491 43.1604 117.222 43.4584 116.896 43.6842L101.948 52.3127C101.307 52.6883 100.788 52.39 100.777 51.6498V43.6179C100.793 43.2217 100.901 42.8346 101.093 42.4875C101.285 42.1403 101.555 41.8428 101.882 41.6182Z" fill="#8C8C8C"/>
<path fill-rule="evenodd" clip-rule="evenodd" d="M105.736 61.5378V46.1589L107.216 45.2971V60.6871C107.24 61.3078 107.083 61.9222 106.763 62.4548C106.605 62.7114 106.384 62.9242 106.122 63.0735L104.653 63.9352C105.029 63.6666 105.327 63.3034 105.517 62.8824C105.707 62.4613 105.783 61.9974 105.736 61.5378Z" fill="#909192"/>
<path fill-rule="evenodd" clip-rule="evenodd" d="M105.783 46.1587L107.264 45.2969L106.28 44.7224L104.8 45.5842L105.783 46.1587Z" fill="#F2F1F1"/>
<path fill-rule="evenodd" clip-rule="evenodd" d="M101.994 62.5433C103.507 63.4161 104.745 62.709 104.756 60.9744V45.5845L105.739 46.159V61.5379C105.739 63.9132 104.049 64.8523 101.994 63.6812V62.5433Z" fill="#D6D6D8"/>
<path fill-rule="evenodd" clip-rule="evenodd" d="M114.992 56.08V40.6901L116.473 39.8284V55.2183C116.492 55.842 116.335 56.4586 116.02 56.997C115.858 57.2511 115.639 57.4632 115.379 57.6157L113.898 58.4774C114.276 58.2094 114.575 57.8466 114.767 57.4256C114.959 57.0047 115.037 56.5405 114.992 56.08Z" fill="#909192"/>
<path fill-rule="evenodd" clip-rule="evenodd" d="M115.036 40.6898L116.517 39.8281L115.522 39.2646L114.042 40.1153L115.036 40.6898Z" fill="#F2F1F1"/>
<path fill-rule="evenodd" clip-rule="evenodd" d="M111.247 57.0745C112.76 57.9473 113.998 57.2513 113.998 55.5057V40.1157L114.992 40.6902V56.0802C114.992 58.4555 113.302 59.3946 111.236 58.2124L111.247 57.0745Z" fill="#D6D6D8"/>
<path fill-rule="evenodd" clip-rule="evenodd" d="M83.5533 34.5915C82.2896 33.9992 81.1614 33.153 80.2389 32.1056C79.7209 31.5513 79.071 31.137 78.3498 30.9014C77.3775 30.5368 75.2894 31.2991 73.4112 31.3433C73.2062 31.332 73.0013 31.3682 72.8124 31.4489C72.6236 31.5296 72.4559 31.6527 72.3223 31.8087C72.1888 31.9647 72.0929 32.1494 72.0423 32.3484C71.9916 32.5474 71.9875 32.7555 72.0302 32.9563C72.1407 34.0611 73.6101 34.492 74.7149 35.1659C75.5549 35.7482 76.4789 36.199 77.4549 36.5028C78.2835 36.7569 79.6644 36.5028 80.5262 36.7237L82.5922 37.4971L83.4539 34.7903H83.3877L83.5533 34.5915Z" fill="#FF8654"/>
<path fill-rule="evenodd" clip-rule="evenodd" d="M81.8098 33.3872C80.705 33.4756 80.0311 35.9503 80.5725 36.9226L90.8582 42.8002C93.4103 43.905 94.7582 42.8554 95.0123 41.5627C95.2664 40.2701 94.6918 38.6019 92.0735 37.8064L81.8098 33.3872Z" fill="#084478"/>
<path fill-rule="evenodd" clip-rule="evenodd" d="M83.8275 4.06567L74.5029 9.44608L74.5361 21.3448L83.8606 15.9534L83.8275 4.06567Z" fill="#DBFBF6"/>
<path fill-rule="evenodd" clip-rule="evenodd" d="M80.0708 7.34698L80.0818 10.9265L83.1864 9.12571L83.1753 5.54614L80.0708 7.34698Z" fill="#A0E8E8"/>
<path fill-rule="evenodd" clip-rule="evenodd" d="M81.1987 9.12553C81.2154 9.22797 81.2154 9.33244 81.1987 9.43488C81.265 9.51222 81.497 9.51223 81.6406 9.52328C81.7732 9.35756 82.0383 9.2029 82.0494 8.9488C82.0383 8.84967 82.0383 8.7496 82.0494 8.65048C81.9279 8.38532 81.4749 8.7278 81.1987 9.12553Z" fill="#F0C17D"/>
<path fill-rule="evenodd" clip-rule="evenodd" d="M81.6415 9.95419H81.7299L82.0503 9.76639C82.0503 9.51229 82.0503 9.30238 82.1276 9.14771L81.6084 9.46807C81.4316 9.57856 81.5752 9.74428 81.6415 9.95419Z" fill="#A0E8E8"/>
<path fill-rule="evenodd" clip-rule="evenodd" d="M82.3702 9.10331V9.2138L82.4475 9.56734L82.0498 9.79934L82.1603 9.73306L83.1546 9.1696H83.2209V9.07017C83.0331 8.86026 82.6354 9.04807 82.3702 9.10331Z" fill="#06929C"/>
<path fill-rule="evenodd" clip-rule="evenodd" d="M82.0595 8.93774C81.9292 9.11488 81.789 9.28454 81.6396 9.44595L81.7281 9.54537L81.9048 9.72215L82.1258 9.1366C82.1258 9.1366 82.1258 9.1366 82.1258 9.07032C82.1037 9.07032 82.0705 9.03718 82.0595 8.93774Z" fill="#DBFBF6"/>
<path fill-rule="evenodd" clip-rule="evenodd" d="M81.1304 9.73317C81.1304 9.8547 81.1856 10.0425 81.2298 10.2524L81.5281 10.0757L81.6496 9.97623V9.61162V9.5564L81.1304 9.73317Z" fill="#A0E8E8"/>
<path fill-rule="evenodd" clip-rule="evenodd" d="M81.1107 9.7002H81.0996V9.71124L81.1107 9.7002Z" fill="#5D8080"/>
<path fill-rule="evenodd" clip-rule="evenodd" d="M80.8229 10.4847L81.0328 10.0207C81.0328 10.0207 80.856 10.0207 80.8892 9.94336C80.562 10.1813 80.2812 10.4771 80.0605 10.8161V10.9156L81.0438 10.3411L80.8229 10.4847Z" fill="#06929C"/>
<path fill-rule="evenodd" clip-rule="evenodd" d="M82.1467 9.09253V9.15881C82.1467 9.31349 82.0803 9.54552 82.0361 9.79962L82.4339 9.56762V9.10359C82.3651 9.12186 82.2928 9.12186 82.224 9.10359L82.1467 9.09253Z" fill="#0EA8B3"/>
<path fill-rule="evenodd" clip-rule="evenodd" d="M81.637 9.46826L81.626 9.47931H81.637V9.46826Z" fill="#5D8080"/>
<path fill-rule="evenodd" clip-rule="evenodd" d="M81.6184 9.49036L81.4858 9.78866V9.7997V9.85494L81.6074 9.92123L81.5411 10.0759L81.7399 9.96543L81.6737 9.87704L81.7731 9.67818L81.7841 9.62293L81.7289 9.56769L81.6516 9.46826L81.6405 9.47931H81.6295L81.6184 9.49036Z" fill="#14BAC6"/>
<path fill-rule="evenodd" clip-rule="evenodd" d="M81.1991 9.43506C81.1944 9.53164 81.1596 9.62437 81.0996 9.70023L81.3316 10.0206L81.4532 9.76652L81.5857 9.4682C81.4531 9.4682 81.2211 9.4682 81.1548 9.4682L81.1991 9.43506Z" fill="#DBFBF6"/>
<path fill-rule="evenodd" clip-rule="evenodd" d="M81.1103 9.68896L80.9225 9.92096H80.8672V10.4071L81.265 10.164C81.2242 10.0024 81.1725 9.84366 81.1103 9.68896Z" fill="#0EA8B3"/>
<path fill-rule="evenodd" clip-rule="evenodd" d="M81.0022 8.28617C80.9908 8.32588 80.9908 8.36796 81.0022 8.40768C81.025 8.49815 81.0545 8.5868 81.0906 8.67285C81.0906 8.67285 81.1458 8.83857 81.19 8.80543C81.1825 8.88996 81.1825 8.97498 81.19 9.05951C81.2115 9.06709 81.2349 9.06709 81.2563 9.05951H81.3668C81.4331 9.05951 81.4552 9.13684 81.5104 9.12579C81.5703 9.11777 81.6273 9.09499 81.6762 9.05951C81.7456 9.03075 81.8093 8.98958 81.864 8.938C81.864 8.88276 81.9302 8.81648 81.9965 8.706L82.096 8.55131C82.1252 8.50922 82.151 8.4649 82.1733 8.41874C82.1805 8.31575 82.1805 8.21238 82.1733 8.10939C82.2243 8.03281 82.2582 7.94613 82.2727 7.85528L82.3611 7.4907C82.3611 7.43546 82.3611 7.39128 82.3611 7.39128C82.3309 7.40883 82.3076 7.43606 82.2948 7.46859C82.2948 7.46859 82.2948 7.04878 82.1512 7.00459C81.9604 6.9722 81.7642 6.99684 81.5873 7.07546C81.4105 7.15407 81.2607 7.28315 81.1569 7.4465C81.0132 7.68956 81.0353 8.45189 81.0022 8.28617Z" fill="#FFDBA7"/>
<path fill-rule="evenodd" clip-rule="evenodd" d="M81.6057 6.81675C81.3642 6.96803 81.1758 7.1909 81.0669 7.45428C80.958 7.71766 80.9339 8.00846 80.998 8.28616C80.998 8.36349 80.9981 8.45188 81.0533 8.52922C81.0744 8.23591 81.115 7.94433 81.1748 7.65641C81.2071 7.6143 81.2487 7.58027 81.2964 7.55698C81.4006 7.50943 81.5133 7.48313 81.6278 7.47964C81.7426 7.47005 81.8549 7.44014 81.9593 7.39127C82.0069 7.36798 82.0485 7.33395 82.0808 7.29184C82.1581 7.50387 82.1919 7.7293 82.1802 7.9547C82.1802 7.82212 82.1802 7.68957 82.2465 7.56804C82.3349 7.11507 82.3238 6.80571 82.0808 6.72838C81.917 6.69702 81.7473 6.72856 81.6057 6.81675Z" fill="#703100"/>
<path fill-rule="evenodd" clip-rule="evenodd" d="M82.3804 11.247V11.7663L82.8113 11.5122V11.004L82.3694 11.2581L82.3804 11.247ZM81.7727 16.296V15.7767L75.9173 19.1574V19.6767L81.7838 16.296H81.7727ZM83.1869 9.74447V10.2637L75.166 14.8929V14.3736L83.1869 9.74447ZM75.8952 14.9923V15.5226L81.7617 12.1309V11.6116L75.9062 14.9923H75.8952ZM81.7617 13.1694L75.8952 16.528V16.0087L81.7617 12.617V13.2136V13.1694ZM81.7617 14.2079L75.9062 17.5997V17.0804L81.7727 13.6886V14.2079H81.7617ZM82.8665 13.6003V13.0699L82.4246 13.3241V13.8544L82.8665 13.6003ZM82.8665 15.6773V15.158L82.4357 15.4121V15.9314L82.8665 15.6773ZM75.3649 10.1533V10.6725L79.3643 8.36346V7.84424L75.2986 10.1091L75.3649 10.1533ZM75.3649 11.1918V11.7111L79.3643 9.40198V8.79436L75.2986 11.1476L75.3649 11.1918ZM75.3649 13.2688V13.7991L79.3643 11.4901V10.9598L75.2986 13.2136L75.3649 13.2688ZM83.22 14.462L75.1991 19.1022V18.5829L83.22 13.9428V14.462ZM82.8555 12.5949V12.0756L82.4135 12.3297V12.849L82.8555 12.5949ZM75.3538 12.2303V12.7495L79.3532 10.4405V9.89916L75.3538 12.2303Z" fill="#A0E8E8"/>
</svg>
