<svg width="64" height="59" viewBox="0 0 64 59" fill="none" xmlns="http://www.w3.org/2000/svg">
<path fill-rule="evenodd" clip-rule="evenodd" d="M36.7573 15.6992C35.351 16.641 33.6867 17.1442 31.9965 17.1442C29.7258 17.1442 27.5454 16.2411 25.9456 14.6283C24.3328 13.0285 23.4297 10.8481 23.4297 8.57736C23.4297 6.88722 23.9329 5.22288 24.8747 3.81658C25.8165 2.39737 27.1583 1.30071 28.7195 0.655618C30.2935 0.010525 32.0094 -0.170101 33.6738 0.165347C35.3381 0.500796 36.8605 1.31361 38.0604 2.51349C39.2603 3.71336 40.0731 5.23578 40.4085 6.90012C40.7311 8.56446 40.5634 10.2933 39.9183 11.8544C39.2603 13.4156 38.1636 14.7574 36.7573 15.6992ZM31.9965 2.07482C30.2677 2.07482 28.6162 2.75862 27.4035 3.9843C26.1778 5.19708 25.494 6.84851 25.5069 8.56446C25.5069 9.85465 25.8939 11.1061 26.6035 12.177C27.3131 13.2478 28.3324 14.0865 29.5194 14.5767C30.7063 15.067 32.0094 15.196 33.2738 14.9509C34.5382 14.6928 35.6994 14.0736 36.6025 13.1704C37.5185 12.2673 38.1378 11.1061 38.3829 9.84175C38.6281 8.57736 38.4991 7.27428 38.0088 6.0873C37.5056 4.90033 36.6799 3.88108 35.609 3.17148C34.5382 2.46188 33.2867 2.07482 31.9965 2.07482ZM27.9453 9.23546L29.4806 11.0546C29.6483 11.2482 29.8806 11.3772 30.1386 11.4159C30.3966 11.4417 30.6547 11.3772 30.874 11.2224L35.867 7.59693C36.0864 7.4421 36.2412 7.19697 36.2799 6.92603C36.3186 6.65509 36.2541 6.38415 36.0993 6.15192C35.9444 5.93259 35.6993 5.77776 35.4284 5.73906C35.1574 5.70035 34.8865 5.76486 34.6543 5.91968L30.4353 8.97743L29.5193 7.89367C29.429 7.79045 29.3258 7.70014 29.2097 7.63563C29.0936 7.57112 28.9516 7.53242 28.8226 7.51952C28.6936 7.50661 28.5517 7.51952 28.4227 7.55822C28.2936 7.59693 28.1775 7.66144 28.0743 7.75175C27.9711 7.84206 27.8808 7.94528 27.8163 8.06139C27.7518 8.17751 27.7131 8.31943 27.7002 8.44845C27.6872 8.57747 27.7002 8.71939 27.7389 8.84841C27.7905 9.00323 27.855 9.11935 27.9453 9.23546ZM42.3957 44.754L37.6091 43.1542V42.2898H36.0479L37.9445 40.3932C38.6928 39.6449 39.2605 38.716 39.596 37.7096C41.1442 37.4129 42.2924 36.0582 42.2924 34.4584C42.2924 33.4778 41.8667 32.5747 41.1184 31.9425V28.588C41.1184 27.0398 40.0217 25.6851 38.5251 25.3496C37.5446 22.8467 35.0932 21.1694 32.3709 21.1694H31.9452C26.8747 21.1694 22.759 25.298 22.759 30.3556V31.9425C22.0107 32.5747 21.5849 33.4778 21.5849 34.4584C21.5849 36.0582 22.7332 37.4129 24.2814 37.7096C24.6169 38.716 25.1846 39.632 25.9329 40.3932L27.8295 42.2898H26.2683V43.1542L21.4817 44.754C19.0691 45.554 17.3144 47.6183 16.9016 50.1212L15.5469 58.3268H48.3563L46.9887 50.1083C46.5759 47.6054 44.8083 45.554 42.3957 44.754ZM28.2294 42.6897C28.8616 43.3219 29.6873 43.6574 30.5776 43.6574H33.3256C34.2159 43.6574 35.0416 43.309 35.6738 42.6897V43.7348L34.99 46.4571L32.9902 44.0573H30.9001L28.9132 46.4571L28.2294 43.7348V42.6897ZM23.9331 33.5036V35.426C23.688 35.1809 23.5331 34.8325 23.5331 34.4713C23.5331 34.0971 23.688 33.7617 23.9331 33.5036ZM39.9701 33.5036C40.2152 33.7488 40.3701 34.0971 40.3701 34.4584C40.3701 34.8325 40.2152 35.168 39.9701 35.4131V33.5036ZM34.1901 28.4977C32.487 30.2007 30.2163 31.1426 27.7907 31.1426H24.9007H24.7072V30.3556C24.7072 26.3689 27.9585 23.1176 31.9452 23.1176H32.3709C34.4481 23.1176 36.306 24.511 36.8866 26.5237L37.093 27.2333H37.8284C38.5896 27.2333 39.196 27.8526 39.196 28.6009V31.1555H39.0025C37.8929 31.1555 36.8479 30.562 36.2802 29.6202L35.0803 27.6333L34.1901 28.4977ZM25.8942 33.0908H27.8036C30.3066 33.0908 32.7193 32.2392 34.6545 30.691C35.4029 31.878 36.6414 32.7166 38.0219 32.9875V35.5421C38.0219 36.8452 37.5188 38.0838 36.5898 38.9998L34.3062 41.2834C34.0482 41.5415 33.6998 41.6834 33.3386 41.6834H30.5776C30.2163 41.6834 29.8679 41.5415 29.6099 41.2834L27.3263 38.9998C26.3973 38.0709 25.8942 36.8452 25.8942 35.5421V33.0908ZM42.8085 56.3786L42.2666 50.9986L40.3314 51.1921L40.8474 56.3786H35.1448L34.1385 49.3729L34.4739 48.8826L35.9576 50.6631L37.3381 45.1282L41.7893 46.6119C43.5181 47.1925 44.7696 48.6633 45.0663 50.4567L46.0598 56.4044H42.8085V56.3786ZM31.7903 48.9084L30.7324 47.3086L31.8161 46.0055H32.0742L33.1579 47.3086L32.1 48.9084L33.1708 56.3786H30.7195L31.7903 48.9084ZM29.7647 49.3729L28.7584 56.3786H23.0558L23.5718 51.1921L21.6366 50.9986L21.0947 56.3786H17.8434L18.8369 50.4309C19.1336 48.6375 20.398 47.1667 22.1139 46.5861L26.5651 45.1024L27.9456 50.6373L29.4293 48.8568L29.7647 49.3729ZM14.4372 21.389C15.2242 22.1761 15.8435 23.105 16.2693 24.1371C16.695 25.1564 16.9143 26.2659 16.9014 27.3884C16.9014 30.0055 15.7661 31.7552 14.6751 33.4366L14.6565 33.4652L14.6241 33.5153C13.9261 34.5938 13.258 35.6262 12.9277 36.8713V38.7163C12.9277 39.9032 12.4503 41.0386 11.6117 41.8772C10.7731 42.7158 9.63769 43.1932 8.45072 43.1932C7.26375 43.1932 6.12839 42.7158 5.28977 41.8772C4.45114 41.0386 3.97377 39.9032 3.97377 38.7163V36.8584C3.63833 35.6069 2.96743 34.5619 2.24492 33.4523C1.13536 31.7621 0 30.0075 0 27.3755C0 26.266 0.20643 25.1693 0.632191 24.1371C1.05795 23.105 1.67724 22.1632 2.46426 21.389C3.25127 20.602 4.1802 19.9698 5.21235 19.5441C6.2316 19.1183 7.34116 18.899 8.45072 18.899C9.56028 18.899 10.6569 19.1183 11.6891 19.5441C12.7212 19.9698 13.6502 20.602 14.4372 21.389ZM10.1538 40.4193C10.6053 39.9677 10.8634 39.3613 10.8634 38.7163V37.7615H6.03807V38.7163C6.03807 39.3484 6.29611 39.9677 6.74768 40.4193C7.19924 40.8709 7.80563 41.1289 8.45072 41.1289C9.08291 41.1289 9.7022 40.8709 10.1538 40.4193ZM11.1214 35.6972C11.573 34.4199 12.2568 33.362 12.9277 32.3298C13.9598 30.7558 14.8371 29.4011 14.8371 27.3755C14.8371 26.5369 14.6823 25.6983 14.3598 24.9242C14.0372 24.15 13.5728 23.4404 12.9793 22.847C12.3858 22.2535 11.6762 21.7761 10.9021 21.4536C10.128 21.131 9.28934 20.9633 8.45072 20.9633C7.6121 20.9633 6.77348 21.131 5.99937 21.4536C5.22526 21.7761 4.51565 22.2535 3.92217 22.847C3.32868 23.4404 2.86421 24.15 2.54167 24.9242C2.21912 25.6983 2.0643 26.5369 2.0643 27.3755C2.0643 29.3814 2.93727 30.7294 3.94404 32.2839L3.97377 32.3298C4.64467 33.3491 5.32847 34.407 5.78004 35.6972H7.41857V30.201H6.87669C6.1929 30.201 5.5349 29.9301 5.04463 29.4398C4.55436 28.9495 4.28342 28.2915 4.28342 27.6077C4.28342 26.9239 4.55436 26.2659 5.04463 25.7757C5.5349 25.2854 6.1929 25.0145 6.87669 25.0145C7.16054 25.0145 7.41857 25.1177 7.6121 25.3112C7.80563 25.5047 7.90884 25.7628 7.90884 26.0466C7.90884 26.3305 7.80563 26.5885 7.6121 26.782C7.41857 26.9756 7.14763 27.0788 6.87669 27.0788C6.73477 27.0788 6.60576 27.1304 6.50254 27.2336C6.39933 27.3368 6.34772 27.4658 6.34772 27.6077C6.34772 27.7497 6.39933 27.8787 6.50254 27.9819C6.60576 28.0851 6.73477 28.1367 6.87669 28.1367H10.0247C10.1667 28.1367 10.2957 28.0851 10.3989 27.9819C10.5021 27.8787 10.5537 27.7497 10.5537 27.6077C10.5537 27.4658 10.5021 27.3368 10.3989 27.2336C10.2957 27.1304 10.1667 27.0788 10.0247 27.0788C9.74091 27.0788 9.48287 26.9756 9.28934 26.782C9.09582 26.5885 8.9926 26.3305 8.9926 26.0466C8.9926 25.7628 9.09582 25.5047 9.28934 25.3112C9.48287 25.1177 9.75381 25.0145 10.0247 25.0145C10.7085 25.0145 11.3665 25.2854 11.8568 25.7757C12.3471 26.2659 12.618 26.9239 12.618 27.6077C12.618 28.2915 12.3471 28.9495 11.8568 29.4398C11.3665 29.9301 10.7085 30.201 10.0247 30.201H9.48287V35.6972H11.1214ZM42.5002 11.0416C42.5905 11.1448 42.7067 11.2223 42.8228 11.2739C45.1322 12.3576 47.261 13.7768 49.1576 15.4928L48.3577 15.2734C48.0867 15.2089 47.8158 15.2347 47.5707 15.3767C47.3384 15.5186 47.1578 15.7379 47.0933 16.0089C47.0288 16.2798 47.0546 16.5507 47.1965 16.7959C47.3384 17.0281 47.5578 17.2087 47.8287 17.2732L52.2024 18.4344C52.3702 18.486 52.5508 18.486 52.7185 18.4344C52.8862 18.3957 53.0411 18.3054 53.1701 18.1764C53.2991 18.0602 53.3894 17.9054 53.441 17.7377C53.4926 17.57 53.5055 17.3893 53.4668 17.2216L52.5121 12.835C52.4476 12.5641 52.2927 12.3318 52.0605 12.1899C51.8283 12.048 51.5444 11.9964 51.2864 12.048C51.0155 12.1125 50.7832 12.2673 50.6413 12.4995C50.4994 12.7318 50.4478 13.0156 50.4994 13.2737L50.68 14.0865C48.6028 12.1899 46.2547 10.603 43.7001 9.416C43.5711 9.36439 43.4421 9.32568 43.313 9.32568C43.184 9.32568 43.0421 9.33859 42.9131 9.39019C42.7841 9.4418 42.6679 9.50631 42.5647 9.59662C42.4615 9.68694 42.3841 9.80305 42.3325 9.91917C42.2809 10.0482 42.2422 10.1772 42.2422 10.3062C42.2422 10.4352 42.2551 10.5772 42.3067 10.7062C42.3325 10.8223 42.4099 10.9384 42.5002 11.0416ZM63.6315 24.5887C63.7734 24.7177 63.8766 24.8726 63.9411 25.0532C64.0056 25.2338 64.0056 25.4273 63.9927 25.608C63.9411 25.8015 63.8508 25.9692 63.7218 26.0982L60.4963 29.414L61.1543 33.9942C61.193 34.1877 61.1672 34.3812 61.0898 34.549C61.0124 34.7296 60.8963 34.8715 60.7415 34.9876C60.5866 35.1037 60.4189 35.1683 60.2254 35.1812C60.0448 35.1941 59.8512 35.1553 59.6835 35.0779L55.5291 33.0394L51.3747 35.0779C51.207 35.1683 51.0264 35.1941 50.8328 35.1812C50.6522 35.1683 50.4716 35.1037 50.3167 34.9876C50.1619 34.8715 50.0458 34.7167 49.9684 34.549C49.9039 34.3683 49.8781 34.1748 49.9039 33.9942L50.5619 29.414L47.3364 26.0982C47.1945 25.9563 47.1042 25.7886 47.0655 25.608C47.0268 25.4273 47.0268 25.2338 47.0913 25.0532C47.1558 24.8726 47.259 24.7177 47.4009 24.5887C47.5428 24.4726 47.7235 24.3823 47.9041 24.3565L52.4585 23.5695L54.6131 19.4796C54.6905 19.3119 54.8324 19.1828 54.9872 19.0796C55.142 18.9764 55.3227 18.9248 55.5162 18.9248C55.6968 18.9248 55.8904 18.9764 56.0452 19.0796C56.2 19.1699 56.329 19.3119 56.4193 19.4796L58.5739 23.5695L63.1283 24.3565C63.3218 24.3823 63.4896 24.4597 63.6315 24.5887ZM58.3933 28.7302C58.4449 28.5754 58.5223 28.4464 58.6385 28.3303L60.8576 26.0337L57.7224 25.4919C57.5676 25.4661 57.4257 25.4015 57.2967 25.3112C57.1676 25.2209 57.0644 25.1048 56.987 24.9629L55.5033 22.1503L54.0196 24.9629C53.9422 25.0919 53.839 25.2209 53.7099 25.3112C53.5809 25.4015 53.439 25.4661 53.2842 25.4919L50.149 26.0337L52.3681 28.3174C52.4843 28.4335 52.5617 28.5625 52.6133 28.7173C52.6649 28.8721 52.6778 29.027 52.652 29.1818L52.2004 32.3298L55.0517 30.9235C55.1937 30.859 55.3485 30.8203 55.5033 30.8203C55.6581 30.8203 55.8129 30.859 55.9549 30.9235L58.8062 32.3298L58.3546 29.1947C58.3288 29.0399 58.3417 28.885 58.3933 28.7302ZM11.4836 17.4668C11.69 17.6474 11.948 17.7377 12.219 17.7248C12.4899 17.7119 12.7479 17.5958 12.9286 17.3894C14.4123 15.725 16.1153 14.2671 17.9732 13.0415L17.5732 13.7382C17.4313 13.9704 17.4055 14.2542 17.47 14.5252C17.5345 14.7961 17.7152 15.0154 17.9474 15.1574C18.1796 15.2993 18.4635 15.3251 18.7344 15.2606C19.0053 15.1961 19.2247 15.0154 19.3666 14.7832L21.6244 10.861C21.7147 10.7062 21.7534 10.5385 21.7663 10.3579C21.7663 10.1772 21.7276 10.0095 21.6373 9.85469C21.547 9.69987 21.4309 9.57085 21.2761 9.48054C21.1213 9.39022 20.9535 9.33862 20.7729 9.32572L16.2831 9.10638C16.1411 9.09348 16.0121 9.11929 15.8831 9.15799C15.7541 9.2096 15.638 9.27411 15.5347 9.36442C15.4315 9.45473 15.3541 9.57085 15.2896 9.68697C15.2251 9.81599 15.1993 9.945 15.1864 10.074C15.1735 10.2159 15.1993 10.345 15.2509 10.474C15.3025 10.603 15.367 10.7191 15.4573 10.8223C15.5476 10.9255 15.6638 11.003 15.7799 11.0675C15.9089 11.1191 16.0379 11.1578 16.1798 11.1578L17.0314 11.1965C14.9413 12.5383 13.0447 14.1639 11.3803 16.0218C11.1997 16.2282 11.1094 16.4992 11.1223 16.7572C11.161 17.041 11.2771 17.2862 11.4836 17.4668Z" fill="url(#paint0_linear_1_821)"/>
<defs>
<linearGradient id="paint0_linear_1_821" x1="0" y1="0" x2="64.5233" y2="57.4114" gradientUnits="userSpaceOnUse">
<stop offset="0.179426" stop-color="#FE5B52"/>
<stop offset="0.857651" stop-color="#3E96F4"/>
</linearGradient>
</defs>
</svg>
