<svg width="45" height="64" viewBox="0 0 45 64" fill="none" xmlns="http://www.w3.org/2000/svg">
<path fill-rule="evenodd" clip-rule="evenodd" d="M22.2583 41.6667C21.6583 41.6667 21.175 41.1792 21.175 40.5833V40.0417C21.175 39.4417 21.6625 38.9583 22.2583 38.9583C22.8542 38.9583 23.3417 39.4458 23.3417 40.0417V40.5833C23.3417 41.1792 22.8583 41.6667 22.2583 41.6667ZM22.2583 37.5125C21.6583 37.5125 21.175 37.025 21.175 36.4292V35.8875C21.175 35.2875 21.6625 34.8042 22.2583 34.8042C22.8542 34.8042 23.3417 35.2917 23.3417 35.8875V36.4292C23.3417 37.025 22.8583 37.5125 22.2583 37.5125ZM22.2583 33.3542C21.6583 33.3542 21.175 32.8667 21.175 32.2708V31.7292C21.175 31.1292 21.6625 30.6458 22.2583 30.6458C22.8542 30.6458 23.3417 31.1333 23.3417 31.7292V32.2708C23.3417 32.8708 22.8583 33.3542 22.2583 33.3542ZM41.7667 5.79167H41.4589V13.0998C41.4589 15.2998 40.663 17.429 39.2172 19.0915L27.8172 32.204L39.1422 44.8832C40.638 46.5582 41.463 48.7207 41.463 50.9665V58.2042H41.7667C43.2833 58.2042 44.5167 59.4375 44.5167 60.9542V61.25C44.5167 62.7667 43.2833 64 41.7667 64H2.75C1.23333 64 0 62.7667 0 61.25V60.9542C0 59.4375 1.23333 58.2042 2.75 58.2042H3.05469V50.7248C3.05469 48.4748 3.87969 46.3123 5.37969 44.6373L16.7922 31.8748L5.37969 19.1207C3.87969 17.4457 3.05469 15.2832 3.05469 13.0332V5.79167H2.75C1.23333 5.79167 0 4.55833 0 3.04167V2.75C0 1.23333 1.23333 0 2.75 0H41.7667C43.2833 0 44.5167 1.23333 44.5167 2.75V3.04167C44.5167 4.55833 43.2833 5.79167 41.7667 5.79167ZM39.463 5.79167H5.05469V13.0332C5.05469 14.7915 5.70052 16.479 6.87135 17.7873L18.8797 31.2165C19.2172 31.5957 19.2172 32.1707 18.8797 32.5498L6.87135 45.979C5.70052 47.2873 5.05469 48.9748 5.05469 50.7332V58.2042H13.2044C13.15 57.9922 13.1211 57.7702 13.1211 57.5415V57.2624C13.1211 56.6322 13.3406 56.0526 13.7071 55.5958C13.3406 55.139 13.1211 54.5594 13.1211 53.9292V53.6501C13.1211 53.0189 13.3413 52.4384 13.7089 51.9813C13.3413 51.5242 13.1211 50.9437 13.1211 50.3125V50.0334C13.1211 48.5625 14.3169 47.3667 15.7878 47.3667H28.7294C30.2003 47.3667 31.3961 48.5625 31.3961 50.0334V50.3125C31.3961 50.9437 31.1759 51.5242 30.8083 51.9813C31.1759 52.4384 31.3961 53.0189 31.3961 53.6501V53.9292C31.3961 54.5594 31.1766 55.139 30.81 55.5958C31.1766 56.0526 31.3961 56.6322 31.3961 57.2624V57.5415C31.3961 57.7702 31.3672 57.9922 31.3128 58.2042H39.4589V50.9623C39.4589 49.2082 38.8172 47.5207 37.6464 46.2123L25.738 32.879C25.4005 32.504 25.4005 31.9373 25.7297 31.5582L37.713 17.779C38.8422 16.4832 39.463 14.8207 39.463 13.0998V5.79167ZM15.1211 57.2624C15.1211 56.9006 15.4132 56.6037 15.7731 56.5959L15.7878 56.5959H28.7294L28.7406 56.5959C29.1003 56.6041 29.3919 56.9008 29.3919 57.2624V57.5415C29.3919 57.8834 29.1311 58.1674 28.7986 58.2042H15.7145C15.3819 58.1674 15.1211 57.8834 15.1211 57.5415V57.2624ZM41.7667 3.79167H40.4772L40.4589 3.7915H4.05469L4.03636 3.79167H2.75C2.3375 3.79167 2 3.45417 2 3.04167V2.75C2 2.3375 2.3375 2 2.75 2H41.7667C42.1792 2 42.5167 2.3375 42.5167 2.75V3.04167C42.5167 3.45417 42.1792 3.79167 41.7667 3.79167ZM2.75 60.2083C2.3375 60.2083 2 60.5458 2 60.9583V61.2542C2 61.6667 2.3375 62.0042 2.75 62.0042H41.7667C42.1792 62.0042 42.5167 61.6667 42.5167 61.2542V60.9583C42.5167 60.5458 42.1792 60.2083 41.7667 60.2083H2.75ZM27.9996 21.0948C27.9996 21.902 27.765 22.6747 27.3027 23.3854C26.8405 24.096 26.1782 24.6548 25.3227 25.0274C24.8838 25.2282 24.4129 25.3769 23.9132 25.4713V25.9098C23.9132 26.8205 23.1749 27.5656 22.2574 27.5656C21.3398 27.5656 20.6016 26.8274 20.6016 25.9098V25.4058C20.1569 25.3132 19.7473 25.1867 19.3756 25.0274C18.4718 24.641 17.7474 24.0408 17.23 23.2543C16.9126 22.7713 16.6849 22.2401 16.5538 21.6813C16.4504 21.2604 16.54 20.8189 16.7953 20.467C17.0437 20.122 17.4369 19.8944 17.8647 19.8599C17.9061 19.853 17.9475 19.853 17.9958 19.853C18.665 19.853 19.2514 20.3014 19.4308 20.9499C19.5067 21.2328 19.6171 21.4674 19.7482 21.6675C19.9551 21.9779 20.3001 22.2332 20.7692 22.4402C21.2729 22.6609 21.8524 22.7713 22.494 22.7713C23.0598 22.7713 23.5634 22.6885 23.9842 22.523C24.3637 22.3781 24.6397 22.1849 24.8052 21.9503C24.9639 21.7227 25.0467 21.4881 25.0467 21.2259C25.0467 20.9706 24.9777 20.7499 24.8328 20.5636C24.7294 20.4256 24.4879 20.2117 23.9566 20.0117C23.6393 19.8875 22.8666 19.6805 21.7351 19.4045C20.5209 19.1148 19.6309 18.825 19.1065 18.549L19.0927 18.5421C18.3752 18.1696 17.8302 17.6866 17.4714 17.114C17.1058 16.5345 16.9195 15.8791 16.9195 15.1616C16.9195 14.3888 17.1472 13.6506 17.5818 12.9814C18.0234 12.3122 18.6719 11.7948 19.4998 11.4498C19.8497 11.3055 20.2174 11.1927 20.6016 11.1118V10.6558C20.6016 9.73821 21.3398 9 22.2574 9C23.1749 9 23.9132 9.73821 23.9132 10.6558V11.1557C24.2583 11.2361 24.5862 11.3412 24.8949 11.4705C25.7504 11.8293 26.4128 12.3674 26.875 13.0711C27.1303 13.4575 27.3165 13.8714 27.4407 14.3061C27.558 14.7338 27.4821 15.1822 27.2269 15.5479C26.9716 15.9136 26.5714 16.1412 26.123 16.1757H26.1092C26.0678 16.1826 26.0264 16.1826 25.9919 16.1826H25.9919C25.3365 16.1826 24.7708 15.7549 24.5845 15.1202C24.4741 14.7476 24.2878 14.4509 24.0256 14.2371C23.6462 13.9266 23.0115 13.761 22.1905 13.761C21.0935 13.761 20.5761 13.9956 20.3346 14.1888C20.0172 14.444 19.8654 14.72 19.8654 15.0512C19.8654 15.3271 19.9551 15.541 20.1483 15.7135C20.2104 15.7687 20.6175 16.0722 22.4388 16.4862C23.867 16.8105 24.8673 17.1002 25.4193 17.3486C26.2679 17.7418 26.9164 18.2593 27.3441 18.8802L27.351 18.894C27.7788 19.5356 27.9996 20.2738 27.9996 21.0948ZM15.7878 52.9792C15.4211 52.9792 15.1211 53.2792 15.1211 53.6459V53.9251C15.1211 54.2917 15.4211 54.5917 15.7878 54.5917H28.7253C29.0919 54.5917 29.3919 54.2917 29.3919 53.9251V53.6459C29.3919 53.2792 29.0919 52.9792 28.7253 52.9792H15.7878ZM15.1211 50.0334C15.1211 49.6667 15.4211 49.3667 15.7878 49.3667H28.7253C29.0919 49.3667 29.3919 49.6667 29.3919 50.0334V50.3125C29.3919 50.6792 29.0919 50.9792 28.7253 50.9792H15.7878C15.4211 50.9792 15.1211 50.6792 15.1211 50.3125V50.0334Z" fill="url(#paint0_linear_1_837)"/>
<defs>
<linearGradient id="paint0_linear_1_837" x1="6.89108" y1="7.99554" x2="47.9928" y2="36.3349" gradientUnits="userSpaceOnUse">
<stop stop-color="#FE5B52"/>
<stop offset="1" stop-color="#3E96F4"/>
</linearGradient>
</defs>
</svg>
