<svg width="66" height="66" viewBox="0 0 66 66" fill="none" xmlns="http://www.w3.org/2000/svg">
<g filter="url(#filter0_d_1_1632)">
<path d="M63 33C63 49.5689 49.5682 63 33 63C16.4313 63 3 49.5689 3 33C3 16.4313 16.4313 3 33 3C49.5682 3 63 16.4313 63 33Z" fill="white"/>
</g>
<path d="M33.665 11.9003C33.665 11.9003 35.308 13.8715 35.308 16.3032C35.308 18.7348 33.665 20.7061 33.665 20.7061C33.665 20.7061 32.0218 18.7348 32.0218 16.3032C32.0218 13.8715 33.665 11.9003 33.665 11.9003ZM26.7374 16.5206C26.7374 16.5206 26.407 18.9919 27.6662 20.9912C28.9255 22.9906 31.2971 23.7605 31.2971 23.7605C31.2971 23.7605 31.6278 21.2887 30.3681 19.2896C29.109 17.2902 26.7374 16.5206 26.7374 16.5206ZM22.5091 22.0648C24.4795 23.3689 26.9577 23.0947 26.9577 23.0947C26.9577 23.0947 26.2421 20.7057 24.2713 19.4021C22.3011 18.0977 19.8227 18.3724 19.8227 18.3724C19.8227 18.3724 20.5385 20.7607 22.5091 22.0648ZM24.1576 25.3624C22.0937 24.2122 19.6436 24.6751 19.6436 24.6751C19.6436 24.6751 20.5394 27.0019 22.6038 28.1517C24.668 29.3018 27.118 28.8394 27.118 28.8394C27.118 28.8394 26.2223 26.5118 24.1576 25.3624ZM18.7253 34.7416C20.956 33.9621 22.2372 31.8232 22.2372 31.8232C22.2372 31.8232 19.9023 30.9473 17.6717 31.7276C15.4411 32.5071 14.1602 34.6462 14.1602 34.6462C14.1602 34.6462 16.4948 35.5214 18.7253 34.7416ZM19.7049 39.8719C19.7049 39.8719 22.1551 40.3343 24.2189 39.184C26.2831 38.0336 27.1791 35.707 27.1791 35.707C27.1791 35.707 24.7287 35.2439 22.6648 36.3944C20.6007 37.5447 19.7049 39.8719 19.7049 39.8719ZM21.878 46.2694C21.878 46.2694 24.3622 46.0582 26.0424 44.3967C27.7229 42.7352 27.9622 40.2534 27.9622 40.2534C27.9622 40.2534 25.4775 40.4641 23.7973 42.1258C22.117 43.7873 21.878 46.2694 21.878 46.2694ZM29.919 15.2916C29.919 15.2916 30.3493 14.1298 29.957 13.0235C29.5653 11.917 28.5001 11.2852 28.5001 11.2852C28.5001 11.2852 28.07 12.4465 28.4619 13.553C28.8538 14.6593 29.919 15.2916 29.919 15.2916ZM25.09 17.2453C25.09 17.2453 25.3017 16.0245 24.7147 15.008C24.1283 13.9913 22.9656 13.564 22.9656 13.564C22.9656 13.564 22.754 14.7841 23.3408 15.8009C23.9274 16.8175 25.09 17.2453 25.09 17.2453ZM17.904 21.9229C18.8584 22.6061 20.0937 22.5152 20.0937 22.5152C20.0937 22.5152 19.7819 21.3161 18.8274 20.6332C17.8732 19.9497 16.638 20.041 16.638 20.041C16.638 20.041 16.9496 21.2395 17.904 21.9229ZM16.9489 29.2486C18.0982 29.4862 19.1907 28.9026 19.1907 28.9026C19.1907 28.9026 18.4195 27.9328 17.2701 27.6954C16.1207 27.4575 15.0286 28.0418 15.0286 28.0418C15.0286 28.0418 15.7993 29.0109 16.9489 29.2486ZM16.8511 37.0167C15.8267 37.5893 15.3838 38.7459 15.3838 38.7459C15.3838 38.7459 16.601 38.974 17.6255 38.4009C18.6498 37.8279 19.0932 36.6712 19.0932 36.6712C19.0932 36.6712 17.8755 36.4434 16.8511 37.0167ZM19.8808 42.0958C18.9716 42.8379 18.7364 44.054 18.7364 44.054C18.7364 44.054 19.9748 44.0667 20.8841 43.3244C21.793 42.5822 22.0287 41.366 22.0287 41.366C22.0287 41.366 20.7898 41.3533 19.8808 42.0958ZM25.4338 47.1026C24.9627 48.1774 25.3078 49.3673 25.3078 49.3673C25.3078 49.3673 26.4159 48.8142 26.8869 47.7389C27.3575 46.6638 27.013 45.4739 27.013 45.4739C27.013 45.4739 25.9042 46.0272 25.4338 47.1026ZM39.5548 20.9914C40.8141 18.992 40.4837 16.5207 40.4837 16.5207C40.4837 16.5207 38.112 17.2903 36.853 19.2897C35.5932 21.2888 35.9237 23.7606 35.9237 23.7606C35.9237 23.7606 38.2955 22.9907 39.5548 20.9914ZM47.3424 17.3826C47.3424 17.3826 44.8513 17.494 43.1059 19.0869C41.36 20.6793 41.0213 23.1501 41.0213 23.1501C41.0213 23.1501 43.5125 23.0384 45.2581 21.4454C47.0038 19.8531 47.3424 17.3826 47.3424 17.3826ZM47.578 24.6751C47.578 24.6751 45.1278 24.2122 43.0637 25.3624C40.9991 26.5118 40.1031 28.8394 40.1031 28.8394C40.1031 28.8394 42.5532 29.3018 44.6176 28.1517C46.6822 27.0019 47.578 24.6751 47.578 24.6751ZM43.3355 32.696C43.3355 32.696 45.0652 34.4918 47.4141 34.7496C49.7631 35.0072 51.841 33.6293 51.841 33.6293C51.841 33.6293 50.1113 31.8328 47.7627 31.5757C45.4138 31.3174 43.3355 32.696 43.3355 32.696ZM44.5566 36.3947C42.4925 35.2439 40.0421 35.707 40.0421 35.707C40.0421 35.707 40.9379 38.0339 43.0023 39.184C45.0664 40.3343 47.5166 39.8721 47.5166 39.8721C47.5166 39.8721 46.6208 37.5447 44.5566 36.3947ZM38.5402 39.7722C38.5402 39.7722 38.3466 42.2583 39.7145 44.1853C41.0818 46.1123 43.4923 46.7503 43.4923 46.7503C43.4923 46.7503 43.6862 44.264 42.3186 42.3375C40.951 40.4097 38.5402 39.7722 38.5402 39.7722ZM38.9181 13.6996C39.4133 12.6354 39.0957 11.4384 39.0957 11.4384C39.0957 11.4384 37.9749 11.966 37.4799 13.0302C36.9845 14.0942 37.302 15.2916 37.302 15.2916C37.302 15.2916 38.4226 14.7636 38.9181 13.6996ZM44.0082 16.5533C44.7744 15.6641 44.7943 14.4258 44.7943 14.4258C44.7943 14.4258 43.5725 14.6288 42.8063 15.5182C42.0402 16.4073 42.0202 17.646 42.0202 17.646C42.0202 17.646 43.2423 17.4426 44.0082 16.5533ZM48.6791 22.1236C49.6334 21.4402 49.9452 20.2417 49.9452 20.2417C49.9452 20.2417 48.7098 20.1504 47.7556 20.8337C46.801 21.5169 46.4893 22.7158 46.4893 22.7158C46.4893 22.7158 47.7247 22.8069 48.6791 22.1236ZM47.4031 28.5049C47.4031 28.5049 48.3669 29.283 49.5404 29.265C50.7144 29.2469 51.653 28.439 51.653 28.439C51.653 28.439 50.6895 27.6609 49.516 27.679C48.3423 27.697 47.4031 28.5049 47.4031 28.5049ZM49.839 36.1254C48.7053 35.8204 47.5805 36.3396 47.5805 36.3396C47.5805 36.3396 48.2935 37.3523 49.4274 37.657C50.5611 37.9617 51.6854 37.4426 51.6854 37.4426C51.6854 37.4426 50.9724 36.4294 49.839 36.1254ZM44.2979 41.5917C44.2979 41.5917 44.4214 42.824 45.2588 43.6465C46.0967 44.4691 47.3309 44.5694 47.3309 44.5694C47.3309 44.5694 47.2079 43.3366 46.37 42.5147C45.5328 41.6922 44.2979 41.5917 44.2979 41.5917ZM39.1892 45.4739C39.1892 45.4739 38.8447 46.6638 39.3153 47.7389C39.7862 48.8142 40.8943 49.3673 40.8943 49.3673C40.8943 49.3673 41.2395 48.1774 40.7684 47.1026C40.2978 46.0272 39.1892 45.4739 39.1892 45.4739Z" fill="url(#paint0_linear_1_1632)"/>
<path d="M33.6055 36.3378L35.1997 38.0054C35.1997 38.0054 38.7069 32.9663 43.5922 30.6938C38.2597 31.7935 33.6055 36.3378 33.6055 36.3378Z" fill="#3A3A3C"/>
<path d="M35.2091 38.1359L33.4883 36.3361L33.5469 36.2789C33.5935 36.2332 38.2798 31.7049 43.5746 30.6132L44.2705 30.4697L43.6262 30.7693C38.8168 33.0059 35.3019 38.0025 35.267 38.0527L35.2091 38.1359ZM33.722 36.3408L35.1898 37.8762C35.6478 37.2453 38.7284 33.1421 42.9104 30.9394C38.2728 32.1652 34.2537 35.84 33.722 36.3408Z" fill="#232323"/>
<path d="M32.9991 33.3505C35.063 33.3505 36.7364 31.6773 36.7364 29.6132C36.7364 27.5493 35.063 25.876 32.9991 25.876C30.9349 25.876 29.2617 27.5493 29.2617 29.6132C29.2617 31.6773 30.9349 33.3505 32.9991 33.3505Z" fill="#3A3A3C"/>
<path d="M32.9998 33.4333C30.8932 33.4333 29.1797 31.7193 29.1797 29.613C29.1797 27.5067 30.8934 25.793 32.9998 25.793C35.1061 25.793 36.8198 27.5067 36.8198 29.613C36.8198 31.7193 35.1061 33.4333 32.9998 33.4333ZM32.9998 25.9586C30.9846 25.9586 29.3452 27.5981 29.3452 29.613C29.3452 31.6282 30.9846 33.2676 32.9998 33.2676C35.0149 33.2676 36.6544 31.6282 36.6544 29.613C36.6544 27.5981 35.0149 25.9586 32.9998 25.9586Z" fill="#232323"/>
<path d="M21.4414 30.46C21.4414 30.46 30.0255 33.3507 31.646 41.4238C31.646 41.4238 32.5659 45.3364 32.3322 49.176C32.2884 49.895 31.8067 49.8475 31.8067 49.8475C31.8067 49.8475 30.4197 49.6138 30.2885 46.5189C30.2289 45.1173 30.5802 43.453 30.5802 43.453C30.5802 43.453 30.6824 42.5626 30.2885 41.8473C28.9014 43.8327 29.1206 47.57 29.1206 47.57C29.1206 47.57 29.4124 54.9571 33.1077 54.9571C34.8724 54.9571 37.3434 52.4331 37.1791 47.4824C36.7375 34.1682 21.4414 30.46 21.4414 30.46Z" fill="#3A3A3C"/>
<path d="M33.107 55.0396C29.375 55.0396 29.049 47.8781 29.037 47.5731C29.0279 47.4208 28.8324 43.7856 30.2197 41.7996L30.2959 41.6906L30.3598 41.807C30.7623 42.5369 30.6659 43.4249 30.6617 43.4622C30.6568 43.4863 30.3118 45.1403 30.3702 46.5149C30.4965 49.4924 31.8066 49.7631 31.82 49.7655C31.9152 49.765 32.2152 49.7221 32.2487 49.1704C32.4788 45.3869 31.5737 41.4815 31.5645 41.4424C30.7323 37.2953 28.017 34.5522 25.886 32.9807C23.5745 31.2763 21.4354 30.5453 21.4141 30.5383L21.46 30.3794C21.4984 30.3885 25.3428 31.3396 29.1896 33.9093C31.4511 35.4199 33.2717 37.1861 34.6016 39.1591C36.2647 41.6275 37.1595 44.4269 37.2608 47.4794C37.3508 50.1958 36.6287 52.5536 35.2791 53.9486C34.6084 54.6419 33.8166 55.0396 33.107 55.0396ZM30.2774 42.0107C29.0084 43.9776 29.2002 47.5286 29.2023 47.5649C29.2051 47.6397 29.5332 54.8739 33.107 54.8739C33.7721 54.8739 34.5205 54.4947 35.1601 53.8335C36.4787 52.4706 37.1839 50.1567 37.0953 47.485C36.8684 40.6424 32.6209 36.4007 29.0977 34.0469C26.7413 32.4731 24.3878 31.5105 22.9199 31.0017C23.7484 31.4029 24.8463 32.0085 25.9842 32.8478C28.1389 34.4367 30.8839 37.2112 31.7263 41.4074C31.7349 41.444 32.6455 45.3731 32.4139 49.1807C32.3706 49.8946 31.9149 49.9307 31.8242 49.9307C31.8071 49.9307 31.7975 49.9296 31.7975 49.9296C31.7326 49.919 30.3376 49.6483 30.2047 46.5222C30.1454 45.1265 30.4949 43.4526 30.4984 43.4357C30.4984 43.4348 30.5806 42.6698 30.2774 42.0107Z" fill="#232323"/>
<defs>
<filter id="filter0_d_1_1632" x="0" y="0" width="66" height="66" filterUnits="userSpaceOnUse" color-interpolation-filters="sRGB">
<feFlood flood-opacity="0" result="BackgroundImageFix"/>
<feColorMatrix in="SourceAlpha" type="matrix" values="0 0 0 0 0 0 0 0 0 0 0 0 0 0 0 0 0 0 127 0" result="hardAlpha"/>
<feOffset/>
<feGaussianBlur stdDeviation="1.5"/>
<feComposite in2="hardAlpha" operator="out"/>
<feColorMatrix type="matrix" values="0 0 0 0 0 0 0 0 0 0 0 0 0 0 0 0 0 0 0.25 0"/>
<feBlend mode="normal" in2="BackgroundImageFix" result="effect1_dropShadow_1_1632"/>
<feBlend mode="normal" in="SourceGraphic" in2="effect1_dropShadow_1_1632" result="shape"/>
</filter>
<linearGradient id="paint0_linear_1_1632" x1="33.0006" y1="10.868" x2="33.0006" y2="49.818" gradientUnits="userSpaceOnUse">
<stop stop-color="#179D4B"/>
<stop offset="1" stop-color="#FBE34E"/>
</linearGradient>
</defs>
</svg>
