<svg width="72" height="36" viewBox="0 0 72 36" fill="none" xmlns="http://www.w3.org/2000/svg">
<path d="M12.0156 13.1094C13.4844 13.1094 14.8516 13.3359 16.1172 13.7891C17.3828 14.2422 18.4844 14.9062 19.4219 15.7812C20.3594 16.6562 21.0938 17.75 21.625 19.0625C22.1562 20.3594 22.4219 21.8516 22.4219 23.5391C22.4219 25.3984 22.1328 27.0703 21.5547 28.5547C20.9766 30.0234 20.125 31.2734 19 32.3047C17.875 33.3203 16.4766 34.1016 14.8047 34.6484C13.1484 35.1953 11.2422 35.4688 9.08594 35.4688C8.22656 35.4688 7.375 35.4297 6.53125 35.3516C5.6875 35.2734 4.875 35.1562 4.09375 35C3.32812 34.8594 2.59375 34.6719 1.89062 34.4375C1.20312 34.2031 0.578125 33.9297 0.015625 33.6172V27.3594C0.5625 27.6719 1.19531 27.9688 1.91406 28.25C2.63281 28.5156 3.375 28.75 4.14062 28.9531C4.92188 29.1406 5.70312 29.2969 6.48438 29.4219C7.26562 29.5312 8.00781 29.5859 8.71094 29.5859C10.8047 29.5859 12.3984 29.1562 13.4922 28.2969C14.5859 27.4219 15.1328 26.0391 15.1328 24.1484C15.1328 22.4609 14.5938 21.1797 13.5156 20.3047C12.4531 19.4141 10.8047 18.9688 8.57031 18.9688C8.16406 18.9688 7.72656 18.9922 7.25781 19.0391C6.80469 19.0859 6.35156 19.1484 5.89844 19.2266C5.46094 19.3047 5.03906 19.3906 4.63281 19.4844C4.22656 19.5625 3.875 19.6484 3.57812 19.7422L0.695312 18.1953L1.98438 0.734375H20.0781V6.875H8.26562L7.70312 13.6016C8.20312 13.4922 8.78125 13.3828 9.4375 13.2734C10.1094 13.1641 10.9688 13.1094 12.0156 13.1094ZM47.4784 17.8672C47.4784 20.6328 47.2597 23.1016 46.8222 25.2734C46.4003 27.4453 45.7128 29.2891 44.7597 30.8047C43.8222 32.3203 42.6034 33.4766 41.1034 34.2734C39.6191 35.0703 37.8222 35.4688 35.7128 35.4688C33.7284 35.4688 32.0019 35.0703 30.5331 34.2734C29.0644 33.4766 27.8456 32.3203 26.8769 30.8047C25.9081 29.2891 25.1816 27.4453 24.6972 25.2734C24.2284 23.1016 23.9941 20.6328 23.9941 17.8672C23.9941 15.1016 24.205 12.625 24.6269 10.4375C25.0644 8.25 25.7519 6.39844 26.6894 4.88281C27.6269 3.36719 28.8378 2.21094 30.3222 1.41406C31.8066 0.601562 33.6034 0.195312 35.7128 0.195312C37.6816 0.195312 39.4003 0.59375 40.8691 1.39062C42.3378 2.1875 43.5644 3.34375 44.5487 4.85938C45.5331 6.375 46.2675 8.22656 46.7519 10.4141C47.2362 12.6016 47.4784 15.0859 47.4784 17.8672ZM31.2128 17.8672C31.2128 21.7734 31.5487 24.7109 32.2206 26.6797C32.8925 28.6484 34.0566 29.6328 35.7128 29.6328C37.3378 29.6328 38.5019 28.6562 39.205 26.7031C39.9237 24.75 40.2831 21.8047 40.2831 17.8672C40.2831 13.9453 39.9237 11 39.205 9.03125C38.5019 7.04688 37.3378 6.05469 35.7128 6.05469C34.8847 6.05469 34.1816 6.30469 33.6034 6.80469C33.0409 7.30469 32.58 8.04688 32.2206 9.03125C31.8612 10.0156 31.6034 11.25 31.4472 12.7344C31.2909 14.2031 31.2128 15.9141 31.2128 17.8672ZM58.1678 22.0625H49.5662V16.9297H58.1678V8.28125H63.3006V16.9297H71.8787V22.0625H63.3006V30.5938H58.1678V22.0625Z" fill="#3E96F4"/>
</svg>
