<svg width="406" height="406" viewBox="0 0 406 406" fill="none" xmlns="http://www.w3.org/2000/svg">
<mask id="mask0_1_771" style="mask-type:alpha" maskUnits="userSpaceOnUse" x="0" y="0" width="406" height="406">
<path d="M0 20C0 8.95431 8.95431 0 20 0H386C397.046 0 406 8.95431 406 20V406H0V20Z" fill="#D9D9D9"/>
</mask>
<g mask="url(#mask0_1_771)">
<path opacity="0.5" d="M-102.337 77.8407V127.783L727.062 236.603V150.037L-102.337 77.8407Z" fill="url(#paint0_linear_1_771)"/>
<path opacity="0.5" d="M-102.337 127.783L-111.797 202.243L727.851 355.585L727.062 236.603L-102.337 127.783Z" fill="url(#paint1_linear_1_771)"/>
<path opacity="0.5" d="M-55.0331 -35.932V91.3933L817.728 220.691L751.502 -39.874L-55.0331 -35.932Z" fill="url(#paint2_linear_1_771)"/>
<path opacity="0.5" d="M735.735 355.585L-114.162 202.243L-103.823 423.066H391.008L735.735 355.585Z" fill="#6BB3FF"/>
<path d="M153.915 251.434L235.217 265.297L-9.89833 443.743L-110.22 355.585L153.915 251.434Z" fill="url(#paint3_linear_1_771)"/>
<path d="M218.354 170.876L153.916 251.434L235.218 265.297L281.676 178.373L218.354 170.876Z" fill="url(#paint4_linear_1_771)"/>
<path d="M282.049 146.903L218.355 170.876L281.676 178.374L328.879 151.4L282.049 146.903Z" fill="url(#paint5_linear_1_771)"/>
<path d="M309.776 113.927L282.05 146.902L328.88 151.399L346.868 116.928L309.776 113.927Z" fill="url(#paint6_linear_1_771)"/>
<path d="M351.365 98.196L309.776 113.928L346.868 116.928L371.966 98.9405L351.365 98.196Z" fill="url(#paint7_linear_1_771)"/>
<path d="M386.798 56.7036L358.7 74.3116L367.567 75.0189L351.202 98.2927L371.811 99.0372L381.616 76.158L392.054 76.9993L386.798 56.7036Z" fill="url(#paint8_linear_1_771)"/>
<path d="M64.7092 246.866L59.5372 246.044L55.381 247.75L59.8473 277.184L60.8631 279.705L65.0193 277.999L64.7092 246.866Z" fill="#047EFF"/>
<path d="M92.4871 251.27L92.805 282.403L88.6411 284.109L86.2296 281.364L75.3738 256.124H75.2265C75.4798 260.322 75.6142 263.307 75.6297 265.08L75.777 279.735L71.6208 281.441L71.1556 278.999L66.6814 249.572L70.8454 247.858L77.3743 248.897L88.2301 273.897H88.3464C88.1448 269.826 88.0285 266.918 88.013 265.274L83.7095 252.247L87.8657 250.533L92.5181 251.309" fill="#047EFF"/>
<path d="M117.782 255.295L112.563 254.465L108.422 256.148L108.143 272.237C107.631 274.435 107.238 276.658 106.965 278.898C106.887 278.324 106.709 277.285 106.422 275.797C106.135 274.308 105.856 272.974 105.592 271.842L100.816 252.588L95.5971 251.759L91.4331 253.465L103.382 283.295L105.662 286.807L109.826 285.101L117.782 255.295Z" fill="#047EFF"/>
<path d="M134.906 257.978L120.856 255.752L116.692 257.466L121.166 286.893L131.06 290.824L135.217 289.118L135.162 283.667L126.284 282.263L126.206 274.23L130.308 277.246L134.464 275.541L134.41 270.128L126.152 268.818L126.082 261.979L130.804 265.096L134.961 263.39L134.906 257.978Z" fill="#047EFF"/>
<path d="M161.644 262.219L156.991 261.482L152.835 263.188L157.139 276.215C157.139 277.89 157.252 280.764 157.48 284.838H157.356L146.5 259.838L139.971 258.807L135.815 260.513L140.281 289.94L140.746 292.382L144.903 290.677L144.763 276.021C144.763 274.243 144.626 271.258 144.352 267.065H144.507L155.363 292.297L157.774 295.05L161.938 293.344L161.628 262.203" fill="#047EFF"/>
<path d="M183.821 265.732L165.397 262.808L161.241 264.514L165.451 268.306L172.081 269.353L172.337 294.996L173.345 297.524L177.509 295.818L177.253 270.175L179.719 272.928L183.875 271.222L183.821 265.732Z" fill="#047EFF"/>
<path d="M198.362 294.019C197.372 293.873 196.431 293.491 195.621 292.903C194.811 292.316 194.155 291.541 193.709 290.646C192.675 288.712 192.133 286.009 192.081 282.535C192.081 279.061 192.538 276.518 193.57 274.92C194.04 274.147 194.745 273.545 195.582 273.2C196.419 272.856 197.344 272.787 198.222 273.005C202.358 273.656 204.446 277.487 204.487 284.497C204.529 291.506 202.487 294.68 198.362 294.019ZM198.129 267.507C196.586 267.224 195 267.272 193.477 267.647C192.701 267.856 188.188 269.756 188.188 269.756C188.188 269.756 190.049 269.578 189.506 270.237C187.521 272.656 186.555 276.456 186.606 281.635C186.658 286.815 187.692 290.951 189.708 294.042C190.662 295.535 191.931 296.803 193.426 297.755C194.92 298.707 196.605 299.321 198.362 299.555C200.23 299.85 199.657 300.827 199.657 300.827C199.657 300.827 203.921 299.082 204.208 298.943C205.273 298.438 206.205 297.692 206.93 296.764C208.905 294.313 209.866 290.511 209.814 285.357C209.763 280.203 208.729 276.086 206.713 273.005C205.759 271.514 204.491 270.25 202.998 269.3C201.504 268.351 199.822 267.739 198.067 267.507" fill="#047EFF"/>
<path d="M220.078 285.272L219.993 276.859L221.543 277.107C222.904 277.249 224.193 277.788 225.25 278.658C225.674 279.1 226.002 279.625 226.212 280.2C226.423 280.775 226.513 281.388 226.475 282C226.475 283.488 226.111 284.52 225.343 285.101C224.575 285.683 223.366 285.83 221.729 285.574L220.062 285.303M221.861 271.795L214.751 270.663L210.618 272.353L215.092 301.819L216.108 304.347L220.264 302.641L220.148 290.692L222.9 291.126L228.84 303.998L230.391 306.611L234.555 304.905C233.412 302.682 230.975 297.771 227.243 290.172C228.632 289.628 229.801 288.634 230.561 287.35C231.369 285.919 231.764 284.293 231.701 282.651C231.67 279.513 230.851 277.047 229.243 275.253C227.636 273.46 225.175 272.302 221.861 271.78" fill="#047EFF"/>
<path d="M255.596 277.099L250.028 276.215L245.864 277.921L245.066 288.226L239.878 274.61L234.272 273.718L230.108 275.424L242.561 294.236L242.677 306.138L243.654 308.658L247.818 306.952L247.694 294.833L255.596 277.099Z" fill="#047EFF"/>
<path d="M60.553 248.572L55.381 247.75L55.6912 278.89L60.8632 279.705L60.553 248.572Z" fill="#034992"/>
<path d="M88.3328 252.968L83.6803 252.193L83.8276 266.926C83.8276 268.601 83.9388 271.475 84.161 275.548H84.0448L73.189 250.549L66.66 249.518L66.9779 280.651L71.6304 281.426L71.4831 266.771C71.4831 264.998 71.3487 262.012 71.0799 257.815H71.2272L82.0829 283.054L88.6585 284.093L88.3328 252.968Z" fill="#034992"/>
<path d="M113.621 256.977L108.418 256.147L103.983 273.943C103.466 276.14 103.069 278.364 102.797 280.604C102.727 280.03 102.549 278.991 102.262 277.502C101.975 276.014 101.696 274.688 101.424 273.548L96.6322 254.286L91.4059 253.457L99.9975 285.908L105.635 286.799L113.621 256.977Z" fill="#034992"/>
<path d="M130.75 259.691L116.692 257.466L117.002 288.598L131.06 290.824L131.006 285.373L122.128 283.969L122.042 275.936L130.308 277.246L130.254 271.834L121.988 270.524L121.918 263.692L130.804 265.096L130.75 259.691Z" fill="#034992"/>
<path d="M157.48 263.925L152.827 263.149L152.975 277.882C152.975 279.557 153.086 282.431 153.308 286.505H153.192L142.336 261.505L135.815 260.474L136.125 291.615L140.777 292.344L140.63 277.688C140.63 275.915 140.496 272.932 140.227 268.74H140.374L151.23 293.972L157.805 295.019L157.495 263.878" fill="#034992"/>
<path d="M179.665 267.437L161.241 264.514L161.295 270.012L167.917 271.059L168.173 296.701L173.345 297.523L173.089 271.88L179.719 272.927L179.665 267.437Z" fill="#034992"/>
<path d="M194.204 295.725C193.214 295.579 192.273 295.197 191.463 294.609C190.653 294.022 189.997 293.247 189.551 292.351C188.517 290.428 187.972 287.725 187.915 284.241C187.915 280.767 188.38 278.223 189.412 276.626C189.881 275.852 190.586 275.249 191.423 274.904C192.26 274.56 193.186 274.492 194.064 274.711C198.169 275.362 200.255 279.193 200.322 286.202C200.389 293.212 198.36 296.386 194.235 295.725M193.979 269.252C190.226 268.663 187.359 269.575 185.38 271.989C183.4 274.403 182.436 278.2 182.487 283.38C182.544 288.549 183.578 292.685 185.589 295.787C186.542 297.281 187.81 298.55 189.305 299.502C190.8 300.454 192.485 301.068 194.243 301.3C197.98 301.889 200.823 300.961 202.772 298.516C204.721 296.071 205.703 292.261 205.719 287.086C205.662 281.917 204.628 277.8 202.617 274.734C201.663 273.247 200.395 271.986 198.903 271.039C197.411 270.092 195.731 269.482 193.979 269.252Z" fill="#034992"/>
<path d="M215.929 286.986L215.844 278.557L217.395 278.805C218.756 278.945 220.046 279.485 221.101 280.356C221.525 280.799 221.852 281.324 222.063 281.899C222.273 282.474 222.363 283.087 222.327 283.698C222.327 285.187 221.947 286.221 221.187 286.8C220.411 287.374 219.217 287.529 217.573 287.273L215.906 287.009M217.752 273.47L210.618 272.354L210.928 303.494L216.108 304.316L215.984 292.367L218.736 292.801L224.684 305.673L230.422 306.58C229.29 304.363 226.852 299.452 223.11 291.848C224.503 291.305 225.674 290.312 226.436 289.025C227.245 287.595 227.637 285.967 227.568 284.326C227.537 281.183 226.718 278.717 225.11 276.929C223.503 275.14 221.05 273.987 217.752 273.47Z" fill="#034992"/>
<path d="M251.439 278.805L245.864 277.921L240.902 289.932L235.722 276.316L230.108 275.424L238.397 295.942L238.513 307.844L243.654 308.658L243.538 296.539L251.439 278.805Z" fill="#034992"/>
<path d="M59.5372 246.044L55.381 247.75L60.5529 248.572L64.7092 246.866L59.5372 246.044Z" fill="#92CDFF"/>
<path d="M70.8493 247.835L66.6931 249.541L73.2143 250.58L77.3783 248.866L70.8493 247.835Z" fill="#92CDFF"/>
<path d="M87.8407 250.526L83.6845 252.232L88.337 252.968L92.5009 251.263L87.8407 250.526Z" fill="#92CDFF"/>
<path d="M95.5699 251.751L91.4137 253.457L96.6322 254.287L100.796 252.581L95.5699 251.751Z" fill="#92CDFF"/>
<path d="M112.559 254.442L108.395 256.148L113.622 256.977L117.778 255.271L112.559 254.442Z" fill="#92CDFF"/>
<path d="M120.856 255.752L116.692 257.466L130.75 259.691L134.906 257.978L120.856 255.752Z" fill="#92CDFF"/>
<path d="M126.154 268.818L121.99 270.524L130.256 271.834L134.413 270.128L126.154 268.818Z" fill="#92CDFF"/>
<path d="M126.287 282.263L122.13 283.969L131.009 285.373L135.165 283.667L126.287 282.263Z" fill="#92CDFF"/>
<path d="M139.996 258.784L135.84 260.49L142.361 261.529L146.525 259.823L139.996 258.784Z" fill="#92CDFF"/>
<path d="M156.99 261.475L152.826 263.188L157.478 263.925L161.642 262.219L156.99 261.475Z" fill="#92CDFF"/>
<path d="M165.397 262.808L161.241 264.514L179.665 267.438L183.821 265.732L165.397 262.808Z" fill="#92CDFF"/>
<path d="M218.931 271.687L217.512 272.322L219.814 272.648L220.319 272.067L218.931 271.687Z" fill="#92CDFF"/>
<path d="M234.272 273.718L230.108 275.424L235.722 276.316L239.878 274.61L234.272 273.718Z" fill="#92CDFF"/>
<path d="M250.029 276.215L245.866 277.921L251.441 278.805L255.543 277.107L250.029 276.215Z" fill="#92CDFF"/>
<path d="M206.777 273.005C205.823 271.514 204.555 270.25 203.062 269.3C201.569 268.351 199.886 267.739 198.131 267.507C196.588 267.224 195.002 267.272 193.479 267.647C192.82 267.825 189.47 269.198 188.477 269.632C190.228 269.001 192.118 268.857 193.944 269.213C195.7 269.437 197.386 270.043 198.884 270.987C200.381 271.932 201.654 273.192 202.613 274.68C204.629 277.751 205.663 281.868 205.715 287.032C205.767 292.196 204.805 296.001 202.83 298.446C202.014 299.476 200.945 300.277 199.729 300.773C200.039 300.648 203.986 299.028 204.265 298.896C205.33 298.392 206.262 297.646 206.987 296.717C208.961 294.267 209.923 290.465 209.871 285.311C209.819 280.157 208.788 276.055 206.777 273.005Z" fill="url(#paint9_linear_1_771)"/>
<path d="M193.71 274.68C192.876 274.529 192.016 274.635 191.243 274.984C190.47 275.333 189.822 275.908 189.383 276.634C188.352 278.231 187.833 280.775 187.887 284.248C187.941 287.722 188.468 290.452 189.523 292.359C189.969 293.255 190.625 294.03 191.435 294.617C192.245 295.204 193.185 295.587 194.175 295.732C196.145 296.042 197.634 295.492 198.642 294.065H198.339C197.349 293.92 196.409 293.537 195.599 292.95C194.789 292.362 194.133 291.588 193.687 290.692C192.653 288.759 192.11 286.055 192.059 282.581C192.059 279.107 192.516 276.564 193.547 274.967L193.71 274.68Z" fill="url(#paint10_linear_1_771)"/>
<path d="M225.11 276.944C226.581 278.686 227.428 280.869 227.514 283.147L231.608 280.899C231.442 278.82 230.628 276.846 229.282 275.254C227.674 273.46 225.214 272.302 221.9 271.78L214.79 270.648L210.618 272.354L217.728 273.486C221.047 273.992 223.508 275.145 225.11 276.944Z" fill="url(#paint11_linear_1_771)"/>
<path d="M221.755 285.535L220.088 285.264L215.924 286.978L217.591 287.241C219.235 287.497 220.429 287.342 221.205 286.768C221.605 286.466 221.905 286.049 222.065 285.574L221.755 285.535Z" fill="#92CDFF"/>
<path d="M130.71 185.68L124.527 184.922L121.331 186.842L118.825 206.656H118.729L113.987 183.616L107.804 182.848L104.608 184.768L107.382 212.147L108.236 214.585L111.433 212.665L111.635 199.024C111.635 197.462 111.587 194.33 111.491 189.626H111.625L116.425 213.261L117.385 215.718L120.582 213.798L126.438 191.517H126.572C126.399 195.19 126.3 197.456 126.275 198.313C126.275 199.168 126.227 199.926 126.217 200.579L126.015 214.451L127.052 216.918L130.249 214.998L130.681 185.67" fill="#027DFF"/>
<path d="M140.79 204.073C142.412 197.507 143.391 193.398 143.747 191.718C143.814 192.208 143.929 192.88 144.102 193.734C144.275 194.589 145.062 198.265 146.367 204.765L140.79 204.073ZM146.55 187.504L141.001 186.822L137.804 188.742L133.004 215.305L134.703 217.849L137.9 215.929L139.561 209.142L147.366 210.102L148.825 217.264L150.514 219.817L153.711 217.897L146.55 187.523" fill="#027DFF"/>
<path d="M175.828 191.219L171.738 190.72V191.862L171.556 204.601C171.556 206.176 171.588 208.88 171.652 212.713H171.556L162.571 189.616L156.811 188.905V190.182L156.398 218.224L157.262 220.672L160.459 218.752L160.66 204.956C160.66 203.286 160.66 200.483 160.507 196.537H160.641L169.636 219.865L172.209 222.515L175.406 220.595L175.838 191.267" fill="#027DFF"/>
<path d="M198.687 194.022L194.166 193.475V194.675L193.916 211.379C193.916 213.657 193.558 215.283 192.841 216.256C192.475 216.751 191.972 217.129 191.393 217.342C190.815 217.556 190.187 217.595 189.587 217.456C188.92 217.418 188.273 217.216 187.702 216.87C187.131 216.523 186.654 216.042 186.313 215.468C185.562 213.879 185.231 212.124 185.353 210.371L185.612 192.419L181.081 191.862V193.072L180.831 210.755C180.652 213.656 181.412 216.538 183.001 218.972C183.73 220.015 184.679 220.885 185.78 221.522C186.881 222.159 188.108 222.547 189.375 222.659C189.746 222.664 190.11 222.767 190.428 222.958C190.747 223.148 191.009 223.419 191.19 223.744L194.147 221.939C195.53 221.19 196.626 220.006 197.267 218.569C198.04 216.816 198.433 214.918 198.419 213.001L198.687 194.022Z" fill="#027DFF"/>
<path d="M216.222 196.173L203.943 194.665L203.924 196.173L203.511 223.984L204.788 226.479L207.985 224.54L208.158 212.944L212.228 215.785L215.425 213.836L215.502 208.758L208.225 207.865L208.34 200.31L212.958 203.219L216.154 201.27L216.222 196.173Z" fill="#027DFF"/>
<path d="M225.049 214.422C226.681 207.856 227.667 203.737 228.006 202.067C228.083 202.557 228.198 203.229 228.371 204.073C228.544 204.918 229.331 208.604 230.637 215.104L225.049 214.422ZM230.809 197.853L225.261 197.171L224.829 198.697L217.264 225.683L218.963 228.227L222.16 226.307L223.821 219.51L231.625 220.47L233.075 227.641L234.774 230.185L237.971 228.265L230.809 197.891" fill="#027DFF"/>
<path d="M250.222 199.936C248.348 199.645 246.434 200.066 244.855 201.117C244.548 201.318 241.467 203.19 241.467 203.19C241.767 204.101 241.701 205.092 241.284 205.955C240.384 208.478 239.932 211.139 239.95 213.817C239.886 218.668 240.657 222.483 242.263 225.26C242.963 226.582 243.977 227.711 245.216 228.548C246.454 229.385 247.88 229.905 249.367 230.06C250.345 230.245 251.27 230.645 252.075 231.231L255.271 229.312L255.348 224.089C253.61 224.802 251.731 225.104 249.857 224.972C246.273 224.531 244.529 221.04 244.625 214.499C244.526 212.016 245.047 209.548 246.142 207.318C246.495 206.582 247.073 205.978 247.793 205.593C248.513 205.208 249.337 205.062 250.145 205.177C250.992 205.293 251.805 205.591 252.526 206.051C252.814 206.224 251.729 209.651 251.729 209.651L254.926 207.731L256.471 202.854C254.689 201.353 252.526 200.373 250.222 200.022" fill="#027DFF"/>
<path d="M274.329 203.305L258.153 201.318L258.134 202.71L258.076 206.493L263.894 207.213L263.548 231.356L264.892 233.862L268.089 231.913L268.435 207.769L271.065 210.429L274.252 208.48L274.329 203.305Z" fill="#027DFF"/>
<path d="M295.061 205.859L290.53 205.302V206.502L290.29 223.216C290.398 224.91 290.025 226.601 289.215 228.092C288.847 228.592 288.341 228.974 287.759 229.189C287.178 229.404 286.545 229.443 285.941 229.302C285.275 229.262 284.628 229.061 284.058 228.714C283.488 228.368 283.01 227.888 282.668 227.315C281.912 225.727 281.581 223.971 281.708 222.217L281.967 204.265L277.436 203.709V204.515L277.205 222.582C277.027 225.483 277.787 228.365 279.375 230.8C280.106 231.84 281.055 232.709 282.156 233.346C283.256 233.982 284.483 234.371 285.749 234.486C287.189 234.659 287.324 235.705 287.324 235.705L290.52 233.785C291.907 233.042 293.006 231.856 293.64 230.416C294.416 228.663 294.805 226.764 294.783 224.848L295.061 205.878" fill="#027DFF"/>
<path d="M304.66 220.076L304.776 212.157L306.158 212.329C307.344 212.39 308.477 212.838 309.383 213.606C309.749 214.027 310.023 214.519 310.188 215.051C310.353 215.583 310.406 216.144 310.343 216.697C310.394 217.24 310.325 217.786 310.141 218.299C309.957 218.812 309.662 219.278 309.278 219.664C308.813 219.974 308.29 220.186 307.74 220.288C307.191 220.391 306.627 220.381 306.081 220.259L304.612 220.076M306.532 207.27L300.292 206.502V207.856L299.88 235.82L301.224 238.326L304.42 236.406L304.584 225.164L307.003 225.452L311.956 237.337L313.799 239.9L316.996 237.98C316.043 235.939 314.004 231.424 310.881 224.435C312.152 223.838 313.201 222.853 313.876 221.622C314.641 220.242 315.038 218.688 315.028 217.11C315.028 214.153 314.404 211.859 313.031 210.237C311.659 208.614 309.508 207.625 306.599 207.27" fill="#027DFF"/>
<path d="M324.669 209.488L320.128 208.931L320.109 210.15L319.706 238.249L321.05 240.755L324.247 238.815L324.669 209.488Z" fill="#027DFF"/>
<path d="M349.07 212.492L344.981 212.022V213.414L344.798 225.894C344.798 227.478 344.798 230.176 344.894 234.006H344.789L335.803 210.899L330.043 210.198V211.379L329.631 239.516L330.494 241.955L333.691 240.035L333.893 226.23C333.893 224.56 333.842 221.756 333.739 217.82H333.874L342.869 241.148L345.442 243.807L348.638 241.887L349.07 212.569" fill="#027DFF"/>
<path d="M364.713 213.99C361.212 213.555 358.45 214.54 356.428 216.947C354.406 219.353 353.362 222.921 353.298 227.651C353.228 232.521 354.025 236.361 355.689 239.171C356.436 240.505 357.495 241.638 358.776 242.474C360.056 243.31 361.52 243.823 363.042 243.971C364.281 244.123 365.532 244.152 366.777 244.057C367.276 244.057 367.497 245.19 367.497 245.19L370.693 243.27L370.914 228.073L362.409 227.027V228.169L362.342 232.201L366.402 232.7L366.316 238.815C365.362 238.96 364.394 238.976 363.436 238.863C362.545 238.76 361.696 238.425 360.974 237.893C360.252 237.361 359.681 236.65 359.318 235.83C358.28 233.487 357.825 230.928 357.993 228.371C358.038 225.318 358.678 222.963 359.913 221.305C360.417 220.532 361.133 219.921 361.976 219.544C362.819 219.168 363.753 219.043 364.665 219.184C366.461 219.435 368.148 220.198 369.522 221.382L371.106 216.582C369.25 215.192 367.069 214.299 364.77 213.99" fill="#027DFF"/>
<path d="M256.47 202.768C254.687 201.266 252.525 200.286 250.22 199.936C248.347 199.645 246.432 200.066 244.854 201.117C244.662 201.251 243.337 202.077 242.406 202.624C243.833 201.911 245.445 201.653 247.024 201.885C249.329 202.231 251.493 203.211 253.273 204.717L256.47 202.768Z" fill="url(#paint12_linear_1_771)"/>
<path d="M127.555 187.629L121.372 186.87L115.67 208.633H115.574L110.831 185.593L104.649 184.835L104.227 214.153L108.278 214.652L108.479 201.021C108.479 199.456 108.479 196.317 108.335 191.622H108.47L113.27 215.257L117.436 215.776L123.292 193.485H123.427C123.254 197.158 123.155 199.424 123.129 200.281C123.129 201.136 123.129 201.885 123.071 202.547L122.87 216.419L127.103 216.937L127.535 187.619" fill="#014790"/>
<path d="M137.592 206.022C139.217 199.456 140.203 195.337 140.548 193.667C140.616 194.157 140.731 194.829 140.904 195.673C141.076 196.518 141.864 200.205 143.169 206.704L137.592 206.022ZM143.352 189.453L137.803 188.771L129.806 217.283L134.702 217.878L136.372 211.062L144.177 212.022L145.636 219.193L150.523 219.798L143.361 189.424" fill="#014790"/>
<path d="M172.666 193.168L168.577 192.669L168.375 206.54C168.375 208.121 168.407 210.825 168.471 214.652H168.375L159.39 191.545L153.63 190.845L153.198 220.163L157.258 220.662L157.46 206.867C157.46 205.196 157.46 202.384 157.306 198.448H157.441L166.436 221.766L172.196 222.476L172.628 193.158" fill="#014790"/>
<path d="M195.49 195.971L190.969 195.414L190.7 213.328C190.7 215.593 190.316 217.225 189.625 218.205C189.259 218.7 188.755 219.078 188.177 219.291C187.599 219.504 186.971 219.544 186.37 219.405C185.704 219.365 185.058 219.163 184.487 218.817C183.917 218.47 183.439 217.99 183.097 217.417C182.346 215.828 182.015 214.073 182.137 212.32L182.396 194.368L177.865 193.811L177.596 212.704C177.418 215.605 178.178 218.486 179.766 220.921C180.498 221.961 181.447 222.829 182.547 223.466C183.648 224.102 184.874 224.492 186.14 224.608C187.777 224.868 189.454 224.613 190.94 223.878C192.327 223.135 193.425 221.949 194.06 220.509C194.834 218.755 195.227 216.857 195.212 214.941L195.481 195.971" fill="#014790"/>
<path d="M213.022 198.122L200.743 196.614L200.321 225.932L204.785 226.48L204.958 214.893L212.225 215.785L212.302 210.707L205.025 209.814L205.14 202.259L212.954 203.219L213.022 198.122Z" fill="#014790"/>
<path d="M221.911 216.371C223.531 209.805 224.513 205.686 224.859 204.016C224.935 204.505 225.051 205.177 225.223 206.022C225.396 206.867 226.183 210.553 227.489 217.053L221.911 216.371ZM227.671 199.802L222.123 199.12L214.126 227.632L219.022 228.227L220.683 221.44L228.487 222.4L229.937 229.571L234.833 230.166L227.671 199.802Z" fill="#014790"/>
<path d="M247.026 201.885C245.154 201.59 243.239 202.008 241.66 203.056C240.003 204.249 238.755 205.926 238.089 207.856C237.188 210.378 236.736 213.039 236.754 215.718C236.684 220.556 237.455 224.371 239.068 227.161C239.77 228.481 240.784 229.608 242.023 230.445C243.261 231.282 244.686 231.802 246.172 231.961C248.174 232.247 250.216 231.978 252.076 231.183L252.153 225.961C250.414 226.671 248.535 226.97 246.662 226.835C243.078 226.393 241.334 222.905 241.43 216.371C241.43 213.232 241.986 210.832 242.946 209.19C243.298 208.451 243.878 207.843 244.6 207.456C245.322 207.069 246.148 206.923 246.959 207.04C247.805 207.163 248.615 207.46 249.34 207.913C250.167 208.422 250.965 208.977 251.73 209.574L253.276 204.707C251.496 203.202 249.332 202.221 247.026 201.875" fill="#014790"/>
<path d="M271.129 205.254L254.953 203.267L254.876 208.441L260.694 209.161L260.348 233.305L264.889 233.862L265.234 209.718L271.062 210.429L271.129 205.254Z" fill="#014790"/>
<path d="M291.866 207.808L287.335 207.251L287.075 225.155C287.183 226.852 286.811 228.546 286 230.041C285.633 230.536 285.13 230.913 284.552 231.126C283.974 231.339 283.346 231.379 282.746 231.241C282.079 231.201 281.431 230.998 280.861 230.65C280.29 230.302 279.813 229.819 279.472 229.244C278.714 227.658 278.384 225.901 278.512 224.147L278.772 206.205L274.24 205.648L274.01 224.502C273.827 227.401 274.589 230.28 276.18 232.71C276.908 233.753 277.856 234.624 278.957 235.261C280.059 235.898 281.286 236.285 282.554 236.396C284.19 236.659 285.867 236.408 287.354 235.676C288.739 234.931 289.837 233.745 290.474 232.307C291.247 230.553 291.637 228.655 291.616 226.739L291.895 207.769" fill="#014790"/>
<path d="M301.461 222.025L301.576 214.105L302.958 214.269C304.144 214.336 305.276 214.788 306.184 215.555C306.558 215.971 306.841 216.461 307.015 216.994C307.188 217.526 307.249 218.089 307.192 218.646C307.241 219.188 307.171 219.735 306.987 220.247C306.803 220.76 306.509 221.226 306.126 221.612C305.66 221.92 305.137 222.132 304.588 222.234C304.039 222.336 303.475 222.327 302.929 222.208L301.461 222.025ZM303.381 209.219L297.141 208.451L296.709 237.769L301.249 238.326L301.413 227.075L303.832 227.372L308.785 239.257L313.825 239.872C312.884 237.83 310.846 233.315 307.71 226.326C308.983 225.736 310.032 224.754 310.705 223.523C311.448 222.15 311.829 220.61 311.809 219.049C311.809 216.102 311.185 213.808 309.812 212.185C308.44 210.563 306.289 209.574 303.381 209.219Z" fill="#014790"/>
<path d="M321.471 211.437L316.93 210.88L316.498 240.198L321.048 240.755L321.471 211.437Z" fill="#014790"/>
<path d="M345.872 214.432L341.782 213.932L341.581 227.814C341.581 229.388 341.581 232.095 341.677 235.926H341.581L332.595 212.828L326.835 212.118L326.403 241.446L330.464 241.935L330.666 228.14C330.666 226.47 330.614 223.663 330.512 219.721H330.646L339.642 243.049L345.401 243.759L345.833 214.432" fill="#014790"/>
<path d="M361.512 215.939C359.272 215.559 356.971 216.021 355.051 217.235C354.37 217.702 353.756 218.261 353.227 218.896C351.211 221.296 350.168 224.864 350.098 229.6C350.034 234.464 350.834 238.303 352.498 241.119C353.245 242.452 354.303 243.584 355.581 244.42C356.86 245.255 358.321 245.77 359.841 245.919C361.08 246.072 362.331 246.101 363.576 246.006C364.908 245.883 366.222 245.61 367.493 245.19L367.713 229.984L359.189 228.956V234.102L363.24 234.601L363.153 240.716C362.2 240.861 361.231 240.877 360.273 240.764C359.384 240.657 358.537 240.321 357.815 239.79C357.093 239.258 356.521 238.549 356.155 237.731C355.098 235.389 354.623 232.827 354.773 230.262C354.824 227.222 355.464 224.87 356.693 223.206C357.196 222.431 357.912 221.818 358.755 221.44C359.597 221.062 360.531 220.935 361.445 221.075C363.24 221.337 364.924 222.103 366.302 223.283L367.886 218.483C366.027 217.099 363.847 216.21 361.55 215.9" fill="#014790"/>
<path d="M107.845 182.867L114.027 183.626L110.831 185.574L104.648 184.816L107.845 182.867Z" fill="#95CEFF"/>
<path d="M124.564 184.922L130.747 185.68L127.55 187.629L121.368 186.87L124.564 184.922Z" fill="#95CEFF"/>
<path d="M141.014 186.822L146.572 187.504L143.375 189.443L137.817 188.761L141.014 186.822Z" fill="#95CEFF"/>
<path d="M140.792 204.073L142.683 204.294L143.183 206.704L137.596 206.012L140.792 204.073Z" fill="#95CEFF"/>
<path d="M156.853 188.886L162.584 189.587L159.387 191.536L153.656 190.835L156.853 188.886Z" fill="#95CEFF"/>
<path d="M171.771 190.72L175.861 191.219L172.664 193.168L168.574 192.659L171.771 190.72Z" fill="#95CEFF"/>
<path d="M181.111 191.862L185.633 192.419L182.436 194.368L177.905 193.811L181.111 191.862Z" fill="#95CEFF"/>
<path d="M194.166 193.465L198.697 194.022L195.501 195.971L190.969 195.414L194.166 193.465Z" fill="#95CEFF"/>
<path d="M203.941 194.665L216.22 196.173L213.023 198.121L200.745 196.614L203.941 194.665Z" fill="#95CEFF"/>
<path d="M208.222 207.865L215.498 208.758L212.302 210.707L205.025 209.814L208.222 207.865Z" fill="#95CEFF"/>
<path d="M225.285 197.162L230.843 197.853L227.647 199.792L222.088 199.11L225.285 197.162Z" fill="#95CEFF"/>
<path d="M277.485 203.699L282.007 204.256L278.81 206.195L274.279 205.638L277.485 203.699Z" fill="#95CEFF"/>
<path d="M290.546 205.302L295.068 205.859L291.871 207.798L287.349 207.241L290.546 205.302Z" fill="#95CEFF"/>
<path d="M320.13 208.931L324.671 209.488L321.474 211.436L316.933 210.88L320.13 208.931Z" fill="#95CEFF"/>
<path d="M330.064 210.15L335.796 210.861L332.599 212.8L326.868 212.099L330.064 210.15Z" fill="#95CEFF"/>
<path d="M344.979 211.984L349.068 212.483L345.872 214.432L341.782 213.932L344.979 211.984Z" fill="#95CEFF"/>
<path d="M362.419 227.008L370.915 228.044L367.718 229.993L359.222 228.947L362.419 227.008Z" fill="#95CEFF"/>
<path d="M225.06 214.422L226.951 214.652L227.44 217.052L221.863 216.361L225.06 214.422Z" fill="#95CEFF"/>
<path d="M304.666 220.076L301.469 221.996L302.938 222.179C303.483 222.298 304.047 222.307 304.596 222.205C305.145 222.103 305.668 221.891 306.134 221.584C306.527 221.239 306.813 220.789 306.96 220.288C306.701 220.288 306.422 220.288 306.134 220.23L304.666 220.076Z" fill="#95CEFF"/>
<path d="M309.789 212.185C310.869 213.517 311.537 215.135 311.709 216.841L314.944 215.267C314.834 213.433 314.164 211.677 313.024 210.237C311.651 208.614 309.501 207.625 306.592 207.27L300.352 206.502L297.155 208.422L300.314 208.806L303.395 209.19C306.266 209.574 308.416 210.563 309.789 212.185Z" fill="url(#paint13_linear_1_771)"/>
<path d="M361.517 215.939C363.813 216.249 365.994 217.137 367.853 218.521L367.363 219.999C368.112 220.375 368.817 220.832 369.465 221.363L371.049 216.563C369.193 215.172 367.012 214.28 364.713 213.971C362.585 213.62 360.4 214.017 358.531 215.094L355.651 216.87C357.456 215.938 359.512 215.612 361.517 215.939Z" fill="url(#paint14_linear_1_771)"/>
<path d="M359.992 221.104C359.317 221.206 358.671 221.448 358.096 221.815C357.52 222.183 357.028 222.666 356.651 223.235C355.441 224.899 354.801 227.251 354.731 230.291C354.563 232.851 355.018 235.413 356.056 237.76C356.422 238.578 356.994 239.287 357.716 239.819C358.437 240.35 359.284 240.686 360.174 240.793C361.132 240.906 362.101 240.889 363.054 240.745V238.825C362.218 238.68 361.431 238.332 360.761 237.812C360.092 237.291 359.56 236.614 359.214 235.84C358.176 233.497 357.721 230.937 357.889 228.38C357.934 225.328 358.574 222.972 359.809 221.315L359.992 221.104Z" fill="url(#paint15_linear_1_771)"/>
<path d="M367.85 218.521L371.046 216.572L369.462 221.363L366.266 223.302L367.85 218.521Z" fill="#054472"/>
<path d="M189.572 217.456C188.906 217.418 188.259 217.216 187.688 216.87C187.117 216.523 186.64 216.042 186.299 215.468C185.548 213.88 185.217 212.124 185.339 210.371V209.651L182.161 210.361V212.281C182.039 214.035 182.37 215.79 183.121 217.379C183.464 217.952 183.941 218.432 184.512 218.778C185.082 219.125 185.729 219.326 186.395 219.366C186.995 219.505 187.623 219.466 188.201 219.253C188.78 219.04 189.283 218.662 189.649 218.166C189.798 217.941 189.927 217.703 190.033 217.456H189.572Z" fill="url(#paint16_linear_1_771)"/>
<path d="M249.857 224.905C246.273 224.464 244.529 220.973 244.625 214.432C244.526 211.949 245.048 209.481 246.142 207.251L246.296 207.021C245.591 207.041 244.906 207.256 244.315 207.64C243.724 208.024 243.25 208.564 242.945 209.2C241.985 210.841 241.477 213.241 241.429 216.381C241.333 222.915 243.077 226.403 246.661 226.845C248.534 226.98 250.413 226.681 252.152 225.971L255.348 224.051C253.608 224.754 251.729 225.046 249.857 224.905Z" fill="url(#paint17_linear_1_771)"/>
<path d="M258.153 201.318L274.328 203.305L271.132 205.254L254.956 203.267L258.153 201.318Z" fill="#95CEFF"/>
<path d="M285.945 229.302C285.279 229.262 284.632 229.06 284.062 228.714C283.491 228.368 283.014 227.887 282.671 227.315C281.915 225.727 281.585 223.971 281.711 222.217V219.481L278.524 220.825V224.156C278.395 225.91 278.726 227.667 279.484 229.254C279.825 229.829 280.302 230.312 280.872 230.66C281.443 231.008 282.09 231.211 282.758 231.251C283.358 231.389 283.986 231.349 284.564 231.136C285.142 230.923 285.645 230.545 286.012 230.051C286.161 229.826 286.29 229.588 286.396 229.34L285.945 229.302Z" fill="url(#paint18_linear_1_771)"/>
<path d="M244.626 134.247L233.263 133.851L233.25 159.97L241.4 161.654L244.614 160.366V155.787L237.433 155.532L237.446 148.798L240.915 150.316L244.116 149.028V144.5L237.446 144.258V138.532L241.413 140.062L244.626 138.774V134.247Z" fill="#017CFF"/>
<path d="M264.198 134.923L259.696 134.77L255.526 144.016L251.279 134.476L246.675 134.31L252.784 147.179L246.241 160.417L247.504 161.858L250.718 160.583L255.309 150.852L259.887 160.901L261.456 162.343L264.657 161.067L258 147.663L264.198 134.923Z" fill="#017CFF"/>
<path d="M310.66 148.148V141.095H311.935C313.002 141.052 314.052 141.366 314.92 141.988C315.27 142.334 315.539 142.754 315.707 143.217C315.874 143.681 315.937 144.176 315.889 144.666C315.933 145.16 315.872 145.657 315.709 146.126C315.547 146.594 315.286 147.023 314.945 147.382C314.101 148.003 313.053 148.281 312.012 148.16H310.737M312.305 136.682L306.553 136.478V162.61L307.535 164.039L310.737 162.763V152.739L312.956 152.815L317.662 163.018L319.09 164.459L322.291 163.184C321.441 161.433 319.511 157.568 316.501 151.591C317.655 150.973 318.6 150.028 319.218 148.875C319.875 147.621 320.204 146.221 320.174 144.806C320.327 143.727 320.231 142.627 319.893 141.591C319.555 140.555 318.984 139.61 318.225 138.828C317.465 138.046 316.537 137.449 315.511 137.081C314.485 136.714 313.388 136.586 312.305 136.708" fill="#017BFF"/>
<path d="M337.668 137.486L322.785 136.976V141.58L328.142 141.771L328.129 163.274L329.098 164.715L332.299 163.427L332.312 141.911L334.467 143.391L337.668 142.103V137.486Z" fill="#017CFF"/>
<path d="M300.025 139.233C299.265 138.087 298.232 137.147 297.019 136.499C295.806 135.851 294.45 135.515 293.074 135.522C291.831 135.464 290.589 135.664 289.427 136.109L285.996 137.461L286.302 138.481C286.228 138.556 286.159 138.637 286.098 138.723C284.466 140.955 283.662 144.245 283.65 148.594C283.637 152.943 284.466 156.31 286.073 158.682C286.826 159.828 287.852 160.768 289.059 161.418C290.265 162.068 291.615 162.407 292.985 162.406L292.756 162.878L293.406 163.146L296.084 162.049C297.683 161.563 299.071 160.552 300.025 159.18C301.632 156.91 302.448 153.619 302.448 149.296C302.448 144.972 301.594 141.58 300.025 139.233ZM293.036 157.764C292.255 157.759 291.491 157.537 290.828 157.123C290.166 156.709 289.632 156.118 289.287 155.417C288.328 153.344 287.89 151.067 288.011 148.786C287.869 146.527 288.308 144.271 289.287 142.23C289.638 141.55 290.183 140.989 290.852 140.617C291.521 140.245 292.286 140.078 293.049 140.139C296.365 140.249 298.023 143.251 298.023 149.143C297.997 155.009 296.327 157.892 292.998 157.764H293.036Z" fill="#054472"/>
<path d="M280.778 143.659C280.934 141.441 280.266 139.243 278.904 137.486C278.202 136.755 277.354 136.179 276.417 135.794C275.479 135.41 274.471 135.226 273.458 135.254L267.158 135.037L263.944 136.313L267.145 161.156L268.114 162.585L271.328 161.309V152.025L273.113 152.089H273.241L273.636 152.701L276.34 151.63C277.254 151.308 278.073 150.764 278.725 150.048C280.191 148.254 280.925 145.971 280.778 143.659ZM275.588 146.681C275.194 147.02 274.735 147.275 274.24 147.431C273.744 147.586 273.222 147.639 272.705 147.587H271.328V139.833H273.228C273.702 139.804 274.177 139.881 274.618 140.058C275.059 140.234 275.455 140.506 275.779 140.853C276.383 141.697 276.671 142.726 276.595 143.761C276.654 144.828 276.292 145.877 275.588 146.681Z" fill="#017CFF"/>
<path d="M316.871 145.406L320.085 144.13C320.142 142.149 319.46 140.217 318.172 138.71C316.547 137.246 314.414 136.476 312.229 136.568L306.477 136.364L303.276 137.639L306.477 137.754L309.027 137.843C311.214 137.743 313.351 138.514 314.971 139.986C316.26 141.491 316.938 143.425 316.871 145.406Z" fill="url(#paint19_linear_1_771)"/>
<path d="M230.05 135.127L233.251 133.851L244.615 134.247L241.401 135.522L230.05 135.127Z" fill="#96CEFF"/>
<path d="M243.461 135.599L246.675 134.31L251.279 134.476L248.078 135.764L243.461 135.599Z" fill="#96CEFF"/>
<path d="M256.498 136.057L259.699 134.769L264.201 134.922L261 136.211L256.498 136.057Z" fill="#96CEFF"/>
<path d="M319.583 138.251L322.784 136.976L337.668 137.486L334.466 138.774L319.583 138.251Z" fill="#96CEFF"/>
<path d="M234.226 145.546L237.44 144.258L244.11 144.5L240.909 145.776L234.226 145.546Z" fill="#96CEFF"/>
<path d="M234.226 156.82L237.427 155.532L244.607 155.787L241.393 157.075L234.226 156.82Z" fill="#96CEFF"/>
<path d="M307.445 149.436H308.797C309.833 149.569 310.88 149.295 311.718 148.671C311.885 148.517 312.031 148.341 312.151 148.148H311.998H310.723L307.445 149.436Z" fill="#96CEFF"/>
<path d="M241.408 135.522L230.057 135.127L230.044 161.246L241.395 161.654V157.075L234.228 156.82V150.086L240.91 150.316V145.776L234.228 145.546V139.807L241.408 140.062V135.522Z" fill="#014790"/>
<path d="M260.999 136.211L256.497 136.058L252.327 145.304L248.08 135.764L243.463 135.598L249.585 148.467L243.029 161.705L247.506 161.858L252.097 152.14L256.676 162.177L261.458 162.342L254.801 148.939L260.999 136.211Z" fill="#004690"/>
<path d="M268.135 148.76V141.006L270.036 141.07C270.508 141.045 270.98 141.122 271.42 141.296C271.86 141.47 272.258 141.736 272.586 142.077C273.183 142.929 273.467 143.961 273.39 144.998C273.428 145.519 273.364 146.044 273.2 146.54C273.036 147.037 272.775 147.497 272.433 147.893C272.041 148.239 271.581 148.5 271.083 148.658C270.584 148.816 270.058 148.868 269.538 148.811H268.161M270.291 136.593L263.99 136.364V162.495L268.174 162.636V153.338L269.972 153.402C271.007 153.511 272.054 153.385 273.034 153.034C274.014 152.683 274.903 152.116 275.634 151.374C277.075 149.574 277.785 147.298 277.624 144.998C277.78 142.782 277.118 140.585 275.762 138.825C275.059 138.092 274.21 137.514 273.269 137.13C272.329 136.745 271.319 136.562 270.303 136.593" fill="#004690"/>
<path d="M289.817 159.052C289.038 159.047 288.276 158.824 287.616 158.41C286.956 157.995 286.424 157.405 286.081 156.706C285.117 154.633 284.679 152.356 284.805 150.074C284.676 147.816 285.114 145.563 286.081 143.518C286.44 142.83 286.995 142.262 287.676 141.888C288.356 141.514 289.133 141.349 289.907 141.414C293.223 141.529 294.881 144.539 294.881 150.418C294.881 156.297 293.21 159.167 289.868 159.052M289.868 136.81C288.526 136.689 287.174 136.92 285.949 137.482C284.723 138.043 283.665 138.915 282.88 140.011C281.264 142.247 280.452 145.538 280.444 149.882C280.435 154.227 281.243 157.59 282.867 159.97C283.623 161.121 284.655 162.065 285.869 162.715C287.083 163.365 288.44 163.702 289.817 163.694C291.161 163.816 292.512 163.581 293.735 163.012C294.958 162.443 296.009 161.561 296.781 160.455C298.401 158.198 299.217 154.895 299.217 150.571C299.217 146.248 298.413 142.919 296.806 140.521C296.053 139.372 295.023 138.429 293.811 137.781C292.599 137.133 291.243 136.799 289.868 136.81Z" fill="#004690"/>
<path d="M307.446 149.436V142.371H308.721C309.786 142.327 310.835 142.636 311.706 143.251C312.055 143.6 312.323 144.023 312.49 144.488C312.658 144.953 312.721 145.449 312.675 145.942C312.715 146.436 312.651 146.934 312.486 147.402C312.321 147.87 312.06 148.298 311.718 148.658C310.881 149.282 309.834 149.556 308.798 149.423H307.446M309.015 137.881L303.276 137.677V163.796L307.459 163.95V153.925L309.678 154.002L314.384 164.205L319.026 164.358C318.121 162.623 316.195 158.746 313.236 152.777C314.383 152.155 315.323 151.211 315.94 150.061C316.594 148.806 316.927 147.408 316.909 145.993C317.06 144.913 316.961 143.813 316.622 142.777C316.283 141.741 315.711 140.796 314.95 140.014C314.19 139.233 313.261 138.636 312.234 138.268C311.208 137.901 310.111 137.773 309.027 137.894" fill="#004690"/>
<path d="M334.469 138.774L319.586 138.251L319.573 142.868L324.93 143.059L324.917 164.562L329.1 164.715L329.113 143.2L334.469 143.391V138.774Z" fill="#004690"/>
<path d="M289.822 141.427C289.048 141.361 288.272 141.526 287.591 141.9C286.911 142.275 286.356 142.842 285.996 143.531C285.03 145.575 284.591 147.829 284.721 150.086C284.595 152.368 285.033 154.646 285.996 156.718C286.348 157.429 286.895 158.026 287.572 158.439C288.249 158.852 289.029 159.064 289.822 159.052C290.416 159.103 291.014 159.014 291.568 158.792C292.121 158.571 292.615 158.223 293.011 157.777C292.234 157.767 291.475 157.543 290.818 157.129C290.16 156.715 289.63 156.127 289.287 155.43C288.328 153.356 287.89 151.08 288.011 148.798C287.869 146.54 288.308 144.283 289.287 142.243C289.434 141.952 289.614 141.678 289.822 141.427Z" fill="url(#paint20_linear_1_771)"/>
<path d="M300.025 139.233C299.266 138.087 298.233 137.147 297.019 136.499C295.806 135.851 294.45 135.515 293.075 135.522C291.832 135.464 290.59 135.664 289.427 136.109L285.997 137.461C287.208 136.961 288.514 136.735 289.823 136.797C291.197 136.786 292.553 137.12 293.765 137.768C294.977 138.417 296.007 139.359 296.761 140.509C298.368 142.881 299.171 146.222 299.171 150.558C299.171 154.895 298.355 158.21 296.735 160.442C295.894 161.656 294.708 162.589 293.33 163.121L296.008 162.024C297.631 161.559 299.048 160.556 300.025 159.18C301.632 156.91 302.449 153.619 302.449 149.296C302.449 144.972 301.594 141.58 300.025 139.233Z" fill="url(#paint21_linear_1_771)"/>
<path d="M280.778 143.659C280.934 141.441 280.266 139.243 278.904 137.486C278.202 136.755 277.354 136.179 276.417 135.794C275.479 135.41 274.471 135.226 273.458 135.254L267.158 135.037L263.944 136.313L270.244 136.542C271.259 136.511 272.27 136.694 273.21 137.079C274.15 137.463 274.999 138.041 275.702 138.774C277.058 140.534 277.721 142.731 277.564 144.947C277.725 147.247 277.015 149.523 275.575 151.323C275.04 151.896 274.399 152.359 273.687 152.688L276.391 151.617C277.305 151.295 278.124 150.752 278.776 150.035C280.221 148.237 280.936 145.96 280.778 143.659Z" fill="url(#paint22_linear_1_771)"/>
<path d="M268.137 148.76H269.514C270.034 148.817 270.56 148.765 271.059 148.607C271.557 148.449 272.017 148.188 272.409 147.842C272.51 147.724 272.603 147.6 272.69 147.472H271.414L268.137 148.76Z" fill="#52ADFF"/>
<path d="M11.8438 355.585L12.3948 354.557L34.522 342.645L32.5937 341.901L9.08163 352.614L8.37433 351.996L27.382 340.627L24.9474 340.01C24.9474 340.01 20.1006 342.243 17.3682 344.477C17.3682 344.477 15.5143 345.266 14.1072 345.713C14.1072 345.713 7.75638 348.527 5.91741 350.649L3.88486 350.202L-5.79395 355.555L11.8438 355.585Z" fill="url(#paint23_linear_1_771)"/>
<path d="M24.753 335.952C24.753 335.952 24.0085 337.046 25.9443 337.18C26.935 337.271 27.9317 337.271 28.9224 337.18V335.952C28.9224 335.952 29.317 328.053 29.518 327.062C29.719 326.072 30.0764 323.526 30.1434 323.161C30.2104 322.796 30.1434 319.826 30.1434 319.826C30.1434 319.826 30.4784 317.212 30.672 316.647C30.8914 316.127 31.1581 315.628 31.4686 315.157C31.6949 316.701 31.8167 318.258 31.8335 319.818C31.5679 321.405 31.4013 323.006 31.3346 324.613C31.4016 325.536 32.3249 329.341 32.4961 330.13C32.6449 332.09 32.6449 334.059 32.4961 336.019C32.3621 338.037 32.027 339.124 32.0643 339.623C32.1015 340.121 32.9577 340.315 33.0545 340.285C33.1513 340.255 35.0051 339.95 35.0051 339.95L36.0326 338.93V338.23L36.4495 320.808C36.5264 319.809 36.6581 318.815 36.8441 317.83C37.2015 315.798 38.6086 304.697 38.6086 304.697L32.6152 302.798L27.5003 303.193C27.5003 303.193 26.5771 313.423 26.8377 318.754C26.7249 319.369 26.4867 319.954 26.1378 320.473C25.6911 320.913 25.6911 323.511 25.7805 325.231C25.853 327.512 25.766 329.796 25.5199 332.066C25.2593 333.428 24.753 335.952 24.753 335.952Z" fill="black"/>
<path d="M27.8721 336.555L30.4332 336.309C30.4332 336.309 31.7882 336.183 31.818 336.89C31.818 336.89 31.9446 337.106 31.2299 337.635L27.3509 340.613C27.3509 340.613 24.76 341.357 24.76 340.084V336.756L26.4873 336.287L27.8721 336.555Z" fill="black"/>
<path d="M32.5941 339.95V342.184C32.6345 342.358 32.7173 342.521 32.8352 342.656C32.9531 342.791 33.1025 342.896 33.2703 342.96C33.438 343.024 33.6188 343.045 33.7969 343.023C33.975 343.001 34.1449 342.935 34.2916 342.831C35.5498 342.087 39.5032 339.109 39.5032 339.109C39.5032 339.109 40.3297 338.796 39.2501 337.932C38.6339 337.816 37.9966 337.902 37.4335 338.178L35.3339 338.334L32.5941 339.95Z" fill="black"/>
<path d="M31.5942 276.695C31.3942 276.535 31.1643 276.416 30.9179 276.346C30.6716 276.276 30.4136 276.255 30.1592 276.286C29.9049 276.316 29.6591 276.397 29.4363 276.524C29.2135 276.65 29.0182 276.82 28.8618 277.023L28.1173 277.961C28.1173 277.961 27.2759 279.368 28.1173 282.041C28.9523 284.401 29.5654 286.834 29.9488 289.308C30.1349 291.281 30.0902 293.626 30.0902 293.626C29.9713 294.823 29.5513 295.97 28.8692 296.961C27.498 299.046 26.9661 301.573 27.3802 304.034L33.2544 306.015L37.6621 305.27L38.3098 304.645H39.1139C39.0803 301.277 38.7666 297.917 38.1758 294.601C38.2075 293.002 38.4299 291.412 38.8384 289.866C39.5829 286.396 39.9179 284.282 42.6801 282.733C45.4423 281.185 47.4674 280.105 47.4674 280.105C47.4674 280.105 48.9192 279.636 48.2119 277.946C47.5046 276.256 45.7699 272.734 45.7699 272.734L44.9286 269.965C44.8491 269.874 44.7448 269.808 44.6285 269.775C44.5123 269.742 44.3889 269.743 44.2734 269.779L44.1915 268.468C44.1915 268.468 43.2609 267.366 42.6057 267.366C42.1393 267.394 41.6856 267.529 41.2804 267.761L40.9305 268.29C40.9305 268.29 40.3274 270.077 42.4716 269.928L42.9109 270.761L42.6504 272.303L45.2487 275.392L45.0254 277.812C43.2038 278.015 41.4045 278.384 39.6499 278.914C39.6499 278.914 38.7267 279.398 37.4163 278.475C37.4163 278.475 36.0911 277.112 35.4806 277.112L31.5942 276.695Z" fill="black"/>
<path d="M30.9814 277.045C30.9814 277.045 31.5844 276.01 30.9814 275.556C30.3783 275.102 27.9586 274.648 27.7427 271.238C27.7427 271.238 27.6534 267.791 30.7655 266.406C31.8472 265.917 33.0394 265.724 34.2201 265.848C35.1324 266.031 36.0547 266.16 36.9822 266.235C37.1088 266.235 37.9278 266.413 37.4141 267.359C37.4816 267.862 37.4228 268.374 37.2428 268.848C36.9376 269.414 36.7217 270.538 36.5504 270.925C36.4312 271.514 36.4594 272.122 36.6323 272.697C36.7164 273.255 36.7164 273.822 36.6323 274.38C36.5877 275.065 36.6323 275.244 36.1112 275.459C35.59 275.675 35.2699 276.204 35.523 277.09C35.7761 277.976 34.5179 279.167 34.5179 279.167H30.892L30.9814 277.045Z" fill="black"/>
<path d="M41.0946 268.885H39.7545C39.7545 268.885 38.5409 269.019 37.856 270.828L37.5954 271.908L35.9574 272.943L36.1287 275.102L40.7894 269.749L41.5339 269.101L41.0946 268.885Z" fill="black"/>
<path d="M42.8919 267.85L44.8351 266.905C44.8351 266.905 44.6192 266.51 45.1851 266.212C45.7509 265.915 49.064 263.882 49.064 263.882C49.1698 263.581 49.3888 263.332 49.6745 263.19C50.1883 262.884 50.9253 262.497 50.9253 262.497C51.304 262.355 51.7198 262.346 52.1041 262.472C52.4885 262.598 52.8185 262.851 53.0398 263.19C53.0398 263.19 53.4716 264.53 52.6899 264.872L51.5284 265.475L50.6201 265.565L46.4731 267.59C46.0786 267.762 45.6527 267.851 45.2223 267.85L43.3237 268.885L42.8919 267.85Z" fill="black"/>
</g>
<defs>
<linearGradient id="paint0_linear_1_771" x1="317.432" y1="116.682" x2="309.548" y2="179.744" gradientUnits="userSpaceOnUse">
<stop stop-color="#6BB3FF"/>
<stop offset="1" stop-color="white"/>
</linearGradient>
<linearGradient id="paint1_linear_1_771" x1="325.921" y1="193.819" x2="308.067" y2="272.653" gradientUnits="userSpaceOnUse">
<stop stop-color="#6BB3FF"/>
<stop offset="1" stop-color="white"/>
</linearGradient>
<linearGradient id="paint2_linear_1_771" x1="308.066" y1="18.0719" x2="308.066" y2="110.242" gradientUnits="userSpaceOnUse">
<stop stop-color="#6BB3FF"/>
<stop offset="1" stop-color="white"/>
</linearGradient>
<linearGradient id="paint3_linear_1_771" x1="-94.7783" y1="456.116" x2="247.514" y2="407.749" gradientUnits="userSpaceOnUse">
<stop stop-color="#8DA0FF"/>
<stop offset="1" stop-color="#CCD5FF"/>
</linearGradient>
<linearGradient id="paint4_linear_1_771" x1="159.627" y1="271.371" x2="287.305" y2="257.781" gradientUnits="userSpaceOnUse">
<stop stop-color="#8DA0FF"/>
<stop offset="1" stop-color="#CCD5FF"/>
</linearGradient>
<linearGradient id="paint5_linear_1_771" x1="223.295" y1="180.398" x2="327.079" y2="151.726" gradientUnits="userSpaceOnUse">
<stop stop-color="#8DA0FF"/>
<stop offset="1" stop-color="#CCD5FF"/>
</linearGradient>
<linearGradient id="paint6_linear_1_771" x1="284.947" y1="153.81" x2="349.267" y2="145.058" gradientUnits="userSpaceOnUse">
<stop stop-color="#8DA0FF"/>
<stop offset="1" stop-color="#CCD5FF"/>
</linearGradient>
<linearGradient id="paint7_linear_1_771" x1="312.556" y1="118.133" x2="371.397" y2="102.766" gradientUnits="userSpaceOnUse">
<stop stop-color="#8DA0FF"/>
<stop offset="1" stop-color="#CCD5FF"/>
</linearGradient>
<linearGradient id="paint8_linear_1_771" x1="353.029" y1="101.761" x2="394.081" y2="98.6444" gradientUnits="userSpaceOnUse">
<stop stop-color="#8DA0FF"/>
<stop offset="1" stop-color="#CCD5FF"/>
</linearGradient>
<linearGradient id="paint9_linear_1_771" x1="200.675" y1="283.876" x2="192.595" y2="274.695" gradientUnits="userSpaceOnUse">
<stop stop-color="#067FFF"/>
<stop offset="1" stop-color="#8FCBFF"/>
</linearGradient>
<linearGradient id="paint10_linear_1_771" x1="189.849" y1="276.533" x2="194.323" y2="294.848" gradientUnits="userSpaceOnUse">
<stop stop-color="#067FFF"/>
<stop offset="1" stop-color="#8FCCFF"/>
</linearGradient>
<linearGradient id="paint11_linear_1_771" x1="228.212" y1="282.248" x2="219.465" y2="273.292" gradientUnits="userSpaceOnUse">
<stop stop-color="#067FFF"/>
<stop offset="1" stop-color="#91CCFF"/>
</linearGradient>
<linearGradient id="paint12_linear_1_771" x1="256.432" y1="209.603" x2="249.875" y2="203.123" gradientUnits="userSpaceOnUse">
<stop stop-color="#054472"/>
<stop offset="1" stop-color="#52ADFF"/>
</linearGradient>
<linearGradient id="paint13_linear_1_771" x1="311.949" y1="213.875" x2="304.403" y2="208.749" gradientUnits="userSpaceOnUse">
<stop stop-color="#037DFF"/>
<stop offset="1" stop-color="#94CEFF"/>
</linearGradient>
<linearGradient id="paint14_linear_1_771" x1="370.214" y1="222.399" x2="361.949" y2="215.584" gradientUnits="userSpaceOnUse">
<stop stop-color="#037EFF"/>
<stop offset="1" stop-color="#95CEFF"/>
</linearGradient>
<linearGradient id="paint15_linear_1_771" x1="357.237" y1="223.974" x2="359.339" y2="238.355" gradientUnits="userSpaceOnUse">
<stop stop-color="#037EFF"/>
<stop offset="1" stop-color="#95CEFF"/>
</linearGradient>
<linearGradient id="paint16_linear_1_771" x1="183.265" y1="212.003" x2="187.566" y2="218.713" gradientUnits="userSpaceOnUse">
<stop stop-color="#047EFF"/>
<stop offset="1" stop-color="#92CDFF"/>
</linearGradient>
<linearGradient id="paint17_linear_1_771" x1="247.534" y1="213.04" x2="248.734" y2="224.454" gradientUnits="userSpaceOnUse">
<stop stop-color="#047EFE"/>
<stop offset="1" stop-color="#93CDFF"/>
</linearGradient>
<linearGradient id="paint18_linear_1_771" x1="282.009" y1="221.9" x2="282.69" y2="229.849" gradientUnits="userSpaceOnUse">
<stop stop-color="#037DFF"/>
<stop offset="1" stop-color="#94CDFF"/>
</linearGradient>
<linearGradient id="paint19_linear_1_771" x1="314.244" y1="145.75" x2="310.953" y2="138.302" gradientUnits="userSpaceOnUse">
<stop stop-color="#027DFF"/>
<stop offset="1" stop-color="#96CEFF"/>
</linearGradient>
<linearGradient id="paint20_linear_1_771" x1="288.879" y1="144.743" x2="288.879" y2="156.068" gradientUnits="userSpaceOnUse">
<stop stop-color="#027DFF"/>
<stop offset="1" stop-color="#96CEFF"/>
</linearGradient>
<linearGradient id="paint21_linear_1_771" x1="295.715" y1="149.245" x2="290.996" y2="140.037" gradientUnits="userSpaceOnUse">
<stop stop-color="#027DFF"/>
<stop offset="1" stop-color="#96CEFF"/>
</linearGradient>
<linearGradient id="paint22_linear_1_771" x1="274.019" y1="144.972" x2="272.144" y2="138.289" gradientUnits="userSpaceOnUse">
<stop stop-color="#027BFF"/>
<stop offset="1" stop-color="#96CEFF"/>
</linearGradient>
<linearGradient id="paint23_linear_1_771" x1="27.7766" y1="341.573" x2="-9.09962" y2="362.42" gradientUnits="userSpaceOnUse">
<stop stop-color="#4D7299"/>
<stop offset="0.81" stop-color="#8FBBE9"/>
</linearGradient>
</defs>
</svg>
