<svg width="48" height="48" viewBox="0 0 48 48" fill="none" xmlns="http://www.w3.org/2000/svg">
<rect width="48" height="48" rx="24" fill="#0089FF"/>
<path d="M10.7971 29.1599C5.73454 24.0972 5.73464 15.8596 10.7971 10.797C15.8597 5.73434 24.0972 5.73434 29.1598 10.797C33.4548 15.092 34.1052 21.4797 31.113 26.4678C31.113 26.4678 30.898 26.8284 31.1883 27.1185L37.8129 33.7431C39.1315 35.0616 39.4454 36.9053 38.2761 38.0748L38.0748 38.2759C36.9055 39.4454 35.0617 39.1316 33.7432 37.813L27.1325 31.2023C26.8283 30.8981 26.4678 31.1131 26.4678 31.1131C21.4798 34.1052 15.0921 33.4549 10.7971 29.1599ZM26.7626 26.7626C30.5034 23.0219 30.5033 16.9352 26.7625 13.1945C23.0217 9.45378 16.9351 9.45368 13.1945 13.1945C9.45368 16.9351 9.45368 23.0219 13.1945 26.7626C16.9352 30.5032 23.0217 30.5032 26.7626 26.7626Z" fill="white"/>
<path d="M25.9344 19.2078C26.1086 19.2078 26.2856 19.1736 26.4562 19.1015C27.1377 18.8131 27.4565 18.0268 27.1681 17.3452C25.3552 13.061 20.395 11.0505 16.111 12.8634C15.4295 13.1518 15.1106 13.9382 15.3991 14.6198C15.6876 15.3014 16.4737 15.62 17.1555 15.3317C20.0784 14.0949 23.463 15.4666 24.6997 18.3895C24.9161 18.9007 25.4123 19.2078 25.9344 19.2078Z" fill="white"/>
</svg>
