<svg xmlns="http://www.w3.org/2000/svg" width="115" height="115" viewBox="0 0 115 115">
  <g id="account-manager" transform="translate(-1325.5 -4093.5)">
    <g id="ICON" transform="translate(1327 4095)">
      <circle id="Oval_Copy" data-name="Oval Copy" cx="56" cy="56" r="56" fill="none" stroke="#877f9b" stroke-linecap="round" stroke-miterlimit="10" stroke-width="3" stroke-dasharray="0 11"/>
      <circle id="Oval_Copy_2" data-name="Oval Copy 2" cx="49" cy="49" r="49" transform="translate(7 7)" fill="#1e0b4b"/>
    </g>
    <g id="Group_2459" data-name="Group 2459" transform="translate(1359 4127)">
      <g id="Group_2454" data-name="Group 2454">
        <g id="Group_2444" data-name="Group 2444">
          <g id="Group_2442" data-name="Group 2442">
            <path id="Path_6455" data-name="Path 6455" d="M31,48c-.968,0-13.607-1.673-16.132-2.009A1,1,0,0,1,14,45V35c0-.7.552-3,7.65-3,4.894,0,6.676,1.091,7.311,2h3.151A2.942,2.942,0,0,1,35,36.987a3.1,3.1,0,0,1-.475,1.658l.5.251,7.812-3.444A3.8,3.8,0,0,1,48,39a1,1,0,0,1-.553.9l-16,8A1,1,0,0,1,31,48ZM16,44.124c5.424.718,13.277,1.732,14.791,1.862l15.118-7.559a1.805,1.805,0,0,0-2.326-1.12L35.4,40.915a1,1,0,0,1-.85-.02l-1.9-.948a2.878,2.878,0,0,1-.545.053H25V38h7.112A.942.942,0,0,0,33,37.013.961.961,0,0,0,32.112,36H28.3a1,1,0,0,1-.988-.84c-.1-.146-1-1.16-5.662-1.16-4.509,0-5.5.95-5.65,1.143ZM27.3,35Zm0,0h0Zm0,0h0Z" fill="#fff"/>
          </g>
          <g id="Group_2443" data-name="Group 2443">
            <path id="Path_6456" data-name="Path 6456" d="M15,47H9a1,1,0,0,1-1-1V33a1,1,0,0,1,1-1h6a1,1,0,0,1,1,1V46A1,1,0,0,1,15,47Zm-5-2h4V34H10Z" fill="#fff"/>
          </g>
        </g>
        <g id="Group_2445" data-name="Group 2445">
          <path id="Path_6457" data-name="Path 6457" d="M9,46H1a1,1,0,0,1-1-1V34a1,1,0,0,1,1-1H9v2H2v9H9Z" fill="#fff"/>
        </g>
        <g id="Group_2452" data-name="Group 2452">
          <g id="Group_2450" data-name="Group 2450">
            <g id="Group_2446" data-name="Group 2446">
              <path id="Path_6458" data-name="Path 6458" d="M25,11H23a3,3,0,0,1,0-6h2a3,3,0,0,1,3,3H26a1,1,0,0,0-1-1H23a1,1,0,0,0,0,2h2Z" fill="#fff"/>
            </g>
            <g id="Group_2447" data-name="Group 2447">
              <path id="Path_6459" data-name="Path 6459" d="M25,15H23a3,3,0,0,1-3-3h2a1,1,0,0,0,1,1h2a1,1,0,0,0,0-2H23V9h2a3,3,0,0,1,0,6Z" fill="#fff"/>
            </g>
            <g id="Group_2448" data-name="Group 2448">
              <rect id="Rectangle_394" data-name="Rectangle 394" width="2" height="2" transform="translate(23 4)" fill="#fff"/>
            </g>
            <g id="Group_2449" data-name="Group 2449">
              <rect id="Rectangle_395" data-name="Rectangle 395" width="2" height="2" transform="translate(23 14)" fill="#fff"/>
            </g>
          </g>
          <g id="Group_2451" data-name="Group 2451">
            <path id="Path_6460" data-name="Path 6460" d="M24,20A10,10,0,1,1,34,10,10.011,10.011,0,0,1,24,20ZM24,2a8,8,0,1,0,8,8A8.009,8.009,0,0,0,24,2Z" fill="#fff"/>
          </g>
        </g>
        <g id="Group_2453" data-name="Group 2453">
          <rect id="Rectangle_396" data-name="Rectangle 396" width="2" height="14" transform="translate(23 19)" fill="#fff"/>
        </g>
      </g>
      <g id="Group_2456" data-name="Group 2456">
        <g id="Group_2455" data-name="Group 2455">
          <path id="Path_6461" data-name="Path 6461" d="M34,30H27V28h7a1,1,0,0,0,1-1V25a1,1,0,0,0-1-1H26a1,1,0,0,0-1,1v2H23V25a3,3,0,0,1,3-3h8a3,3,0,0,1,3,3v2A3,3,0,0,1,34,30Z" fill="#fff"/>
        </g>
      </g>
      <g id="Group_2458" data-name="Group 2458">
        <g id="Group_2457" data-name="Group 2457">
          <path id="Path_6462" data-name="Path 6462" d="M21,30H14a3,3,0,0,1-3-3V25a3,3,0,0,1,3-3h8a3,3,0,0,1,3,3v2H23V25a1,1,0,0,0-1-1H14a1,1,0,0,0-1,1v2a1,1,0,0,0,1,1h7Z" fill="#fff"/>
        </g>
      </g>
    </g>
  </g>
</svg>
