<svg id="automation" xmlns="http://www.w3.org/2000/svg" width="79" height="75" viewBox="0 0 79 75">
  <path id="Path_6539" data-name="Path 6539" d="M-378-153.5h-76a1.5,1.5,0,0,0-1.5,1.5,1.5,1.5,0,0,0,1.5,1.5h6.5V-136a1.5,1.5,0,0,0,1.5,1.5h2.881l.107.357,2.6,8.693.135.452-.443.161-3.865,1.406a1.49,1.49,0,0,0-.914.946,1.494,1.494,0,0,0,.183,1.3l4.619,6.834a1.5,1.5,0,0,0,1.244.661,1.478,1.478,0,0,0,.836-.258,1.486,1.486,0,0,0,.634-.957,1.484,1.484,0,0,0-.23-1.124l-3.182-4.712-.358-.53.6-.219,6.463-2.352.6-.219.067.637.591,5.652a1.486,1.486,0,0,0,1.475,1.346,1.591,1.591,0,0,0,.168-.009,1.5,1.5,0,0,0,1.013-.546,1.49,1.49,0,0,0,.326-1.1l-.857-8.2a1.5,1.5,0,0,0-.7-1.116,1.494,1.494,0,0,0-.8-.227,1.517,1.517,0,0,0-.513.089l-3.646,1.327-.5.181-.152-.507-2.193-7.324-.193-.643H-438a1.5,1.5,0,0,0,1.5-1.5v-14.5h15V-132a1.5,1.5,0,0,0,1.5,1.5h2.5v13H-422a1.489,1.489,0,0,0-1.182.577,1.481,1.481,0,0,0-.272,1.285l2,8a1.492,1.492,0,0,0,1.45,1.137,1.509,1.509,0,0,0,.366-.045,1.492,1.492,0,0,0,.925-.685,1.483,1.483,0,0,0,.168-1.132l-1.378-5.517-.155-.621h8.156l-.155.621-1.377,5.516a1.48,1.48,0,0,0,.167,1.133,1.488,1.488,0,0,0,.924.684,1.451,1.451,0,0,0,.363.046,1.5,1.5,0,0,0,1.456-1.136l2-8a1.484,1.484,0,0,0-.272-1.285A1.488,1.488,0,0,0-410-117.5h-4.5v-13h2.5a1.5,1.5,0,0,0,1.5-1.5v-18.5h15V-136a1.5,1.5,0,0,0,1.5,1.5h1.987l-.193.643-2.192,7.325-.152.508-.5-.182-3.65-1.328a1.5,1.5,0,0,0-.509-.089,1.55,1.55,0,0,0-.806.229,1.509,1.509,0,0,0-.689,1.113l-.855,8.2a1.482,1.482,0,0,0,.324,1.1,1.49,1.49,0,0,0,1.011.548,1.5,1.5,0,0,0,.161.009,1.511,1.511,0,0,0,1.486-1.344l.59-5.653.066-.637.6.219,6.465,2.352.6.219-.359.53-3.184,4.711a1.484,1.484,0,0,0-.231,1.123,1.483,1.483,0,0,0,.632.958,1.5,1.5,0,0,0,.841.259,1.5,1.5,0,0,0,1.242-.661l4.617-6.834a1.478,1.478,0,0,0,.186-1.3,1.5,1.5,0,0,0-.915-.948l-3.865-1.406-.443-.161.135-.452,2.6-8.693.107-.357H-386a1.5,1.5,0,0,0,1.5-1.5v-14.5h6.5a1.5,1.5,0,0,0,1.5-1.5A1.5,1.5,0,0,0-378-153.5Zm-61.5,3.5v12.5h-5v-13h5Zm26,0v16.5h-5v-17h5Zm26,0v12.5h-5v-13h5Z" transform="translate(455.502 153.5)" fill="#1e0b4b"/>
  <path id="Path_6540" data-name="Path 6540" d="M-388-97.5h-56a9.511,9.511,0,0,0-9.5,9.5,9.511,9.511,0,0,0,9.5,9.5h56a9.511,9.511,0,0,0,9.5-9.5A9.511,9.511,0,0,0-388-97.5Zm0,16h-56a6.508,6.508,0,0,1-6.5-6.5,6.508,6.508,0,0,1,6.5-6.5h56a6.507,6.507,0,0,1,6.5,6.5A6.507,6.507,0,0,1-388-81.5Z" transform="translate(455.502 153.5)" fill="#1e0b4b"/>
  <path id="Path_6541" data-name="Path 6541" d="M-438-89.5h-4a1.5,1.5,0,0,0-1.5,1.5,1.5,1.5,0,0,0,1.5,1.5h4a1.5,1.5,0,0,0,1.5-1.5A1.5,1.5,0,0,0-438-89.5Z" transform="translate(455.502 153.5)" fill="#1e0b4b"/>
  <path id="Path_6542" data-name="Path 6542" d="M-426-89.5h-4a1.5,1.5,0,0,0-1.5,1.5,1.5,1.5,0,0,0,1.5,1.5h4a1.5,1.5,0,0,0,1.5-1.5A1.5,1.5,0,0,0-426-89.5Z" transform="translate(455.502 153.5)" fill="#1e0b4b"/>
  <path id="Path_6543" data-name="Path 6543" d="M-414-89.5h-4a1.5,1.5,0,0,0-1.5,1.5,1.5,1.5,0,0,0,1.5,1.5h4a1.5,1.5,0,0,0,1.5-1.5A1.5,1.5,0,0,0-414-89.5Z" transform="translate(455.502 153.5)" fill="#1e0b4b"/>
  <path id="Path_6544" data-name="Path 6544" d="M-402-89.5h-4a1.5,1.5,0,0,0-1.5,1.5,1.5,1.5,0,0,0,1.5,1.5h4a1.5,1.5,0,0,0,1.5-1.5A1.5,1.5,0,0,0-402-89.5Z" transform="translate(455.502 153.5)" fill="#1e0b4b"/>
  <path id="Path_6545" data-name="Path 6545" d="M-390-89.5h-4a1.5,1.5,0,0,0-1.5,1.5,1.5,1.5,0,0,0,1.5,1.5h4a1.5,1.5,0,0,0,1.5-1.5A1.5,1.5,0,0,0-390-89.5Z" transform="translate(455.502 153.5)" fill="#1e0b4b"/>
</svg>
