<svg id="crm" xmlns="http://www.w3.org/2000/svg" width="87.8" height="87.408" viewBox="0 0 87.8 87.408">
  <path id="Path_6546" data-name="Path 6546" d="M94.733,48.614H88.97a1.137,1.137,0,0,1,0-2.275h5.763a1.137,1.137,0,1,1,0,2.275Z" transform="translate(-62.206 -39.8)" fill="#1e0b4b"/>
  <path id="Path_6547" data-name="Path 6547" d="M119.733,48.614H113.97a1.137,1.137,0,0,1,0-2.275h5.763a1.137,1.137,0,1,1,0,2.275Z" transform="translate(-75.833 -39.8)" fill="#1e0b4b"/>
  <path id="Path_6548" data-name="Path 6548" d="M144.733,48.614H138.97a1.137,1.137,0,1,1,0-2.275h5.763a1.137,1.137,0,1,1,0,2.275Z" transform="translate(-89.46 -39.8)" fill="#1e0b4b"/>
  <path id="Path_6549" data-name="Path 6549" d="M51.794,93.108H44.97a1.137,1.137,0,0,1,0-2.275h6.824a1.137,1.137,0,1,1,0,2.275Z" transform="translate(-38.222 -64.053)" fill="#1e0b4b"/>
  <path id="Path_6550" data-name="Path 6550" d="M51.794,119.775H44.97a1.137,1.137,0,1,1,0-2.275h6.824a1.137,1.137,0,1,1,0,2.275Z" transform="translate(-38.222 -78.588)" fill="#1e0b4b"/>
  <path id="Path_6551" data-name="Path 6551" d="M51.794,146.442H44.97a1.137,1.137,0,1,1,0-2.275h6.824a1.137,1.137,0,1,1,0,2.275Z" transform="translate(-38.222 -93.124)" fill="#1e0b4b"/>
  <path id="Path_6552" data-name="Path 6552" d="M48.382,55.1a4.549,4.549,0,1,1,4.549-4.549A4.554,4.554,0,0,1,48.382,55.1Zm0-6.824a2.275,2.275,0,1,0,2.275,2.275A2.277,2.277,0,0,0,48.382,48.275Z" transform="translate(-38.222 -39.616)" fill="#1e0b4b"/>
  <g id="Group_2578" data-name="Group 2578">
    <path id="Path_6553" data-name="Path 6553" d="M115.888,31.966H34.912A3.416,3.416,0,0,0,31.5,35.378V97.31a3.416,3.416,0,0,0,3.412,3.412H66.143a9.144,9.144,0,0,1-2.6,9.015l-1.552,1.448H58.568a4.094,4.094,0,0,0,0,8.189H92.232a4.094,4.094,0,0,0,0-8.189H88.814l-1.552-1.448a9.144,9.144,0,0,1-2.6-9.015h31.231A3.416,3.416,0,0,0,119.3,97.31V35.378A3.416,3.416,0,0,0,115.888,31.966Zm1.137,3.412v9.114H53.564V34.241h62.325A1.138,1.138,0,0,1,117.026,35.378ZM33.775,97.31V35.378a1.138,1.138,0,0,1,1.137-1.137H51.289V98.267a1.135,1.135,0,0,0,.018.181h-16.4A1.139,1.139,0,0,1,33.775,97.31Zm60.277,17.97a1.822,1.822,0,0,1-1.82,1.82H58.568a1.82,1.82,0,1,1,0-3.639H92.232A1.821,1.821,0,0,1,94.052,115.28Zm-8.566-4.094H65.314a11.419,11.419,0,0,0,3.169-10.463H82.318A11.419,11.419,0,0,0,85.486,111.186Zm30.4-12.738H53.546a1.135,1.135,0,0,0,.018-.181v-51.5h63.462V97.31A1.139,1.139,0,0,1,115.888,98.448Z" transform="translate(-31.5 -31.966)" fill="#1e0b4b"/>
    <path id="Path_6554" data-name="Path 6554" d="M104.434,72.833a11.544,11.544,0,0,0-7.46,2.727,1.136,1.136,0,0,0-.191.152c-.014.014-.024.03-.036.045a11.592,11.592,0,1,0,7.687-2.923Zm9.25,10.463h-3.218a6.126,6.126,0,0,0-8.819-4.329l-2.325-2.325A9.309,9.309,0,0,1,113.683,83.3Zm-9.25,5a3.867,3.867,0,1,1,3.867-3.867A3.871,3.871,0,0,1,104.434,88.3Zm-9.326-3.867a9.28,9.28,0,0,1,2.478-6.31l2.251,2.251A6.127,6.127,0,0,0,103.3,90.465v3.218A9.335,9.335,0,0,1,95.108,84.434Zm10.463,9.25V90.465a6.154,6.154,0,0,0,4.895-4.895h3.218A9.336,9.336,0,0,1,105.571,93.683Z" transform="translate(-64.931 -54.242)" fill="#1e0b4b"/>
    <path id="Path_6555" data-name="Path 6555" d="M157.97,82.442h5.611a1.137,1.137,0,1,0,0-2.275H157.97a1.137,1.137,0,1,0,0,2.275Z" transform="translate(-99.816 -58.239)" fill="#1e0b4b"/>
    <path id="Path_6556" data-name="Path 6556" d="M177.987,93.5H157.97a1.137,1.137,0,1,0,0,2.275h20.017a1.137,1.137,0,1,0,0-2.275Z" transform="translate(-99.816 -65.507)" fill="#1e0b4b"/>
    <path id="Path_6557" data-name="Path 6557" d="M173.21,107.97a1.137,1.137,0,0,0-1.137-1.137h-14.1a1.137,1.137,0,1,0,0,2.275h14.1A1.137,1.137,0,0,0,173.21,107.97Z" transform="translate(-99.816 -72.774)" fill="#1e0b4b"/>
    <path id="Path_6558" data-name="Path 6558" d="M100.9,130.994H95.3a1.137,1.137,0,0,0-1.137,1.137V145.1a1.137,1.137,0,0,0,1.137,1.137h5.6a1.137,1.137,0,0,0,1.137-1.137V132.131A1.137,1.137,0,0,0,100.9,130.994Zm-1.137,12.968H96.442V133.269h3.325Z" transform="translate(-65.658 -85.944)" fill="#1e0b4b"/>
    <path id="Path_6559" data-name="Path 6559" d="M124.493,142.5h-5.6a1.137,1.137,0,0,0-1.137,1.137v7.734a1.137,1.137,0,0,0,1.137,1.137h5.6a1.137,1.137,0,0,0,1.137-1.137v-7.734A1.137,1.137,0,0,0,124.493,142.5Zm-1.137,7.734h-3.324v-5.459h3.324Z" transform="translate(-78.517 -92.215)" fill="#1e0b4b"/>
    <path id="Path_6560" data-name="Path 6560" d="M148.083,149.167h-5.6a1.137,1.137,0,0,0-1.137,1.137v4.7a1.137,1.137,0,0,0,1.137,1.137h5.6a1.137,1.137,0,0,0,1.137-1.137v-4.7A1.137,1.137,0,0,0,148.083,149.167Zm-1.137,4.7h-3.325v-2.426h3.325Z" transform="translate(-91.374 -95.849)" fill="#1e0b4b"/>
    <path id="Path_6561" data-name="Path 6561" d="M171.672,137.5h-5.6a1.137,1.137,0,0,0-1.137,1.137v10.008a1.137,1.137,0,0,0,1.137,1.137h5.6a1.137,1.137,0,0,0,1.137-1.137V138.637A1.137,1.137,0,0,0,171.672,137.5Zm-1.137,10.008h-3.324v-7.734h3.324Z" transform="translate(-104.233 -89.49)" fill="#1e0b4b"/>
    <path id="Path_6562" data-name="Path 6562" d="M195.262,130.994h-5.6a1.137,1.137,0,0,0-1.137,1.137V145.1a1.137,1.137,0,0,0,1.137,1.137h5.6A1.137,1.137,0,0,0,196.4,145.1V132.131A1.137,1.137,0,0,0,195.262,130.994Zm-1.137,12.968H190.8V133.269h3.325Z" transform="translate(-117.09 -85.944)" fill="#1e0b4b"/>
  </g>
</svg>
