<svg xmlns="http://www.w3.org/2000/svg" width="115" height="115" viewBox="0 0 115 115">
  <g id="dedicated-team" transform="translate(-467.5 -4093.5)">
    <g id="ICON" transform="translate(469 4095)">
      <circle id="Oval_Copy" data-name="Oval Copy" cx="56" cy="56" r="56" fill="none" stroke="#877f9b" stroke-linecap="round" stroke-miterlimit="10" stroke-width="3" stroke-dasharray="0 11"/>
      <circle id="Oval_Copy_2" data-name="Oval Copy 2" cx="49" cy="49" r="49" transform="translate(7 7)" fill="#1e0b4b"/>
    </g>
    <g id="Group_2441" data-name="Group 2441" transform="translate(501 4128)">
      <g id="Group_2421" data-name="Group 2421">
        <g id="Group_2420" data-name="Group 2420">
          <g id="Group_2418" data-name="Group 2418">
            <g id="Group_2416" data-name="Group 2416">
              <path id="Path_6446" data-name="Path 6446" d="M31,48c-.967,0-13.607-1.673-16.132-2.009A1,1,0,0,1,14,45V35c0-.7.552-3,7.65-3,4.894,0,6.676,1.092,7.31,2h3.152A2.942,2.942,0,0,1,35,36.987a3.092,3.092,0,0,1-.474,1.658l.5.251,7.81-3.444A3.8,3.8,0,0,1,48,39a1,1,0,0,1-.553.9l-16,8A1,1,0,0,1,31,48ZM16,44.124c5.424.718,13.277,1.732,14.792,1.862l15.117-7.558a1.806,1.806,0,0,0-2.326-1.121L35.4,40.915a1,1,0,0,1-.85-.02l-1.9-.949a2.806,2.806,0,0,1-.545.054H25V38h7.112A.942.942,0,0,0,33,37.013.962.962,0,0,0,32.112,36H28.3a1,1,0,0,1-.988-.841c-.1-.144-1-1.159-5.662-1.159-4.51,0-5.5.95-5.65,1.143ZM27.3,35Zm0,0h0Zm0,0v0Z" fill="#fff"/>
            </g>
            <g id="Group_2417" data-name="Group 2417">
              <path id="Path_6447" data-name="Path 6447" d="M15,47H9a1,1,0,0,1-1-1V33a1,1,0,0,1,1-1h6a1,1,0,0,1,1,1V46A1,1,0,0,1,15,47Zm-5-2h4V34H10Z" fill="#fff"/>
            </g>
          </g>
          <g id="Group_2419" data-name="Group 2419">
            <path id="Path_6448" data-name="Path 6448" d="M9,46H1a1,1,0,0,1-1-1V34a1,1,0,0,1,1-1H9v2H2v9H9Z" fill="#fff"/>
          </g>
        </g>
      </g>
      <g id="Group_2437" data-name="Group 2437">
        <g id="Group_2436" data-name="Group 2436">
          <g id="Group_2431" data-name="Group 2431">
            <g id="Group_2424" data-name="Group 2424">
              <g id="Group_2422" data-name="Group 2422">
                <path id="Path_6449" data-name="Path 6449" d="M5,24H1a1,1,0,0,1-1-1V15a5.006,5.006,0,0,1,5-5h8v2H5a3,3,0,0,0-3,3v7H5Z" fill="#fff"/>
              </g>
              <g id="Group_2423" data-name="Group 2423">
                <path id="Path_6450" data-name="Path 6450" d="M9,10a5,5,0,1,1,5-5A5.006,5.006,0,0,1,9,10ZM9,2a3,3,0,1,0,3,3A3,3,0,0,0,9,2Z" fill="#fff"/>
              </g>
            </g>
            <g id="Group_2427" data-name="Group 2427">
              <g id="Group_2425" data-name="Group 2425">
                <path id="Path_6451" data-name="Path 6451" d="M47,24H43V22h3V15a3,3,0,0,0-3-3H35V10h8a5.006,5.006,0,0,1,5,5v8A1,1,0,0,1,47,24Z" fill="#fff"/>
              </g>
              <g id="Group_2426" data-name="Group 2426">
                <path id="Path_6452" data-name="Path 6452" d="M39,10a5,5,0,1,1,5-5A5.006,5.006,0,0,1,39,10Zm0-8a3,3,0,1,0,3,3A3,3,0,0,0,39,2Z" fill="#fff"/>
              </g>
            </g>
            <g id="Group_2430" data-name="Group 2430">
              <g id="Group_2428" data-name="Group 2428">
                <path id="Path_6453" data-name="Path 6453" d="M32,24H29V22h2V15a3,3,0,0,0-3-3H20a3,3,0,0,0-3,3v7h2v2H16a1,1,0,0,1-1-1V15a5.006,5.006,0,0,1,5-5h8a5.006,5.006,0,0,1,5,5v8A1,1,0,0,1,32,24Z" fill="#fff"/>
              </g>
              <g id="Group_2429" data-name="Group 2429">
                <path id="Path_6454" data-name="Path 6454" d="M24,10a5,5,0,1,1,5-5A5.006,5.006,0,0,1,24,10Zm0-8a3,3,0,1,0,3,3A3,3,0,0,0,24,2Z" fill="#fff"/>
              </g>
            </g>
          </g>
          <g id="Group_2432" data-name="Group 2432">
            <rect id="Rectangle_387" data-name="Rectangle 387" width="2" height="14" transform="translate(19 19)" fill="#fff"/>
          </g>
          <g id="Group_2433" data-name="Group 2433">
            <rect id="Rectangle_388" data-name="Rectangle 388" width="2" height="15" transform="translate(27 19)" fill="#fff"/>
          </g>
          <g id="Group_2434" data-name="Group 2434">
            <rect id="Rectangle_389" data-name="Rectangle 389" width="2" height="15" transform="translate(4 19)" fill="#fff"/>
          </g>
          <g id="Group_2435" data-name="Group 2435">
            <rect id="Rectangle_390" data-name="Rectangle 390" width="2" height="17" transform="translate(42 19)" fill="#fff"/>
          </g>
        </g>
      </g>
      <g id="Group_2438" data-name="Group 2438">
        <rect id="Rectangle_391" data-name="Rectangle 391" width="2" height="8" transform="translate(23 25)" fill="#fff"/>
      </g>
      <g id="Group_2439" data-name="Group 2439">
        <rect id="Rectangle_392" data-name="Rectangle 392" width="2" height="9" transform="translate(8 24)" fill="#fff"/>
      </g>
      <g id="Group_2440" data-name="Group 2440">
        <rect id="Rectangle_393" data-name="Rectangle 393" width="2" height="10" transform="translate(38 28)" fill="#fff"/>
      </g>
    </g>
  </g>
</svg>
