<svg id="ecommerce-services" xmlns="http://www.w3.org/2000/svg" width="129.944" height="87.408" viewBox="0 0 129.944 87.408">
  <g id="Group_2502" data-name="Group 2502" transform="translate(14.841)">
    <path id="Path_6487" data-name="Path 6487" d="M458.747,590a1.615,1.615,0,0,1-1.613-1.615v-8.882a4,4,0,0,0-4-4H367.321a4,4,0,0,0-4,4v8.882a1.613,1.613,0,1,1-3.226,0v-8.882a7.232,7.232,0,0,1,7.224-7.226h85.813a7.234,7.234,0,0,1,7.226,7.226v8.882A1.615,1.615,0,0,1,458.747,590Z" transform="translate(-360.097 -572.279)" fill="#1e0b4b"/>
  </g>
  <g id="Group_2503" data-name="Group 2503" transform="translate(111.878 9.662)">
    <path id="Path_6488" data-name="Path 6488" d="M411.4,585.3a1.614,1.614,0,0,1-1.613-1.613v-4.525a1.822,1.822,0,0,1,0-.291v-.031a1.613,1.613,0,0,1,3.226-.016v4.863A1.614,1.614,0,0,1,411.4,585.3Z" transform="translate(-409.782 -577.226)" fill="#1e0b4b"/>
  </g>
  <g id="Group_2504" data-name="Group 2504" transform="translate(14.833 9.662)">
    <path id="Path_6489" data-name="Path 6489" d="M361.706,585.3a1.614,1.614,0,0,1-1.613-1.613v-4.847a1.614,1.614,0,0,1,3.228,0v4.847A1.615,1.615,0,0,1,361.706,585.3Z" transform="translate(-360.093 -577.226)" fill="#1e0b4b"/>
  </g>
  <g id="Group_2505" data-name="Group 2505" transform="translate(14.833 38.696)">
    <path id="Path_6490" data-name="Path 6490" d="M458.757,631.248h-97.05a1.614,1.614,0,0,1-1.613-1.615V593.705a1.614,1.614,0,0,1,3.228,0V628.02h93.822V593.705a1.613,1.613,0,1,1,3.226,0v35.928A1.614,1.614,0,0,1,458.757,631.248Z" transform="translate(-360.093 -592.092)" fill="#1e0b4b"/>
  </g>
  <g id="Group_2506" data-name="Group 2506" transform="translate(0 74.624)">
    <path id="Path_6491" data-name="Path 6491" d="M466.516,623.273H368.425c-6.363,0-12.248-3.89-15.736-10.41a1.615,1.615,0,0,1,1.422-2.375H480.83a1.614,1.614,0,0,1,1.422,2.375C478.762,619.382,472.879,623.273,466.516,623.273Zm-109.493-9.556c2.932,4.006,7.047,6.33,11.4,6.33h98.091c4.353,0,8.468-2.324,11.4-6.33Z" transform="translate(-352.498 -610.488)" fill="#1e0b4b"/>
  </g>
  <g id="Group_2515" data-name="Group 2515" transform="translate(31.895 48.695)">
    <g id="Group_2507" data-name="Group 2507" transform="translate(0 12.041)">
      <circle id="Ellipse_69" data-name="Ellipse 69" cx="2.265" cy="2.265" r="2.265" fill="#1e0b4b"/>
    </g>
    <g id="Group_2508" data-name="Group 2508" transform="translate(42.201)">
      <path id="Path_6492" data-name="Path 6492" d="M392.05,614.313a1.614,1.614,0,0,1-1.613-1.613V598.825a1.613,1.613,0,1,1,3.226,0V612.7A1.614,1.614,0,0,1,392.05,614.313Z" transform="translate(-390.437 -597.212)" fill="#1e0b4b"/>
    </g>
    <g id="Group_2509" data-name="Group 2509" transform="translate(52.136 4.619)">
      <path id="Path_6493" data-name="Path 6493" d="M397.137,612.059a1.614,1.614,0,0,1-1.613-1.613V601.19a1.613,1.613,0,0,1,3.226,0v9.255A1.614,1.614,0,0,1,397.137,612.059Z" transform="translate(-395.524 -599.577)" fill="#1e0b4b"/>
    </g>
    <g id="Group_2510" data-name="Group 2510" transform="translate(24.14 0.35)">
      <path id="Path_6494" data-name="Path 6494" d="M388.626,614.142a7.444,7.444,0,0,1-7.437-7.435v-1.883a7.436,7.436,0,0,1,14.872,0v1.883A7.444,7.444,0,0,1,388.626,614.142Zm0-13.525a4.214,4.214,0,0,0-4.211,4.207v1.883a4.209,4.209,0,0,0,8.418,0v-1.883A4.212,4.212,0,0,0,388.626,600.617Z" transform="translate(-381.189 -597.391)" fill="#1e0b4b"/>
    </g>
    <g id="Group_2511" data-name="Group 2511" transform="translate(7.761 0.35)">
      <path id="Path_6495" data-name="Path 6495" d="M379.715,614.142a6.921,6.921,0,0,1-6.912-6.912V604.3a6.913,6.913,0,0,1,13.669-1.465,1.613,1.613,0,0,1-3.154.682,3.687,3.687,0,0,0-7.289.783v2.928a3.688,3.688,0,0,0,7.158,1.244,1.612,1.612,0,1,1,3.035,1.088A6.927,6.927,0,0,1,379.715,614.142Z" transform="translate(-372.803 -597.391)" fill="#1e0b4b"/>
    </g>
    <g id="Group_2512" data-name="Group 2512" transform="translate(42.201)">
      <path id="Path_6496" data-name="Path 6496" d="M403.6,603.444h-3.226a3.055,3.055,0,0,0-3.094-3.006c-1.824,0-3.615,1.49-3.615,3.006h-3.226c0-3.32,3.2-6.232,6.841-6.232A6.283,6.283,0,0,1,403.6,603.444Z" transform="translate(-390.437 -597.212)" fill="#1e0b4b"/>
    </g>
    <g id="Group_2513" data-name="Group 2513" transform="translate(62.072 4.619)">
      <path id="Path_6497" data-name="Path 6497" d="M402.224,612.059a1.614,1.614,0,0,1-1.613-1.613V601.19a1.613,1.613,0,0,1,3.226,0v9.255A1.614,1.614,0,0,1,402.224,612.059Z" transform="translate(-400.611 -599.577)" fill="#1e0b4b"/>
    </g>
    <g id="Group_2514" data-name="Group 2514" transform="translate(52.136)">
      <path id="Path_6498" data-name="Path 6498" d="M408.686,603.444h-3.226a3.055,3.055,0,0,0-3.094-3.006c-1.824,0-3.615,1.49-3.615,3.006h-3.226c0-3.32,3.2-6.232,6.842-6.232A6.283,6.283,0,0,1,408.686,603.444Z" transform="translate(-395.524 -597.212)" fill="#1e0b4b"/>
    </g>
  </g>
  <g id="Group_2521" data-name="Group 2521" transform="translate(8.487 9.082)">
    <g id="Group_2516" data-name="Group 2516" transform="translate(82.71)">
      <path id="Path_6499" data-name="Path 6499" d="M417.368,610.66a13.211,13.211,0,0,1-12.947-13.431l-.041-.816a1.615,1.615,0,1,1,3.221-.17l.045.908c0,5.609,4.453,10.283,9.722,10.283l.332,0a8.217,8.217,0,0,0,3.121-.74,9.115,9.115,0,0,0,4.133-3.865,10.166,10.166,0,0,0-.2-10.2l-4.9-8.257a1.812,1.812,0,0,1-.123-.256,6.236,6.236,0,0,0-5.855-3.955H400.808a1.613,1.613,0,1,1,0-3.226h13.068a9.484,9.484,0,0,1,8.824,5.91l4.83,8.136a13.412,13.412,0,0,1,.229,13.445,12.341,12.341,0,0,1-5.6,5.2,11.4,11.4,0,0,1-4.355,1.027Z" transform="translate(-399.193 -576.929)" fill="#1e0b4b"/>
    </g>
    <g id="Group_2517" data-name="Group 2517" transform="translate(64.151 0.002)">
      <path id="Path_6500" data-name="Path 6500" d="M404.224,610.659c-7.009,0-12.712-6.037-12.712-13.455L389.7,578.7a1.615,1.615,0,0,1,1.607-1.769h18.558a1.613,1.613,0,0,1,1.543,1.142l4.971,16.261c1.439,6.992-2.35,13.863-8.586,15.788A12.094,12.094,0,0,1,404.224,610.659Zm-11.142-30.5,1.648,16.89c.008,5.8,4.263,10.386,9.494,10.386a8.888,8.888,0,0,0,2.615-.392c4.668-1.443,7.486-6.674,6.414-11.912l-4.584-14.972Z" transform="translate(-389.69 -576.93)" fill="#1e0b4b"/>
    </g>
    <g id="Group_2518" data-name="Group 2518" transform="translate(43.772 0.002)">
      <path id="Path_6501" data-name="Path 6501" d="M391.97,610.659c-7.011,0-12.714-6.037-12.714-13.455l1.828-18.817a1.613,1.613,0,0,1,1.605-1.457h18.56a1.615,1.615,0,0,1,1.605,1.457l1.82,18.659C404.683,604.622,398.98,610.659,391.97,610.659Zm-7.816-30.5-1.68,17.2c.008,5.482,4.263,10.072,9.5,10.072s9.486-4.59,9.486-10.228l-1.67-17.048Z" transform="translate(-379.256 -576.93)" fill="#1e0b4b"/>
    </g>
    <g id="Group_2519" data-name="Group 2519" transform="translate(21.58)">
      <path id="Path_6502" data-name="Path 6502" d="M380.6,610.66c-6.912,0-12.492-5.724-12.7-13.035h0a4.837,4.837,0,0,1,.088-.941c.012-.07.027-.139.045-.207l5.386-18.39a1.614,1.614,0,0,1,1.547-1.158h18.56a1.615,1.615,0,0,1,1.605,1.769l-1.82,18.663C393.313,604.623,387.609,610.66,380.6,610.66ZM371.15,597.3a1.68,1.68,0,0,0-.031.246l-1.613.027,1.613.008c.16,5.506,4.324,9.855,9.478,9.855,5.232,0,9.488-4.59,9.488-10.228l1.656-17.05H376.17Z" transform="translate(-367.893 -576.929)" fill="#1e0b4b"/>
    </g>
    <g id="Group_2520" data-name="Group 2520">
      <path id="Path_6503" data-name="Path 6503" d="M368.928,610.66l-.428-.008a11.388,11.388,0,0,1-4.369-1.029,12.368,12.368,0,0,1-5.594-5.2,13.406,13.406,0,0,1,.234-13.447l4.826-8.134a9.481,9.481,0,0,1,8.822-5.912h13.072a1.613,1.613,0,1,1,0,3.226H372.42a6.24,6.24,0,0,0-5.855,3.955,1.475,1.475,0,0,1-.123.256l-4.9,8.257a10.167,10.167,0,0,0-.2,10.2,9.145,9.145,0,0,0,4.131,3.863,8.216,8.216,0,0,0,3.135.742l.32,0c4.969,0,9.128-4.183,9.466-9.521v0s.035-.689.053-.789a1.614,1.614,0,0,1,3.191.473c-.01.139-.021.469-.021.473C381.167,605.15,375.6,610.66,368.928,610.66Z" transform="translate(-356.844 -576.929)" fill="#1e0b4b"/>
    </g>
  </g>
</svg>
