<svg xmlns="http://www.w3.org/2000/svg" width="115" height="115" viewBox="0 0 115 115">
  <g id="effective-communication" transform="translate(-896.5 -4093.5)">
    <g id="ICON" transform="translate(898 4095)">
      <circle id="Oval_Copy" data-name="Oval Copy" cx="56" cy="56" r="56" fill="none" stroke="#877f9b" stroke-linecap="round" stroke-miterlimit="10" stroke-width="3" stroke-dasharray="0 11"/>
      <circle id="Oval_Copy_2" data-name="Oval Copy 2" cx="49" cy="49" r="49" transform="translate(7 7)" fill="#1e0b4b"/>
    </g>
    <g id="Group_2474" data-name="Group 2474" transform="translate(930 4127)">
      <g id="Group_2463" data-name="Group 2463">
        <g id="Group_2460" data-name="Group 2460">
          <path id="Path_6463" data-name="Path 6463" d="M31.24,48H28.36a1,1,0,0,1-.707-.293L.293,20.347A1,1,0,0,1,0,19.64V16.76a1,1,0,0,1,.293-.707l5.76-5.76A1,1,0,0,1,6.76,10H9.64a1,1,0,0,1,.707.293l5.76,5.76a1,1,0,0,1,0,1.414L12.494,21.08,26.92,35.506l3.613-3.613a1,1,0,0,1,1.414,0l5.76,5.76A1,1,0,0,1,38,38.36v2.88a1,1,0,0,1-.293.707l-5.76,5.76A1,1,0,0,1,31.24,48Zm-2.466-2h2.052L36,40.826V38.774l-4.76-4.76-3.613,3.613a1,1,0,0,1-1.414,0l-15.84-15.84a1,1,0,0,1,0-1.414l3.613-3.613L9.226,12H7.174L2,17.174v2.052Z" fill="#fff"/>
        </g>
        <g id="Group_2461" data-name="Group 2461">
          <rect id="Rectangle_397" data-name="Rectangle 397" width="2" height="9.899" transform="translate(26.293 37.707) rotate(-45)" fill="#fff"/>
        </g>
        <g id="Group_2462" data-name="Group 2462">
          <rect id="Rectangle_398" data-name="Rectangle 398" width="2" height="9.899" transform="translate(3.293 14.707) rotate(-45)" fill="#fff"/>
        </g>
      </g>
      <g id="Group_2464" data-name="Group 2464">
        <path id="Path_6464" data-name="Path 6464" d="M37,35a1,1,0,0,1-1-1V30H23V28H37a1,1,0,0,1,1,1v2.586l3.293-3.293A1,1,0,0,1,42,28h3a1,1,0,0,0,1-1V3a1,1,0,0,0-1-1H17a1,1,0,0,0-1,1v9H14V3a3,3,0,0,1,3-3H45a3,3,0,0,1,3,3V27a3,3,0,0,1-3,3H42.414l-4.707,4.707A1,1,0,0,1,37,35Z" fill="#fff"/>
      </g>
      <g id="Group_2467" data-name="Group 2467">
        <g id="Group_2465" data-name="Group 2465">
          <path id="Path_6465" data-name="Path 6465" d="M33,27H29a1,1,0,0,1-1-1V23.478a9.266,9.266,0,0,1-.873-.362L25.343,24.9a1,1,0,0,1-1.414,0L21.1,22.071a1,1,0,0,1,0-1.414l1.783-1.784A9.266,9.266,0,0,1,22.522,18H20a1,1,0,0,1-1-1V13a1,1,0,0,1,1-1h2.522a9.266,9.266,0,0,1,.362-.873L21.1,9.343a1,1,0,0,1,0-1.414L23.929,5.1a1,1,0,0,1,1.414,0l1.784,1.783A9.266,9.266,0,0,1,28,6.522V4a1,1,0,0,1,1-1h4a1,1,0,0,1,1,1V6.522a9.266,9.266,0,0,1,.873.362L36.657,5.1a1,1,0,0,1,1.414,0L40.9,7.929a1,1,0,0,1,0,1.414l-1.783,1.784a9.266,9.266,0,0,1,.362.873H42a1,1,0,0,1,1,1v4a1,1,0,0,1-1,1H39.478a9.266,9.266,0,0,1-.362.873L40.9,20.657a1,1,0,0,1,0,1.414L38.071,24.9a1,1,0,0,1-1.414,0l-1.784-1.783a9.266,9.266,0,0,1-.873.362V26A1,1,0,0,1,33,27Zm-3-2h2V22.738a1,1,0,0,1,.75-.968,7,7,0,0,0,1.8-.745,1,1,0,0,1,1.216.154l1.6,1.6,1.414-1.414-1.6-1.6a1,1,0,0,1-.154-1.216,7,7,0,0,0,.745-1.8,1,1,0,0,1,.968-.75H41V14H38.738a1,1,0,0,1-.968-.75,7,7,0,0,0-.745-1.8,1,1,0,0,1,.154-1.216l1.6-1.6L37.364,7.222l-1.6,1.6a1,1,0,0,1-1.216.154,7,7,0,0,0-1.8-.745A1,1,0,0,1,32,7.262V5H30V7.262a1,1,0,0,1-.75.968,7,7,0,0,0-1.8.745,1,1,0,0,1-1.216-.154l-1.6-1.6L23.222,8.636l1.6,1.6a1,1,0,0,1,.154,1.216,7,7,0,0,0-.745,1.8,1,1,0,0,1-.968.75H21v2h2.262a1,1,0,0,1,.968.75,7,7,0,0,0,.745,1.8,1,1,0,0,1-.154,1.216l-1.6,1.6,1.414,1.414,1.6-1.6a1,1,0,0,1,1.216-.154,7,7,0,0,0,1.8.745,1,1,0,0,1,.75.968Z" fill="#fff"/>
        </g>
        <g id="Group_2466" data-name="Group 2466">
          <path id="Path_6466" data-name="Path 6466" d="M31,20a5,5,0,0,1,0-10v2a3,3,0,1,0,3,3h2A5.006,5.006,0,0,1,31,20Z" fill="#fff"/>
        </g>
      </g>
      <g id="Group_2468" data-name="Group 2468">
        <rect id="Rectangle_399" data-name="Rectangle 399" width="14" height="2" transform="translate(9 46)" fill="#fff"/>
      </g>
      <g id="Group_2469" data-name="Group 2469">
        <rect id="Rectangle_400" data-name="Rectangle 400" width="2" height="2" transform="translate(5 46)" fill="#fff"/>
      </g>
      <g id="Group_2470" data-name="Group 2470">
        <rect id="Rectangle_401" data-name="Rectangle 401" width="12" height="2" transform="translate(7 42)" fill="#fff"/>
      </g>
      <g id="Group_2471" data-name="Group 2471">
        <rect id="Rectangle_402" data-name="Rectangle 402" width="2" height="2" transform="translate(3 42)" fill="#fff"/>
      </g>
      <g id="Group_2472" data-name="Group 2472">
        <rect id="Rectangle_403" data-name="Rectangle 403" width="10" height="2" transform="translate(5 38)" fill="#fff"/>
      </g>
      <g id="Group_2473" data-name="Group 2473">
        <rect id="Rectangle_404" data-name="Rectangle 404" width="2" height="2" transform="translate(1 38)" fill="#fff"/>
      </g>
    </g>
  </g>
</svg>
