<svg id="erp" xmlns="http://www.w3.org/2000/svg" width="127.242" height="87" viewBox="0 0 127.242 87">
  <path id="Path_6563" data-name="Path 6563" d="M138.146,127.9H50.3a1.433,1.433,0,0,1-1.433-1.433V71.161A1.433,1.433,0,0,1,50.3,69.728h87.846a1.433,1.433,0,0,1,1.433,1.433v55.31A1.433,1.433,0,0,1,138.146,127.9Zm-86.413-2.866h84.98V72.594H51.733Z" transform="translate(-30.602 -59.627)" fill="#1e0b4b"/>
  <path id="Path_6564" data-name="Path 6564" d="M130.058,191.783H105.574a1.433,1.433,0,1,1,0-2.866h24.484a1.433,1.433,0,1,1,0,2.866Z" transform="translate(-54.195 -110.502)" fill="#1e0b4b"/>
  <path id="Path_6565" data-name="Path 6565" d="M77.449,99.687l-.072,0a1.432,1.432,0,0,1-1.037-.524l-1.9-2.324a1.433,1.433,0,1,1,2.218-1.815l.9,1.1,3-3a1.433,1.433,0,0,1,2.026,2.026l-4.12,4.119A1.433,1.433,0,0,1,77.449,99.687Z" transform="translate(-41.379 -69.433)" fill="#1e0b4b"/>
  <g id="Group_2580" data-name="Group 2580">
    <path id="Path_6566" data-name="Path 6566" d="M34.88,120.382a1.433,1.433,0,0,0,1.433-1.433V56.4a1.435,1.435,0,0,1,1.433-1.433h99.791a1.435,1.435,0,0,1,1.433,1.433v62.545a1.433,1.433,0,0,0,2.866,0V56.4a4.3,4.3,0,0,0-4.3-4.3H37.746a4.3,4.3,0,0,0-4.3,4.3v62.545A1.433,1.433,0,0,0,34.88,120.382Z" transform="translate(-24.02 -52.105)" fill="#1e0b4b"/>
    <path id="Path_6567" data-name="Path 6567" d="M139.943,179.6H21.3a4.3,4.3,0,0,0-4.3,4.3v5.325a4.3,4.3,0,0,0,4.3,4.3H139.943a4.3,4.3,0,0,0,4.3-4.3V183.9A4.3,4.3,0,0,0,139.943,179.6Zm1.433,9.623a1.435,1.435,0,0,1-1.433,1.433H21.3a1.435,1.435,0,0,1-1.433-1.433V183.9a1.435,1.435,0,0,1,1.433-1.433H139.943a1.435,1.435,0,0,1,1.433,1.433Z" transform="translate(-17 -106.527)" fill="#1e0b4b"/>
    <path id="Path_6568" data-name="Path 6568" d="M83.818,84.489a1.433,1.433,0,0,0-1.433-1.433H67.419a1.433,1.433,0,0,0-1.433,1.433V99.455a1.433,1.433,0,0,0,1.433,1.433H82.385a1.433,1.433,0,0,0,1.433-1.433ZM80.952,98.022h-12.1v-12.1h12.1Z" transform="translate(-37.909 -65.316)" fill="#1e0b4b"/>
    <path id="Path_6569" data-name="Path 6569" d="M165.9,96.111H138.308a1.433,1.433,0,0,0,0,2.866H165.9a1.433,1.433,0,0,0,0-2.866Z" transform="translate(-68.167 -70.889)" fill="#1e0b4b"/>
    <path id="Path_6570" data-name="Path 6570" d="M107.537,98.977h11.905a1.433,1.433,0,1,0,0-2.866H107.537a1.433,1.433,0,0,0,0,2.866Z" transform="translate(-55.033 -70.889)" fill="#1e0b4b"/>
    <path id="Path_6571" data-name="Path 6571" d="M82.385,123.694H67.419a1.433,1.433,0,0,0-1.433,1.433v14.966a1.433,1.433,0,0,0,1.433,1.433H82.385a1.433,1.433,0,0,0,1.433-1.433V125.127A1.433,1.433,0,0,0,82.385,123.694ZM80.952,138.66h-12.1v-12.1h12.1Z" transform="translate(-37.909 -82.662)" fill="#1e0b4b"/>
    <path id="Path_6572" data-name="Path 6572" d="M175.983,136.75h-14.05a1.433,1.433,0,0,0,0,2.866h14.05a1.433,1.433,0,1,0,0-2.866Z" transform="translate(-78.252 -88.235)" fill="#1e0b4b"/>
    <path id="Path_6573" data-name="Path 6573" d="M107.537,139.616h25.446a1.433,1.433,0,1,0,0-2.866H107.537a1.433,1.433,0,1,0,0,2.866Z" transform="translate(-55.033 -88.235)" fill="#1e0b4b"/>
  </g>
  <path id="Path_6574" data-name="Path 6574" d="M77.449,140.325l-.072,0a1.432,1.432,0,0,1-1.037-.524l-1.9-2.324a1.433,1.433,0,1,1,2.218-1.815l.9,1.1,3-3a1.433,1.433,0,0,1,2.026,2.026l-4.12,4.12A1.432,1.432,0,0,1,77.449,140.325Z" transform="translate(-41.379 -86.779)" fill="#1e0b4b"/>
</svg>
