<?xml version="1.0" encoding="utf-8"?>
<!-- Generator: Adobe Illustrator 24.2.3, SVG Export Plug-In . SVG Version: 6.00 Build 0)  -->
<svg version="1.1" id="Layer_1" xmlns="http://www.w3.org/2000/svg" xmlns:xlink="http://www.w3.org/1999/xlink" x="0px" y="0px"
	 viewBox="0 0 100 100" style="enable-background:new 0 0 100 100;" xml:space="preserve">
<style type="text/css">
	.st0{fill:#1E0B4B;}
</style>
<g>
	<path class="st0" d="M50,29.5c-10.4,0-18.8,8.4-18.8,18.8S39.6,67.1,50,67.1s18.8-8.4,18.8-18.8S60.4,29.5,50,29.5z M50,63.7
		c-8.5,0-15.4-6.9-15.4-15.4S41.5,32.9,50,32.9s15.4,6.9,15.4,15.4S58.5,63.7,50,63.7z"/>
	<path class="st0" d="M17.5,58.6c1.1,0,0.7,0.2,8.2-9.2c0.9-1.1,0.1-2.8-1.3-2.8h-1.7C23.6,32.3,35.5,20.9,50,20.9
		c11.4,0,21.7,7.2,25.7,17.8c0.2,0.5,0.7,1,1.2,1.1c1.3,0.3,1.4-0.3,6.8-5.7c0.5-0.5,0.6-1.3,0.3-1.9c-6.2-13.1-19.6-21.5-34-21.5
		c-20.2,0-36.7,16-37.6,35.9h-1.7c-1.4,0-2.2,1.7-1.3,2.8C16.7,58.6,16.4,58.6,17.5,58.6z M15.8,48.3c0-18.9,15.4-34.2,34.2-34.2
		c12.8,0,24.6,7.2,30.4,18.5l-2.6,2.6C72.8,24.5,61.9,17.5,50,17.5c-17,0-30.8,13.8-30.8,30.8c0,0.9,0.7,1.6,1.6,1.7l-3.3,4.1
		c-0.8-1-1.7-2.2-3.3-4.1C15.1,49.9,15.8,49.2,15.8,48.3z"/>
	<path class="st0" d="M97.3,79.5c-9.1-7.3-9.1-7.7-10.4-7.1c-1.1,0.5-1,1.5-1,3.3H75.8C82.9,69,87.2,59.8,87.6,50h1.8
		c0.7,0,1.3-0.4,1.5-1c0.6-1.3,0.4-1.1-7.1-10.4c-0.4-0.5-1-0.6-1.3-0.6c-1.1,0-0.7-0.2-8.2,9.2c-0.9,1.1-0.1,2.8,1.3,2.8h1.7
		C76.4,64.3,64.5,75.7,50,75.7c-11.4,0-21.7-7.2-25.7-17.8c-0.4-1.1-1.9-1.5-2.8-0.6c-5,5-6.2,5.7-5.6,7.2c2,4.2,4.8,8.1,8.2,11.3
		H3.8c-0.9,0-1.7,0.8-1.7,1.7v6.8c0,0.9,0.8,1.7,1.7,1.7c11.6,0,70.5,0,82.1,0v1.7c0,0.9,0.8,1.7,1.7,1.7c0.8,0,0.5,0.1,9.6-7.2
		C98.1,81.5,98.1,80.2,97.3,79.5z M19.6,64l2.6-2.6c2.9,6.2,7.9,11.1,13.8,14.2h-6.5C25.3,72.6,22,68.6,19.6,64z M5.5,79.1
		c15.9,0,29.1,0,44.5,0c17,0,30.8-13.8,30.8-30.8c0-0.9-0.7-1.6-1.6-1.7l3.3-4.1c0.8,1,1.7,2.2,3.3,4.1c-0.9,0.1-1.6,0.8-1.6,1.7
		c0,18.6-15.1,34.2-34.2,34.2H5.5V79.1z M89.4,84.1c-0.1-0.9-0.8-1.6-1.7-1.6H65.7c9.1-4.2-0.1-3.4,21.9-3.4c0.9,0,1.6-0.7,1.7-1.6
		l4.1,3.3L89.4,84.1z"/>
	<path class="st0" d="M57.3,41.9l-9.9,9.9l-4.8-4.8c-1.6-1.6-4,0.8-2.4,2.4c6.4,6.4,6.2,6.5,7.2,6.5c1,0,0.3,0.4,12.3-11.6
		C61.4,42.8,58.9,40.3,57.3,41.9z"/>
</g>
</svg>
