<?xml version="1.0" encoding="utf-8"?>
<!-- Generator: Adobe Illustrator 24.2.3, SVG Export Plug-In . SVG Version: 6.00 Build 0)  -->
<svg version="1.1" id="Layer_1" xmlns="http://www.w3.org/2000/svg" xmlns:xlink="http://www.w3.org/1999/xlink" x="0px" y="0px"
	 viewBox="0 0 100 100" style="enable-background:new 0 0 100 100;" xml:space="preserve">
<style type="text/css">
	.st0{fill:#1E0B4B;}
</style>
<g>
	<path class="st0" d="M95.2,83.9H82V12.3c0-5.2-4.2-9.4-9.4-9.4H12.3c-5.2,0-9.4,4.2-9.4,9.4v1.9c0,1,0.8,1.9,1.9,1.9H18v71.5
		c0,2.2,0.8,4.4,2.3,6.1c2.8,3.6,8,3.3,7.1,3.3c12.6,0-31.8,0,60.3,0c5.2,0,9.4-4.2,9.4-9.4v-1.9C97.1,84.7,96.2,83.9,95.2,83.9z
		 M6.7,12.3c0-5,6.1-7.5,9.6-4c1.1,1.1,1.7,2.5,1.7,4H6.7z M23.2,91.4c-2-2.3-1.4,2.6-1.4-77.2c0-2.5,0.1-4.3-1.4-6.8
		c-0.7-1.1-6.4-0.8,52.2-0.8c3.1,0,5.6,2.5,5.6,5.6v71.5H34.9c-1,0-1.9,0.8-1.9,1.9v1.5C33.1,92.7,26.6,95.4,23.2,91.4z M87.7,93.3
		H34.9c1.2-1.6,1.9-3.5,1.9-5.6c21.2,0,35.5,0,56.5,0C93.3,90.8,90.8,93.3,87.7,93.3z"/>
	<path class="st0" d="M32.3,49.9c0.5,0.2-1,0.1,23.3,0.1c0.5,0,1-0.2,1.3-0.6C69.3,37.1,68.5,38,68.7,37.5c0.2-0.5,0.1,1,0.1-23.3
		c0-0.7-0.4-1.4-1.2-1.7c-0.5-0.2,1-0.1-23.3-0.1c-0.5,0-1,0.2-1.3,0.6C30.7,25.2,31.5,24.3,31.3,24.8c-0.2,0.5-0.1-1-0.1,23.3
		C31.2,48.9,31.6,49.6,32.3,49.9z M53.8,34.9h-7.5v-7.5h7.5V34.9z M45.1,38.7h8.6v7.5H37.6L45.1,38.7z M57.5,38.7h4.9l-4.9,4.9V38.7
		z M65.1,34.9h-7.5v-8.6l7.5-7.5V34.9z M54.9,23.6h-8.6v-7.5h16.2L54.9,23.6z M42.5,23.6h-4.9l4.9-4.9V23.6z M34.9,27.4h7.5V36
		l-7.5,7.5V27.4z"/>
	<path class="st0" d="M42.5,55.6c-2.5,0-2.5,3.8,0,3.8h26.4c2.5,0,2.5-3.8,0-3.8H42.5z"/>
	<path class="st0" d="M33.1,68.8h35.8c2.5,0,2.5-3.8,0-3.8H33.1C30.6,65.1,30.6,68.8,33.1,68.8z"/>
	<path class="st0" d="M33.1,78.2h35.8c2.5,0,2.5-3.8,0-3.8H33.1C30.6,74.5,30.6,78.2,33.1,78.2z"/>
</g>
</svg>
