<svg xmlns="http://www.w3.org/2000/svg" width="64" height="63.923" viewBox="0 0 64 63.923">
  <g id="free-estimate" transform="translate(-464.29 -98.837)">
    <g id="Group_2408" data-name="Group 2408">
      <path id="Path_6440" data-name="Path 6440" d="M496.255,146.242a15.52,15.52,0,0,1-12.944-24.079,1,1,0,1,1,1.669,1.106,13.5,13.5,0,1,0,4.75-4.383,1,1,0,1,1-.967-1.753,15.518,15.518,0,1,1,7.492,29.109Z" fill="#1e0b4b"/>
    </g>
    <g id="Group_2412" data-name="Group 2412">
      <g id="Group_2409" data-name="Group 2409">
        <path id="Path_6441" data-name="Path 6441" d="M496.255,124.718a1,1,0,0,1-1-1v-2a1,1,0,1,1,2,0v2A1,1,0,0,1,496.255,124.718Z" fill="#1e0b4b"/>
      </g>
      <g id="Group_2410" data-name="Group 2410">
        <path id="Path_6442" data-name="Path 6442" d="M496.255,140.736a1,1,0,0,1-1-1v-2a1,1,0,0,1,2,0v2A1,1,0,0,1,496.255,140.736Z" fill="#1e0b4b"/>
      </g>
      <g id="Group_2411" data-name="Group 2411">
        <path id="Path_6443" data-name="Path 6443" d="M497.756,138.733h-3a4.51,4.51,0,0,1-4.505-4.505,1,1,0,0,1,2,0,2.506,2.506,0,0,0,2.5,2.5h3a2.5,2.5,0,1,0,0-5.005h-3a4.5,4.5,0,1,1,0-9.01h3a4.536,4.536,0,0,1,4.065,2.566,1,1,0,0,1-1.806.866,2.522,2.522,0,0,0-2.259-1.43h-3a2.5,2.5,0,1,0,0,5.005h3a4.5,4.5,0,0,1,0,9.01Z" fill="#1e0b4b"/>
      </g>
    </g>
    <g id="Group_2415" data-name="Group 2415">
      <g id="Group_2413" data-name="Group 2413">
        <path id="Path_6444" data-name="Path 6444" d="M475.623,127.721H465.486a1,1,0,0,1-.992-1.129,32.225,32.225,0,0,1,28.662-27.751,1,1,0,0,1,1.1,1v10.1a1,1,0,0,1-.859.991,19.988,19.988,0,0,0-16.788,15.979A1,1,0,0,1,475.623,127.721Zm-8.976-2h8.166A21.991,21.991,0,0,1,492.25,109.09v-8.129A30.238,30.238,0,0,0,466.647,125.719Z" fill="#1e0b4b"/>
      </g>
      <g id="Group_2414" data-name="Group 2414">
        <path id="Path_6445" data-name="Path 6445" d="M496.255,162.76a32.083,32.083,0,0,1-31.963-29.97,1,1,0,0,1,1-1.064h10.041a1,1,0,0,1,1,.906,20.019,20.019,0,1,0,22.787-21.7,1,1,0,0,1-.859-.991v-10.1a1,1,0,0,1,1.1-1,32.035,32.035,0,0,1-3.1,63.919Zm-29.878-29.032a30.031,30.031,0,1,0,33.882-32.768v8.13a22.014,22.014,0,1,1-25.819,24.638Z" fill="#1e0b4b"/>
      </g>
    </g>
  </g>
</svg>
