<?xml version="1.0" encoding="utf-8"?>
<!-- Generator: Adobe Illustrator 24.2.3, SVG Export Plug-In . SVG Version: 6.00 Build 0)  -->
<svg version="1.1" id="Layer_1" xmlns="http://www.w3.org/2000/svg" xmlns:xlink="http://www.w3.org/1999/xlink" x="0px" y="0px"
	 viewBox="0 0 100 100" style="enable-background:new 0 0 100 100;" xml:space="preserve">
<style type="text/css">
	.st0{fill:#1E0B4B;}
</style>
<g>
	<path class="st0" d="M31.7,10.4c1.1,0,6.6-3.2,16.5-3.2c2.4,0,2.4-3.6,0-3.6c-6,0-11.7,1.1-17.2,3.3C29.2,7.6,29.7,10.4,31.7,10.4z
		"/>
	<path class="st0" d="M94.3,43.7c-0.7-1-2.3-1-3,0c-3.7,5.5-4.3,5.9-3.7,7.2c0.6,1.1,1.6,0.9,3.3,0.9c-0.9,22.8-19.8,41-42.8,41
		C24.6,92.8,5.4,73.6,5.4,50c0-13.8,6.7-26.8,18-34.9c1.9-1.4-0.1-4.3-2.1-2.9C9.1,20.9,1.8,35,1.8,50c0,25.6,20.8,46.4,46.4,46.4
		c25,0,45.4-19.8,46.3-44.6c1.5,0,2.8,0.2,3.4-0.9C98.6,49.6,98,49.2,94.3,43.7z M92.8,47.9c0.3,0.5,0.4,0.4-0.2,0.4L92.8,47.9z"/>
	<path class="st0" d="M71.6,18.8l-2.4,2.4C45.6,4,12.5,20.9,12.5,50c0,19.7,16,35.7,35.7,35.7C77.4,85.7,94.1,52.4,77,29l2.4-2.4
		l1.1,1.1c1.4,1.4,3.7,1.4,5,0l2.8-2.8c1.4-1.4,1.4-3.7,0-5l-10-10c-1.4-1.4-3.7-1.4-5,0l-2.8,2.8c-1.4,1.4-1.4,3.7,0,5L71.6,18.8z
		 M48.2,82.1c-17.7,0-32.1-14.4-32.1-32.1c0-30.7,38.8-43.4,57.2-20C89.9,50.6,75.3,82.1,48.2,82.1z M74.8,26.2
		c-0.2-0.2-2.7-2.7-2.8-2.8l2.1-2.1l2.8,2.8L74.8,26.2z M75.8,12.3l10,10L83,25.2c-12.4-12.4,1.8,1.8-10-10L75.8,12.3z"/>
	<path class="st0" d="M67.1,31.1c-10.4-10.4-27.4-10.4-37.8,0c-10.4,10.4-10.4,27.4,0,37.8c10.4,10.4,27.4,10.4,37.8,0
		C77.6,58.5,77.6,41.5,67.1,31.1z M71.3,51.8c-0.4,5.1-2.4,9.7-5.5,13.3c-1.7-1.5-4,0.8-2.5,2.5c-3.6,3.1-8.3,5.1-13.3,5.5
		c-0.1-2.2-3.4-2.2-3.5,0c-5.1-0.4-9.7-2.4-13.3-5.5c1.5-1.7-0.8-4-2.5-2.5c-3.1-3.6-5.1-8.3-5.5-13.3c2.2-0.1,2.2-3.4,0-3.5
		c0.4-5.1,2.4-9.7,5.5-13.3c1.7,1.5,4-0.8,2.5-2.5c3.6-3.1,8.3-5.1,13.3-5.5c0.1,2.2,3.4,2.2,3.5,0c5.1,0.4,9.7,2.4,13.3,5.5
		c-1.5,1.7,0.8,4,2.5,2.5c3.1,3.6,5.1,8.3,5.5,13.3C69.1,48.4,69.1,51.6,71.3,51.8z"/>
	<path class="st0" d="M57.6,38c-10.1,10.1-8,8.4-9.4,8.4c-2.3,0-4.1,2.1-3.4,4.5l-1.4,1.4c-1.7,1.7,0.9,4.2,2.5,2.5
		c1.9-1.9,1-1.3,2.3-1.3c2.3,0,4.1-2.1,3.4-4.5l8.5-8.5C61.8,38.9,59.3,36.4,57.6,38z"/>
</g>
</svg>
