<svg id="mobile-app-development" xmlns="http://www.w3.org/2000/svg" width="50.387" height="87.408" viewBox="0 0 50.387 87.408">
  <g id="Group_2522" data-name="Group 2522" transform="translate(11.642 17.969)">
    <path id="Path_6504" data-name="Path 6504" d="M170.8,494.875a13.552,13.552,0,1,1,13.551-13.552A13.568,13.568,0,0,1,170.8,494.875Zm0-24.364a10.812,10.812,0,1,0,10.81,10.812A10.824,10.824,0,0,0,170.8,470.512Z" transform="translate(-157.243 -467.771)" fill="#1e0b4b"/>
  </g>
  <g id="Group_2523" data-name="Group 2523" transform="translate(22.771 76.141)">
    <circle id="Ellipse_70" data-name="Ellipse 70" cx="2.423" cy="2.423" r="2.423" fill="#1e0b4b"/>
  </g>
  <g id="Group_2524" data-name="Group 2524">
    <path id="Path_6505" data-name="Path 6505" d="M192.174,544.341H158.655a8.444,8.444,0,0,1-8.434-8.434V465.365a8.442,8.442,0,0,1,8.434-8.432h33.519a8.442,8.442,0,0,1,8.434,8.432v70.542A8.444,8.444,0,0,1,192.174,544.341Zm-33.519-84.669a5.7,5.7,0,0,0-5.693,5.694v70.542a5.7,5.7,0,0,0,5.693,5.7h33.519a5.7,5.7,0,0,0,5.693-5.7V465.365a5.7,5.7,0,0,0-5.693-5.694Z" transform="translate(-150.221 -456.933)" fill="#1e0b4b"/>
  </g>
  <g id="Group_2525" data-name="Group 2525" transform="translate(18.651 7.439)">
    <path id="Path_6506" data-name="Path 6506" d="M173.187,464.159H162.839a1.369,1.369,0,1,1,0-2.739h10.347a1.369,1.369,0,1,1,0,2.739Z" transform="translate(-161.47 -461.42)" fill="#1e0b4b"/>
  </g>
  <g id="Group_2526" data-name="Group 2526" transform="translate(0.492 69.711)">
    <path id="Path_6507" data-name="Path 6507" d="M198.551,501.718H151.887a1.37,1.37,0,0,1,0-2.739h46.664a1.37,1.37,0,0,1,0,2.739Z" transform="translate(-150.518 -498.979)" fill="#1e0b4b"/>
  </g>
  <g id="Group_2527" data-name="Group 2527" transform="translate(9.722 48.109)">
    <path id="Path_6508" data-name="Path 6508" d="M185.658,494.891h-28.2a1.371,1.371,0,0,1-1.371-1.369v-6.2a1.371,1.371,0,0,1,1.371-1.369h28.2a1.37,1.37,0,0,1,1.37,1.369v6.2A1.37,1.37,0,0,1,185.658,494.891Zm-26.833-2.741h25.463v-3.46H158.826Z" transform="translate(-156.085 -485.95)" fill="#1e0b4b"/>
  </g>
  <g id="Group_2528" data-name="Group 2528" transform="translate(14.147 59.917)">
    <line id="Line_148" data-name="Line 148" x1="19.351" transform="translate(1.371 1.371)" fill="#f2f3f4"/>
    <path id="Path_6509" data-name="Path 6509" d="M179.475,495.813h-19.35a1.37,1.37,0,1,1,0-2.741h19.35a1.37,1.37,0,1,1,0,2.741Z" transform="translate(-158.754 -493.072)" fill="#1e0b4b"/>
  </g>
  <g id="Group_2529" data-name="Group 2529" transform="translate(25.195 31.521)">
    <path id="Path_6510" data-name="Path 6510" d="M165.417,475.945" transform="translate(-165.417 -475.945)" fill="#1e0b4b" stroke="#222" stroke-linecap="round" stroke-linejoin="round" stroke-width="1.652"/>
  </g>
</svg>
