<?xml version="1.0" encoding="utf-8"?>
<!-- Generator: Adobe Illustrator 24.2.3, SVG Export Plug-In . SVG Version: 6.00 Build 0)  -->
<svg version="1.1" id="Layer_1" xmlns="http://www.w3.org/2000/svg" xmlns:xlink="http://www.w3.org/1999/xlink" x="0px" y="0px"
	 viewBox="0 0 100 100" style="enable-background:new 0 0 100 100;" xml:space="preserve">
<style type="text/css">
	.st0{fill:#1E0B4B;}
</style>
<g>
	<g>
		<g>
			<g>
				<path class="st0" d="M62,83.9H38c-0.5,0-1-0.2-1.4-0.6l-4-4c-0.4-0.4-0.6-0.9-0.6-1.4V54.2c0-3,2.1-5.6,5-6.1
					c1.8-0.3,3.5,0.2,4.9,1.3c0,0,0.1,0.1,0.1,0.1c1.1-0.9,2.5-1.5,4-1.5s2.9,0.6,4,1.5c1.1-0.9,2.5-1.5,4-1.5s2.9,0.6,4,1.5
					c0,0,0.1-0.1,0.1-0.1c1.3-1.1,3.1-1.6,4.9-1.3c2.8,0.5,5,3.1,5,6.1v23.7c0,0.5-0.2,1-0.6,1.4l-4,4C63,83.7,62.5,83.9,62,83.9z
					 M38.9,79.9h22.3l2.8-2.8V54.2c0-1.1-0.7-2-1.6-2.2c-0.6-0.1-1.2,0.1-1.6,0.4C60.2,52.8,60,53.4,60,54c0,1.1-0.9,2-2,2
					s-2-0.9-2-2c0-1.1-0.9-2-2-2s-2,0.9-2,2c0,1.1-0.9,2-2,2s-2-0.9-2-2c0-1.1-0.9-2-2-2s-2,0.9-2,2c0,1.1-0.9,2-2,2s-2-0.9-2-2
					c0-0.6-0.3-1.1-0.7-1.5c-0.5-0.4-1-0.5-1.6-0.4c-0.9,0.2-1.6,1.1-1.6,2.2v22.9L38.9,79.9z"/>
			</g>
			<g>
				<rect x="40" y="54" class="st0" width="4" height="6"/>
			</g>
			<g>
				<rect x="48" y="54" class="st0" width="4" height="6"/>
			</g>
			<g>
				<rect x="56" y="54" class="st0" width="4" height="6"/>
			</g>
		</g>
		<g>
			<path class="st0" d="M65.9,97.8H34.1c-1.1,0-2-0.9-2-2v-8c0-1.1,0.9-2,2-2h31.9c1.1,0,2,0.9,2,2v8C67.9,96.9,67,97.8,65.9,97.8z
				 M36.1,93.8h27.9v-4H36.1V93.8z"/>
		</g>
		<g>
			<rect x="36.1" y="81.9" class="st0" width="4" height="6"/>
		</g>
		<g>
			<rect x="60" y="81.9" class="st0" width="4" height="6"/>
		</g>
		<g>
			<path class="st0" d="M34.1,69.9h-12c-5.5,0-10-4.5-10-10V44c0-3.3,2.7-6,6-6v4c-1.1,0-2,0.9-2,2V60c0,3.3,2.7,6,6,6h10V44
				c0-1.1-0.9-2-2-2v-4c3.3,0,6,2.7,6,6v23.9C36.1,69,35.2,69.9,34.1,69.9z"/>
		</g>
		<g>
			<path class="st0" d="M77.9,69.9h-12c-1.1,0-2-0.9-2-2V44c0-3.3,2.7-6,6-6v4c-1.1,0-2,0.9-2,2v21.9h10c3.3,0,6-2.7,6-6V44
				c0-1.1-0.9-2-2-2v-4c3.3,0,6,2.7,6,6V60C87.8,65.4,83.4,69.9,77.9,69.9z"/>
		</g>
		<g>
			<rect x="14.1" y="48" class="st0" width="13.9" height="4"/>
		</g>
		<g>
			<rect x="65.9" y="48" class="st0" width="13.9" height="4"/>
		</g>
		<g>
			<path class="st0" d="M33.4,79.8l-6-2c-0.8-0.3-1.4-1-1.4-1.9v-8h4v6.5l4.6,1.5L33.4,79.8z"/>
		</g>
	</g>
	<g>
		<path class="st0" d="M73.9,42c-0.3,0-0.5,0-0.8-0.2c-0.7-0.3-1.2-1-1.2-1.8v-6H60c-3.3,0-6-2.7-6-6V8.2c0-3.3,2.7-6,6-6h31.9
			c3.3,0,6,2.7,6,6v19.9c0,3.3-2.7,6-6,6h-9.1l-7.4,7.4C74.9,41.8,74.4,42,73.9,42z M60,6.2c-1.1,0-2,0.9-2,2v19.9c0,1.1,0.9,2,2,2
			h13.9c1.1,0,2,0.9,2,2v3.2l4.6-4.6c0.4-0.4,0.9-0.6,1.4-0.6h10c1.1,0,2-0.9,2-2V8.2c0-1.1-0.9-2-2-2H60z"/>
	</g>
	<g>
		<path class="st0" d="M26.1,42c-0.5,0-1-0.2-1.4-0.6l-7.4-7.4H8.2c-3.3,0-6-2.7-6-6V8.2c0-3.3,2.7-6,6-6H40c3.3,0,6,2.7,6,6v19.9
			c0,3.3-2.7,6-6,6h-12v6c0,0.8-0.5,1.5-1.2,1.8C26.6,42,26.4,42,26.1,42z M8.2,6.2c-1.1,0-2,0.9-2,2v19.9c0,1.1,0.9,2,2,2h10
			c0.5,0,1,0.2,1.4,0.6l4.6,4.6v-3.2c0-1.1,0.9-2,2-2H40c1.1,0,2-0.9,2-2V8.2c0-1.1-0.9-2-2-2H8.2z"/>
	</g>
	<g>
		<path class="st0" d="M26.1,22.1h-4v-4c0-1.1,0.9-2,2-2c1.1,0,2-0.9,2-2s-0.9-2-2-2c-1.1,0-2,0.9-2,2h-4c0-3.3,2.7-6,6-6s6,2.7,6,6
			c0,2.6-1.7,4.8-4,5.6V22.1z"/>
	</g>
	<g>
		<rect x="22.1" y="24.1" class="st0" width="4" height="4"/>
	</g>
	<g>
		<rect x="71.9" y="12.2" class="st0" width="15.9" height="4"/>
	</g>
	<g>
		<rect x="63.9" y="20.1" class="st0" width="23.9" height="4"/>
	</g>
	<g>
		<rect x="63.9" y="12.2" class="st0" width="4" height="4"/>
	</g>
</g>
</svg>
