<svg xmlns="http://www.w3.org/2000/svg" width="85.849" height="85.849" viewBox="0 0 85.849 85.849">
  <g id="post-project-icon" transform="translate(-136 204)">
    <path id="Path_8712" data-name="Path 8712" d="M152.943-174A8.953,8.953,0,0,0,144-165.057a8.953,8.953,0,0,0,8.943,8.943,8.953,8.953,0,0,0,8.943-8.943A8.953,8.953,0,0,0,152.943-174Zm0,14.308a5.372,5.372,0,0,1-5.366-5.366,5.372,5.372,0,0,1,5.366-5.366,5.372,5.372,0,0,1,5.366,5.366A5.372,5.372,0,0,1,152.943-159.692Z" transform="translate(6.308 23.655)" fill="#1e0b4b"/>
    <path id="Path_8713" data-name="Path 8713" d="M216.483-193.269H202.032A12.528,12.528,0,0,0,189.655-204a12.528,12.528,0,0,0-12.376,10.731H162.828a5.372,5.372,0,0,0-5.366,5.366v23.251a5.372,5.372,0,0,0-5.366,5.366v.613l-.433-.433a5.493,5.493,0,0,0-7.589,0l-2.529,2.529a5.369,5.369,0,0,0,0,7.587l.433.435h-.613A5.372,5.372,0,0,0,136-143.191v3.577a5.372,5.372,0,0,0,5.366,5.366h.613l-.433.435a5.369,5.369,0,0,0,0,7.587l2.529,2.529a5.492,5.492,0,0,0,7.587,0l.435-.433v.613a5.372,5.372,0,0,0,5.366,5.366h3.577a5.372,5.372,0,0,0,5.366-5.366v-.613l.433.433a5.493,5.493,0,0,0,7.589,0l2.529-2.529a5.369,5.369,0,0,0,0-7.587l-.433-.435h.613a5.372,5.372,0,0,0,5.366-5.366V-141.4h7.154v17.885a5.372,5.372,0,0,0,5.366,5.366,5.372,5.372,0,0,0,5.366-5.366V-141.4h16.1a5.372,5.372,0,0,0,5.366-5.366V-187.9A5.372,5.372,0,0,0,216.483-193.269Zm-26.828-7.154a8.959,8.959,0,0,1,8.762,7.154H180.893A8.959,8.959,0,0,1,189.655-200.423Zm-10.731,60.809a1.79,1.79,0,0,1-1.789,1.789h-2.724a1.794,1.794,0,0,0-1.688,1.193,14.3,14.3,0,0,1-.574,1.386,1.786,1.786,0,0,0,.351,2.034l1.926,1.928a1.79,1.79,0,0,1,0,2.529l-2.529,2.529a1.828,1.828,0,0,1-2.529,0l-1.928-1.926a1.792,1.792,0,0,0-2.039-.349,14.7,14.7,0,0,1-1.383.576,1.788,1.788,0,0,0-1.191,1.685v2.724a1.79,1.79,0,0,1-1.789,1.789h-3.577a1.79,1.79,0,0,1-1.789-1.789v-2.724a1.788,1.788,0,0,0-1.191-1.685,14.7,14.7,0,0,1-1.383-.576,1.8,1.8,0,0,0-.774-.175,1.785,1.785,0,0,0-1.264.524l-1.93,1.928a1.83,1.83,0,0,1-2.527,0l-2.529-2.529a1.79,1.79,0,0,1,0-2.529L146-133.212a1.786,1.786,0,0,0,.351-2.034,14.3,14.3,0,0,1-.574-1.386,1.794,1.794,0,0,0-1.688-1.193h-2.724a1.79,1.79,0,0,1-1.789-1.789v-3.577a1.79,1.79,0,0,1,1.789-1.789h2.724a1.794,1.794,0,0,0,1.688-1.193,14.3,14.3,0,0,1,.574-1.386,1.786,1.786,0,0,0-.351-2.034l-1.926-1.928a1.79,1.79,0,0,1,0-2.529l2.529-2.529a1.83,1.83,0,0,1,2.529,0l1.928,1.926a1.792,1.792,0,0,0,2.039.349,14.7,14.7,0,0,1,1.383-.576,1.788,1.788,0,0,0,1.191-1.685v-2.724a1.79,1.79,0,0,1,1.789-1.789h3.577a1.79,1.79,0,0,1,1.789,1.789v2.724a1.788,1.788,0,0,0,1.191,1.685,14.7,14.7,0,0,1,1.383.576,1.792,1.792,0,0,0,2.039-.349l1.93-1.928a1.83,1.83,0,0,1,2.527,0l2.529,2.529a1.79,1.79,0,0,1,0,2.529l-1.926,1.928a1.786,1.786,0,0,0-.351,2.034,14.3,14.3,0,0,1,.574,1.386,1.794,1.794,0,0,0,1.688,1.193h2.724a1.79,1.79,0,0,1,1.789,1.789Zm17.885-11.355v27.452a1.79,1.79,0,0,1-1.789,1.789,1.79,1.79,0,0,1-1.789-1.789v-27.452a1.792,1.792,0,0,0-1.191-1.687,8.954,8.954,0,0,1-5.963-8.42,8.95,8.95,0,0,1,3.577-7.142v8.93a1.788,1.788,0,0,0,1.789,1.789H198.6a1.788,1.788,0,0,0,1.789-1.789v-8.93a8.95,8.95,0,0,1,3.577,7.142,8.954,8.954,0,0,1-5.963,8.42A1.792,1.792,0,0,0,196.809-150.969Zm19.674,5.99h-16.1v-4.8a12.54,12.54,0,0,0,7.154-11.3,12.536,12.536,0,0,0-8.345-11.793,1.787,1.787,0,0,0-1.629.225,1.784,1.784,0,0,0-.757,1.461v10.107h-3.577v-10.107a1.784,1.784,0,0,0-.757-1.461,1.788,1.788,0,0,0-1.629-.225,12.536,12.536,0,0,0-8.345,11.793,12.54,12.54,0,0,0,7.154,11.3v4.8h-7.483a5.358,5.358,0,0,0-5.036-3.577h-.613l.433-.435a5.369,5.369,0,0,0,0-7.587l-2.529-2.529a5.491,5.491,0,0,0-7.587,0l-.435.433v-.613a5.372,5.372,0,0,0-5.366-5.366v-12.52H171.77v3.577h3.577v-10.731H171.77v3.577H161.039V-187.9a1.79,1.79,0,0,1,1.789-1.789h53.655a1.79,1.79,0,0,1,1.789,1.789v7.154H207.541v-3.577h-3.577V-173.6h3.577v-3.577h10.731v30.4A1.79,1.79,0,0,1,216.483-144.979Z" fill="#1e0b4b"/>
    <rect id="Rectangle_1235" data-name="Rectangle 1235" width="3" height="22" transform="translate(149 -190)" fill="#1e0b4b"/>
    <rect id="Rectangle_1236" data-name="Rectangle 1236" width="3" height="4" transform="translate(149 -197)" fill="#1e0b4b"/>
    <rect id="Rectangle_1237" data-name="Rectangle 1237" width="3" height="22" transform="translate(140 -183)" fill="#1e0b4b"/>
    <rect id="Rectangle_1238" data-name="Rectangle 1238" width="3" height="4" transform="translate(140 -190)" fill="#1e0b4b"/>
    <rect id="Rectangle_1239" data-name="Rectangle 1239" width="21" height="4" transform="translate(179 -181)" fill="#1e0b4b"/>
  </g>
</svg>
