<?xml version="1.0" encoding="utf-8"?>
<!-- Generator: Adobe Illustrator 24.2.3, SVG Export Plug-In . SVG Version: 6.00 Build 0)  -->
<svg version="1.1" id="Layer_1" xmlns="http://www.w3.org/2000/svg" xmlns:xlink="http://www.w3.org/1999/xlink" x="0px" y="0px"
	 viewBox="0 0 100 100" style="enable-background:new 0 0 100 100;" xml:space="preserve">
<style type="text/css">
	.st0{fill:#1E0B4B;}
</style>
<g>
	<g>
		<g>
			<g>
				<g>
					<path class="st0" d="M64.1,98.4c-1.9,0-27.4-3.4-32.5-4c-1-0.1-1.7-1-1.7-2V72.2c0-1.4,1.1-6,15.4-6c9.9,0,13.5,2.2,14.7,4h6.4
						c3.2,0,5.8,2.7,5.8,6c0,1.2-0.4,2.4-1,3.3l1,0.5L88,73.1c2.5-0.9,5.1-0.6,7.1,0.9c2,1.4,3.3,3.8,3.3,6.3c0,0.8-0.4,1.5-1.1,1.8
						L65,98.2C64.7,98.3,64.4,98.4,64.1,98.4z M33.9,90.6c10.9,1.4,26.8,3.5,29.8,3.8l30.5-15.2c-0.2-0.7-0.7-1.4-1.4-1.8
						c-1-0.7-2.2-0.8-3.3-0.4L73,84.1c-0.5,0.2-1.2,0.2-1.7,0l-3.8-1.9c-0.4,0.1-0.7,0.1-1.1,0.1H52v-4h14.3c1,0,1.8-0.9,1.8-2
						c0-1.1-0.8-2-1.8-2h-7.7c-1,0-1.8-0.7-2-1.7c-0.2-0.3-2-2.3-11.4-2.3c-9.1,0-11.1,1.9-11.4,2.3V90.6z M56.7,72.2L56.7,72.2
						L56.7,72.2z M56.7,72.2C56.7,72.2,56.7,72.2,56.7,72.2C56.7,72.2,56.7,72.2,56.7,72.2z M56.7,72.2
						C56.7,72.2,56.7,72.2,56.7,72.2C56.7,72.2,56.7,72.2,56.7,72.2z"/>
				</g>
				<g>
					<path class="st0" d="M31.9,96.4H19.8c-1.1,0-2-0.9-2-2V68.1c0-1.1,0.9-2,2-2h12.1c1.1,0,2,0.9,2,2v26.2
						C33.9,95.5,33,96.4,31.9,96.4z M21.8,92.3h8.1V70.2h-8.1V92.3z"/>
				</g>
			</g>
			<g>
				<path class="st0" d="M19.8,94.3H3.6c-1.1,0-2-0.9-2-2V70.2c0-1.1,0.9-2,2-2h16.1v4H5.7v18.1h14.1V94.3z"/>
			</g>
		</g>
	</g>
	<g>
		<g>
			<g>
				<g>
					<g>
						<path class="st0" d="M11.7,50H3.6c-1.1,0-2-0.9-2-2V31.9c0-5.6,4.5-10.1,10.1-10.1h16.1v4H11.7c-3.3,0-6,2.7-6,6V46h6V50z"/>
					</g>
					<g>
						<path class="st0" d="M19.8,21.8c-5.6,0-10.1-4.5-10.1-10.1S14.2,1.6,19.8,1.6s10.1,4.5,10.1,10.1S25.3,21.8,19.8,21.8z
							 M19.8,5.7c-3.3,0-6,2.7-6,6s2.7,6,6,6s6-2.7,6-6S23.1,5.7,19.8,5.7z"/>
					</g>
				</g>
				<g>
					<g>
						<path class="st0" d="M96.4,50h-8.1v-4h6V31.9c0-3.3-2.7-6-6-6H72.2v-4h16.1c5.6,0,10.1,4.5,10.1,10.1V48
							C98.4,49.1,97.5,50,96.4,50z"/>
					</g>
					<g>
						<path class="st0" d="M80.2,21.8c-5.6,0-10.1-4.5-10.1-10.1S74.7,1.6,80.2,1.6s10.1,4.5,10.1,10.1S85.8,21.8,80.2,21.8z
							 M80.2,5.7c-3.3,0-6,2.7-6,6s2.7,6,6,6s6-2.7,6-6S83.6,5.7,80.2,5.7z"/>
					</g>
				</g>
				<g>
					<g>
						<path class="st0" d="M66.1,50h-6v-4h4V31.9c0-3.3-2.7-6-6-6H41.9c-3.3,0-6,2.7-6,6V46h4v4h-6c-1.1,0-2-0.9-2-2V31.9
							c0-5.6,4.5-10.1,10.1-10.1h16.1c5.6,0,10.1,4.5,10.1,10.1V48C68.1,49.1,67.2,50,66.1,50z"/>
					</g>
					<g>
						<path class="st0" d="M50,21.8c-5.6,0-10.1-4.5-10.1-10.1S44.4,1.6,50,1.6s10.1,4.5,10.1,10.1S55.6,21.8,50,21.8z M50,5.7
							c-3.3,0-6,2.7-6,6s2.7,6,6,6s6-2.7,6-6S53.3,5.7,50,5.7z"/>
					</g>
				</g>
			</g>
			<g>
				<rect x="39.9" y="39.9" class="st0" width="4" height="28.2"/>
			</g>
			<g>
				<rect x="56" y="39.9" class="st0" width="4" height="30.2"/>
			</g>
			<g>
				<rect x="9.7" y="39.9" class="st0" width="4" height="30.2"/>
			</g>
			<g>
				<rect x="86.3" y="39.9" class="st0" width="4" height="34.3"/>
			</g>
		</g>
	</g>
	<g>
		<rect x="48" y="52" class="st0" width="4" height="16.1"/>
	</g>
	<g>
		<rect x="17.8" y="50" class="st0" width="4" height="18.1"/>
	</g>
	<g>
		<rect x="78.2" y="58.1" class="st0" width="4" height="20.2"/>
	</g>
</g>
</svg>
