<?xml version="1.0" encoding="utf-8"?>
<!-- Generator: Adobe Illustrator 24.2.3, SVG Export Plug-In . SVG Version: 6.00 Build 0)  -->
<svg version="1.1" id="Layer_1" xmlns="http://www.w3.org/2000/svg" xmlns:xlink="http://www.w3.org/1999/xlink" x="0px" y="0px"
	 viewBox="0 0 100 100" style="enable-background:new 0 0 100 100;" xml:space="preserve">
<style type="text/css">
	.st0{fill-rule:evenodd;clip-rule:evenodd;fill:#1E0B4B;}
	.st1{fill:#1E0B4B;}
</style>
<g>
	<path class="st0" d="M52.1,41c0.5,0,0.9-0.2,1.2-0.5l0.1-0.1c0.3-0.3,0.4-0.7,0.4-1.1c0-0.5-0.2-0.9-0.5-1.2L53.3,38
		c-0.3-0.3-0.7-0.4-1.1-0.4c-0.5,0-0.9,0.2-1.2,0.5l0,0c-0.3,0.3-0.5,0.7-0.5,1.2c0,0.5,0.2,0.9,0.5,1.2C51.2,40.8,51.7,41,52.1,41
		L52.1,41z M36.1,37.2c0.5,0,0.9-0.2,1.2-0.5l0,0c0.3-0.3,0.5-0.7,0.5-1.2c0-0.5-0.2-0.9-0.5-1.2c-0.3-0.3-0.7-0.5-1.2-0.5
		c-0.5,0-0.9,0.2-1.2,0.5l0,0l0,0c-0.3,0.3-0.5,0.7-0.5,1.2c0,0.5,0.2,0.9,0.5,1.2l0,0C35.2,37,35.7,37.2,36.1,37.2L36.1,37.2z
		 M81.1,36.7c0.5,0,0.9-0.2,1.2-0.5l0,0c0.3-0.3,0.5-0.7,0.5-1.2c0-0.5-0.2-0.9-0.5-1.2c-0.3-0.3-0.7-0.5-1.2-0.5
		c-0.5,0-0.9,0.2-1.2,0.5l0,0c-0.3,0.3-0.5,0.7-0.5,1.2c0,0.5,0.2,0.9,0.5,1.2l0,0C80.2,36.5,80.6,36.7,81.1,36.7L81.1,36.7z
		 M68,23.8c-0.6,0.3-1.3,0.5-2,0.5c-0.5,0-0.9-0.1-1.3-0.2l-8.9,12.5c0.6,0.8,0.9,1.7,0.9,2.7c0,1.2-0.5,2.3-1.2,3.1
		c0,0-0.1,0.1-0.1,0.1c-0.8,0.8-2,1.3-3.2,1.3c-1.3,0-2.4-0.5-3.2-1.3c-0.7-0.7-1.2-1.7-1.3-2.8L40,37.9c-0.2,0.3-0.4,0.6-0.7,0.8
		l0,0l0,0c-0.8,0.8-2,1.3-3.2,1.3c-0.8,0-1.6-0.2-2.3-0.6L22.8,52.7c0.4,0.7,0.7,1.5,0.7,2.4c0,1.3-0.5,2.4-1.3,3.2l0,0
		c-0.8,0.8-2,1.3-3.2,1.3c-1.2,0-2.3-0.5-3.1-1.2c0,0-0.1-0.1-0.1-0.1c-0.8-0.8-1.3-2-1.3-3.2c0-1.3,0.5-2.4,1.3-3.2l0,0l0,0
		c0.8-0.8,2-1.3,3.2-1.3c0.6,0,1.2,0.1,1.7,0.3l11.4-13.5c-0.2-0.6-0.4-1.2-0.4-1.8c0-1.3,0.5-2.4,1.3-3.2l0,0
		c0.8-0.8,2-1.3,3.2-1.3c1.3,0,2.4,0.5,3.2,1.3l0,0c0.7,0.7,1.2,1.7,1.3,2.8l7.6,1.8c0.2-0.3,0.4-0.6,0.7-0.8l0,0l0,0
		c0.8-0.8,2-1.3,3.2-1.3c0.5,0,0.9,0.1,1.3,0.2l8.9-12.6c-0.6-0.8-0.9-1.7-0.9-2.7c0-1.3,0.5-2.4,1.3-3.2c0.8-0.8,2-1.3,3.2-1.3
		c1.2,0,2.3,0.5,3.1,1.2c0,0,0.1,0.1,0.1,0.1c0.8,0.8,1.3,2,1.3,3.2c0,0.7-0.2,1.4-0.5,2.1l9,9.2c0.6-0.3,1.3-0.5,2-0.5
		c1.3,0,2.4,0.5,3.2,1.3l0,0c0.8,0.8,1.3,2,1.3,3.2c0,1.3-0.5,2.4-1.3,3.2l0,0l0,0c-0.8,0.8-2,1.3-3.2,1.3c-1.2,0-2.4-0.5-3.2-1.3
		l0,0l0,0l0,0c-0.8-0.8-1.3-2-1.3-3.2c0-0.7,0.2-1.5,0.5-2.1L68,23.8L68,23.8z M18.9,56.8c0.5,0,0.9-0.2,1.2-0.5l0,0
		c0.3-0.3,0.5-0.7,0.5-1.2c0-0.5-0.2-0.9-0.5-1.2c-0.3-0.3-0.7-0.5-1.2-0.5c-0.5,0-0.9,0.2-1.2,0.5l0,0c-0.3,0.3-0.5,0.7-0.5,1.2
		c0,0.5,0.2,0.9,0.5,1.2l0.1,0.1C18.1,56.6,18.5,56.8,18.9,56.8L18.9,56.8z"/>
	<path class="st1" d="M9.5,9.9v55h80.9v-55H9.5L9.5,9.9z M70.8,97.5c-2.5,0-4.5-2-4.5-4.5c0-0.3,0-0.6,0.1-0.8l-14.2-8.2v3.8h-4.5
		v-3.8l-14.2,8.2c0,0.3,0.1,0.5,0.1,0.8c0,2.5-2,4.5-4.5,4.5c-2.5,0-4.5-2-4.5-4.5c0-2.5,2-4.5,4.5-4.5c1.1,0,2.1,0.4,2.9,1.1
		l15.7-9V69.3H5.4c-1.2,0-2.2-1-2.2-2.2c0-1.2,1-2.2,2.2-2.2h1.1v-55H5.4c-1.2,0-2.2-1-2.2-2.2c0-1.2,1-2.2,2.2-2.2h42.3v-3h4.5v3
		h42.3c1.2,0,2.2,1,2.2,2.2c0,1.2-1,2.2-2.2,2.2h-1.1v55h1.1c1.2,0,2.2,1,2.2,2.2c0,1.2-1,2.2-2.2,2.2H52.2v11.3l15.7,9
		c0.8-0.7,1.8-1.1,2.9-1.1c2.5,0,4.5,2,4.5,4.5C75.3,95.5,73.3,97.5,70.8,97.5L70.8,97.5z"/>
</g>
</svg>
