<svg id="risk-free" xmlns="http://www.w3.org/2000/svg" width="64" height="64" viewBox="0 0 64 64">
  <path id="Path_6432" data-name="Path 6432" d="M32,0A32,32,0,1,0,64,32,32.036,32.036,0,0,0,32,0ZM61.926,30H48.951a38.1,38.1,0,0,0-3.368-14H57.358A29.788,29.788,0,0,1,61.926,30ZM55.984,14H44.61A40.65,40.65,0,0,0,35.164,2.168,30,30,0,0,1,55.984,14ZM33,2.966A38.119,38.119,0,0,1,42.347,14H33Zm-4.164-.8A40.649,40.649,0,0,0,19.39,14H8.016A30,30,0,0,1,28.836,2.168ZM31,2.97V14H21.664A38.308,38.308,0,0,1,31,2.97ZM6.642,16H18.417a38.241,38.241,0,0,0-3.393,15h-13A29.8,29.8,0,0,1,6.642,16ZM2.025,33h13a38.241,38.241,0,0,0,3.393,15H6.642A29.8,29.8,0,0,1,2.025,33ZM8.016,50H19.39a40.65,40.65,0,0,0,9.446,11.832A30,30,0,0,1,8.016,50ZM31,61.034A38.119,38.119,0,0,1,21.653,50H31ZM20.606,48A36.425,36.425,0,0,1,17,32a36.377,36.377,0,0,1,3.616-16H43.394A36.425,36.425,0,0,1,47,32a36.377,36.377,0,0,1-3.616,16ZM33,50h9.336A38.308,38.308,0,0,1,33,61.03Zm2.164,11.832A40.65,40.65,0,0,0,44.61,50H55.984A30,30,0,0,1,35.164,61.832ZM45.583,48A38.322,38.322,0,0,0,49,32H62a29.81,29.81,0,0,1-4.642,16Z" fill="#1e0b4b"/>
  <path id="Path_6433" data-name="Path 6433" d="M32,19a8,8,0,0,0-3.145,15.354L27.019,43.81A1,1,0,0,0,28,45h8a1,1,0,0,0,.981-1.19l-1.836-9.456A8,8,0,0,0,32,19Zm1.715,13.748a1,1,0,0,0-.7,1.148L34.787,43H29.213l1.768-9.1a1,1,0,0,0-.7-1.148,6,6,0,1,1,3.43,0Z" fill="#1e0b4b"/>
  <path id="Path_6434" data-name="Path 6434" d="M32,23a4,4,0,1,0,4,4A4,4,0,0,0,32,23Zm0,6a2,2,0,1,1,2-2A2,2,0,0,1,32,29Z" fill="#1e0b4b"/>
  <rect id="Rectangle_376" data-name="Rectangle 376" width="2" height="2" transform="translate(43 32)" fill="#1e0b4b"/>
  <rect id="Rectangle_377" data-name="Rectangle 377" width="2" height="2" transform="translate(43 28)" fill="#1e0b4b"/>
  <rect id="Rectangle_378" data-name="Rectangle 378" width="2" height="2" transform="translate(19 32)" fill="#1e0b4b"/>
  <rect id="Rectangle_379" data-name="Rectangle 379" width="2" height="2" transform="translate(19 28)" fill="#1e0b4b"/>
</svg>
