<svg id="service-now" xmlns="http://www.w3.org/2000/svg" width="72.84" height="87.408" viewBox="0 0 72.84 87.408">
  <g id="Group_2561" data-name="Group 2561" transform="translate(0 47.346)">
    <path id="Path_6532" data-name="Path 6532" d="M75.019,66.062H54.988a1.822,1.822,0,0,1-1.821-1.821,12.747,12.747,0,1,0-25.494,0,1.822,1.822,0,0,1-1.821,1.821H5.821A1.822,1.822,0,0,1,4,64.241V56.957a1.822,1.822,0,0,1,1.821-1.821H14.1a27.042,27.042,0,0,1,2.564-6.168l-5.862-5.862a1.821,1.821,0,0,1,0-2.577l7.725-7.725a1.821,1.821,0,0,1,2.577,0l5.862,5.862A27.042,27.042,0,0,1,33.136,36.1V27.821A1.822,1.822,0,0,1,34.957,26H45.883A1.822,1.822,0,0,1,47.7,27.821V36.1a27.042,27.042,0,0,1,6.168,2.564l5.862-5.862a1.821,1.821,0,0,1,2.577,0l7.725,7.725a1.821,1.821,0,0,1,0,2.577l-5.862,5.862a27.042,27.042,0,0,1,2.564,6.168h8.282a1.822,1.822,0,0,1,1.821,1.821v7.284A1.822,1.822,0,0,1,75.019,66.062ZM56.709,62.42H73.2V58.778H65.313a1.82,1.82,0,0,1-1.779-1.431,23.437,23.437,0,0,0-3.19-7.674A1.824,1.824,0,0,1,60.59,47.4l5.583-5.581-5.152-5.152L55.44,42.251a1.824,1.824,0,0,1-2.273.246,23.437,23.437,0,0,0-7.674-3.19,1.82,1.82,0,0,1-1.431-1.779V29.642H36.778v7.885a1.82,1.82,0,0,1-1.431,1.779,23.437,23.437,0,0,0-7.674,3.19,1.824,1.824,0,0,1-2.273-.246l-5.581-5.583-5.152,5.152L20.251,47.4a1.824,1.824,0,0,1,.246,2.273,23.437,23.437,0,0,0-3.19,7.674,1.82,1.82,0,0,1-1.779,1.431H7.642V62.42H24.131a16.391,16.391,0,0,1,32.578,0Z" transform="translate(-4 -26)" fill="#1e0b4b"/>
  </g>
  <g id="Group_2562" data-name="Group 2562" transform="translate(50.988 30.957)">
    <path id="Path_6533" data-name="Path 6533" d="M46.568,40.673H42.926V20.642H35.642v7.284H32V18.821A1.822,1.822,0,0,1,33.821,17H44.747a1.822,1.822,0,0,1,1.821,1.821Z" transform="translate(-32 -17)" fill="#1e0b4b"/>
  </g>
  <g id="Group_2563" data-name="Group 2563" transform="translate(49 31)">
    <rect id="Rectangle_413" data-name="Rectangle 413" width="18" height="4" transform="translate(0 0.011)" fill="#1e0b4b"/>
  </g>
  <g id="Group_2566" data-name="Group 2566" transform="translate(50.988)">
    <g id="Group_2564" data-name="Group 2564" transform="translate(5.012 15)">
      <rect id="Rectangle_414" data-name="Rectangle 414" width="4" height="18" transform="translate(0 0.011)" fill="#1e0b4b"/>
    </g>
    <g id="Group_2565" data-name="Group 2565">
      <path id="Path_6534" data-name="Path 6534" d="M41.105,16.389H37.463a1.816,1.816,0,0,1-1.287-.534l-3.642-3.642A1.816,1.816,0,0,1,32,10.926V1.821A1.822,1.822,0,0,1,33.821,0H44.747a1.822,1.822,0,0,1,1.821,1.821v9.105a1.816,1.816,0,0,1-.534,1.287l-3.642,3.642A1.816,1.816,0,0,1,41.105,16.389Zm-2.888-3.642h2.134l2.575-2.575V3.642H35.642v6.53Z" transform="translate(-32)" fill="#1e0b4b"/>
    </g>
  </g>
  <g id="Group_2567" data-name="Group 2567" transform="translate(23.673 0.636)">
    <path id="Path_6535" data-name="Path 6535" d="M37.031,43.417H33.389v-21.5a1.817,1.817,0,0,1,.909-1.575A9.085,9.085,0,0,0,35.21,5.189v5.45a5.463,5.463,0,0,1-10.926,0V5.189A9.085,9.085,0,0,0,25.2,20.338a1.817,1.817,0,0,1,.909,1.575v21.5H22.463V22.909A12.729,12.729,0,0,1,25.5.453,1.821,1.821,0,0,1,27.926,2.17v8.469a1.821,1.821,0,1,0,3.642,0V2.17A1.821,1.821,0,0,1,34,.453a12.729,12.729,0,0,1,3.034,22.457Z" transform="translate(-17 -0.349)" fill="#1e0b4b"/>
  </g>
  <g id="Group_2568" data-name="Group 2568" transform="translate(51 46)">
    <rect id="Rectangle_415" data-name="Rectangle 415" width="4" height="3" transform="translate(0 0.011)" fill="#1e0b4b"/>
  </g>
  <g id="Group_2569" data-name="Group 2569" transform="translate(18 46)">
    <rect id="Rectangle_416" data-name="Rectangle 416" width="4" height="3" transform="translate(0 0.011)" fill="#1e0b4b"/>
  </g>
  <g id="Group_2575" data-name="Group 2575" transform="translate(5 0.051)">
    <g id="Group_2570" data-name="Group 2570" transform="translate(2.284 30.906)">
      <path id="Path_6536" data-name="Path 6536" d="M11.642,40.673H8V18.821A1.822,1.822,0,0,1,9.821,17H20.747a1.822,1.822,0,0,1,1.821,1.821v9.105H18.926V20.642H11.642Z" transform="translate(-8 -17)" fill="#1e0b4b"/>
    </g>
    <g id="Group_2571" data-name="Group 2571" transform="translate(0 30.949)">
      <rect id="Rectangle_417" data-name="Rectangle 417" width="19" height="4" transform="translate(0 0.011)" fill="#1e0b4b"/>
    </g>
    <g id="Group_2574" data-name="Group 2574" transform="translate(4.105)">
      <g id="Group_2572" data-name="Group 2572" transform="translate(0 14.517)">
        <path id="Path_6537" data-name="Path 6537" d="M19.926,26.21H16.284V11.642H12.642V26.21H9V9.821A1.822,1.822,0,0,1,10.821,8h7.284a1.822,1.822,0,0,1,1.821,1.821Z" transform="translate(-9 -8)" fill="#1e0b4b"/>
      </g>
      <g id="Group_2573" data-name="Group 2573">
        <path id="Path_6538" data-name="Path 6538" d="M19.926,16.366H16.284V7.813L14.463,5.081,12.642,7.813v8.553H9V7.261A1.831,1.831,0,0,1,9.306,6.25L12.948.787a1.891,1.891,0,0,1,3.03,0L19.62,6.25a1.831,1.831,0,0,1,.306,1.011Z" transform="translate(-9 -0.028)" fill="#1e0b4b"/>
      </g>
    </g>
  </g>
</svg>
