<?xml version="1.0" encoding="utf-8"?>
<!-- Generator: Adobe Illustrator 24.2.3, SVG Export Plug-In . SVG Version: 6.00 Build 0)  -->
<svg version="1.1" id="Layer_1" xmlns="http://www.w3.org/2000/svg" xmlns:xlink="http://www.w3.org/1999/xlink" x="0px" y="0px"
	 viewBox="0 0 100 100" style="enable-background:new 0 0 100 100;" xml:space="preserve">
<style type="text/css">
	.st0{fill:#1E0B4B;}
</style>
<g>
	<path class="st0" d="M50,66.7c3.7,0,6.7-3,6.7-6.7c0-3.6,0-6.1,2.7-9.8c3.6-4.9,2.8-11.7-1.6-15.7c-7-6.3-18-2-19.4,6.9
		c-1.3,8.6,4.9,8.3,4.9,16.9V60C43.3,63.7,46.3,66.7,50,66.7z M50,63.3c-1.8,0-3.3-1.5-3.3-3.3h6.7C53.4,61.8,51.9,63.3,50,63.3z
		 M41.7,41.9c1-6.3,8.8-9.4,13.8-4.9c3.2,2.9,3.8,7.7,1.2,11.2c-2,2.7-3.1,5.6-3.3,8.4h-6.8C45.9,48.3,40.7,48.3,41.7,41.9z"/>
	<path class="st0" d="M83.2,16.8c-1.6-1.6-3.9,0.8-2.4,2.4c2.3,2.3,4.3,4.9,6,7.6L81,30.1c-1.4-2.2-3.1-4.3-5-6.2
		c-0.7-0.7-1.7-0.7-2.4,0l-6,6c-6.5-5.7-15.1-7.8-23-6.2L43,17.2c5.2-1.1,10.6-1,15.7,0.4c4.4,1.2,7,2.8,8.1,3.3
		c0.4,0.4,1.7,0.4,2.3-0.6c5.2-9,5.3-8.9,5.2-9.8C73.8,7.4,48.8-3.6,26.6,9.3c-0.8,0.5-1,1.6-0.6,2.3c5.4,9.4,5.2,9.5,6.5,9.5
		c1.3,0,2.1-1.4,1.4-2.5l-4.2-7.2c12.7-6.8,28-6.7,40.6,0L67,17.2c-10.4-5.4-28-5.1-27.7-1.1c0,0.5-0.3-1,2.2,8.4
		c-3.3,1.1-6.5,2.9-9.2,5.3L19.2,16.8c-0.7-0.7-1.7-0.7-2.4,0C8,25.6,3.1,37.5,3.1,49.9c0,0.9,0.7,1.7,1.7,1.7c3,0,0.5-3.1,3.2-13
		c1.7-6.5,5.1-12.8,10.1-18.3l11.8,11.8c-7.4,8.4-8.6,20.1-3.9,29.6l-7.3,4.2c-1.9,1.1-0.2,4,1.7,2.9l7.3-4.2
		c3.3,4.9,8.1,8.7,13.8,10.6c-2.3,8.6-2.5,8.6-2,9.4c0.4,0.7,1.2,0.8,1,0.8c2.6,0.6,4.9,1.1,7.9,1.2v6.7
		C37.9,93,28.2,89.1,20.4,81.9l4.7-4.7c1.3,1.2,5.9,4.9,7.2,4.9c1.7,0,2.3-2.3,0.8-3.1c-2.5-1.4-4.8-3.2-6.9-5.3
		c-0.7-0.7-1.7-0.7-2.4,0l-5.9,5.9c-4.6-5-7.8-10.7-9.7-16.7c9.5-2.5,7.9-2.1,8.3-2.3c3.2-1.5-4.8-11.7,4.3-27.3
		c1.1-1.9-1.8-3.6-2.9-1.7c-4.6,8-5.9,17.2-4.2,25.9c0.1,0.6,0.9,0.2-8,2.6c-0.4,0.1-0.5,0.3-0.7,0.4c-0.6,0.6-0.5,1.1-0.5,1.6
		c0.2,0.4,2.4,11.2,12.1,21C25.7,92,37.6,96.8,50,96.8c0.9,0,1.7-0.7,1.7-1.7v-10c0-0.9-0.7-1.7-1.7-1.7c-2.4,0-4.7-0.3-7-0.8
		l1.7-6.5c6,1.2,12,0.3,17.2-2.3l4.2,7.3c1.1,1.9,4,0.2,2.9-1.7l-4.2-7.3c5.5-3.6,9.4-9.1,11.1-15.4c0.6-2.1-2.7-3-3.2-0.9
		c-3.2,12-15.4,19.9-28.7,16.6c-21.7-7.2-22.6-33.2-5.7-43c14-8.1,31.3,0.5,34.4,14.2c0.2,0.8,1.1,1.4,2,1.2c0.2,0-1.2,0.3,8-2.2
		c0.5,2.3,0.8,4.7,0.8,7c0,2.2,3.3,2.2,3.3,0c0-5.4-1.3-9.7-1.2-9.5c-0.2-0.8-1.1-1.4-2.1-1.2l-8.1,2.2c-1.1-3.4-2.9-6.5-5.3-9.2
		l4.7-4.7c6.9,7.6,2,8.9,13.7,2.2c8.4,15.8,6.4,35.9-6.6,49.9l-4.7-4.7c4.2-4.5,6.9-9.8,8.4-15.3c0.6-2.1-2.7-3-3.2-0.9
		C78.8,71.9,71.1,73.4,73.7,76l5.9,5.9c-5,4.7-10.7,7.8-16.7,9.6l-2.1-8c-0.6-2.1-3.8-1.3-3.2,0.9c0,0.2,2.5,9.5,2.6,9.7
		c0.2,0.9,1.1,1.4,2.1,1.2c1.7-0.6,5.8-1.5,11.3-4.7C100.2,75.1,104.9,38.5,83.2,16.8z"/>
</g>
</svg>
