<svg id="web-design" xmlns="http://www.w3.org/2000/svg" width="91.819" height="87.408" viewBox="0 0 91.819 87.408">
  <g id="Group_2537" data-name="Group 2537" transform="translate(15.236 7.618)">
    <g id="Group_2530" data-name="Group 2530" transform="translate(24.859 26.062)">
      <path id="Path_6511" data-name="Path 6511" d="M764.236,574.5h-5.31a1.758,1.758,0,0,1-1.756-1.756v-5.309a1.758,1.758,0,0,1,1.756-1.756h5.31a1.757,1.757,0,0,1,1.755,1.756v5.309A1.758,1.758,0,0,1,764.236,574.5Zm-4.259-2.807h3.208v-3.208h-3.208Z" transform="translate(-757.17 -565.681)" fill="#1e0b4b"/>
    </g>
    <g id="Group_2531" data-name="Group 2531" transform="translate(2.807 0)">
      <path id="Path_6512" data-name="Path 6512" d="M709.236,509.5h-5.31a1.758,1.758,0,0,1-1.756-1.756v-5.309a1.758,1.758,0,0,1,1.756-1.756h5.31a1.757,1.757,0,0,1,1.755,1.756v5.309A1.758,1.758,0,0,1,709.236,509.5Zm-4.259-2.807h3.208v-3.208h-3.208Z" transform="translate(-702.17 -500.681)" fill="#1e0b4b"/>
    </g>
    <g id="Group_2532" data-name="Group 2532" transform="translate(46.511 0)">
      <path id="Path_6513" data-name="Path 6513" d="M818.236,509.5h-5.31a1.758,1.758,0,0,1-1.756-1.756v-5.309a1.758,1.758,0,0,1,1.756-1.756h5.31a1.757,1.757,0,0,1,1.755,1.756v5.309A1.758,1.758,0,0,1,818.236,509.5Zm-4.259-2.807h3.208v-3.208h-3.208Z" transform="translate(-811.17 -500.681)" fill="#1e0b4b"/>
    </g>
    <g id="Group_2533" data-name="Group 2533" transform="translate(0 28.869)">
      <path id="Path_6514" data-name="Path 6514" d="M721.032,575.488H696.573a1.4,1.4,0,1,1,0-2.807h24.458a1.4,1.4,0,0,1,0,2.807Z" transform="translate(-695.17 -572.681)" fill="#1e0b4b"/>
    </g>
    <g id="Group_2534" data-name="Group 2534" transform="translate(31.275 28.869)">
      <path id="Path_6515" data-name="Path 6515" d="M800.234,575.488H774.573a1.4,1.4,0,1,1,0-2.807h25.661a1.4,1.4,0,0,1,0,2.807Z" transform="translate(-773.17 -572.681)" fill="#1e0b4b"/>
    </g>
    <g id="Group_2535" data-name="Group 2535" transform="translate(5.813 6.281)">
      <path id="Path_6516" data-name="Path 6516" d="M729.205,541.315a1.4,1.4,0,0,1-.277-.028,24.062,24.062,0,0,1-19.261-23.538,1.4,1.4,0,1,1,2.807,0,21.247,21.247,0,0,0,17.006,20.786,1.4,1.4,0,0,1-.275,2.779Z" transform="translate(-709.667 -516.346)" fill="#1e0b4b"/>
    </g>
    <g id="Group_2536" data-name="Group 2536" transform="translate(31.906 6.281)">
      <path id="Path_6517" data-name="Path 6517" d="M776.147,541.315a1.4,1.4,0,0,1-.275-2.779,21.248,21.248,0,0,0,17.006-20.786,1.4,1.4,0,1,1,2.807,0,24.062,24.062,0,0,1-19.261,23.538A1.4,1.4,0,0,1,776.147,541.315Z" transform="translate(-774.745 -516.346)" fill="#1e0b4b"/>
    </g>
  </g>
  <g id="Group_2538" data-name="Group 2538">
    <path id="Path_6518" data-name="Path 6518" d="M739.063,544.631H667.1a9.937,9.937,0,0,1-9.926-9.926v-43.1a9.937,9.937,0,0,1,9.926-9.926h71.967a9.937,9.937,0,0,1,9.926,9.926v43.1A9.937,9.937,0,0,1,739.063,544.631ZM667.1,484.488a7.127,7.127,0,0,0-7.119,7.119v43.1a7.127,7.127,0,0,0,7.119,7.119h71.967a7.127,7.127,0,0,0,7.119-7.119v-43.1a7.127,7.127,0,0,0-7.119-7.119Z" transform="translate(-657.17 -481.681)" fill="#1e0b4b"/>
  </g>
  <g id="Group_2539" data-name="Group 2539" transform="translate(0 47.714)">
    <path id="Path_6519" data-name="Path 6519" d="M733.151,603.488H658.573a1.4,1.4,0,0,1,0-2.807h74.578a1.4,1.4,0,0,1,0,2.807Z" transform="translate(-657.17 -600.681)" fill="#1e0b4b"/>
  </g>
  <g id="Group_2540" data-name="Group 2540" transform="translate(21.652 64.955)">
    <path id="Path_6520" data-name="Path 6520" d="M758.082,666.135H711.17v-5.845a2.3,2.3,0,0,1,1.06-1.944l7.075-4.553a7.581,7.581,0,0,0,3.493-6.4v-2.307a1.4,1.4,0,0,1,2.807,0v2.307a10.378,10.378,0,0,1-4.78,8.761l-6.847,4.406v2.769h41.3v-2.769l-6.847-4.406a10.377,10.377,0,0,1-4.781-8.761v-2.307a1.4,1.4,0,0,1,2.807,0v2.307a7.582,7.582,0,0,0,3.493,6.4l7.074,4.552a2.3,2.3,0,0,1,1.06,1.944Z" transform="translate(-711.17 -643.681)" fill="#1e0b4b"/>
  </g>
  <g id="Group_2541" data-name="Group 2541" transform="translate(22.053 79.389)">
    <path id="Path_6521" data-name="Path 6521" d="M736.027,682.488H713.573a1.4,1.4,0,1,1,0-2.807h22.453a1.4,1.4,0,0,1,0,2.807Z" transform="translate(-712.17 -679.681)" fill="#1e0b4b"/>
  </g>
</svg>
