<svg id="web-development" xmlns="http://www.w3.org/2000/svg" width="136.159" height="87.408" viewBox="0 0 136.159 87.408">
  <g id="Group_2475" data-name="Group 2475" transform="translate(69.616 59.902)">
    <circle id="Ellipse_63" data-name="Ellipse 63" cx="2.57" cy="2.57" r="2.57" fill="#1e0b4b"/>
  </g>
  <g id="Group_2476" data-name="Group 2476" transform="translate(44.158 69.66)">
    <path id="Path_6467" data-name="Path 6467" d="M435.651,500.425H374.7a1.663,1.663,0,0,1,0-3.326h60.948a1.663,1.663,0,0,1,0,3.326Z" transform="translate(-373.041 -497.099)" fill="#1e0b4b"/>
  </g>
  <g id="Group_2477" data-name="Group 2477" transform="translate(22.024)">
    <path id="Path_6468" data-name="Path 6468" d="M459.931,498.093a1.663,1.663,0,0,1-1.664-1.664V467.58a4.212,4.212,0,0,0-4.205-4.209H368.8a4.212,4.212,0,0,0-4.205,4.209v18.741a1.663,1.663,0,1,1-3.326,0V467.58a7.541,7.541,0,0,1,7.531-7.535h85.263a7.543,7.543,0,0,1,7.533,7.535v28.85A1.663,1.663,0,0,1,459.931,498.093Z" transform="translate(-361.267 -460.045)" fill="#1e0b4b"/>
  </g>
  <g id="Group_2478" data-name="Group 2478" transform="translate(58.173 69.953)">
    <path id="Path_6469" data-name="Path 6469" d="M406.969,514.71H382.049a1.553,1.553,0,0,1-1.526-1.837l2.654-14.348a1.553,1.553,0,0,1,1.527-1.271h19.612a1.552,1.552,0,0,1,1.526,1.271l2.655,14.348a1.556,1.556,0,0,1-1.527,1.837ZM383.916,511.6H405.1l-2.079-11.244H385.995Z" transform="translate(-380.496 -497.255)" fill="#1e0b4b"/>
  </g>
  <g id="Group_2479" data-name="Group 2479" transform="translate(53.911 84.303)">
    <path id="Path_6470" data-name="Path 6470" d="M413.226,507.994H379.782a1.553,1.553,0,0,1,0-3.106h33.444a1.553,1.553,0,1,1,0,3.106Z" transform="translate(-378.229 -504.888)" fill="#1e0b4b"/>
  </g>
  <g id="Group_2480" data-name="Group 2480" transform="translate(44.267 52.697)">
    <path id="Path_6471" data-name="Path 6471" d="M435.6,491.184H374.652a1.554,1.554,0,0,1,0-3.108H435.6a1.554,1.554,0,0,1,0,3.108Z" transform="translate(-373.099 -488.076)" fill="#1e0b4b"/>
  </g>
  <g id="Group_2481" data-name="Group 2481" transform="translate(0 24.723)">
    <path id="Path_6472" data-name="Path 6472" d="M391.232,535.881H355.244a5.7,5.7,0,0,1-5.693-5.693v-51.3a5.7,5.7,0,0,1,5.693-5.692h35.988a5.7,5.7,0,0,1,5.693,5.692v51.3A5.7,5.7,0,0,1,391.232,535.881ZM355.244,476.3a2.589,2.589,0,0,0-2.587,2.585v51.3a2.589,2.589,0,0,0,2.587,2.587h35.988a2.589,2.589,0,0,0,2.587-2.587v-51.3a2.589,2.589,0,0,0-2.587-2.585Z" transform="translate(-349.552 -473.196)" fill="#1e0b4b"/>
  </g>
  <g id="Group_2482" data-name="Group 2482" transform="translate(105.215 34.832)">
    <path id="Path_6473" data-name="Path 6473" d="M430.784,531.15H411.2a5.685,5.685,0,0,1-5.679-5.679V484.254a5.687,5.687,0,0,1,5.679-5.681h19.585a5.687,5.687,0,0,1,5.679,5.681V525.47A5.685,5.685,0,0,1,430.784,531.15ZM411.2,481.681a2.576,2.576,0,0,0-2.574,2.574V525.47a2.577,2.577,0,0,0,2.574,2.574h19.585a2.579,2.579,0,0,0,2.574-2.574V484.254a2.577,2.577,0,0,0-2.574-2.574Z" transform="translate(-405.519 -478.573)" fill="#1e0b4b"/>
  </g>
  <g id="Group_2483" data-name="Group 2483" transform="translate(119.12 79.852)">
    <circle id="Ellipse_64" data-name="Ellipse 64" cx="1.567" cy="1.567" r="1.567" fill="#1e0b4b"/>
  </g>
  <g id="Group_2484" data-name="Group 2484" transform="translate(21.912 78.685)">
    <circle id="Ellipse_65" data-name="Ellipse 65" cx="1.775" cy="1.775" r="1.775" fill="#1e0b4b"/>
  </g>
  <g id="Group_2485" data-name="Group 2485" transform="translate(115.91 40.618)">
    <path id="Path_6474" data-name="Path 6474" d="M418.809,484.759h-6.046a1.554,1.554,0,1,1,0-3.108h6.046a1.554,1.554,0,0,1,0,3.108Z" transform="translate(-411.208 -481.651)" fill="#1e0b4b"/>
  </g>
  <g id="Group_2486" data-name="Group 2486" transform="translate(105.501 75.563)">
    <path id="Path_6475" data-name="Path 6475" d="M434.489,503.347H407.226a1.554,1.554,0,1,1,0-3.107h27.263a1.554,1.554,0,0,1,0,3.107Z" transform="translate(-405.671 -500.239)" fill="#1e0b4b"/>
  </g>
  <g id="Group_2487" data-name="Group 2487" transform="translate(0.457 73.777)">
    <path id="Path_6476" data-name="Path 6476" d="M394.7,502.395H351.348a1.553,1.553,0,0,1,0-3.106H394.7a1.553,1.553,0,0,1,0,3.106Z" transform="translate(-349.795 -499.289)" fill="#1e0b4b"/>
  </g>
</svg>
