<?xml version="1.0" encoding="UTF-8"?> <svg xmlns="http://www.w3.org/2000/svg" version="1.2" viewBox="0 0 24 12" width="24" height="12"><title>Path 48</title><style> tspan { white-space:pre } .shp0 { fill: #272d3a } </style><path id="Path 48" class="shp0" d="M0.46 5.77C0.48 5.76 0.5 5.74 0.51 5.72C0.67 5.28 1 5.09 1.47 5.09C7.72 5.1 13.98 5.09 20.23 5.09C20.32 5.09 20.41 5.09 20.56 5.09C20.48 5.01 20.42 4.95 20.37 4.9C19.39 3.92 18.4 2.94 17.42 1.95C16.89 1.43 17.1 0.6 17.8 0.41C18.16 0.31 18.46 0.43 18.72 0.69C19.59 1.56 20.47 2.42 21.34 3.29C22.02 3.96 22.69 4.64 23.36 5.31C23.79 5.73 23.79 6.26 23.36 6.69C21.82 8.23 20.27 9.77 18.72 11.31C18.44 11.59 18.12 11.7 17.73 11.57C17.37 11.45 17.17 11.18 17.13 10.8C17.09 10.48 17.22 10.23 17.45 10.01C18.42 9.05 19.39 8.08 20.35 7.12C20.41 7.06 20.47 7 20.56 6.91C20.43 6.91 20.34 6.91 20.25 6.91C14.04 6.91 7.84 6.9 1.63 6.91C1.07 6.91 0.68 6.75 0.46 6.23L0.46 5.77Z"></path></svg> 